<?xml version="1.0" encoding="UTF-8" standalone="no"?>
<!DOCTYPE svg PUBLIC "-//W3C//DTD SVG 1.1//EN" "http://www.w3.org/Graphics/SVG/1.1/DTD/svg11.dtd">
<svg xmlns="http://www.w3.org/2000/svg" version="1.1" viewBox="0 0 902 1162" width="902.0pt" height="1162.0pt">                  <path                id="AD"                data-name="Adamawa"                data-id="AD"                style="fill: #e9ffbe"                transform="matrix(1.00059 0 0 0.9999187 0 0)"                d="M285.259 715.6054L287.329 713.7354L288.649 711.6554L290.729 707.1254L290.539 705.7054L289.789 704.1954L288.079 702.3954L287.229 700.8854L286.759 698.7054L287.139 694.8354L287.049 691.8454L288.4391 690.7754L288.739 688.4554L287.799 686.0154L284.579 684.7854L280.039 684.4154L277.199 683.0054L277.959 681.7654L279.6591 672.0255L278.7291 668.7054L282.3091 667.5854L283.8791 667.8154L286.3491 669.1555L287.4691 669.1555L289.489 668.0355L290.389 666.9155L295.319 667.3655L299.809 664.8955L300.259 662.6555L300.929 661.3055L300.2791 658.6055L301.9791 658.6356L301.3391 657.7556L302.0691 656.9255L302.3591 654.0656L301.5991 652.5956L302.3791 651.5256L304.429 651.2856L305.419 650.3756L307.609 651.7856L308.369 651.7656L309.049 651.0456L309.829 651.0956L310.399 650.5656L311.389 650.4755L311.8091 649.5455L311.5891 648.6255L312.3191 647.2955L313.119 646.5355L313.2191 646.0355L314.329 645.5155L314.7491 644.8955L314.6991 643.5955L315.1691 642.7855L314.5691 641.4855L315.1291 639.5455L315.8791 638.6455L318.3191 637.6855L318.4491 635.9555L316.8791 633.4255L317.9091 631.5355L319.5691 630.8155L319.2291 630.1555L319.2491 629.3255L317.7791 629.1455L317.989 627.4555L317.6291 626.2055L316.869 625.4755L315.3091 625.5555L315.209 624.7255L315.3491 624.0155L316.2191 623.0455L316.5891 621.5955L317.4791 620.1955L318.4791 619.6255L321.0091 619.1155L324.2591 615.4855L326.0491 615.0455L328.9691 613.6955L329.6391 612.3455L330.7591 611.2255L335.4691 609.4255L337.0391 607.4055L340.7691 604.1355L342.9891 603.9355L344.0791 603.3255L344.6191 602.7155L345.0591 601.4455L348.9291 602.2455L350.0491 600.8955L350.4991 599.7755L350.0491 597.5255L340.9391 587.9855L340.6791 587.5656L340.3491 584.1055L336.1491 584.2755L334.1291 583.6055L334.3491 582.4855L339.2891 579.5656L345.1891 571.8655L352.9191 563.6356L355.6391 560.0056L358.7991 557.0956L360.8191 552.5956L363.3991 550.8056L363.0591 544.4256L362.5391 543.1556L363.4791 541.7456L363.9791 541.4656L364.3791 540.5656L365.0691 534.8256L365.5391 533.8956L366.9291 532.3755L367.0391 530.7455L367.6291 530.2656L367.7191 529.0555L369.2991 527.1555L370.6391 524.0455L376.4591 518.9055L378.4091 515.2055L380.4691 513.3555L380.9391 512.7455L381.1791 511.3156L382.3891 510.2956L383.3191 508.3456L383.5491 507.1356L382.7191 504.4256L382.9591 502.1456L382.6791 500.2256L381.9291 497.9756L382.4791 496.1456L385.3391 492.3256L385.9691 490.4756L387.0991 489.6756L391.6091 495.6756L396.5491 500.8856L405.9991 509.8456L410.7591 513.3356L419.0691 515.2556L424.1191 515.1956L425.7191 518.1356L426.7891 521.3456L425.4491 525.8856L425.9891 532.5656L444.9091 541.1155L461.3192 543.2155L465.4792 545.3655L470.2292 547.2656L477.1591 548.3256L484.7791 548.5455L488.4192 548.0756L489.9091 548.6956L491.1591 546.6956L490.6591 542.5156L491.2191 541.3055L491.3991 539.8356L493.9791 537.5856L497.5191 537.4556L501.6791 538.2156L503.1991 539.1056L504.7091 540.8756L505.8492 542.8956L507.6092 544.4156L512.9092 546.3057L513.9192 548.0757L516.5692 550.3557L517.7092 550.7357L519.2192 550.6057L520.2292 547.9557L521.9993 546.4357L525.3993 545.8057L526.9193 544.6656L531.7093 542.3856L534.2393 542.6456L536.1293 543.5256L537.5193 543.6556L540.0394 543.1456L541.6794 543.1456L543.5394 541.8956L547.8794 541.5356L553.7894 540.3757L554.8994 540.9357L555.5494 542.7457L555.7494 544.1457L555.2494 545.1557L555.0494 546.6057L555.5094 547.8657L560.9994 549.8857L563.0694 549.7758L579.0694 551.4557L581.1994 553.4257L582.0194 559.8257L585.6294 562.2858L588.4094 563.4358L588.0794 566.5558L590.8694 568.6858L594.7994 575.4158L599.2194 576.8958L600.6893 579.0258L601.6793 583.7858L601.6793 588.3758L600.3693 593.1158L608.8893 594.4658L620.7593 594.0157L623.6793 600.0657L625.1693 602.5258L630.3193 603.1458L632.1693 606.0057L635.0293 607.5258L639.5693 606.8558L641.7593 606.1758L645.6293 603.6558L649.8293 601.4658L651.0093 600.2858L652.6893 599.7758L654.7093 600.1158L664.9693 595.9058L670.3593 592.8757L672.3793 592.0258L674.0593 591.8658L676.2393 592.3658L678.4293 592.0258L682.9693 589.3358L685.4993 586.6357L687.8493 583.2758L689.0293 582.5958L691.7193 581.5858L693.9093 581.4158L698.4493 582.9358L696.5993 583.9458L694.2693 586.9958L693.8893 587.9558L694.0993 588.2458L693.3093 588.9758L693.0693 589.9457L691.4993 592.1857L691.7993 595.4057L692.7393 596.1257L691.1193 599.3257L689.8593 602.2657L689.7893 603.0257L689.2193 603.1157L688.5293 602.7657L687.0193 603.4158L686.2493 605.6458L685.7292 605.9758L685.5392 606.8758L684.8492 607.4158L683.9293 613.7057L684.3992 615.7958L684.1093 616.3858L683.3093 616.7858L681.8293 619.2858L681.3093 621.3658L679.9993 623.3959L679.7593 624.7959L678.8293 627.0859L677.2593 629.3058L676.8893 632.2158L676.3893 633.3458L674.8493 634.9058L671.7493 634.4058L670.0894 635.3658L666.5394 636.1558L666.1393 636.7258L655.7993 660.2758L650.3293 671.1358L649.8893 673.6658L650.5994 676.1558L649.3893 678.3758L648.5593 679.1558L643.8793 686.3758L642.7393 687.3458L641.1593 688.0757L631.9793 691.2557L630.9193 691.8757L626.2293 693.4157L625.7093 693.2657L624.4493 693.6657L622.4193 695.5057L621.6293 695.8857L620.7292 697.3958L619.6193 698.3358L618.6393 700.1357L615.4193 702.5657L615.2293 703.1558L612.3893 704.4258L610.4293 704.6058L608.2892 704.1658L606.8392 701.0458L605.0592 701.4958L601.4692 705.3658L596.3092 704.8158L592.8192 707.4558L586.8192 707.7358L571.1892 710.1058L566.5892 706.7658L564.6292 706.7458L549.6992 713.1758L532.1192 714.2358L509.0592 714.7057L459.7092 714.6157L451.1192 714.3057L430.3992 714.1957L420.2292 713.5657L413.2392 713.7158L411.0192 708.9058L409.6392 706.7858L402.2492 700.7657L394.8492 695.7158L392.2692 693.2657L388.0392 692.7758L376.4492 696.0757L366.8192 695.9557L358.5492 687.3257L357.3192 686.7057L355.3392 687.4457L353.2392 689.9157L344.8092 693.0457L339.5392 693.8557L336.9492 695.9557L332.0092 698.1757L326.1192 704.7256L309.9892 709.2256L302.1792 710.6356L285.259 715.6054z" stroke="none" fill="#2ECC71" fill-rule="nonzero" />                          <path                id="CE"                data-name="Centre"                data-id="CE"                style="fill: #f7f2d2"                transform="matrix(1.00059 0 0 0.9999187 0 0)"  d="M285.259 715.6054L302.179 710.6354L309.989 709.2255L326.119 704.7255L332.0091 698.1755L336.9491 695.9555L339.5391 693.8555L344.8091 693.0455L353.239 689.9155L355.3391 687.4456L357.3191 686.7056L358.5491 687.3256L366.8191 695.9556L376.4491 696.0756L388.0391 692.7756L392.2691 693.2656L394.8491 695.7156L402.2491 700.7656L409.6391 706.7856L411.0191 708.9056L413.2391 713.7156L420.2291 713.5656L430.3991 714.1956L451.1191 714.3055L450.5091 722.9155L452.4491 726.5355L454.5891 727.6555L458.6791 734.5355L460.2691 742.1755L464.0491 744.1155L465.1091 749.3655L471.2791 758.8956L471.2791 762.0756L466.2791 773.5856L460.3391 782.9556L455.8591 783.9255L450.8691 783.6055L446.0291 786.3255L446.6391 787.7555L451.6491 791.1855L462.2091 801.1855L467.1291 806.6455L469.5991 810.1355L468.2891 818.5655L475.8091 821.1955L482.2791 821.8555L488.0791 835.2755L487.0091 841.4554L485.5791 857.5054L483.4291 860.6454L478.8391 859.5154L473.7991 860.0955L470.3191 859.4255L465.6791 860.4455L461.4691 859.9055L453.1591 864.4755L450.8291 867.2255L447.2591 878.8156L443.3491 883.0756L442.6191 886.6855L443.2391 888.6555L441.9691 898.4055L439.4991 907.1655L441.9791 909.6155L442.5691 912.3355L441.8291 914.5555L435.8991 917.5155L428.2591 924.7955L422.4391 925.5255L418.1891 926.7955L415.5391 929.6455L412.4291 930.5555L411.7291 933.8655L414.0591 938.9355L423.4891 944.2055L422.9591 947.1655L423.5991 950.9655L422.9591 956.6555L419.4691 963.7255L416.5091 961.0855L412.4691 952.8555L410.0291 952.3355L408.0191 952.8555L405.4791 957.0755L401.1291 960.9855L392.649 967.3155L387.459 972.6955L384.9091 982.0755L384.1691 986.2955L382.0491 988.6155L378.4491 987.9855L376.5391 989.4655L374.6291 990.4055L373.5691 990.0955L373.5691 988.5154L374.7391 986.2955L373.8891 984.9255L360.1091 979.4455L358.5191 976.9155L356.6091 976.3854L354.9291 977.1354L352.8991 976.1754L351.2091 974.0654L348.7691 974.8054L346.3291 981.3454L340.5591 983.2154L338.1591 985.7654L336.0491 986.1154L334.2491 989.5154L331.5891 992.0154L329.7691 999.0954L327.3991 1001.335L321.3891 1003.695L317.4791 1005.645L312.9991 1006.475L309.0891 1006.475L298.3291 1005.645L295.2591 1006.055L291.6291 1007.585L287.429 1006.335L285.479 1006.335L281.559 1007.445L279.609 1007.315L277.089 1003.975L273.599 1001.335L273.739 998.4153L273.039 996.6053L270.669 996.2554L268.289 993.4054L268.009 989.6554L266.329 983.2554L264.239 980.4753L261.009 978.0054L257.109 979.0554L255.289 978.6754L254.039 976.7253L251.659 976.5853L242.829 979.0053L241.579 977.9353L240.919 975.3353L239.729 972.3053L237.689 971.1653L235.169 971.4453L217.249 976.2453L193.249 983.5353L184.589 984.7853L182.069 976.4753L181.129 971.5853L178.999 967.5453L180.759 965.0853L184.729 964.9053L189.019 957.1653L189.199 952.3853L191.629 949.8752L191.989 947.2352L191.849 945.2952L193.109 940.4252L195.629 938.1953L198.139 937.6453L201.079 936.3853L205.079 938.3253L212.429 942.9252L214.769 946.1252L216.729 946.9653L217.849 944.4553L218.399 941.5353L221.479 939.7253L220.779 938.3353L221.909 936.2552L223.439 934.7252L222.179 928.4552L221.899 923.8652L225.389 919.5552L226.649 915.7952L227.069 913.1552L231.149 912.0552L236.649 909.4252L240.059 910.0952L241.719 908.3752L245.929 906.9152L249.569 906.9052L255.989 904.6652L259.489 902.2952L263.259 901.8852L266.049 900.7652L267.179 900.9252L267.469 898.9452L267.449 895.8952L265.909 894.3652L263.119 893.2552L261.929 892.3852L261.579 891.0252L259.629 889.0752L259.199 887.6352L256.969 885.9252L255.239 883.8052L255.039 881.0752L252.149 878.7752L251.699 876.1252L249.289 873.7652L247.329 871.2552L246.769 868.6152L246.829 867.5452L248.309 866.3852L249.769 856.2752L249.269 854.9652L247.699 854.2752L243.969 856.6152L238.769 854.9453L236.569 858.5853L236.149 860.9553L234.669 865.6252L231.529 868.5552L229.709 868.1552L228.189 864.6152L226.459 865.3253L224.869 868.0853L221.089 869.4653L218.559 872.5953L214.909 873.7053L210.859 872.5153L208.709 871.3253L204.519 870.1252L201.329 868.6553L198.879 869.0353L196.229 867.8553L195.209 865.8253L195.629 862.6252L196.869 858.9653L201.639 852.0453L203.449 851.6253L206.109 844.5253L203.869 842.4353L199.929 842.3353L194.089 846.0553L191.849 845.7753L192.969 839.2253L196.469 836.1653L201.899 832.7453L206.809 827.1053L207.919 825.1753L215.469 826.4153L221.199 824.4653L232.359 818.5553L235.779 814.3353L237.549 813.8753L244.529 821.6753L248.809 822.3653L253.339 819.0253L255.859 809.4253L257.159 802.4553L261.039 797.3653L266.049 796.0353L265.359 793.5253L266.229 790.7353L266.459 788.0453L265.949 785.6053L268.539 783.0953L271.499 782.1953L272.859 779.4053L274.549 777.5753L277.089 775.8253L277.789 772.3353L275.849 770.2053L276.489 768.6553L277.749 768.2653L279.899 761.2552L277.749 753.5253L278.369 751.3353L279.759 749.5253L279.089 747.0052L283.349 742.9352L286.599 740.3253L290.089 735.3453L286.419 733.0153L285.929 726.4753L285.049 724.4253L285.869 720.4853L285.259 715.6054z" stroke="none" fill="#2ECC71" fill-rule="nonzero" />                     <path                id="FN"                data-name="Far North"   data-active="true"             data-id="FN"                style="fill: #c9f2d0"                transform="matrix(1.00059 0 0 0.9999187 0 0)"  d="M508.839 293.8054L507.669 293.5454L504.849 288.7554L504.339 286.7754L505.899 286.6854L506.599 286.3054L507.799 282.9954L508.299 282.3554L510.969 280.6254L511.419 279.4254L511.399 275.5954L512.329 274.0854L514.799 271.3354L515.539 269.8954L516.109 268.0954L516.289 266.2054L515.849 263.8853L515.889 262.3553L517.509 259.5753L517.249 255.8253L517.4089 253.7854L517.929 251.9254L520.6089 249.1553L520.6089 246.3253L519.3389 244.5654L518.7589 242.7054L518.7289 240.6454L518.1389 238.5654L519.1489 233.5554L519.9589 231.7354L523.0588 229.2153L524.3688 227.6553L525.2689 225.3253L526.6389 219.5253L527.5189 218.4253L528.5189 216.2853L529.0289 215.9753L529.5688 214.6953L531.4089 213.3253L533.0989 210.7153L534.7689 206.6053L534.6888 203.4254L535.1788 199.4653L536.4688 198.2153L540.4888 197.3154L542.8788 195.6654L545.1389 195.3554L545.8788 194.6354L546.0289 193.0854L547.2389 191.8654L547.8889 189.8054L550.6589 186.7954L551.2889 186.7754L551.749 186.4154L552.709 184.4754L553.529 183.6154L554.609 183.2654L554.759 182.8853L554.169 181.6353L554.219 180.7953L554.509 180.3654L556.649 179.1954L557.859 177.4554L557.959 176.4154L558.799 175.5654L559.149 172.9953L562.599 169.0753L563.959 164.4254L565.519 163.5354L566.359 163.6754L568.139 165.0654L569.429 165.0654L572.909 166.1053L574.479 167.9753L576.849 169.7453L578.919 169.9353L580.719 169.6754L586.889 167.2854L588.129 166.4454L590.3589 163.7354L591.3389 162.0253L596.7889 158.5853L598.7289 157.9153L600.119 156.9553L604.489 155.7553L607.0389 154.3853L610.249 153.3253L611.3589 152.1953L613.0789 148.1853L614.6689 147.4353L619.5189 146.6953L625.9289 143.7654L630.1089 142.4254L632.1989 140.8553L632.4689 139.6153L632.249 137.9253L632.519 135.5753L633.239 133.0753L632.489 129.4953L631.629 128.0553L629.969 127.1653L628.909 125.8653L625.569 123.9953L624.6089 123.0253L623.4789 121.1353L623.569 120.2153L625.299 119.2553L626.7189 117.5953L627.6289 117.2153L629.1689 115.2453L629.4089 114.5953L628.9589 113.1053L629.4388 110.6053L628.9288 109.1553L628.9288 108.2953L629.7988 106.9453L628.9588 106.2753L628.9088 105.7953L630.5688 103.6953L631.0688 102.6053L631.2388 102.8053L632.7688 101.1853L632.3788 98.94533L633.1588 97.55533L634.3188 96.33533L634.0688 95.36533L633.3688 94.95532L630.7388 89.76532L630.5988 88.72532L630.8287 87.14532L631.8187 86.11532L633.0988 85.72532L633.6987 85.22532L633.7188 84.57532L632.7087 83.22532L632.4688 82.31532L633.7888 80.45531L634.0087 78.05531L634.3187 77.44531L636.4688 75.81532L636.4188 74.32532L635.9587 73.38531L634.9487 72.87531L635.1187 72.17532L634.3987 71.14532L633.5488 71.98531L632.8188 72.10532L631.9288 72.12531L631.6588 72.36531L631.7288 72.94531L630.4288 72.73531L630.3088 72.25531L629.9288 72.08531L628.6988 71.93531L628.6088 71.64531L629.4488 71.06531L628.0488 69.30531L628.1888 68.5853L625.7688 68.24531L625.4988 67.90531L623.2188 67.29531L623.3588 66.83531L624.0388 66.40531L624.4088 64.98531L623.6188 65.51531L623.0488 63.91531L623.2488 62.71531L622.1488 61.81531L621.1888 61.71531L620.5388 60.93531L619.6487 61.02531L619.4587 60.78531L619.7787 59.77531L619.5187 59.17532L620.6187 59.13531L620.0587 57.68531L617.9387 57.11531L617.4387 56.38531L616.7188 56.06532L616.9188 55.32531L616.6288 55.12531L615.6788 55.69531L615.1788 54.85531L613.9588 54.55531L612.9388 55.46531L612.5388 54.35531L611.4088 53.83531L609.8588 54.26531L608.2988 53.84531L605.5988 54.42532L604.4888 53.98532L602.8488 54.04532L600.7087 52.97532L600.1287 53.06532L598.3187 54.40532L597.8587 54.42532L597.1487 53.07532L596.6087 53.54532L597.1887 54.56532L596.6787 55.09532L595.8887 53.47532L595.4287 53.15532L592.7787 53.62532L592.2987 53.45533L589.7387 54.03533L589.2787 53.74533L588.7887 52.60533L587.1087 51.44533L586.0087 49.70533L584.4187 49.23532L585.0487 48.17532L584.6187 47.62532L584.6887 47.28532L585.7287 47.16533L585.8787 46.66533L586.7687 46.76532L586.3687 45.82533L586.9687 45.24532L586.1987 44.83532L585.1887 45.09532L585.0986 43.52532L584.5986 42.34532L585.7986 41.04532L586.2786 39.50532L586.9786 39.06532L586.8687 38.69532L588.7386 37.90532L590.0087 36.82532L590.0087 35.53532L592.1187 33.38532L592.5486 32.09532L594.0186 29.51532L594.0186 28.44532L592.7586 28.01532L592.1186 25.64532L590.6386 23.92532L588.1086 22.41532L588.5286 20.91532L589.3785 19.83532L591.9086 18.97532L594.4485 17.25532L596.1385 16.82532L598.4586 17.25532L599.9385 17.90532L600.5685 17.25532L601.6285 13.81532L601.4185 12.52532L600.7785 11.23532L599.0885 10.80532L598.4585 10.15532L598.4585 9.295318L599.7285 9.295318L600.3585 8.865317L602.4685 11.66532L604.3685 12.73532L606.2686 14.89532L610.7086 15.53532L612.3986 16.82532L612.6086 17.47532L610.0686 18.33532L609.2286 19.83532L609.6486 20.69532L612.6086 20.48532L613.8786 21.12532L615.7786 19.83532L615.7786 17.25532L618.9386 12.52532L619.1586 11.01532L620.2086 9.51532L619.7886 4.77532L619.7886 0.4153199L620.8486 0.2553199L622.3185 0.6853199L624.0085 2.84532L624.8785 4.85532L623.8085 6.60532L623.3485 8.15532L623.3985 9.33532L624.4585 10.29532L625.5685 10.29532L625.9585 10.61532L626.2985 12.25532L626.8985 13.36532L627.7685 13.65532L628.4385 13.29532L630.5885 10.95532L630.9285 11.24532L630.4685 13.50532L630.5885 14.30532L632.1385 14.18532L634.8385 16.21532L637.5385 16.16532L639.2985 15.73532L640.3885 16.40532L641.0886 17.66532L640.7686 18.65532L639.2986 20.53532L639.3186 21.37532L639.9786 22.39532L641.0886 22.80532L641.7386 21.98532L642.4086 20.27532L643.5685 19.76532L644.0786 20.07532L644.5786 21.06532L644.9686 22.41532L645.0386 24.58532L645.3786 25.09532L646.0286 25.53532L648.1286 25.60532L650.9486 25.19532L652.1986 25.82532L652.7386 28.98532L654.2986 32.62532L654.5786 34.05532L654.4086 36.19532L654.7986 37.76532L654.3386 38.94532L654.9886 40.97532L654.0986 42.24532L653.9987 43.86532L654.7886 44.75532L655.4186 44.53532L656.4086 43.14532L656.9886 43.04532L657.3687 43.65532L657.8287 46.95532L659.6087 49.89532L660.3287 51.94532L660.0387 55.91532L660.2487 57.02532L659.2587 59.98532L660.1687 63.04532L659.6587 66.66532L659.8787 68.05532L659.2487 70.12532L660.2787 72.60532L658.4787 74.07533L658.3487 74.79533L658.8087 75.71532L659.5787 75.88532L662.7087 79.71532L664.0287 80.31532L665.1387 81.42532L666.1688 82.00533L667.5388 82.17532L668.4088 81.65533L668.9888 80.39532L669.5488 79.96532L670.5088 79.87533L672.3088 80.64532L673.4688 81.56532L673.1287 84.40532L674.6887 84.86532L675.8387 87.27532L675.2988 88.51532L675.0088 88.75532L673.9988 88.64532L673.6388 89.10532L675.5388 91.23531L677.5588 91.44531L678.4688 92.29531L678.0688 93.90531L677.3088 94.76531L676.0688 94.41531L675.0488 94.74532L675.0887 95.78532L676.0587 97.54532L676.1687 99.18532L675.8487 99.80532L674.1287 101.0853L673.8787 102.2153L674.6087 104.1753L675.1587 107.1353L675.9487 107.9653L676.5187 108.2353L677.0487 108.1153L677.5987 106.1453L679.3187 107.6753L679.4087 110.1853L679.8587 111.1753L681.7887 113.2053L681.0287 114.7653L678.5987 115.4653L677.8187 116.5653L678.4786 117.3853L679.7286 118.0453L680.2186 119.5153L680.0686 119.9053L679.6886 120.1653L678.1786 119.6153L677.1186 119.8253L676.6986 120.2553L676.2986 121.8653L676.6686 123.4953L677.1486 123.6253L677.7986 124.4453L677.4786 124.8053L677.4686 126.0553L677.5786 126.6053L678.3685 127.4053L677.7785 128.7753L677.9685 129.4053L679.0785 131.6953L680.0985 132.3053L680.1185 133.7853L679.6085 134.5753L679.8985 135.2753L683.6185 137.1353L684.1885 137.8253L684.2185 139.9653L683.1285 142.0753L683.2485 142.8253L680.5984 144.3753L680.2885 145.4353L679.5184 145.8453L679.7784 146.9953L678.5984 147.5453L678.0684 149.1553L677.2084 149.8453L677.4684 150.6853L676.8685 151.1653L676.7485 151.8653L675.5885 153.2553L675.4885 154.6253L676.7285 157.6653L675.0785 159.3553L674.4085 162.0553L674.8785 163.2853L674.5585 163.6653L673.0984 164.2353L672.8785 164.5653L673.3185 165.5553L673.2485 166.0353L672.2785 166.5253L672.2785 166.9853L672.8985 167.9053L672.5385 170.1053L672.6985 170.6653L673.8485 171.8453L672.3185 173.1053L673.2485 173.9553L672.4684 175.3853L673.0385 176.2553L672.9285 177.3853L673.6185 178.1553L673.0385 178.9853L673.3384 180.5953L672.1185 182.0253L673.1785 182.4653L673.5685 184.1753L673.0585 186.8053L673.9285 187.0853L674.1885 187.4653L673.3585 188.5653L674.1484 189.5053L673.9684 190.1253L674.3484 190.3953L674.9385 191.9853L674.8785 193.8053L674.4785 194.5453L674.8884 195.0753L674.7084 196.4853L675.8284 198.0653L676.0184 199.5053L677.1685 200.3253L678.0784 201.4253L678.4584 205.0253L679.0284 207.2053L679.1685 209.9653L676.7684 212.8053L676.5485 213.5753L676.6885 216.2853L677.2885 216.9353L677.6885 218.3953L679.1785 220.7453L679.9385 222.7353L681.5885 224.4553L682.6185 226.1353L684.2785 230.5953L685.4485 232.8253L685.7585 235.3153L685.4685 236.8453L684.3885 238.8353L684.5685 244.0753L685.9585 245.6853L687.1285 246.4053L691.0285 247.8253L692.1685 248.6853L694.3685 251.1053L695.4385 254.5853L698.7086 258.3253L698.6486 262.0753L699.7485 263.1353L700.1486 263.9453L699.8586 264.7553L700.0286 265.1853L701.1985 266.0553L701.6285 267.1353L701.3085 267.6753L701.4785 268.0853L703.4885 268.4953L706.1585 269.8253L707.3285 271.8153L708.4985 273.1253L710.0485 273.9453L711.7184 276.1253L712.8384 278.2553L716.0284 280.5153L716.5784 281.4053L717.1184 283.4353L717.9284 284.7053L718.9784 285.6453L719.5984 287.6753L721.5784 288.5853L722.4484 290.6253L722.9283 290.8653L723.2183 290.3853L724.0583 290.1953L728.4683 293.7753L730.3983 294.3753L732.0183 295.7953L733.2583 295.6353L734.3083 296.6153L736.3583 297.3453L739.0483 299.2654L739.5783 299.8853L739.9283 301.5854L735.6983 302.9754L733.7383 303.1554L730.2683 304.4154L725.8183 305.1854L723.2683 305.2254L719.7783 306.4754L714.3283 306.9554L704.3283 303.0354L701.4383 302.6954L696.7183 301.4654L693.8483 300.4054L691.4283 303.7154L689.0383 303.0654L685.9683 301.1254L684.2484 300.5954L683.2183 300.5954L681.0183 301.8054L680.5683 302.4254L680.5183 303.4554L679.9883 303.7853L676.4283 303.4953L673.3083 302.1053L672.5583 301.2153L671.4183 300.4953L669.8383 299.8953L668.0483 299.9153L664.3483 301.5153L661.2183 302.1253L658.3282 303.9853L656.1282 306.1053L652.6583 307.8752L648.8383 307.5352L644.4482 305.3152L640.6982 305.0453L639.2183 305.2353L632.9083 303.5153L631.7883 302.8152L629.4482 302.3853L622.6082 300.0952L616.4982 298.9753L614.3282 299.4753L609.5182 299.7353L605.8882 299.5753L603.6182 299.8653L602.3582 300.3353L598.2982 299.6553L590.9382 300.3053L588.1682 301.1153L587.2082 301.9553L586.3982 303.6553L586.6182 300.4253L587.6282 296.6853L587.4482 295.0253L586.8282 294.2953L579.6082 290.9052L576.6482 290.1552L574.2182 291.0453L572.2682 291.0453L571.2482 288.9353L569.5682 286.8953L566.5282 285.3953L564.3982 281.4653L562.7682 280.2453L560.8782 279.3153L555.4482 279.0453L552.2182 277.4953L546.3382 278.6153L534.5282 276.2953L532.1482 277.3253L530.2782 281.4453L530.9582 283.6753L533.5082 285.7753L533.6282 287.0953L532.8282 288.1353L526.3782 289.5553L523.2982 291.0553L521.3182 292.6353L520.5682 292.7353L519.6382 292.1553L515.9082 291.7153L512.6982 292.2753L510.6582 293.6453L508.8382 293.8053L508.839 293.8054z" stroke="none" fill="#2ECC71" fill-rule="nonzero" />                  <path                id="SO"                data-name="East"                data-id="SO"                style="fill: #fcd6c5"                transform="matrix(1.00059 0 0 0.9999187 0 0)"                d="M610.549 705.0654L610.939 705.8554L609.919 708.8354L610.039 709.9454L610.929 711.0854L611.499 712.9554L614.5891 715.6354L615.1091 716.4354L615.7191 718.4954L617.019 719.9653L617.4191 722.0253L618.709 723.2653L619.6091 723.6853L620.9291 723.7553L623.7891 722.9753L624.7191 723.6353L625.899 722.9453L627.4691 721.4753L628.3691 721.3853L629.4091 721.7452L630.5591 723.8953L630.4291 729.1252L631.1591 732.0052L631.449 741.1553L631.249 744.2253L630.229 746.2353L629.509 748.6153L629.509 749.8453L627.919 754.4053L627.869 755.6353L628.099 756.8353L629.039 758.1353L629.609 760.7153L631.559 763.9352L630.309 765.2552L630.329 766.0552L629.899 767.0753L628.809 768.1553L629.109 769.4053L628.589 771.2753L628.839 774.0353L628.559 774.8853L626.0989 776.2253L626.0889 778.1453L625.3589 778.9653L623.9589 781.6353L623.5689 783.4453L623.0989 783.9453L623.049 784.3953L623.5989 784.9653L622.3889 785.6653L620.9389 787.4153L621.4389 788.6853L624.8289 791.3453L626.1989 792.7853L627.3389 792.7653L628.2589 793.5453L630.0989 793.8853L630.7089 793.6053L632.6689 794.2953L633.7889 794.2953L634.5189 795.6153L635.6389 796.1453L636.2289 797.5553L638.1989 806.1053L637.7489 806.9353L636.5889 807.4753L636.3489 808.6553L637.1489 810.1753L637.0589 811.2553L637.8289 813.7153L636.8389 814.2753L637.1389 814.8953L636.4989 815.2453L636.9689 815.9553L636.4289 817.0653L638.0089 819.1753L638.2389 819.9953L637.7589 821.7453L637.8989 822.1953L637.1889 823.3953L638.0189 824.2453L639.3789 828.3553L640.2689 829.6553L640.0789 830.4153L639.4189 830.8853L639.7189 831.6653L639.5289 832.2753L640.0989 833.0153L640.9189 836.3853L640.699 836.9553L640.869 837.7353L640.179 839.5553L638.949 840.1853L640.759 842.6253L641.249 846.8253L641.009 849.4453L641.379 851.0453L641.139 852.7753L641.959 854.0253L642.239 855.0853L641.959 856.0552L643.629 857.0252L644.619 858.9152L646.059 859.1752L646.269 859.8452L648.129 862.1152L649.689 863.2752L650.529 864.7352L651.309 864.8152L652.279 865.4053L652.749 866.1853L654.6589 866.4253L654.989 867.5353L656.549 868.1553L658.309 870.6553L660.0289 870.9753L663.7089 872.8953L664.2489 874.0052L665.2889 874.1252L666.3989 873.8652L667.6789 874.2252L668.2189 875.2652L671.2089 875.8152L671.9388 878.1552L671.8889 878.9052L672.6888 880.1152L672.9689 881.3152L673.3689 881.4653L674.0789 880.9953L674.3389 881.2253L674.7589 881.8953L674.4789 882.5253L676.0989 884.3253L676.5189 885.5552L677.6288 886.9052L678.4288 887.0952L679.3988 889.8252L679.3088 891.4552L679.9988 892.2852L679.5188 894.3852L680.1688 895.9652L680.5988 896.3452L680.1188 897.4052L680.5688 899.1552L680.4888 900.3052L681.1788 900.9252L680.8889 901.4453L681.1489 902.1052L680.9289 902.6252L681.2589 903.2653L680.5489 904.6053L681.3289 906.3953L682.5289 906.8752L682.8289 907.5853L683.7489 908.2953L683.9089 909.4053L684.5889 910.5353L684.8989 911.7853L687.4189 911.4853L687.9689 911.6753L688.4289 912.9753L687.3189 913.6553L685.4989 914.1053L684.5789 915.1153L681.0589 915.9453L680.1389 915.8753L679.4989 916.3653L676.4989 917.2053L675.4889 918.8253L678.8489 918.9553L679.5589 920.3253L680.5689 924.1753L695.0589 947.8553L712.7689 966.8353L721.7689 975.8752L735.2689 991.6752L736.1489 993.0352L737.0889 993.7952L741.6589 999.3552L743.2589 1000.635L746.5289 1004.945L751.7089 1010.745L752.4489 1011.425L753.1589 1010.555L754.7889 1010.735L756.0389 1009.985L758.2089 1009.845L758.799 1010.085L759.2689 1010.985L760.9889 1011.135L762.5789 1013.095L764.9289 1017.365L765.7489 1017.695L769.3089 1022.265L769.8289 1022.195L770.1189 1021.325L770.6889 1020.995L773.0189 1020.905L773.3189 1021.455L774.0789 1021.905L774.2789 1022.895L775.739 1023.655L776.189 1023.605L776.279 1025.215L777.919 1027.435L778.599 1029.625L780.029 1030.875L781.489 1035.405L781.669 1039.275L780.629 1040.205L780.0291 1041.245L777.9791 1042.055L777.7391 1042.385L778.6691 1045.735L779.1591 1046.395L778.9691 1047.105L779.2291 1048.465L778.6591 1049.075L779.2191 1049.665L778.7191 1050.135L778.889 1050.565L779.689 1050.915L781.0291 1050.975L781.7291 1051.665L780.2291 1054.245L779.4291 1057.865L779.7091 1059.255L781.2291 1062.225L780.9791 1065.075L779.4191 1069.435L779.5391 1070.335L781.1292 1072.405L781.2491 1073.065L781.0591 1074.345L780.2791 1075.735L781.0891 1077.265L781.1191 1077.875L783.1191 1079.515L784.3992 1083.115L787.7992 1087.575L787.9892 1089.435L790.1092 1095.345L790.0092 1096.195L789.3692 1097.345L789.4592 1098.225L792.1392 1100.475L792.2692 1101.225L791.0792 1103.015L788.9692 1103.935L787.6793 1105.425L787.0992 1105.415L786.1193 1103.245L782.3693 1103.055L781.3793 1103.665L780.7393 1108.985L780.7792 1110.965L781.5092 1112.095L781.7492 1113.175L781.6292 1114.755L781.0092 1115.625L779.2692 1116.705L779.6693 1117.645L781.1693 1118.585L781.1993 1119.295L780.4893 1120.755L778.9592 1122.065L778.2292 1123.215L778.4993 1125.385L778.2192 1126.445L780.7393 1128.875L781.8693 1134.585L782.5493 1134.965L783.8392 1134.645L784.3092 1134.905L784.1192 1136.935L784.3992 1138.195L785.6192 1142.225L786.9392 1143.995L787.6392 1147.695L786.8992 1149.515L786.9193 1151.495L788.2393 1153.565L787.3893 1155.865L786.3993 1155.525L785.4593 1154.525L784.2193 1154.525L781.1293 1155.535L779.1493 1158.825L775.8193 1158.395L775.4493 1158.045L774.8193 1156.135L775.2493 1153.805L775.0893 1153.285L774.3893 1152.725L774.3593 1152.135L775.9792 1149.015L776.1193 1148.405L775.8392 1147.645L775.2292 1147.335L772.1193 1147.795L768.3293 1147.685L765.7993 1146.495L763.8893 1146.275L763.3093 1144.895L761.9893 1144.865L760.8093 1145.895L760.1993 1145.865L760.4793 1144.995L759.4393 1141.795L758.9694 1141.255L756.9194 1141.055L755.5094 1139.545L752.6694 1138.425L751.3594 1137.105L750.6594 1135.335L748.2894 1132.695L746.7593 1131.955L744.5493 1132.235L743.9393 1131.495L740.2493 1130.195L738.5993 1130.565L736.8793 1130.245L732.1494 1129.125L730.5793 1128.175L727.6793 1128.755L725.6893 1127.335L724.9594 1127.405L724.1494 1128.155L723.6594 1128.085L720.3694 1125.835L719.6894 1125.855L718.8894 1126.485L714.1294 1127.765L713.0694 1128.285L711.6694 1129.615L710.0894 1129.875L705.0494 1132.445L703.9694 1130.625L704.0494 1129.495L702.4394 1130.435L701.1494 1130.055L700.9394 1129.515L701.2694 1127.775L700.8994 1126.665L699.4894 1125.105L698.4794 1124.275L697.0994 1123.785L696.2994 1122.695L694.5994 1122.405L695.4794 1120.715L694.5194 1120.265L692.5394 1120.095L691.6194 1119.695L689.7894 1119.855L687.9194 1121.865L687.1895 1121.305L686.2595 1119.255L685.2394 1119.365L684.9594 1119.645L684.6494 1121.955L684.0794 1122.535L682.0794 1122.175L681.3494 1123.425L681.1794 1124.645L680.6395 1125.565L677.2895 1125.385L677.3195 1123.645L676.3795 1123.195L674.8695 1125.355L674.3695 1125.755L673.9295 1125.655L673.1695 1124.925L673.0595 1123.425L672.0995 1122.665L670.4995 1122.025L668.2195 1119.945L667.4895 1120.625L666.8495 1122.435L666.2595 1122.885L664.8694 1123.305L661.6194 1123.575L660.7695 1123.225L659.0295 1121.475L660.6595 1119.595L661.0695 1117.745L660.7894 1117.225L658.2495 1116.555L657.5394 1116.035L657.2594 1115.025L657.3094 1112.855L657.0094 1112.315L656.4894 1112.225L655.3094 1113.085L656.0594 1114.505L655.8494 1115.235L654.1494 1114.895L653.1893 1115.155L651.7893 1116.965L650.4793 1117.455L650.0293 1117.405L648.7093 1116.015L648.3593 1115.985L646.8993 1117.085L646.3793 1117.045L645.8893 1116.355L646.6193 1114.525L646.0793 1113.585L644.9793 1113.645L643.7993 1114.465L643.2293 1114.395L643.1593 1113.595L644.3593 1113.625L644.5093 1113.035L641.7094 1110.845L641.1393 1110.865L640.9794 1111.166L641.4493 1112.296L641.4193 1112.726L641.0493 1112.726L640.1993 1112.276L638.9293 1112.176L638.5493 1111.096L637.2093 1109.986L634.1293 1110.306L633.6093 1110.136L633.0693 1109.246L633.4493 1108.326L633.2893 1107.876L632.7493 1107.476L631.5193 1107.356L629.6193 1103.826L629.0593 1103.206L627.4594 1102.706L626.9894 1101.816L626.6394 1101.676L625.6194 1102.586L625.0094 1102.516L623.9394 1101.696L622.7994 1103.186L611.2394 1107.386L610.5394 1107.386L608.9594 1105.506L607.4493 1104.666L603.9193 1104.406L602.8393 1104.616L598.4993 1103.846L594.3593 1104.396L592.9893 1105.716L591.8893 1105.786L532.7693 1105.875L530.9393 1064.426L530.1493 1058.346L528.1093 1034.376L528.3193 1030.796L523.8693 1032.796L521.7094 1036.016L519.7294 1035.746L518.4594 1035.956L518.3594 1037.646L516.2394 1037.326L514.9694 1038.806L516.1293 1041.446L514.7493 1042.816L509.1893 1044.126L502.4593 1039.856L499.3593 1041.036L496.5193 1039.126L493.8693 1036.596L491.9693 1037.326L491.7893 1037.816L493.5493 1042.496L491.6494 1043.126L490.6894 1039.126L489.1094 1037.396L484.9694 1034.486L483.5894 1036.066L480.1494 1036.706L477.7593 1034.166L475.9594 1035.745L474.8994 1037.225L472.8893 1036.175L466.7393 1035.645L462.3893 1032.795L459.8493 1034.375L455.1893 1033.325L451.0493 1033.425L449.2493 1031.955L447.3393 1032.265L444.8993 1029.845L442.8893 1029.215L439.3893 1023.735L439.2293 1013.525L438.4393 1004.965L433.5593 996.2153L429.3193 991.3553L419.4193 982.1254L417.4493 979.1254L417.6593 973.2154L418.4093 966.5754L419.4693 963.7254L422.9593 956.6554L423.5993 950.9654L422.9593 947.1654L423.4893 944.2054L414.0593 938.9354L411.7293 933.8654L412.4293 930.5554L415.5393 929.6454L418.1893 926.7954L422.4393 925.5254L428.2593 924.7954L435.8993 917.5154L441.8293 914.5554L442.5693 912.3354L441.9793 909.6154L439.4993 907.1654L441.9693 898.4054L443.2393 888.6554L442.6193 886.6854L443.3493 883.0754L447.2593 878.8154L450.8293 867.2254L453.1593 864.4754L461.4693 859.9054L465.6793 860.4454L470.3193 859.4254L473.7993 860.0953L478.8393 859.5153L483.4293 860.6453L485.5793 857.5053L487.0093 841.4553L488.0793 835.2753L482.2793 821.8553L475.8093 821.1954L468.2893 818.5654L469.5993 810.1354L467.1293 806.6454L462.2093 801.1854L451.6493 791.1854L446.6393 787.7554L446.0293 786.3254L450.8693 783.6054L455.8593 783.9254L460.3393 782.9554L466.2793 773.5854L471.2793 762.0754L471.2793 758.8954L465.1093 749.3654L464.0493 744.1154L460.2693 742.1754L458.6793 734.5354L454.5893 727.6554L452.4493 726.5354L450.5093 722.9154L451.1193 714.3054L459.7093 714.6154L509.0593 714.7054L532.1193 714.2355L549.6993 713.1755L564.6293 706.7455L566.5894 706.7655L571.1893 710.1055L586.8193 707.7355L592.8193 707.4555L596.3093 704.8155L601.4693 705.3655L605.0593 701.4955L606.8394 701.0455L608.2894 704.1655L610.4294 704.6055L610.549 705.0654z" stroke="none" fill="#2ECC71" fill-rule="nonzero" />                           <path                id="LIT"                data-name="Littoral"   data-active="true"               data-id="LIT"                style="fill: #e8befe"                transform="matrix(1.00059 0 0 0.9999187 0 0)"                d="M113.199 942.3854L113.999 943.4055L114.229 944.0854L113.969 944.3754L113.399 943.9154L113.039 942.4754L113.199 942.3854zM95.77901 917.6154L96.26901 918.9754L97.63902 918.9154L97.92902 919.2854L97.95901 919.6254L98.09901 919.9154L99.09901 921.2254L99.15901 922.3054L98.66901 923.4154L98.03902 923.8954L97.80901 925.5754L97.20901 926.2054L96.40901 926.2954L96.11901 926.8954L96.25901 927.0654L96.39901 927.4054L96.56901 927.4854L96.59901 926.4854L97.96901 926.6554L98.27901 926.5454L99.339 926.6554L100.539 927.7054L100.879 927.6454L100.789 927.9054L96.269 929.9454L94.09901 930.2554L89.74901 929.0054L85.88901 926.7454L88.979 923.2253L88.579 923.0853L88.669 922.3753L89.129 922.6653L89.989 922.4653L91.129 922.9453L91.589 922.8353L91.64899 922.4352L92.41899 922.6652L93.61899 921.5252L93.47899 919.3352L94.07899 919.2552L94.73899 918.2052L95.77899 917.6152zM104.129 916.5254L104.869 916.8054L104.759 917.7754L105.419 917.0954L106.129 917.7754L106.669 921.2454L106.239 921.6154L105.979 922.4954L105.009 922.1854L103.379 922.2154L102.349 921.2154L101.639 921.3254L100.669 920.5554L101.839 919.0154L101.729 918.4154L102.559 918.2454L102.789 917.6454L104.129 916.5255zM96.83902 916.2154L97.17902 916.5054L97.34901 918.7253L96.43901 918.8054L96.14901 917.8054L95.57901 917.1454L96.83901 916.2154zM103.929 914.9654L105.159 915.1654L105.499 915.9954L104.129 915.7354L103.699 915.2554L103.929 914.9655zM101.469 914.7054L102.009 914.9654L102.299 915.5654L102.699 915.3954L103.499 916.6154L102.699 916.9053L102.809 917.1053L102.299 917.4753L102.099 918.0753L101.269 917.6153L100.869 917.8153L100.839 918.3553L101.349 919.0153L100.039 919.8652L98.60903 919.0652L98.40903 918.0352L97.57903 916.9552L97.94904 916.6752L100.839 916.2452L101.009 915.6152L100.949 915.1152L101.469 914.7052zM101.069 912.4254L101.609 912.9954L101.579 913.3354L102.089 913.3054L102.349 913.8754L101.859 914.4753L101.259 914.5054L100.539 915.0754L100.609 915.9654L99.18903 916.1654L98.64902 915.6254L98.87903 914.6854L98.73903 912.7254L99.07903 912.4954L99.96902 912.8954L101.069 912.4255zM98.03902 911.3453L98.02901 911.3453L98.03902 911.3253L98.03902 911.3453zM100.439 911.2354L100.669 911.6653L99.97902 912.5453L99.60902 911.6053L100.439 911.2354zM98.70901 910.7953L99.20901 911.3754L98.37901 912.5953L98.14901 915.4453L97.74901 915.8453L96.45901 916.0453L95.43901 916.8953L95.44901 916.5653L96.03901 915.8653L96.17901 915.1953L96.89901 914.6453L96.61901 913.6953L97.41901 913.5253L97.46902 912.7453L97.91901 912.6553L98.37901 911.0253L98.70901 910.7953zM101.559 908.2454L101.959 908.4153L100.669 910.2953L100.359 909.3353L100.729 908.0753L101.559 908.2453zM101.529 906.5054L102.439 907.6254L101.959 908.1554L101.249 907.9254L100.789 907.0454L101.529 906.5054zM102.359 906.9854L103.409 907.7953L104.869 907.7653L105.949 906.7853L107.079 904.5153L108.009 903.4953L105.949 900.8053L106.489 898.4853L105.499 897.6853L104.059 898.2253L99.47903 899.1153L98.12903 897.5953L95.43903 897.3253L94.98903 895.6252L96.09903 891.5853L96.92903 887.0453L98.11903 885.9653L100.159 881.6953L103.889 875.7352L102.469 872.4652L102.859 870.6452L102.939 867.3852L104.709 864.6552L105.719 862.1952L107.919 858.1552L112.089 851.9252L115.799 853.0753L118.569 851.8652L118.349 848.0052L124.379 840.5052L125.529 833.9252L134.149 824.9352L134.439 824.1052L134.099 823.0552L131.209 821.6852L131.319 819.2952L135.359 810.8253L136.749 810.2452L140.009 809.9952L140.689 808.6252L135.709 799.7352L131.889 796.8452L129.019 786.3552L129.459 784.7152L133.169 785.2752L134.549 784.7152L137.019 780.5452L138.139 779.5252L141.499 779.5252L140.209 786.7352L140.689 788.2952L142.719 789.1953L144.169 789.2253L146.379 787.3053L148.099 787.4853L150.739 787.1853L153.399 789.8653L155.579 795.0153L155.189 798.9153L153.999 802.3054L156.359 808.7654L162.249 810.9154L162.249 815.0254L163.059 818.2154L165.019 818.4854L167.029 822.7754L169.749 822.6354L170.319 820.7754L173.039 815.3454L178.919 811.9154L179.349 808.0554L180.639 806.3354L183.019 806.6254L186.239 807.9055L188.919 807.1055L193.939 806.7654L194.839 807.6154L194.549 810.4754L195.119 812.4754L197.489 814.8054L198.189 816.1654L198.919 820.6254L200.569 822.0654L202.549 820.9354L203.229 821.7254L203.879 824.4954L207.899 825.1954L206.789 827.1254L201.879 832.7554L196.449 836.1754L192.959 839.2454L191.839 845.7954L194.079 846.0754L199.909 842.3654L203.859 842.4554L206.099 844.5455L203.439 851.6454L201.619 852.0654L196.859 858.9854L195.619 862.6454L195.199 865.8454L196.219 867.8654L198.869 869.0554L201.319 868.6754L204.509 870.1354L208.699 871.3455L210.849 872.5255L214.899 873.7155L218.549 872.6055L221.079 869.4755L224.849 868.0955L226.449 865.3354L228.169 864.6254L229.689 868.1555L231.509 868.5555L234.649 865.6255L236.129 860.9555L236.549 858.5855L238.749 854.9355L243.949 856.6055L247.679 854.2654L249.249 854.9554L249.749 856.2654L248.289 866.3754L246.809 867.5354L246.749 868.6054L247.309 871.2554L249.269 873.7654L251.679 876.1254L252.129 878.7654L255.019 881.0654L255.219 883.7954L256.939 885.9154L259.169 887.6354L259.599 889.0754L261.559 891.0254L261.909 892.3754L263.099 893.2454L265.889 894.3553L267.429 895.8854L267.449 898.9354L267.149 900.9153L266.029 900.7554L263.239 901.8654L259.469 902.2853L255.979 904.6553L249.549 906.8953L245.919 906.8953L241.709 908.3553L240.049 910.0753L236.629 909.4053L231.129 912.0353L227.049 913.1353L226.629 915.7753L225.369 919.5353L221.879 923.8453L222.159 928.4354L223.419 934.6954L221.889 936.2354L220.759 938.3154L221.459 939.7054L218.389 941.5154L217.829 944.4354L216.709 946.9354L214.749 946.1053L212.399 942.8953L205.059 938.3053L201.059 936.3653L198.119 937.6153L195.609 938.1753L193.089 940.3953L191.829 945.2653L191.969 947.2153L191.609 949.8453L189.169 952.3553L188.989 957.1353L184.699 964.8753L180.729 965.0553L180.509 962.6553L177.719 961.4053L176.739 959.5953L175.619 958.8953L172.679 960.9853L168.289 960.9953L167.229 963.2153L161.549 970.4453L161.769 972.7452L161.359 975.4553L161.779 978.3752L159.959 980.3253L160.239 982.1353L158.419 986.3052L152.969 989.2252L149.339 992.8352L144.509 993.6652L144.339 994.1552L143.959 993.0152L144.419 992.8752L144.589 991.5052L143.449 989.3452L140.019 985.0452L134.499 978.9252L130.699 974.8853L127.409 971.9852L126.899 971.4152L120.129 966.4552L118.579 965.6052L118.179 965.2652L118.089 964.6352L116.919 963.8952L116.889 963.5252L117.399 963.4652L117.629 963.7452L118.319 962.8652L118.059 962.6453L117.749 963.1453L117.519 963.1453L118.119 962.1252L117.949 961.6152L117.839 961.2452L117.499 960.6453L117.869 960.2153L118.359 957.5953L118.759 956.9953L119.129 956.4853L119.019 955.6353L118.499 954.9553L117.839 953.7354L115.899 949.2953L108.409 937.4254L108.549 937.1154L110.379 938.9354L111.809 939.7354L112.979 942.9254L113.039 943.8054L113.639 944.4554L115.039 944.9154L115.639 944.4854L117.129 944.9954L119.279 944.9654L120.019 944.3954L120.159 942.3154L119.649 942.7754L119.739 943.0854L119.429 944.4254L117.459 944.0254L115.309 943.0554L114.649 941.2054L112.909 938.4155L113.479 938.1354L113.739 937.2855L113.629 935.2054L114.919 932.4155L116.379 931.9355L117.349 932.8455L119.749 934.2654L120.059 934.9755L119.919 935.3755L120.319 935.2355L120.579 934.6955L121.869 936.7755L122.069 936.6655L121.699 936.2355L121.809 935.7255L122.469 936.3555L122.899 936.3856L122.349 937.6155L122.979 937.9556L123.239 938.7856L123.609 940.6656L123.499 941.9756L122.869 943.7356L120.949 944.7056L120.609 945.3556L122.179 946.4656L122.289 948.0856L122.719 948.5456L123.519 948.7756L122.889 947.7455L122.949 947.4055L122.579 947.1455L122.809 946.4955L121.439 945.0155L121.469 944.6155L123.269 943.8455L123.809 944.4755L123.839 943.5355L124.409 942.9355L124.519 942.3055L126.689 942.5655L126.119 942.1655L124.979 942.1055L124.669 941.7955L124.179 940.9455L124.289 938.8655L122.629 935.1055L123.229 933.8855L124.349 933.4555L124.719 931.6655L123.659 930.8655L123.549 930.3256L123.839 929.9556L123.069 929.4955L121.499 927.5056L121.729 927.0256L123.069 927.2556L124.409 926.4556L123.439 924.0656L121.869 924.8055L119.749 924.8655L118.629 924.5255L117.169 924.7255L116.109 923.9555L115.879 922.4455L116.109 921.5055L116.879 922.1555L117.189 922.0955L117.019 920.7555L118.189 918.4755L118.989 917.8755L119.559 916.9055L121.589 918.3255L123.559 917.9855L123.789 918.7255L125.019 918.9255L125.529 919.7755L126.039 919.6655L125.809 919.3854L125.379 919.0454L123.579 917.6254L122.749 917.5654L121.869 918.0654L120.919 917.1654L120.949 916.5154L120.439 915.8554L120.469 915.0554L120.669 914.9454L120.929 915.5454L121.469 915.7154L121.839 915.1154L120.899 914.8254L123.389 912.3455L123.499 911.7755L123.099 911.7755L120.529 912.6055L119.039 912.5754L119.299 913.2054L117.729 914.6055L117.299 915.5455L115.959 915.5755L116.359 916.0555L116.269 916.4855L112.749 917.9055L111.229 917.9855L110.169 917.6155L109.629 916.8455L110.399 915.3954L110.369 915.2554L110.679 914.4254L110.969 913.9654L110.109 914.6154L109.879 915.7254L109.509 916.0954L109.169 915.6954L109.309 914.6754L110.679 913.1053L110.419 913.0753L109.539 914.0953L108.939 914.5853L108.569 915.5853L109.029 916.8654L108.429 916.9753L107.399 916.5453L107.509 915.5153L107.309 915.3153L107.309 915.9453L106.309 915.9153L106.219 915.2353L105.789 915.1753L106.079 914.4653L105.279 914.5553L105.219 913.9853L104.359 913.1553L104.959 912.8152L104.559 912.6453L104.159 913.1252L103.729 912.8953L104.159 911.5853L104.559 911.2153L103.789 911.1553L103.849 911.9253L103.509 912.6353L103.109 912.4653L102.449 911.2953L102.559 910.7554L102.189 910.5554L102.019 909.9053L102.509 908.5653L102.999 908.2853L102.899 907.5953L102.519 907.4053L102.359 906.9853z" stroke="none" fill="#2ECC71" fill-rule="nonzero" />                        <path                id="NO"                data-name="North"                data-id="NO"                style="fill: #beffe8"                transform="matrix(1.00059 0 0 0.9999187 0 0)"                d="M729.529 542.4055L729.999 544.1055L729.4189 545.9055L728.2289 547.2955L728.059 547.9355L728.699 548.9355L728.629 549.4055L726.159 551.6254L725.199 552.8754L723.369 554.1254L722.749 555.4254L721.309 556.1554L720.5389 557.3854L720.7289 558.1154L719.309 559.0154L719.299 559.6754L718.689 560.2153L717.499 560.7853L717.619 561.7354L716.8489 563.4153L715.7789 563.6653L714.9489 565.4653L714.0689 565.9153L716.6189 568.2753L717.2889 570.2953L713.4189 571.1354L712.5789 572.1554L709.0488 574.8454L706.1888 578.0454L704.3389 578.3854L701.3088 580.4055L698.4489 582.9355L693.9089 581.4155L691.7189 581.5854L689.0289 582.5955L687.8489 583.2755L685.4989 586.6354L682.9689 589.3354L678.4289 592.0255L676.2389 592.3655L674.0589 591.8655L672.3789 592.0255L670.3589 592.8754L664.9689 595.9055L654.7089 600.1155L652.6888 599.7755L651.0089 600.2855L649.8289 601.4655L645.6288 603.6555L641.7589 606.1755L639.5688 606.8555L635.0289 607.5255L632.1689 606.0054L630.3189 603.1454L625.1689 602.5255L623.6789 600.0654L620.7589 594.0154L608.8889 594.4655L600.3689 593.1155L601.6789 588.3755L601.6789 583.7855L600.6889 579.0255L599.2189 576.8954L594.799 575.4155L590.869 568.6855L588.079 566.5555L588.409 563.4355L585.629 562.2855L582.019 559.8254L581.199 553.4254L579.069 551.4554L563.069 549.7755L560.999 549.8854L555.509 547.8654L555.049 546.6054L555.249 545.1554L555.749 544.1454L555.549 542.7454L554.8989 540.9354L553.7889 540.3754L547.879 541.5353L543.5389 541.8953L541.679 543.1453L540.0389 543.1453L537.5189 543.6553L536.1289 543.5253L534.2389 542.6453L531.7089 542.3853L526.9189 544.6653L525.3989 545.8054L521.9988 546.4354L520.2288 547.9554L519.2188 550.6054L517.7088 550.7354L516.5688 550.3554L513.9188 548.0754L512.9088 546.3054L507.6088 544.4153L505.8488 542.8953L504.7087 540.8753L503.1987 539.1053L501.6787 538.2153L497.5187 537.4553L493.9787 537.5853L491.3987 539.8353L491.2188 541.3052L490.6588 542.5153L491.1588 546.6953L489.9088 548.6953L488.4188 548.0753L484.7787 548.5452L477.1588 548.3253L470.2288 547.2653L465.4788 545.3652L461.3188 543.2152L444.9088 541.1152L425.9887 532.5652L425.4487 525.8853L426.7887 521.3453L425.7187 518.1353L424.1187 515.1953L419.0687 515.2552L410.7587 513.3353L405.9987 509.8453L396.5487 500.8853L391.6087 495.6753L387.0987 489.6753L387.3387 487.8053L387.2187 483.9353L386.3787 478.2253L385.1987 473.2953L385.9387 467.9053L388.1887 463.1753L392.4487 462.0553L394.0187 462.9553L396.2587 462.9553L399.1787 460.7053L399.9887 457.7953L402.4087 457.6453L403.0687 457.1953L404.1987 455.3053L403.4387 451.6853L402.0887 449.2053L400.7487 447.6353L400.9687 445.3752L403.6587 444.7052L406.5787 445.3752L410.6287 442.7152L415.5587 443.8452L419.9487 445.5453L421.3187 445.3452L426.9687 440.7452L428.0587 440.6152L430.0387 440.9152L430.5987 440.4352L431.4787 439.4252L432.2487 437.3552L433.8787 436.1352L434.1787 435.1552L434.1287 431.5852L435.0987 429.7552L437.5187 428.8552L441.3887 429.1452L443.1887 427.2952L443.9887 425.5352L443.7887 423.8952L445.3787 420.1252L446.0587 416.2952L446.0587 411.1052L447.3087 407.1852L447.9187 406.2152L447.6287 401.3652L446.7287 398.4252L446.7287 396.6252L448.7487 392.1052L449.4187 388.0452L452.2787 382.9752L452.5486 380.8152L453.7586 379.6552L453.8686 377.8052L453.4586 373.8452L453.4386 369.9652L453.7686 368.8652L453.6086 367.2252L452.7986 366.5352L449.6286 366.4852L448.8586 366.0852L448.9686 364.5352L448.6986 363.8452L449.6286 363.0552L453.4886 361.0352L454.9686 360.5552L456.2286 359.7252L456.7286 358.6552L457.5886 357.7452L459.3086 356.8652L461.2186 354.9152L463.9186 354.4452L468.4786 350.8552L469.7186 350.9651L470.9886 350.5151L473.0386 350.7151L474.4186 350.0652L477.1386 350.2652L480.2286 349.3252L481.3286 349.5752L482.9986 348.9952L484.6386 347.2952L486.2286 347.5052L487.2686 345.3952L487.9386 344.7752L488.0786 343.2852L489.1686 341.1152L488.4586 340.0652L488.5987 339.4452L488.3187 338.7552L488.8187 337.7252L488.2787 336.4352L488.6587 335.4652L490.0687 333.9852L489.6187 332.1452L490.0087 330.6652L490.5087 330.0052L490.3887 328.8051L490.7287 326.2552L491.0187 325.4951L492.7887 323.8051L493.4887 322.1852L494.3287 321.1052L494.1587 320.2252L492.6487 318.4651L491.0687 317.2252L490.1887 317.2552L488.1786 316.2652L487.6587 314.3752L487.0186 313.5952L487.1786 313.1451L486.8387 311.6852L487.0687 310.6552L488.0487 309.5551L490.1387 308.3551L491.2787 306.2951L492.0487 303.7851L491.9987 302.7351L490.2987 301.4451L489.4287 300.0351L489.1787 298.3951L489.6587 297.1051L492.1987 294.7951L493.1487 292.7351L496.1387 288.6151L497.6587 287.9451L501.0787 287.9951L502.9887 287.0351L504.3387 286.7751L504.8487 288.7551L507.6687 293.5451L508.8387 293.8051L510.6588 293.6451L512.6987 292.2751L515.9088 291.7151L519.6387 292.1551L520.5687 292.7351L521.3187 292.6351L523.2987 291.0551L526.3787 289.5551L532.8287 288.1351L533.6287 287.0951L533.5087 285.7751L530.9587 283.6751L530.2787 281.4451L532.1487 277.3251L534.5287 276.2951L546.3387 278.6151L552.2188 277.4951L555.4487 279.0451L560.8787 279.3151L562.7687 280.2451L564.3987 281.4651L566.5287 285.3951L569.5687 286.8951L571.2487 288.9351L572.2687 291.045L574.2188 291.045L576.6487 290.155L579.6088 290.905L586.8287 294.295L587.4487 295.0251L587.6287 296.6851L586.6187 300.425L586.3987 303.6551L586.2888 305.1051L585.6688 306.6651L584.8887 310.3851L583.7888 312.0851L577.3387 320.6151L575.2388 322.5251L574.3588 324.2451L571.7087 325.8251L570.5687 327.2851L569.1687 330.5851L568.5987 334.205L568.8687 336.665L571.4087 338.925L572.9887 342.665L574.6587 344.1451L575.4987 345.455L576.8587 346.545L577.7687 348.0251L580.5887 351.075L583.7887 353.475L586.2687 354.185L586.8487 357.095L588.3987 357.615L589.7587 358.615L592.3887 363.165L595.1487 365.045L597.4187 365.765L599.2787 365.735L601.3287 369.595L603.0987 371.855L605.4087 373.045L606.3087 373.835L607.0287 375.975L606.7187 378.005L605.5587 380.715L605.3687 382.265L605.7987 383.335L610.8987 388.025L612.4987 390.645L615.2587 392.095L617.3787 394.215L617.3787 394.715L616.4487 395.835L616.4787 396.405L619.0987 400.375L621.8587 401.065L624.2187 402.495L630.4787 408.565L631.0687 408.855L636.8087 415.185L640.4687 417.895L641.6587 419.425L642.6587 420.155L644.1787 422.345L645.5087 423.065L649.8587 423.325L651.3387 424.3051L652.6687 424.0251L654.1187 424.1451L654.6387 423.4951L655.3287 423.2851L655.9688 423.4551L656.5388 422.7651L657.1588 423.4151L657.6088 423.0651L659.0388 423.5051L659.9487 425.2451L659.9887 426.1551L661.8587 427.6451L660.3487 429.0251L661.7887 429.9051L664.5087 429.8651L664.9786 430.5951L667.1386 431.3151L668.4286 432.9151L667.8286 436.0451L668.3486 437.1151L670.2686 437.0051L673.0986 437.8151L675.0686 439.2751L677.0886 439.7851L680.1086 444.4051L681.3087 447.7151L685.7986 452.5151L688.1887 454.3251L690.8787 457.0251L692.3787 459.4251L692.9687 462.4351L698.1687 471.4851L699.0187 475.1951L699.5587 476.3851L700.6287 478.0651L701.7087 480.7051L710.5387 498.0351L709.7887 502.9151L710.6387 505.4751L712.4187 507.1351L713.0787 508.4351L716.1987 518.0151L717.8087 521.2151L722.1287 528.1851L723.2687 528.725L730.3987 530.2451L731.0387 531.1451L730.3887 533.5451L730.8387 534.2051L730.5987 535.0551L730.8587 535.965L730.8687 538.6151L731.1287 539.1351L730.7887 540.6551L729.529 542.4055z" stroke="none" fill="#2ECC71" fill-rule="nonzero" />                     <path                id="NW"                data-name="North-West"                data-id="NW"                style="fill: #e9ffbe"                transform="matrix(1.00059 0 0 0.9999187 0 0)"                d="M172.829 616.4055L173.749 620.5854L175.939 622.7755L179.639 624.2955L183.839 624.4554L188.889 623.6154L200.159 622.9454L205.709 623.2855L207.229 622.4454L207.039 618.7155L209.269 618.0255L209.809 617.1254L210.729 616.3654L210.889 614.1154L211.899 612.0554L213.049 606.3454L212.759 605.0954L213.039 603.7454L212.919 601.5354L213.369 601.1554L213.199 600.5254L213.919 594.0054L214.179 593.6254L214.889 593.9554L215.359 594.6954L216.189 594.9754L216.929 595.8054L216.959 597.8354L217.589 599.2855L216.719 602.4855L219.799 605.1155L222.239 605.7055L222.669 605.5655L222.909 604.9455L224.979 605.9955L225.229 606.3655L225.179 607.6855L225.5891 608.5155L226.869 608.6455L233.1391 612.5055L237.369 614.1255L240.539 614.0255L242.8891 616.0455L242.8891 620.2556L245.0791 623.4456L245.4191 627.9955L247.599 631.0256L250.629 632.8755L254.669 633.3856L259.039 633.3856L264.929 637.9255L266.0291 641.5355L266.0291 642.9555L265.4691 645.2455L264.899 651.9655L266.3191 655.6555L266.2191 657.5455L267.6391 664.4554L269.0591 666.7255L270.6691 668.0455L272.2791 668.5255L278.7291 668.7054L279.6591 672.0255L277.959 681.7654L277.199 683.0054L275.499 684.4154L274.739 684.6954L274.269 686.1154L273.119 687.8354L271.239 689.0454L267.259 689.3254L259.499 688.0054L258.369 688.8554L257.609 689.8054L258.179 694.0554L259.149 695.9654L257.839 697.6054L257.519 702.4954L255.559 704.7854L248.859 708.6954L243.449 710.2854L241.339 712.1654L239.089 711.8954L234.839 710.4054L231.049 709.6254L227.649 709.6254L225.949 710.5754L221.939 719.2154L218.959 727.1854L216.369 730.5854L204.659 730.3154L196.859 731.9454L193.829 732.1754L187.979 733.3453L187.119 739.6453L184.969 741.5053L182.889 740.6553L180.389 737.9254L172.519 735.3953L166.749 740.0953L164.379 740.3353L155.719 738.8153L152.709 737.3553L149.039 738.4753L146.849 740.9153L141.179 738.0253L134.029 735.9352L129.949 733.3953L128.219 730.5753L126.239 729.0052L122.649 729.6953L119.679 726.9152L118.249 724.8352L115.239 723.3352L113.209 721.3552L114.229 719.7352L115.829 715.9252L113.399 712.6752L112.829 710.8853L113.059 708.9753L120.709 705.0753L124.649 701.0052L126.889 694.2952L129.439 689.6452L128.219 686.1852L129.439 676.5952L126.579 672.7252L127.929 668.6552L128.289 663.9252L124.639 660.4152L127.119 651.1852L128.199 649.1652L128.829 646.4852L129.819 645.8752L129.699 644.5252L130.289 644.0952L129.739 642.2952L130.209 641.8452L129.679 640.7152L130.179 639.5252L130.309 637.7352L131.589 636.1152L131.629 635.3352L131.089 634.8052L132.579 631.2652L133.789 631.9252L133.919 632.2751L134.709 632.3751L135.069 631.7951L136.569 632.6451L140.239 632.7951L142.459 634.0051L146.429 629.4451L150.149 626.2951L151.999 623.2351L155.129 620.5851L156.049 620.3851L157.129 618.5151L166.849 610.3151L170.769 606.2151L172.239 606.7351L172.129 608.0851L173.149 608.2751L173.3391 608.6951L172.4391 610.0551L173.0391 611.4451L173.5091 611.5351L173.8491 613.4751L173.3591 615.7751L172.8591 615.6851L172.829 616.4055z" stroke="none" fill="#2ECC71" fill-rule="nonzero" />                   <path                id="WE"         data-active="true"         data-name="West"                data-id="WE"                style="fill: #defcc7"                transform="matrix(1.00059 0 0 0.9999187 0 0)"  d="M277.199 683.0054L280.039 684.4154L284.579 684.7854L287.799 686.0154L288.739 688.4554L288.439 690.7754L287.049 691.8454L287.139 694.8354L286.759 698.7054L287.229 700.8854L288.079 702.3954L289.789 704.1954L290.539 705.7054L290.729 707.1254L288.649 711.6554L287.329 713.7354L285.259 715.6054L285.869 720.4854L285.049 724.4254L285.929 726.4754L286.419 733.0154L290.089 735.3454L286.599 740.3254L283.349 742.9354L279.089 747.0054L279.759 749.5254L278.369 751.3354L277.749 753.5254L279.899 761.2554L277.749 768.2654L276.489 768.6554L275.849 770.2054L277.789 772.3354L277.089 775.8254L274.549 777.5754L272.8589 779.4054L271.499 782.1954L268.539 783.0954L265.949 785.6054L266.459 788.0454L266.229 790.7354L265.359 793.5254L266.049 796.0354L261.039 797.3654L257.159 802.4554L255.859 809.4254L253.339 819.0254L248.809 822.3654L244.529 821.6754L237.549 813.8754L235.779 814.3354L232.359 818.5554L221.199 824.4654L215.469 826.4154L207.919 825.1754L203.899 824.4754L203.259 821.7154L202.579 820.9154L200.609 822.0454L198.959 820.6054L198.219 816.1554L197.519 814.7954L195.159 812.4654L194.579 810.4654L194.869 807.6054L193.969 806.7554L188.949 807.0955L186.269 807.8954L183.049 806.6154L180.669 806.3154L179.379 808.0354L178.949 811.8954L173.069 815.3254L170.349 820.7654L169.779 822.6254L167.049 822.7654L165.039 818.4754L163.079 818.2054L162.279 815.0154L162.279 810.9054L156.389 808.7554L154.029 802.2953L155.219 798.9053L155.609 795.0053L153.429 789.8553L150.769 787.1753L148.129 787.4853L146.399 787.2953L144.189 789.2153L142.739 789.1852L140.709 788.2852L140.239 786.7252L141.529 779.5152L143.789 778.0552L145.6889 775.6952L146.569 773.4452L148.659 771.9352L149.5889 769.4652L150.3589 758.5152L151.459 756.3152L157.739 752.3552L160.6889 749.9252L161.5589 748.5452L164.3289 747.9252L166.879 746.1052L166.509 743.5652L164.379 740.3352L166.7489 740.0952L172.519 735.3952L180.3889 737.9252L182.8889 740.6552L184.9689 741.5052L187.1189 739.6452L187.9789 733.3452L193.8289 732.1752L196.8589 731.9453L204.659 730.3152L216.369 730.5853L218.959 727.1852L221.9389 719.2153L225.9489 710.5753L227.6489 709.6252L231.0489 709.6252L234.8389 710.4053L239.0889 711.8953L241.3389 712.1653L243.4489 710.2853L248.8589 708.6953L255.5589 704.7853L257.5189 702.4953L257.8389 697.6053L259.1489 695.9653L258.1789 694.0553L257.6089 689.8053L258.3689 688.8553L259.4989 688.0053L267.2589 689.3253L271.239 689.0453L273.119 687.8353L274.269 686.1153L274.739 684.6953L275.499 684.4153L277.199 683.0054z" stroke="none" fill="#2ECC71" fill-rule="nonzero" />                          <path                id="ET"                data-name="South"                data-id="ET"                style="fill: #cebff2"                transform="matrix(1.00059 0 0 0.9999187 0 0)"                d="M419.469 963.7254L418.409 966.5754L417.659 973.2154L417.449 979.1254L419.419 982.1254L429.319 991.3553L433.559 996.2153L438.439 1004.965L439.229 1013.525L439.389 1023.735L442.889 1029.215L444.899 1029.845L447.3391 1032.265L449.2491 1031.955L451.049 1033.425L455.1891 1033.325L459.8491 1034.375L462.3891 1032.795L466.7391 1035.645L472.8891 1036.175L474.8991 1037.225L475.9591 1035.745L477.7591 1034.166L480.1491 1036.706L483.5891 1036.066L484.9691 1034.486L489.1091 1037.396L490.6891 1039.126L491.6491 1043.126L493.5491 1042.496L491.7891 1037.816L491.9691 1037.326L493.869 1036.596L496.519 1039.126L499.359 1041.036L502.459 1039.856L509.1891 1044.126L514.7491 1042.816L516.1291 1041.446L514.9691 1038.806L516.2391 1037.326L518.3591 1037.646L518.4591 1035.956L519.7291 1035.746L521.7091 1036.016L523.8691 1032.796L528.3191 1030.796L528.1091 1034.376L530.149 1058.346L530.939 1064.426L532.769 1105.875L514.6591 1105.806L505.3391 1106.116L494.429 1105.896L494.5591 1104.656L493.399 1104.036L495.2191 1102.066L494.5291 1100.816L494.5591 1099.966L493.639 1099.376L493.189 1097.756L492.699 1097.686L491.919 1097.776L491.029 1097.656L490.789 1097.216L490.959 1096.646L489.5891 1095.376L489.169 1095.376L488.5591 1095.986L487.899 1095.816L487.6591 1096.406L486.6991 1096.806L486.0091 1096.506L484.9991 1096.806L484.8091 1095.936L483.7291 1096.236L483.0391 1095.496L482.9891 1095.216L483.9791 1095.366L483.6391 1094.546L482.9491 1094.526L482.2691 1094.946L480.4091 1094.286L475.4391 1095.886L475.7891 1097.626L474.7991 1097.246L474.0491 1097.506L473.9291 1098.166L472.9691 1098.566L472.7091 1099.076L471.5791 1097.806L470.9891 1098.136L470.4191 1098.066L469.8991 1098.866L467.9991 1099.146L467.5491 1098.986L467.4091 1097.996L466.8891 1098.396L466.3491 1098.346L465.8491 1097.806L463.8491 1097.826L463.1191 1097.856L460.7891 1098.626L460.0391 1098.366L458.0791 1098.386L456.9991 1097.426L455.4491 1097.476L454.9991 1097.726L455.5391 1098.436L453.3991 1099.256L452.4991 1099.216L451.5091 1098.246L450.9891 1098.666L450.5491 1099.966L450.0791 1099.756L449.5991 1099.966L449.1591 1099.916L448.7791 1099.186L446.0291 1098.806L445.8091 1097.466L445.1791 1096.976L444.6591 1097.916L443.9491 1098.146L442.6591 1097.816L442.3291 1098.926L440.6791 1099.816L437.1991 1100.506L436.3691 1099.916L434.7491 1099.696L433.9492 1099.986L431.7092 1098.546L430.1992 1098.426L429.7992 1098.756L428.5792 1098.926L425.1591 1098.336L423.6992 1097.276L421.3892 1097.276L420.9492 1096.856L421.0192 1096.166L420.0492 1095.816L416.7292 1097.156L415.0792 1097.346L412.6092 1096.666L411.3892 1096.666L409.6192 1097.326L407.3892 1097.506L404.4192 1097.186L394.3592 1095.026L391.6692 1094.986L390.6792 1095.066L390.1192 1096.456L389.5092 1097.026L387.4392 1096.976L386.8692 1097.516L385.5992 1097.776L383.9292 1096.906L382.6792 1094.976L382.0692 1094.746L381.5192 1095.066L378.0192 1094.556L377.2892 1095.266L376.5992 1095.476L376.0092 1095.376L375.0892 1094.416L373.6092 1093.566L371.8692 1094.766L369.2292 1094.696L368.3391 1094.136L366.2191 1093.926L365.8892 1093.976L365.6292 1094.516L364.7292 1094.466L362.1692 1093.556L361.7892 1094.376L360.8492 1094.046L359.8592 1094.216L358.7692 1093.526L357.9292 1093.956L357.5692 1093.676L357.0292 1094.166L355.1692 1093.866L353.8992 1094.496L352.2692 1093.776L352.0192 1094.456L351.3592 1094.666L350.1292 1094.126L348.9592 1094.736L348.0592 1094.296L346.9492 1094.366L346.5992 1095.376L345.6292 1095.356L345.5892 1094.596L344.1292 1094.976L343.6292 1094.486L342.5692 1094.156L342.3392 1094.956L340.0092 1094.766L339.4892 1094.466L338.4492 1094.916L338.2192 1095.426L336.0292 1095.076L335.0092 1095.386L334.9892 1094.586L334.3492 1093.696L334.4492 1092.866L332.9892 1093.126L332.0892 1092.236L330.9792 1091.956L329.7792 1090.376L329.3292 1090.336L327.1392 1090.826L326.5492 1090.826L326.1492 1090.406L324.8792 1091.066L324.0592 1091.966L322.2892 1091.846L320.7892 1092.676L318.2892 1091.496L317.2292 1091.406L315.1292 1091.646L314.6392 1092.346L313.8192 1092.796L313.2992 1092.566L312.5192 1092.796L311.4392 1092.256L309.7592 1092.266L307.8593 1093.136L306.5593 1092.246L304.8693 1092.176L304.2093 1092.316L304.7993 1093.026L304.3993 1093.356L303.7393 1093.376L302.4393 1092.456L301.4993 1093.006L300.3493 1092.986L298.0093 1092.306L297.2393 1092.746L296.4793 1092.726L295.3093 1093.836L296.1793 1094.356L296.5993 1095.076L296.6793 1095.336L296.1093 1095.926L296.6292 1096.706L295.8792 1097.766L294.8192 1098.496L294.5592 1099.416L293.8092 1100.146L294.4892 1100.686L294.2092 1101.016L294.3992 1101.746L294.0992 1102.476L294.4992 1102.986L293.8392 1104.476L294.5592 1105.526L281.2392 1105.566L278.7092 1104.876L277.4392 1104.196L276.5492 1104.296L274.8992 1105.456L175.1892 1105.646L172.5792 1107.096L171.2192 1105.386L169.4792 1105.516L167.6892 1106.966L166.5292 1106.406L162.2492 1106.656L161.0692 1106.376L160.2592 1104.756L159.5592 1106.376L159.0193 1106.776L154.3493 1105.146L153.7593 1105.386L153.0293 1105.196L151.0993 1104.056L149.2593 1103.726L147.1593 1102.796L146.7493 1102.866L145.8493 1103.826L145.3093 1103.726L144.9393 1103.296L144.8293 1101.716L144.4993 1101.176L143.9793 1100.755L143.3193 1100.715L142.6493 1099.585L139.1593 1098.115L137.4393 1093.575L137.7593 1091.375L137.6293 1089.635L136.4393 1087.745L136.6193 1087.375L136.3593 1085.725L136.7893 1084.695L136.5893 1081.805L136.1893 1080.235L136.3593 1079.495L137.0193 1078.985L137.0993 1078.075L136.5893 1075.655L136.7893 1074.695L136.0193 1071.565L136.0393 1071.085L136.5293 1070.915L136.7593 1070.175L136.6693 1065.085L137.3893 1064.025L138.2493 1060.165L138.4993 1059.935L139.1293 1054.365L139.5593 1053.135L139.8993 1053.056L140.5893 1051.686L140.3293 1049.696L140.9293 1049.496L142.1393 1047.856L142.0493 1046.516L142.3893 1045.856L142.1593 1044.756L143.3593 1041.846L143.9893 1041.396L142.7893 1036.786L143.0493 1036.536L143.1393 1034.736L143.6793 1032.946L144.2493 1032.976L144.3893 1032.696L144.6793 1030.676L144.3093 1029.226L144.9393 1028.026L145.1893 1025.866L145.5393 1025.756L145.9393 1023.446L147.0493 1022.336L147.1693 1021.486L147.7693 1020.806L148.1693 1020.916L150.0593 1019.556L150.5093 1017.816L150.9393 1017.386L151.0593 1015.176L151.5393 1014.716L151.1693 1012.986L152.1193 1012.416L152.2893 1012.016L151.6293 1010.076L149.3093 1005.526L148.2793 1002.346L147.0193 999.6057L146.7393 998.1857L144.3693 994.1757L144.5393 993.6857L149.3693 992.8557L153.0093 989.2357L158.4593 986.3157L160.2693 982.1457L159.9893 980.3357L161.8093 978.3957L161.3893 975.4757L161.8093 972.7657L161.5793 970.4657L167.2593 963.2357L168.3193 961.0157L172.7093 961.0057L175.6493 958.9257L176.7593 959.6157L177.7393 961.4257L180.5393 962.6757L180.7593 965.0857L178.9993 967.5457L181.1293 971.5857L182.0693 976.4757L184.5893 984.7857L193.2493 983.5357L217.2493 976.2457L235.1693 971.4457L237.6893 971.1657L239.7293 972.3057L240.9193 975.3358L241.5793 977.9357L242.8293 979.0057L251.6593 976.5858L254.0393 976.7258L255.2893 978.6758L257.1093 979.0558L261.0093 978.0058L264.2393 980.4758L266.3293 983.2558L268.0093 989.6558L268.2893 993.4058L270.6693 996.2558L273.0393 996.6058L273.7393 998.4158L273.5993 1001.336L277.0893 1003.976L279.6093 1007.316L281.5593 1007.446L285.4793 1006.336L287.4293 1006.336L291.6293 1007.586L295.2593 1006.056L298.3293 1005.646L309.0894 1006.476L312.9994 1006.476L317.4794 1005.646L321.3894 1003.696L327.3994 1001.336L329.7694 999.0958L331.5894 992.0158L334.2494 989.5158L336.0494 986.1158L338.1594 985.7658L340.5594 983.2158L346.3293 981.3458L348.7693 974.8058L351.2094 974.0659L352.8994 976.1758L354.9294 977.1359L356.6093 976.3859L358.5193 976.9159L360.1093 979.4459L373.8893 984.9259L374.7393 986.2959L373.5693 988.5159L373.5693 990.0959L374.6293 990.4059L376.5393 989.4659L378.4493 987.9859L382.0493 988.6159L384.1693 986.2959L384.9093 982.0759L387.4593 972.6959L392.6493 967.3159L401.1293 960.9859L405.4793 957.0759L408.0193 952.856L410.0294 952.3359L412.4694 952.856L416.5094 961.0859L419.469 963.7254z" stroke="none" fill="#2ECC71" fill-rule="nonzero" />                     <path                id="SW"                data-name="South-West"                data-id="SW"                style="fill: #dac6f5"                transform="matrix(1.00059 0 0 0.9999187 0 0)"  d="M6.479016 839.5454L6.139016 840.0854L6.369016 841.1954L6.709016 840.9054L7.279016 841.9054L6.649016 842.6454L6.359016 842.6454L6.269016 842.1354L5.699016 841.7754L5.809016 841.1154L5.409016 841.2054L5.039016 840.4954L5.129016 839.4954L6.099016 839.1254L6.479016 839.5454zM6.099016 865.9654L6.729016 865.7654L7.039016 865.1054L7.639016 865.1054L7.929016 864.1954L7.839015 863.4254L6.239016 862.9954L5.729015 861.6254L6.899015 860.8854L6.129015 860.5955L5.819016 859.4255L4.849015 858.7955L4.329015 857.9955L3.069015 859.0755L2.839015 861.1555L2.349015 861.4455L1.889015 861.3855L0.2690152 861.6955L0.4990152 864.2855L1.039015 866.5055L1.749015 867.3055L3.489015 867.8155L4.829015 867.4455L6.029016 866.1655L6.099016 865.9655zM4.359015 850.3854L4.789015 850.0154L4.879015 848.5354L4.269015 848.0454L3.269015 848.6454L2.979015 849.9854L3.209015 850.3854L4.359015 850.3854zM21.99902 865.9954L23.56902 866.1653L23.30902 866.7053L20.61901 869.0153L10.35901 868.7253L7.959014 869.1053L6.639014 868.9354L6.239014 868.6254L6.729014 868.4854L7.039014 867.3453L7.579014 866.9453L7.919014 866.1753L9.459015 866.6553L10.99901 866.1953L11.13902 865.9352L11.04902 864.9052L10.78901 866.0152L9.589015 866.3552L8.249015 865.6152L8.139015 865.0753L8.449016 864.4453L8.049016 863.1953L6.559016 862.7952L5.989016 861.7952L7.019016 861.2552L7.159016 860.8853L6.989016 860.5753L6.299016 860.4053L6.129016 859.3553L6.819016 858.8953L6.759016 858.7253L5.869016 859.2653L4.699016 858.3853L4.589016 857.7853L5.649016 856.8453L8.879016 855.2453L9.309016 854.7853L9.139016 854.3053L9.109016 853.7353L9.109016 853.5353L7.849016 852.2853L7.389016 850.4053L7.879016 849.7753L7.879016 849.0353L6.309016 848.4953L5.969016 848.0953L6.199016 847.8053L7.919016 847.5153L9.039016 846.5453L9.069016 846.3154L8.809015 845.5453L7.949015 844.9454L7.919015 844.5453L9.809015 844.4653L10.46902 843.8953L10.37901 842.2153L11.60901 841.9553L13.83901 841.4753L13.60901 842.8453L14.74901 842.9553L14.79902 843.4153L14.34902 845.8654L14.08902 845.9753L14.39902 846.5753L14.10902 848.5753L14.24902 848.6853L15.93902 850.5353L16.82902 852.7552L17.45901 859.3052L17.79902 860.7053L18.19901 860.9952L18.62901 862.2452L18.56902 862.7053L17.87901 863.2753L15.75902 862.1353L15.52902 862.4252L15.69902 862.5652L17.06902 863.6752L17.29902 863.8452L18.92901 863.5052L19.21902 862.9652L19.92901 862.6752L22.09901 864.3052L22.03901 864.7053L22.55902 864.6752L22.66902 865.7852L21.99902 865.9952zM2.039017 858.4454L4.069016 857.1954L4.409017 856.5154L4.919017 856.4354L7.039017 855.2654L7.269017 854.9254L8.499017 854.8154L8.839017 854.5554L8.809017 853.8954L7.839017 852.8454L7.209017 851.2154L7.209017 850.4154L7.749017 849.1854L5.999017 848.5354L5.369017 848.6454L5.059017 850.0654L4.429017 850.5854L4.049016 850.6354L2.079016 850.4054L1.819016 850.4354L1.619016 852.4354L0.6790164 853.8054L0.2690164 855.4854L0.4390163 856.5654L2.039016 858.4454zM97.21902 911.1154L96.87902 910.7054L96.49902 910.6754L96.09902 910.7953L96.10902 911.4954L95.69902 911.9954L94.71902 912.1653L94.98901 914.6754L95.25901 914.9854L95.70901 915.1053L96.659 914.5554L96.369 913.5054L97.19901 913.3954L97.16901 912.7154L97.73901 912.4354L98.009 911.3553L98.019 911.3353L98.369 910.5653L97.999 910.1753L97.779 910.3053L97.779 910.7553L97.719 910.9553L97.219 911.1153zM166.879 746.1053L164.329 747.9254L161.559 748.5353L160.689 749.9153L157.739 752.3453L151.469 756.3054L150.369 758.5054L149.599 769.4654L148.669 771.9354L146.579 773.4454L145.699 775.6954L143.789 778.0554L141.529 779.5154L138.169 779.5154L137.049 780.5354L134.579 784.7054L133.199 785.2654L129.489 784.7054L129.049 786.3454L131.919 796.8354L135.739 799.7254L140.719 808.6154L140.039 809.9854L136.779 810.2354L135.389 810.8154L131.349 819.2854L131.239 821.6754L134.129 823.0454L134.469 824.0954L134.179 824.9254L125.559 833.9154L124.409 840.4954L118.379 847.9954L118.599 851.8554L115.829 853.0654L112.119 851.9154L107.949 858.1454L105.749 862.1854L104.739 864.6454L102.969 867.3754L102.889 870.6354L102.499 872.4554L103.919 875.7254L100.189 881.6854L98.14903 885.9554L96.95903 887.0355L96.12903 891.5754L95.01903 895.6154L95.46902 897.3154L98.15903 897.5854L99.50903 899.1055L104.089 898.2155L105.529 897.6755L106.519 898.4755L105.979 900.7955L108.039 903.4855L107.109 904.5055L105.979 906.7755L104.899 907.7555L103.439 907.7855L102.389 906.9755L102.529 906.4355L101.959 906.0955L100.639 906.7255L100.749 907.6655L100.409 907.6655L100.469 908.0355L99.77902 908.9155L100.289 910.1155L100.089 910.5955L99.57903 910.8555L98.51903 910.4555L98.02903 909.9155L97.65903 910.0555L97.68903 910.7355L97.37903 910.8755L96.77903 910.4155L96.26903 910.4955L95.89902 910.7556L95.72903 911.7556L94.58903 912.0156L94.38903 913.2355L92.66903 913.6055L92.52903 913.2955L92.89903 912.1555L92.57903 911.8155L92.29903 912.0955L91.49903 912.2655L91.40903 912.4055L90.46903 913.0355L90.09903 914.5155L89.49903 914.5755L88.80903 915.3755L87.86903 915.7455L86.72903 917.0855L84.98903 917.4255L84.09903 918.5355L83.52903 918.0555L82.63903 918.3455L81.83903 919.1455L81.97903 920.0255L81.25903 920.2555L81.34902 921.1355L80.71902 921.4255L79.37903 920.9655L79.80903 922.2755L78.26903 922.3854L77.69903 923.3254L77.92903 923.8954L76.95903 924.4954L75.86903 923.8954L76.09904 923.1854L75.63904 922.4154L74.51904 922.5254L74.14903 921.9854L74.31903 923.3854L73.71903 923.6454L73.40903 923.3854L73.54903 923.0454L73.17903 922.8754L72.91903 922.1654L73.42903 921.7654L73.62903 920.0554L72.88903 918.7153L73.37903 918.8253L73.66903 918.4253L72.49903 917.4253L72.00903 917.3153L71.34903 917.6553L70.85903 917.3654L69.99903 917.6553L69.76903 917.4254L69.19903 917.8254L67.26903 917.7854L67.06903 917.0154L65.83903 917.0154L64.83903 917.9854L64.20903 917.5554L64.31903 917.2953L63.54903 917.5554L63.23903 917.1254L62.63903 917.0453L61.43903 915.3054L59.57903 913.9954L56.54903 912.4254L55.02903 912.0853L54.56903 911.4053L54.25903 911.6953L53.39903 911.7553L53.05903 911.4153L53.05903 910.7053L52.05903 910.5953L50.65903 908.9153L49.45903 908.6353L49.42903 908.1553L50.22903 907.4453L50.62903 906.4453L50.39903 903.1953L51.70903 900.2352L51.21903 899.2653L51.44903 898.7253L50.38903 897.0453L50.27903 896.0153L49.24903 895.1653L48.98903 894.1153L48.15903 893.7453L45.92903 892.3753L45.78903 892.1153L45.01903 892.0853L44.75903 890.6353L43.06903 889.1252L43.03903 888.0452L43.57903 887.3652L43.97903 885.5452L43.48903 884.0952L43.57903 883.5552L43.00903 882.3052L41.14903 881.2552L40.17903 879.3152L39.51903 876.7753L39.65903 876.3152L39.36903 875.2852L39.53903 875.0052L39.70903 873.6952L40.99903 872.2752L41.91903 872.1052L41.08902 871.5952L40.65902 869.8852L41.11902 869.7452L42.94902 867.0952L41.82903 866.3251L41.48903 867.0051L40.91903 866.8651L39.62902 865.5551L39.91903 861.8251L39.74903 860.9951L39.71903 859.8851L39.91903 859.0851L39.57903 858.8251L38.85903 857.8251L38.71903 858.4851L37.59903 857.8051L36.50903 855.8951L35.36903 854.8651L35.13903 854.0951L34.87903 853.9851L34.36903 854.7251L33.23903 853.7751L33.20903 852.8651L33.80903 851.3851L33.91903 849.3851L32.57903 849.0751L32.43903 849.7551L31.77903 850.5551L28.74903 851.2651L27.48903 852.2351L25.45903 852.2351L25.02903 850.3551L24.53903 849.5551L24.62903 849.0751L25.73903 847.7651L26.53903 845.4551L27.10903 844.6251L27.07903 843.7751L27.58903 842.6652L27.31903 842.7751L26.65903 843.4052L26.76903 843.7751L25.90903 845.8251L25.47903 846.1652L25.18903 845.8752L24.01903 849.1852L25.01903 852.3752L25.61903 852.7452L27.15903 852.9152L27.01903 854.5452L27.24903 855.3152L29.04903 857.9952L30.24903 860.7052L30.98903 861.7052L31.01903 862.4752L30.01903 863.5052L27.98903 863.9852L27.21903 863.2152L27.21903 862.8452L26.64903 862.6152L25.15903 860.9652L23.12903 860.4752L21.26903 858.9352L21.52903 858.5952L20.58903 855.1752L20.87903 854.9752L20.90903 854.6352L20.39903 854.6052L20.00903 853.5151L18.68903 851.5251L20.88903 850.4752L22.05903 849.1951L22.36903 847.4551L21.19903 845.6351L22.31903 845.3452L22.82903 844.5151L22.82903 843.9152L22.48903 843.9952L22.25903 844.9352L21.71903 845.0152L21.48903 845.1052L20.79903 845.6752L20.79903 846.1652L21.42903 846.7952L21.65903 847.5652L21.25903 849.7053L20.65903 850.0753L18.62903 850.4153L16.82903 849.3653L17.02903 849.0553L16.51903 848.9153L15.71903 848.3453L15.11903 845.2353L15.60903 845.4353L15.06903 844.6953L15.35903 844.1553L16.72903 844.4954L17.32903 844.3854L17.58903 843.8754L17.44903 842.9054L17.93903 842.5954L18.22903 841.9154L17.36903 842.6854L17.27903 842.2854L17.82903 840.8154L17.13903 841.6354L16.96903 842.5754L17.27903 843.9155L16.99903 844.2054L15.95903 843.7454L15.15903 843.7154L14.95903 842.7754L13.83903 842.6354L14.23903 841.4954L14.69903 841.3854L14.69903 841.1254L11.98903 841.7454L11.54903 841.6954L10.14903 842.1254L10.17903 843.6954L9.579029 844.3553L8.209029 844.1854L7.979029 843.6154L7.349029 843.2753L7.239029 843.5053L7.819029 843.9953L7.669029 845.3553L8.789029 846.2653L8.279029 846.9753L7.109029 847.2853L5.709029 845.7753L5.369029 844.4352L5.799028 843.1852L5.629028 841.9553L5.969028 842.1553L6.169028 843.5553L6.509028 843.7253L7.359028 842.7753L7.269028 842.5753L7.499028 841.5253L7.359028 841.0953L7.049028 841.0953L7.449028 840.4653L6.679029 840.7253L6.449028 840.5253L6.359028 840.0953L6.759028 839.5553L6.249028 838.9253L5.819028 838.8353L5.689028 839.0953L5.129028 839.3253L4.959028 839.0652L4.729028 838.8353L3.989028 838.5253L5.049028 835.9952L6.149028 834.8552L6.759028 834.6353L7.419028 834.8853L7.879028 835.8253L8.759028 836.2653L9.699028 836.2352L13.71903 833.7952L13.65903 832.1852L13.15903 831.2452L11.15903 829.3452L11.18903 827.7652L12.89903 825.6852L13.62903 825.2052L15.79903 824.9352L16.17903 824.4352L16.31903 823.7052L15.81903 822.5052L16.02903 821.5152L16.71903 821.5552L17.70903 820.8652L17.91903 820.4651L17.62902 819.9252L19.10902 818.5952L19.24902 817.8652L20.30902 817.2452L20.75902 817.2852L20.89902 816.9352L20.39902 816.2952L19.42902 816.1552L19.13902 815.5851L20.75902 813.9752L21.20902 813.8552L21.15903 812.7452L22.21902 812.0752L21.99903 811.2452L22.74903 809.9952L23.23903 808.3652L25.47902 806.6352L25.61902 805.2452L27.80902 804.6452L28.74903 803.9552L29.80902 802.6052L30.59903 800.5652L32.97903 796.9653L33.08903 788.8653L32.73903 786.0553L35.09903 776.8953L35.72903 776.2753L35.38903 775.0253L35.70903 772.4453L35.20903 770.8153L35.38903 769.7953L37.24903 767.5453L38.31903 763.5453L40.56903 760.2553L41.05903 758.6653L42.04903 757.6453L42.30903 756.8152L42.20903 755.0652L41.79903 753.8853L37.92904 750.0953L36.61903 747.5753L34.97903 746.8052L33.30904 744.4952L33.01904 742.5153L33.22903 742.0153L33.84903 742.9153L34.17904 742.9853L36.61903 739.8753L37.36903 738.2653L36.60904 737.3953L36.69904 736.8953L37.96904 735.8053L38.43904 734.4353L38.05904 733.6853L36.79904 733.3353L36.17904 732.6953L35.50904 731.2753L36.58904 730.6053L37.66904 728.8054L40.47905 727.3553L42.28905 724.4854L43.20905 723.5353L45.07904 722.9854L48.75904 720.0253L51.41904 718.4453L65.92905 705.5353L67.56905 703.9153L69.13905 699.7454L71.12904 697.7953L73.83904 695.8054L75.47904 695.1053L79.21904 694.2454L81.29904 691.0254L83.86904 686.1754L84.86904 685.0054L85.40904 684.9554L85.66904 684.5955L85.38905 683.8154L86.11905 683.8654L86.63905 683.3854L87.04905 681.3054L86.67905 680.0954L87.18905 679.6154L87.38905 677.6054L87.97904 677.0354L91.63905 678.4054L95.50905 680.5654L96.54905 680.7054L97.89905 676.0254L97.93905 674.2854L98.44905 673.8654L99.26905 671.1154L99.40905 670.5254L99.16905 669.8654L99.86905 666.9054L100.5191 666.7554L106.2491 667.6354L107.7391 667.1954L112.0791 664.6754L112.4291 664.2953L112.0891 662.5853L112.2691 660.9753L113.5591 658.6053L116.0991 659.1854L117.0991 659.8154L117.6391 659.3854L118.8191 659.2654L119.0091 658.5554L120.7191 660.7454L121.7091 660.3154L122.5591 660.5754L122.9091 660.1254L123.5291 660.6454L124.6391 660.3554L128.2891 663.8654L127.9291 668.5954L126.5891 672.6654L129.4491 676.5354L128.2291 686.1154L129.4491 689.5854L126.8991 694.2354L124.6591 700.9454L120.7291 705.0154L113.0691 708.9155L112.8391 710.8354L113.4091 712.6155L115.8391 715.8655L114.2391 719.6755L113.2191 721.2955L115.2491 723.2755L118.2591 724.7755L119.6891 726.8555L122.6591 729.6355L126.2491 728.9455L128.2291 730.5155L129.9491 733.3355L134.0391 735.8755L141.1891 737.9655L146.8591 740.8555L149.0491 738.4255L152.7191 737.2955L155.7191 738.7556L164.3791 740.2756L166.5091 743.5056L166.8791 746.1055zM90.28902 915.7554L91.31902 914.3354L92.65902 914.1354L92.29902 913.3254L92.52902 912.1954L91.54902 912.4954L90.62902 913.2654L90.40902 914.6054L89.55902 914.8354L89.97902 915.0554L90.28902 915.7554zM94.77902 914.8454L94.71902 913.5954L93.76903 913.6054L92.60902 914.4554L91.54903 914.5154L91.20903 915.6554L90.77903 916.0554L90.11903 915.9954L89.77903 915.3654L89.31903 915.2554L88.02903 915.9954L86.76903 917.3654L85.13903 917.6554L84.93903 918.3354L85.33904 919.2754L86.36903 920.2454L86.73904 920.1854L86.79903 920.4753L87.71903 920.9553L87.97903 921.2153L89.14903 922.4653L90.14903 922.2354L91.23903 922.6954L91.46903 922.1554L92.38903 922.3254L93.38903 921.5254L93.07903 920.5854L92.95903 920.4154L92.95903 919.3654L93.95903 918.9954L94.38903 918.1454L95.21903 917.5154L95.15903 916.6055L95.86903 915.6355L94.77904 914.8455zM36.95902 860.8654L36.12902 858.4154L32.77902 854.0254L32.71902 852.9754L33.25902 850.4054L33.02902 849.3254L32.42902 850.4354L31.79902 850.8654L28.70902 851.6354L28.04902 852.0954L27.75902 853.1254L28.01902 854.7454L30.76902 858.8754L32.05902 859.4754L32.02903 859.9554L34.31903 861.8654L34.57903 862.3754L35.00903 862.2654L35.23903 863.5154L37.12902 864.7454L37.95903 864.8854L38.29903 864.6554L38.23903 863.3754L36.95903 860.8654zM88.45902 922.2254L87.33902 921.0554L85.96902 920.5154L84.56902 919.1754L83.62901 919.5754L83.25901 919.8354L82.82901 920.1254L82.65901 920.9754L82.22901 921.2354L82.11901 922.1754L83.20901 924.2554L85.89901 926.7554L88.98901 923.2354L88.589 923.0954L88.45901 922.2254zM33.69902 869.9254L33.23903 870.2654L33.20903 870.8354L32.89902 870.6655L32.66903 870.9255L32.55902 872.3255L32.86903 872.3255L33.86903 871.2955L33.49903 870.4155L33.69903 869.9255z" stroke="none" fill="#2ECC71" fill-rule="nonzero" />              </svg>