<?xml version="1.0" encoding="UTF-8" standalone="no"?>
<!DOCTYPE svg PUBLIC "-//W3C//DTD SVG 1.1//EN" "http://www.w3.org/Graphics/SVG/1.1/DTD/svg11.dtd">
<svg
        xmlns="http://www.w3.org/2000/svg"
        version="1.1" viewBox="0 0 400 384"
        width="400.0pt"
        height="384.0pt">

        <path
                id="LEC"
                data-id="LEC"
                data-name="Logone-Et-Chari"
                d="M 173.70 6.82 C 188.43 6.94 203.16 6.78 217.88 6.56 C 223.40 13.22 227.44 20.44 231.01 28.29 C 230.46 28.88 229.91 29.48 229.36 30.08 C 229.61 32.20 230.03 34.15 229.57 36.29 L 229.43 36.90 L 229.28 37.52 L 228.03 39.78 C 229.79 41.83 231.84 43.67 233.83 45.50 C 234.91 44.39 235.99 43.28 237.08 42.17 C 236.86 43.31 236.64 44.45 236.42 45.59 C 240.46 47.62 243.48 47.88 247.96 47.75 C 248.36 48.57 248.69 49.41 248.97 50.27 L 248.51 50.99 C 247.86 52.25 247.06 53.43 246.42 54.71 C 247.25 55.07 248.07 55.43 248.89 55.79 C 249.89 54.24 250.89 52.69 251.89 51.14 C 252.67 53.32 253.39 55.64 254.45 57.69 C 256.75 58.15 259.21 58.00 261.55 57.99 C 262.17 60.94 262.81 63.73 264.72 66.16 C 263.48 68.49 263.58 70.56 264.56 72.96 L 265.51 74.90 L 264.23 76.51 L 263.44 77.54 C 263.86 78.41 264.32 79.27 264.77 80.12 C 265.43 79.33 266.09 78.54 266.75 77.74 C 267.85 80.98 269.48 83.98 270.67 87.18 C 271.51 90.28 270.64 94.03 270.14 97.16 C 270.51 98.11 270.88 99.07 271.25 100.02 C 270.81 101.07 270.38 102.11 269.94 103.16 C 270.29 104.10 270.64 105.04 270.99 105.98 C 270.75 106.89 270.51 107.81 270.27 108.72 C 270.89 109.36 271.50 109.99 272.12 110.63 C 270.99 111.34 269.85 112.05 268.72 112.77 C 272.94 116.53 276.24 120.60 281.80 122.48 C 281.95 120.91 282.09 119.34 282.23 117.77 C 283.74 118.18 285.24 118.60 286.75 119.03 C 286.91 120.17 287.06 121.30 287.22 122.44 C 287.99 123.59 288.77 124.76 289.45 125.96 C 288.86 127.11 288.25 128.24 287.61 129.36 C 289.30 130.47 290.99 131.58 292.64 132.75 L 293.34 134.18 C 293.00 134.74 292.66 135.31 292.32 135.87 C 291.41 135.65 290.51 135.43 289.60 135.20 C 289.18 135.48 288.77 135.76 288.35 136.04 C 289.09 137.35 289.83 138.67 290.56 140.00 C 289.73 141.32 288.80 142.65 288.16 144.08 C 287.99 146.38 288.90 148.81 290.02 150.78 C 291.29 150.65 292.55 150.42 293.81 150.20 C 294.84 152.91 296.02 155.43 297.48 157.94 C 295.88 158.66 294.28 159.38 292.69 160.11 C 293.76 161.38 294.84 162.65 295.92 163.93 C 294.66 164.03 293.41 164.13 292.15 164.24 C 291.80 164.78 291.45 165.33 291.09 165.88 C 293.39 171.03 293.52 176.41 296.42 181.27 L 297.25 181.69 C 298.62 182.35 299.98 182.95 301.32 183.68 L 301.65 184.90 C 300.49 185.66 300.16 186.77 300.64 188.23 C 300.53 189.20 300.43 190.17 300.32 191.14 C 299.34 191.42 298.37 191.69 297.39 191.95 C 295.69 192.21 295.25 193.44 294.91 194.92 C 293.61 197.59 292.30 200.25 291.02 202.93 C 291.48 204.24 291.94 205.54 292.40 206.85 C 291.69 207.79 290.97 208.74 290.26 209.68 C 291.19 210.47 292.11 211.25 293.04 212.04 C 290.31 216.27 291.47 220.15 292.47 224.72 L 293.14 226.45 L 293.17 226.53 C 293.94 228.44 294.82 230.30 295.74 232.14 C 295.91 233.93 296.07 235.75 296.35 237.53 L 297.03 238.98 L 297.69 240.39 C 296.74 242.54 295.75 244.68 294.74 246.81 C 293.59 247.03 292.44 247.25 291.28 247.48 C 291.10 248.66 290.91 249.85 290.73 251.03 L 289.14 250.97 C 287.77 249.00 287.02 248.56 284.67 248.09 C 283.78 247.47 282.90 246.84 282.01 246.22 C 281.75 245.17 281.08 244.69 280.01 244.78 L 278.96 244.19 C 278.89 243.13 278.32 242.53 277.25 242.40 C 275.85 241.89 274.41 241.33 272.96 241.00 C 271.62 241.26 270.31 241.99 269.15 242.70 C 266.77 244.09 264.43 245.82 261.85 246.81 C 260.46 246.49 259.11 245.93 257.77 245.43 C 256.22 246.30 254.64 247.28 252.97 247.91 C 251.30 247.82 249.65 246.61 248.32 245.67 C 242.94 241.53 237.69 237.17 232.18 233.19 C 230.24 234.70 228.42 236.35 226.74 238.15 C 226.09 237.47 225.43 236.80 224.77 236.13 C 225.61 235.22 225.48 234.14 224.39 232.88 L 224.43 232.32 C 224.78 229.40 225.32 226.80 224.02 224.00 C 223.77 223.30 223.52 222.61 223.25 221.92 C 222.57 218.65 222.18 215.34 222.07 211.99 C 222.83 208.31 223.06 205.17 222.12 201.49 C 224.15 199.28 225.97 197.17 228.72 195.82 C 231.76 194.21 235.43 193.26 238.16 191.18 C 239.99 188.44 241.14 185.12 242.13 181.99 C 242.95 179.56 241.59 176.53 241.07 174.12 C 239.66 172.59 238.27 171.04 236.89 169.48 C 234.77 168.69 232.66 167.88 230.55 167.05 C 232.98 164.75 235.41 162.47 237.84 160.17 C 237.56 156.41 237.48 152.63 237.39 148.86 C 237.81 148.16 238.23 147.47 238.65 146.78 C 240.80 146.04 243.06 145.52 241.25 142.85 L 240.56 141.55 C 241.09 140.61 241.67 139.69 242.23 138.77 C 240.25 134.88 239.17 131.33 238.57 127.00 C 239.58 126.49 240.59 125.99 241.61 125.49 C 241.00 124.63 240.40 123.77 239.80 122.90 C 240.62 121.62 241.44 120.34 242.26 119.06 C 242.16 118.16 242.05 117.26 241.94 116.36 C 243.08 115.52 244.21 114.67 245.34 113.82 C 244.27 112.42 243.19 111.02 242.11 109.62 C 241.00 110.49 239.89 111.37 238.78 112.25 C 238.11 111.74 237.44 111.24 236.77 110.73 C 235.25 107.29 233.52 106.73 230.16 105.60 C 229.74 103.80 229.32 102.00 228.91 100.20 C 227.52 99.49 226.13 98.78 224.74 98.08 C 225.09 97.22 225.44 96.36 225.79 95.50 C 223.73 94.22 221.70 92.90 219.67 91.56 C 219.07 91.78 218.48 92.01 217.88 92.23 C 217.24 91.76 216.61 91.28 215.97 90.81 C 211.59 91.58 208.15 91.66 203.86 90.39 C 202.34 90.96 200.82 91.53 199.31 92.11 C 198.66 91.48 198.01 90.86 197.36 90.23 C 195.53 90.82 193.70 91.40 191.87 91.98 C 189.70 89.81 187.50 87.69 185.24 85.62 C 185.76 84.54 186.28 83.46 186.80 82.38 C 186.38 81.04 185.96 79.71 185.54 78.37 C 186.33 77.05 187.11 75.72 187.89 74.40 C 185.39 68.45 184.85 62.58 183.56 56.31 C 180.26 39.82 177.23 23.27 173.70 6.82 Z"
                style="fill: #c6d496"/>

        <path
                id="MS"
                data-id="MS"
                data-name="Mayo-Sava"
                d="M 217.54 202.73 C 219.05 202.28 220.59 201.89 222.12 201.49 C 223.06 205.17 222.83 208.31 222.07 211.99 C 221.26 216.07 221.57 218.16 223.25 221.92 C 223.52 222.61 223.77 223.30 224.02 224.00 C 224.32 226.75 224.42 229.54 224.43 232.32 L 224.39 232.88 C 223.70 234.29 223.83 235.37 224.77 236.13 C 225.43 236.80 226.09 237.47 226.74 238.15 C 223.93 241.27 221.27 244.51 219.09 248.11 C 216.86 252.35 211.74 253.02 208.94 257.04 C 207.49 256.31 206.24 256.86 205.09 257.83 C 203.16 259.27 200.95 260.54 199.28 262.27 C 197.26 264.61 196.28 267.91 194.23 270.22 C 192.18 271.34 189.54 271.33 187.48 272.47 C 185.87 273.97 184.76 276.10 183.57 277.94 C 181.26 277.58 178.94 277.22 176.63 276.80 C 174.41 275.71 172.78 274.00 171.17 272.17 C 171.21 270.59 171.46 268.88 171.15 267.32 C 169.76 265.06 167.82 263.70 167.29 260.96 C 166.32 255.94 164.03 251.61 164.00 246.43 C 163.66 241.06 158.60 238.31 154.11 236.63 L 154.80 235.58 C 159.52 229.22 163.60 222.92 165.37 215.07 C 169.96 217.27 174.56 219.08 179.52 220.28 C 183.24 222.38 187.79 224.71 191.74 221.75 C 197.73 216.78 204.89 213.79 210.87 208.83 C 213.24 206.94 215.27 204.72 217.54 202.73 Z"
                style="fill: #c0b2d4"/>

        <path
                id="MT"
                data-id="MT"
                focusable="true"
                data-name="Mayo-Tsanaga"
                d="M 154.11 236.63 C 158.60 238.31 163.66 241.06 164.00 246.43 C 164.03 251.61 166.32 255.94 167.29 260.96 C 167.82 263.70 169.76 265.06 171.15 267.32 C 171.46 268.88 171.21 270.59 171.17 272.17 C 172.78 274.00 174.41 275.71 176.63 276.80 C 176.84 277.83 177.05 278.86 177.26 279.89 C 174.52 283.73 172.98 286.61 173.11 291.50 C 174.45 292.63 175.91 293.78 177.01 295.14 C 176.79 297.40 176.11 299.72 175.96 302.03 C 176.09 303.40 177.85 304.44 178.68 305.47 C 178.21 308.80 178.90 310.93 180.31 313.91 C 179.24 313.99 178.16 314.08 177.09 314.16 C 176.27 314.93 175.45 315.71 174.62 316.48 C 172.56 316.64 170.41 316.74 168.39 317.21 C 167.62 320.73 167.49 324.36 166.66 327.89 C 165.93 331.25 164.50 334.58 164.08 337.97 C 163.83 340.28 164.48 342.79 164.93 345.05 C 160.50 345.00 156.32 344.08 152.00 343.24 C 148.64 342.55 145.37 342.91 141.99 343.05 C 139.34 343.19 137.21 342.05 134.79 341.16 C 133.98 341.50 133.17 341.84 132.36 342.18 C 131.93 343.32 131.50 344.44 131.06 345.57 C 128.05 344.28 125.05 342.98 122.04 341.71 C 120.91 343.83 119.15 346.25 119.12 348.70 C 123.87 351.94 130.18 352.68 135.40 355.14 C 131.70 356.80 128.06 357.36 124.06 357.66 C 121.84 357.59 120.35 360.47 118.91 361.86 C 113.73 359.95 109.14 363.06 103.43 362.98 C 102.71 361.29 101.98 359.61 101.25 357.94 C 96.35 359.01 91.92 360.34 87.60 363.00 C 89.45 361.27 91.32 359.56 93.16 357.83 C 93.69 358.16 94.22 358.50 94.75 358.84 C 97.41 358.20 100.20 357.75 102.75 356.77 C 104.39 355.86 105.76 354.43 107.16 353.20 C 107.80 351.41 108.46 349.61 109.14 347.83 C 108.44 346.45 107.74 345.06 107.04 343.68 C 108.48 339.87 110.59 337.00 109.24 332.76 C 109.83 332.50 110.42 332.24 111.01 331.97 C 110.85 329.99 110.70 328.01 110.54 326.02 C 111.67 325.61 112.81 325.19 113.94 324.78 C 114.56 323.18 115.17 321.58 115.78 319.98 C 115.25 319.12 114.72 318.27 114.19 317.41 C 116.24 314.66 118.14 311.81 120.03 308.94 C 119.48 308.24 118.93 307.53 118.38 306.83 C 117.66 304.54 116.89 302.28 116.10 300.02 C 118.06 297.90 119.49 295.78 120.78 293.21 C 120.53 292.27 120.28 291.33 120.04 290.39 C 121.51 289.51 123.33 288.79 124.50 287.52 C 126.05 285.18 127.00 282.39 128.12 279.82 C 127.53 279.19 126.94 278.56 126.35 277.93 C 127.56 276.98 128.77 276.04 129.99 275.10 C 131.69 273.50 133.62 272.01 135.08 270.19 C 135.96 268.04 136.18 265.58 136.59 263.30 C 135.80 261.88 135.03 260.52 134.42 259.00 C 135.26 256.69 136.61 254.51 137.77 252.34 C 139.84 252.54 141.92 252.72 144.00 252.90 C 145.12 249.72 145.67 246.60 148.23 244.23 C 150.62 241.96 152.41 239.45 154.11 236.63 Z"
                style="fill: #d19ba9"/>

        <path
                id="MD"
                data-id="MD"
                data-name="Mayo-Danay"
                data-active="true"
                d="M 296.91 231.79 C 297.46 234.73 297.93 237.65 298.97 240.47 C 297.46 245.15 295.98 247.24 292.11 250.25 C 292.89 251.88 293.67 253.52 294.52 255.12 L 294.80 255.60 L 295.39 256.58 C 296.56 259.50 297.68 262.73 297.75 265.90 C 296.92 267.95 295.41 269.87 294.84 271.99 C 296.09 277.07 299.25 281.41 302.59 285.33 C 303.22 288.49 304.64 291.22 305.81 294.18 C 305.81 297.42 303.14 301.46 304.54 304.56 C 306.08 307.71 308.94 308.33 312.02 309.19 C 315.78 312.32 317.46 316.67 320.70 320.27 C 321.32 323.53 321.84 327.35 323.98 330.03 C 325.81 331.87 328.36 332.89 330.25 334.71 C 332.80 337.16 335.10 339.87 337.57 342.41 C 341.62 346.36 343.66 351.58 348.15 355.19 C 352.10 356.60 355.19 358.96 358.73 361.21 C 363.51 363.07 367.46 365.89 371.25 369.29 C 365.61 369.20 360.85 371.32 355.44 372.50 C 350.00 373.78 344.52 375.35 338.98 376.07 C 336.10 376.68 333.20 374.60 330.47 373.71 C 321.34 370.59 311.34 369.67 301.79 370.98 C 300.01 373.23 297.94 374.60 295.39 375.85 C 291.38 373.59 286.66 372.20 282.06 372.19 C 276.16 373.35 270.74 376.41 264.76 377.49 C 266.86 371.43 271.97 366.99 273.89 361.04 C 274.48 358.11 274.67 355.02 275.10 352.05 C 275.59 350.64 276.28 349.27 276.91 347.92 C 278.66 347.04 281.22 345.95 279.07 343.80 C 276.14 340.95 273.81 337.70 271.55 334.33 C 272.46 333.75 272.87 332.92 272.79 331.85 L 273.95 331.10 C 276.27 329.65 278.17 327.77 280.05 325.80 C 281.65 324.27 283.26 322.69 284.70 321.01 L 284.37 319.86 C 283.95 317.68 282.73 316.90 280.85 316.02 C 279.36 314.29 277.86 312.57 276.35 310.85 C 275.55 308.59 275.02 308.01 272.87 306.96 C 271.32 305.25 269.71 303.59 268.10 301.93 C 266.33 299.38 265.09 296.59 263.53 293.91 C 263.03 293.11 262.31 292.41 261.64 291.73 C 260.81 281.30 261.32 270.81 262.23 260.37 C 263.32 256.05 263.50 252.49 262.95 248.06 C 265.01 246.27 267.04 244.44 269.15 242.70 C 270.31 241.99 271.62 241.26 272.96 241.00 C 274.41 241.33 275.85 241.89 277.25 242.40 C 277.29 243.50 277.86 244.09 278.96 244.19 L 280.01 244.78 C 280.26 245.84 280.92 246.32 282.01 246.22 C 282.90 246.84 283.78 247.47 284.67 248.09 C 285.77 250.46 286.44 251.11 289.14 250.97 L 290.73 251.03 C 290.91 249.85 291.10 248.66 291.28 247.48 C 292.44 247.25 293.59 247.03 294.74 246.81 C 295.75 244.68 296.74 242.54 297.69 240.39 L 297.03 238.98 C 296.97 236.58 297.04 234.19 296.91 231.79 Z"
                style="fill: #9fc2d6"/>

        <path
                id="MK"
                data-id="MK"
                data-name="Mayo-kani"
                d="M 261.64 291.73 C 262.31 292.41 263.03 293.11 263.53 293.91 C 264.50 297.55 265.26 299.44 268.10 301.93 C 269.71 303.59 271.32 305.25 272.87 306.96 C 273.24 309.68 273.69 310.19 276.35 310.85 C 277.86 312.57 279.36 314.29 280.85 316.02 C 281.35 318.66 281.74 319.18 284.37 319.86 L 284.70 321.01 C 283.26 322.69 281.65 324.27 280.05 325.80 C 277.96 327.51 275.96 329.30 273.95 331.10 L 272.79 331.85 C 271.21 332.04 270.36 332.92 271.55 334.33 C 273.81 337.70 276.14 340.95 279.07 343.80 C 277.69 344.88 277.38 346.33 276.91 347.92 C 276.28 349.27 275.59 350.64 275.10 352.05 C 274.14 355.05 274.16 357.93 273.89 361.04 C 271.97 366.99 266.86 371.43 264.76 377.49 C 251.76 375.94 238.91 372.84 225.98 370.74 C 221.15 370.07 215.94 370.93 211.00 370.93 C 205.51 370.92 200.02 370.82 194.53 371.20 C 193.58 374.60 192.55 377.96 191.16 381.21 C 191.93 376.76 193.28 372.45 194.07 368.00 C 194.48 365.65 195.30 363.46 196.21 361.27 C 192.32 359.23 188.18 358.03 183.95 356.93 C 182.26 357.55 180.57 358.16 178.88 358.76 C 177.67 356.28 176.42 353.82 175.16 351.37 C 178.48 345.24 174.89 337.06 175.77 329.98 C 182.64 328.99 189.39 327.78 195.86 325.16 C 198.45 324.07 199.38 322.01 200.49 319.61 C 201.87 317.18 202.42 313.21 205.14 312.08 C 210.35 309.44 215.91 307.55 221.13 304.91 C 223.40 307.62 225.41 310.62 227.90 313.13 C 230.28 315.59 234.86 315.22 238.00 315.19 C 242.25 314.92 246.75 315.00 250.89 313.93 C 252.92 312.86 254.24 310.13 255.61 308.32 C 253.08 306.56 251.18 304.76 249.42 302.23 C 253.47 298.70 257.53 295.19 261.64 291.73 Z"
                style="fill: #c2bfa3"/>

        <path
                id="D"
                data-id="D"
                data-name="Diamare"
                d="M 232.18 233.19 C 237.69 237.17 242.94 241.53 248.32 245.67 C 249.65 246.61 251.30 247.82 252.97 247.91 C 254.64 247.28 256.22 246.30 257.77 245.43 C 259.11 245.93 260.46 246.49 261.85 246.81 C 264.43 245.82 266.77 244.09 269.15 242.70 C 267.04 244.44 265.01 246.27 262.95 248.06 C 263.50 252.49 263.32 256.05 262.23 260.37 C 261.32 270.81 260.81 281.30 261.64 291.73 C 257.53 295.19 253.47 298.70 249.42 302.23 C 251.18 304.76 253.08 306.56 255.61 308.32 C 254.24 310.13 252.92 312.86 250.89 313.93 C 246.75 315.00 242.25 314.92 238.00 315.19 C 234.86 315.22 230.28 315.59 227.90 313.13 C 225.41 310.62 223.40 307.62 221.13 304.91 C 215.91 307.55 210.35 309.44 205.14 312.08 C 202.42 313.21 201.87 317.18 200.49 319.61 C 198.79 321.35 197.24 323.16 195.86 325.16 C 189.39 327.78 182.64 328.99 175.77 329.98 C 174.89 337.06 178.48 345.24 175.16 351.37 C 173.16 351.53 171.61 350.97 169.73 350.39 C 170.24 349.53 170.75 348.66 171.25 347.79 C 169.18 346.75 167.17 345.70 164.93 345.05 C 164.48 342.79 163.83 340.28 164.08 337.97 C 164.50 334.58 165.93 331.25 166.66 327.89 C 167.49 324.36 167.62 320.73 168.39 317.21 C 170.41 316.74 172.56 316.64 174.62 316.48 C 175.45 315.71 176.27 314.93 177.09 314.16 C 178.16 314.08 179.24 313.99 180.31 313.91 C 178.90 310.93 178.21 308.80 178.68 305.47 C 177.85 304.44 176.09 303.40 175.96 302.03 C 176.11 299.72 176.79 297.40 177.01 295.14 C 175.91 293.78 174.45 292.63 173.11 291.50 C 172.98 286.61 174.52 283.73 177.26 279.89 C 177.05 278.86 176.84 277.83 176.63 276.80 C 178.94 277.22 181.26 277.58 183.57 277.94 C 184.76 276.10 185.87 273.97 187.48 272.47 C 189.54 271.33 192.18 271.34 194.23 270.22 C 196.28 267.91 197.26 264.61 199.28 262.27 C 200.95 260.54 203.16 259.27 205.09 257.83 C 206.58 258.73 207.90 258.40 208.94 257.04 C 211.74 253.02 216.86 252.35 219.09 248.11 C 221.27 244.51 223.93 241.27 226.74 238.15 C 228.42 236.35 230.24 234.70 232.18 233.19 Z"
                style="fill: #8bbf8d"/>
</svg>