<svg xmlns="http://www.w3.org/2000/svg" version="1.1" viewBox="0 0 900 650" width="900.0pt" height="650.0pt">

<path d="M 256.73 33.25 C 260.83 34.52 264.96 34.25 269.11 34.99 C 272.27 36.03 275.22 33.78 278.50 33.05 C 278.70 34.39 278.93 35.71 279.21 37.03 C 280.90 38.59 283.19 39.62 285.12 40.88 C 285.76 40.58 286.40 40.29 287.04 39.99 C 287.14 41.83 287.42 43.47 287.92 45.24 C 286.43 46.44 284.91 47.62 283.40 48.81 C 284.87 49.46 286.35 50.10 287.83 50.74 C 285.94 54.09 284.28 57.46 282.99 61.08 C 283.76 61.58 284.54 62.08 285.31 62.59 C 285.73 63.80 286.11 65.06 286.67 66.22 C 288.16 66.93 289.77 67.38 291.32 67.93 C 290.80 69.70 290.25 71.46 289.85 73.26 C 291.29 74.06 293.13 73.72 294.77 73.80 C 294.91 75.12 295.05 76.45 295.19 77.78 C 299.60 76.73 303.87 75.30 308.19 73.97 C 308.28 73.01 308.37 72.05 308.46 71.09 C 309.91 70.92 311.36 70.75 312.81 70.57 C 315.28 67.22 319.41 67.44 323.26 66.30 C 324.86 65.80 326.51 66.26 326.59 68.16 C 325.88 69.86 324.70 71.34 323.96 73.03 C 324.06 74.28 324.25 75.53 324.53 76.77 C 325.38 75.79 326.23 74.80 327.07 73.80 C 329.04 73.49 331.01 73.20 332.99 72.97 C 333.39 72.79 333.79 72.62 334.19 72.44 C 336.45 72.94 338.38 72.68 340.60 72.18 C 342.11 73.40 343.58 74.66 345.03 75.96 C 346.02 75.85 347.02 75.74 348.01 75.63 C 350.89 76.90 353.71 78.21 356.29 80.02 C 357.10 80.02 357.91 80.03 358.72 80.04 C 360.88 81.92 363.12 83.95 365.61 85.37 C 367.15 86.33 369.48 85.81 371.22 85.83 C 371.90 86.67 372.58 87.51 373.26 88.34 C 376.78 89.76 379.34 91.85 382.97 92.09 C 386.35 92.36 388.88 92.96 391.85 94.61 C 390.68 97.07 388.27 100.09 388.74 102.93 C 390.65 106.00 395.22 107.45 398.27 105.19 C 400.93 103.62 403.70 102.57 406.65 101.66 C 407.64 102.26 408.63 102.86 409.62 103.46 C 411.00 100.24 411.73 99.34 414.88 97.79 C 416.11 95.02 417.44 92.32 418.86 89.64 C 423.36 90.30 426.05 87.71 430.01 86.27 C 430.04 85.55 430.07 84.83 430.10 84.11 C 433.78 81.65 436.55 79.08 439.17 75.51 C 440.32 76.20 441.46 76.88 442.62 77.56 C 445.97 76.59 447.87 76.76 451.12 77.92 C 452.48 76.40 453.86 74.89 455.31 73.45 C 455.98 74.51 456.66 75.56 457.34 76.61 C 457.93 74.70 458.48 72.78 459.02 70.85 C 459.97 71.89 460.91 72.93 461.86 73.96 C 461.01 75.70 460.10 77.40 459.16 79.09 C 460.57 79.35 462.04 79.69 463.48 79.74 C 464.33 78.50 465.05 77.20 465.80 75.90 C 467.12 76.77 468.43 77.66 469.74 78.56 C 470.79 78.34 471.84 78.13 472.89 77.92 C 476.36 79.16 479.86 79.44 483.50 79.73 C 489.48 80.83 495.01 82.95 500.56 85.35 C 503.01 86.50 505.67 85.15 508.08 84.49 C 509.21 85.57 510.45 86.66 511.39 87.91 C 511.54 89.77 511.33 91.68 511.59 93.52 C 512.37 95.97 516.13 95.73 518.16 96.25 C 519.09 96.93 520.02 97.62 520.95 98.31 C 521.42 97.74 521.90 97.18 522.37 96.62 C 523.52 97.11 524.67 97.60 525.82 98.08 C 525.77 98.70 525.72 99.31 525.66 99.93 C 527.76 101.09 529.74 102.56 531.93 103.54 C 533.40 103.10 534.81 102.37 536.21 101.74 C 536.31 103.18 536.42 104.62 536.53 106.06 C 538.25 105.05 539.96 104.02 541.67 102.97 C 542.67 102.75 543.66 102.49 544.65 102.20 C 545.26 100.75 545.54 99.14 545.96 97.63 C 547.19 98.32 548.42 99.01 549.65 99.70 C 549.83 98.18 550.01 96.67 550.20 95.16 C 551.04 97.36 551.67 99.63 552.51 101.83 C 553.49 102.09 554.48 102.32 555.49 102.50 L 556.02 99.69 C 557.01 99.09 558.03 98.53 559.07 98.01 C 558.59 96.52 558.07 95.03 557.56 93.55 C 559.31 95.51 560.86 97.62 562.37 99.76 C 563.39 99.14 564.43 98.55 565.48 97.99 C 567.65 97.86 569.98 98.51 572.18 98.59 C 572.32 100.04 572.46 101.50 572.64 102.95 C 573.63 102.28 574.63 101.60 575.62 100.92 C 576.45 101.83 577.28 102.74 578.12 103.64 C 579.01 102.00 579.91 100.36 580.86 98.74 C 581.20 100.46 581.51 102.18 581.82 103.90 C 586.22 103.88 590.49 104.13 594.79 103.01 C 595.50 103.78 596.20 104.56 596.91 105.33 C 597.31 103.62 597.72 101.92 598.16 100.22 C 600.72 103.03 602.81 106.20 604.59 109.55 C 606.26 108.00 607.88 106.39 609.55 104.83 C 608.68 104.09 607.81 103.34 606.95 102.59 C 608.85 102.38 610.75 102.23 612.66 102.08 C 613.41 103.13 614.17 104.17 614.92 105.22 C 616.32 103.73 617.72 102.23 619.10 100.72 C 621.13 103.05 623.00 105.59 625.21 107.74 C 626.35 107.66 627.48 107.52 628.60 107.32 C 629.80 108.31 630.98 109.32 632.16 110.33 C 633.62 108.81 635.07 107.29 636.55 105.80 C 636.18 107.86 635.79 109.92 635.39 111.97 C 637.99 112.99 640.45 114.16 642.80 115.65 C 640.76 117.89 638.65 120.07 636.64 122.34 C 641.63 123.64 646.37 123.13 650.88 126.02 C 652.93 124.99 654.80 123.45 656.62 122.07 C 657.03 122.54 657.43 123.00 657.84 123.46 C 659.75 123.50 661.66 123.54 663.57 123.56 C 664.75 121.53 665.50 118.18 668.00 117.52 C 670.39 118.14 670.29 119.52 670.77 121.55 C 668.96 123.12 668.17 124.12 667.38 126.42 C 668.94 126.28 670.50 126.14 672.06 125.97 C 672.34 126.61 672.63 127.24 672.92 127.87 C 672.25 129.51 671.55 131.09 671.05 132.80 C 672.51 133.09 673.98 133.35 675.47 133.56 C 675.53 132.12 675.59 130.68 675.65 129.24 C 678.02 128.99 680.40 128.84 682.78 128.71 C 682.14 126.67 681.44 124.68 680.63 122.70 C 683.72 122.73 684.82 121.39 687.13 119.75 C 689.73 120.33 692.17 121.57 694.73 122.30 C 699.21 123.70 703.80 123.74 708.23 124.88 C 712.84 126.11 716.33 129.44 721.05 130.73 C 723.98 131.77 728.15 132.34 730.37 134.60 C 732.63 138.82 732.55 144.25 734.49 148.62 C 735.21 150.13 737.00 150.16 738.24 149.28 C 740.97 148.14 739.60 144.25 739.44 142.02 C 739.04 138.23 736.94 131.93 739.69 128.68 C 746.39 124.18 751.96 127.63 759.13 127.38 C 759.11 124.07 758.47 120.46 759.18 117.22 C 761.50 114.01 764.36 115.61 767.37 116.56 C 767.33 119.36 767.26 122.16 767.18 124.95 C 770.42 129.87 774.94 133.44 776.98 138.80 C 773.98 139.89 771.10 140.53 768.58 142.62 C 763.04 146.85 760.44 154.50 762.99 161.12 C 764.69 164.80 767.85 167.92 771.04 170.37 L 772.74 170.46 C 766.98 175.45 761.13 180.33 755.35 185.30 C 750.78 188.99 746.72 193.56 741.35 195.96 C 734.07 199.30 726.94 202.91 719.65 206.19 C 713.91 208.98 708.08 211.12 703.22 215.14 C 697.95 219.56 692.61 223.92 687.28 228.28 C 681.45 233.20 673.81 236.21 667.00 239.99 C 662.03 242.72 656.82 243.63 651.41 245.04 C 640.69 248.06 629.75 250.49 619.16 253.95 C 614.47 255.46 611.48 258.60 607.76 261.62 C 600.73 267.62 593.63 272.27 587.86 279.68 C 585.75 282.50 582.96 284.72 580.84 287.51 C 578.88 290.90 579.46 295.92 579.43 299.71 C 572.92 303.62 565.33 306.87 559.82 312.11 C 558.73 314.48 557.47 316.74 556.13 318.97 C 552.95 324.15 550.82 329.24 545.89 333.11 C 536.28 340.68 526.87 348.58 517.01 355.84 C 512.84 358.99 508.38 358.97 503.56 360.43 C 499.98 361.46 497.15 363.43 494.07 365.42 C 492.91 366.01 491.73 366.57 490.55 367.12 C 489.76 369.95 488.86 373.06 489.24 376.01 C 489.80 379.10 491.38 381.99 491.96 385.06 C 491.95 387.28 491.31 389.51 491.43 391.72 C 492.65 394.80 494.70 397.60 496.42 400.42 C 494.69 403.79 493.21 407.07 491.05 410.18 C 486.66 411.83 482.41 413.52 478.32 415.84 C 476.65 416.53 474.80 416.80 473.07 417.30 C 469.35 418.24 465.97 421.05 462.07 421.78 C 459.44 422.34 456.99 421.74 454.36 421.41 C 453.17 420.15 451.96 418.91 450.75 417.66 C 448.24 417.17 445.55 416.38 442.99 416.46 C 441.16 416.76 439.37 417.41 437.59 417.94 C 437.55 418.62 437.52 419.30 437.49 419.99 C 435.27 421.35 433.06 422.72 430.84 424.06 C 430.61 424.56 430.38 425.06 430.15 425.56 C 428.55 427.86 427.38 430.03 426.98 432.86 C 423.02 431.38 419.12 430.44 414.97 429.72 C 409.50 429.01 406.29 423.32 400.11 423.90 C 389.27 426.12 380.05 431.04 369.86 434.81 C 367.58 432.94 365.32 431.18 362.66 429.88 C 357.49 427.33 352.86 428.91 347.88 430.85 C 347.86 434.58 350.10 438.44 347.28 441.37 C 341.33 442.32 334.43 439.07 328.71 437.65 C 326.11 437.28 324.38 440.92 321.71 439.58 C 320.28 437.32 318.47 435.40 316.80 433.34 C 315.24 431.42 314.76 428.58 314.22 426.22 C 313.35 424.40 312.51 422.61 311.39 420.92 C 307.39 418.04 302.59 416.07 298.24 413.78 C 295.65 412.43 294.21 409.77 292.43 407.59 C 290.19 403.85 287.20 404.43 283.39 403.60 C 283.29 402.13 283.27 400.65 283.24 399.18 C 284.71 398.38 286.19 397.58 287.67 396.79 C 286.53 395.23 285.41 393.65 284.25 392.10 C 281.92 388.76 278.18 386.86 275.69 383.77 C 274.86 379.70 276.56 376.83 278.48 373.46 C 280.25 370.51 280.25 367.46 280.56 364.15 C 279.44 362.40 278.40 360.66 277.13 359.02 C 275.22 356.76 273.24 354.60 271.52 352.18 C 268.96 348.55 265.00 347.47 262.07 344.07 C 263.42 341.71 264.92 339.43 266.29 337.07 C 266.00 336.15 265.70 335.22 265.36 334.31 C 264.54 333.55 263.71 332.80 262.87 332.07 C 266.45 327.24 269.49 322.53 272.37 317.25 C 272.06 316.86 271.75 316.47 271.44 316.08 C 270.38 314.72 269.37 313.33 268.35 311.94 C 268.47 309.22 268.53 306.51 268.55 303.79 C 267.76 302.76 266.97 301.73 266.18 300.69 C 263.23 299.78 260.26 298.93 257.28 298.13 C 257.35 294.43 257.74 290.50 257.10 286.84 C 256.27 284.03 254.50 281.46 253.63 278.65 C 253.19 276.47 253.26 274.17 253.12 271.95 C 252.62 269.48 252.44 266.98 252.36 264.46 C 248.22 261.00 243.40 259.46 238.60 257.24 C 228.16 251.98 217.12 247.84 206.41 243.13 C 202.93 241.48 199.66 239.37 196.21 237.63 C 190.05 234.46 183.84 231.78 178.12 227.78 C 171.50 223.11 164.94 218.34 158.65 213.21 C 154.47 209.80 149.86 206.68 146.10 202.82 C 140.29 195.98 135.06 188.70 128.94 182.11 C 134.17 178.88 138.67 174.15 141.62 168.76 C 143.80 162.36 146.53 154.76 145.26 147.99 C 144.55 142.72 142.66 137.97 140.95 132.99 C 139.40 128.48 139.13 123.67 139.76 118.97 C 140.28 115.39 142.31 112.88 143.49 109.58 C 144.02 107.60 143.96 105.42 144.10 103.38 C 139.62 100.67 135.01 98.17 130.59 95.37 C 127.94 93.78 126.70 91.12 126.01 88.22 C 126.60 87.50 127.22 86.81 127.86 86.15 C 128.15 85.38 128.44 84.60 128.72 83.83 C 129.91 83.54 131.10 83.25 132.29 82.96 C 132.27 80.12 131.92 77.58 131.18 74.85 C 132.34 74.39 133.51 73.92 134.67 73.46 C 135.71 70.58 136.78 67.81 138.66 65.35 C 139.92 65.82 141.17 66.29 142.43 66.75 C 143.17 65.57 143.90 64.39 144.63 63.20 C 142.91 62.33 141.18 61.46 139.44 60.62 C 139.24 59.73 139.05 58.85 138.85 57.97 C 140.12 56.95 141.39 55.91 142.65 54.87 C 144.04 56.02 145.45 57.16 146.87 58.28 C 147.94 57.58 149.02 56.89 150.09 56.20 C 152.18 58.20 154.19 60.26 156.18 62.35 C 160.39 60.10 164.60 57.98 169.06 56.30 C 170.69 57.78 172.30 59.52 174.21 60.63 C 175.47 61.09 177.12 59.47 178.23 58.92 C 177.17 57.57 176.11 56.22 175.05 54.87 C 179.95 54.77 184.83 54.43 189.72 54.12 C 191.75 53.04 193.82 52.03 195.87 51.00 C 197.60 52.15 199.30 53.32 201.01 54.49 C 202.19 53.98 203.36 53.46 204.54 52.93 C 204.84 51.44 205.09 49.91 205.53 48.45 C 207.64 47.96 209.96 48.08 212.12 48.05 C 212.76 47.48 213.40 46.92 214.04 46.36 C 216.51 46.78 218.91 47.33 221.32 48.02 C 223.23 45.77 224.99 43.40 226.83 41.10 C 228.61 40.75 230.38 40.36 232.15 39.94 C 234.58 40.99 237.10 42.69 239.75 42.99 L 240.71 41.60 C 240.34 39.14 239.15 36.79 238.42 34.43 C 241.76 35.63 244.12 38.09 247.10 39.85 C 249.77 39.41 252.30 38.67 255.03 38.60 C 256.69 38.59 258.02 37.23 259.38 36.37 C 258.50 35.33 257.62 34.29 256.73 33.25 Z" fill="#2b40bf" stroke="none"  fill-rule="nonzero" data-id="BafoussamII" data-name="Bafoussam II" data-active="true" />
<path d="M 798.77 169.21 C 801.07 173.58 801.70 178.74 803.69 183.30 C 806.50 189.92 808.46 196.81 810.93 203.55 C 813.05 203.53 815.35 203.18 817.44 203.62 C 820.01 204.92 822.20 207.11 824.48 208.87 C 825.24 215.16 822.40 219.89 820.75 225.70 C 817.03 229.07 813.06 231.65 811.53 236.65 C 813.04 238.27 814.52 239.92 815.96 241.60 C 813.26 242.87 807.85 242.50 806.63 245.51 C 805.91 248.33 805.87 252.76 806.69 255.55 C 808.42 257.71 811.96 258.70 814.47 259.68 C 816.75 260.31 819.76 261.84 822.10 261.03 C 821.23 258.15 817.93 255.07 818.61 252.04 C 819.78 251.16 821.04 250.43 822.31 249.70 C 822.78 251.51 823.24 253.32 823.70 255.14 C 825.94 254.50 828.16 253.81 830.37 253.09 C 831.91 253.58 833.44 254.07 834.97 254.57 C 833.26 258.94 831.47 261.75 827.66 264.56 C 827.51 268.08 826.79 270.99 825.46 274.23 C 822.90 275.37 820.36 276.56 817.82 277.75 C 814.79 276.93 812.14 275.90 808.94 276.57 C 806.35 276.80 804.44 279.41 802.58 281.00 C 803.78 282.47 804.99 283.94 806.25 285.38 C 807.24 283.73 808.22 282.07 809.20 280.42 C 814.61 281.55 819.80 285.74 821.55 291.04 C 818.12 290.16 814.72 289.18 811.24 288.44 C 810.18 289.54 809.12 290.65 808.05 291.75 C 809.67 294.10 811.06 296.50 812.04 299.19 C 809.15 302.52 807.24 306.37 805.23 310.25 C 803.94 312.60 803.81 315.22 804.31 317.82 C 805.61 318.78 807.24 319.39 808.71 320.07 C 810.13 318.07 811.46 316.08 813.13 314.27 C 815.57 316.21 815.93 318.77 816.95 321.53 C 820.02 321.78 822.90 322.25 825.96 321.71 C 828.36 321.52 830.60 320.58 832.66 322.31 C 835.42 324.68 837.97 329.34 835.83 332.88 C 834.21 336.21 829.16 337.46 826.00 338.91 C 825.85 340.77 825.69 342.64 825.53 344.50 C 827.49 345.84 829.53 347.33 831.70 348.28 C 834.48 349.41 837.67 349.17 840.54 350.30 C 845.44 352.17 849.33 356.74 851.72 361.27 C 853.17 365.26 853.22 369.86 852.93 374.04 C 852.92 375.89 850.61 377.31 849.45 378.55 C 847.64 377.82 845.83 377.10 844.01 376.39 C 840.06 378.69 835.64 378.99 831.50 380.59 C 828.53 384.00 825.13 386.80 822.00 390.00 C 816.16 398.23 808.64 405.06 799.82 409.98 C 796.64 407.36 793.84 404.42 790.33 402.22 C 788.90 402.87 787.46 403.52 786.03 404.16 C 784.09 403.77 782.15 403.43 780.20 403.11 C 778.08 407.64 775.74 411.14 771.31 413.69 C 770.18 416.18 769.69 418.69 767.31 420.30 C 763.62 422.81 759.65 424.50 756.54 427.83 C 756.80 428.71 757.06 429.59 757.32 430.47 C 762.71 433.06 769.39 436.25 772.77 441.37 C 774.63 445.05 772.76 448.78 771.69 452.38 C 774.79 453.15 777.77 453.74 780.54 455.45 C 784.58 457.77 787.43 461.39 789.44 465.54 C 787.82 470.22 786.59 475.01 784.88 479.66 C 778.56 482.26 772.53 484.86 767.15 489.19 C 764.24 491.55 761.12 493.53 757.54 494.71 C 753.65 496.13 748.74 495.17 745.08 496.99 C 742.24 499.36 740.37 503.13 739.71 506.74 C 739.17 508.72 739.04 511.05 737.56 512.53 C 735.61 514.67 733.63 516.86 731.45 518.78 C 726.44 519.12 721.09 518.17 716.05 519.02 C 714.01 519.47 712.28 520.40 711.56 522.48 C 710.37 525.70 709.46 529.03 708.24 532.25 C 702.62 535.18 696.43 533.88 691.19 530.82 C 686.95 528.35 687.77 521.15 684.25 517.76 C 682.33 515.81 679.43 515.74 676.91 515.18 C 675.55 516.42 674.19 517.65 672.83 518.90 C 673.23 525.50 669.50 529.50 666.97 535.08 C 665.41 538.28 669.61 541.40 670.30 544.48 C 671.34 548.84 670.31 553.83 669.10 558.07 C 665.92 554.51 663.32 550.42 660.02 546.98 C 657.05 544.14 653.72 544.90 649.98 544.77 C 646.13 544.83 641.82 544.01 638.19 545.23 C 635.04 546.03 632.30 547.29 629.03 546.13 C 625.26 544.87 621.79 543.17 617.79 542.56 C 613.07 541.68 608.64 542.76 603.97 542.47 C 599.92 542.15 597.25 538.50 593.05 538.06 C 590.95 537.62 588.49 537.62 586.82 536.13 C 586.04 532.57 586.74 528.66 585.88 525.09 C 585.20 523.21 583.62 521.58 582.40 520.02 C 579.47 521.04 576.24 522.73 573.10 522.77 C 570.92 522.05 568.89 520.69 566.89 519.57 C 564.97 521.07 563.12 522.76 561.03 524.01 C 557.85 525.74 553.81 525.92 550.56 527.52 C 546.20 529.79 543.44 534.87 539.22 537.15 C 533.16 539.89 523.86 536.37 518.46 540.47 C 514.29 543.39 514.11 547.44 512.92 551.98 C 511.86 557.02 508.93 561.72 505.62 565.58 C 501.19 570.06 495.12 573.44 489.87 576.87 C 483.69 580.99 477.56 585.09 472.07 590.12 C 468.82 592.82 466.12 596.22 462.71 598.68 C 457.77 601.91 451.69 601.93 446.00 602.03 C 441.90 601.98 437.46 602.36 433.46 601.35 C 429.88 600.12 426.64 597.51 423.31 595.69 C 419.22 593.38 414.88 592.59 410.91 590.13 C 407.47 587.96 404.26 585.41 401.04 582.93 C 395.87 578.89 392.74 573.51 387.44 569.60 C 383.92 567.01 380.33 564.94 377.64 561.39 C 375.27 558.71 372.66 554.47 368.97 553.67 C 364.76 553.30 360.18 555.26 356.02 555.48 C 348.11 551.79 345.84 544.92 339.75 539.10 C 330.77 542.23 320.43 542.57 311.35 539.70 C 306.93 538.45 304.36 535.30 300.75 532.80 C 296.43 530.56 295.47 526.93 293.92 522.69 C 294.63 521.78 295.34 520.86 296.07 519.95 C 298.61 516.84 301.06 513.95 301.68 509.83 C 302.26 504.95 301.75 499.96 302.02 495.05 C 302.11 486.55 304.17 478.63 300.90 470.45 C 300.59 469.64 300.28 468.83 299.96 468.02 C 300.64 464.40 300.22 459.96 304.41 458.51 C 308.70 456.80 312.10 455.09 313.30 450.22 C 314.29 444.59 314.39 439.07 316.95 433.78 C 318.64 435.81 320.16 437.90 321.41 440.24 C 322.48 440.34 323.55 440.39 324.62 440.43 C 325.98 438.89 326.46 437.74 328.75 438.17 C 335.21 439.49 341.05 442.01 347.82 441.80 C 348.64 440.11 349.42 438.40 350.15 436.67 C 349.52 434.71 348.94 432.73 348.39 430.74 C 353.28 428.90 357.58 427.76 362.66 429.88 C 365.32 431.18 367.58 432.94 369.86 434.81 C 380.05 431.04 389.27 426.12 400.11 423.90 C 406.29 423.32 409.50 429.01 414.97 429.72 C 419.12 430.44 423.02 431.38 426.98 432.86 C 427.38 430.03 428.55 427.86 430.15 425.56 C 430.38 425.06 430.61 424.56 430.84 424.06 C 433.06 422.72 435.27 421.35 437.49 419.99 C 437.52 419.30 437.55 418.62 437.59 417.94 C 439.37 417.41 441.16 416.76 442.99 416.46 C 445.55 416.38 448.24 417.17 450.75 417.66 C 451.96 418.91 453.17 420.15 454.36 421.41 C 456.99 421.74 459.44 422.34 462.07 421.78 C 465.97 421.05 469.35 418.24 473.07 417.30 C 474.80 416.80 476.65 416.53 478.32 415.84 C 481.52 414.37 484.59 412.72 487.96 411.62 C 489.26 411.05 491.34 410.67 492.11 409.36 C 494.18 406.08 495.66 402.40 497.32 398.90 C 495.47 395.75 493.60 392.62 491.89 389.39 C 492.22 387.37 492.66 385.21 492.55 383.16 C 492.07 380.04 490.53 377.11 489.99 373.98 C 489.77 371.95 490.21 369.81 490.45 367.79 C 491.67 367.01 492.88 366.23 494.07 365.42 C 497.15 363.43 499.98 361.46 503.56 360.43 C 508.38 358.97 512.84 358.99 517.01 355.84 C 526.87 348.58 536.28 340.68 545.89 333.11 C 550.82 329.24 552.95 324.15 556.13 318.97 C 557.47 316.74 558.73 314.48 559.82 312.11 C 565.33 306.87 572.92 303.62 579.43 299.71 C 579.46 295.92 578.88 290.90 580.84 287.51 C 582.96 284.72 585.75 282.50 587.86 279.68 C 593.63 272.27 600.73 267.62 607.76 261.62 C 611.48 258.60 614.47 255.46 619.16 253.95 C 629.75 250.49 640.69 248.06 651.41 245.04 C 656.82 243.63 662.03 242.72 667.00 239.99 C 673.81 236.21 681.45 233.20 687.28 228.28 C 692.61 223.92 697.95 219.56 703.22 215.14 C 708.08 211.12 713.91 208.98 719.65 206.19 C 726.94 202.91 734.07 199.30 741.35 195.96 C 746.72 193.56 750.78 188.99 755.35 185.30 C 761.13 180.33 766.98 175.45 772.74 170.46 C 779.12 171.07 784.96 169.45 791.04 167.85 C 793.77 167.27 796.98 166.28 798.77 169.21 Z" fill="#bcbf2b" stroke="none"  fill-rule="nonzero" data-id="BafoussamI" data-name="Bafoussam I" data-active="true"/>
<path d="M 130.59 184.19 C 136.06 190.15 140.59 196.91 146.10 202.82 C 149.86 206.68 154.47 209.80 158.65 213.21 C 164.94 218.34 171.50 223.11 178.12 227.78 C 183.84 231.78 190.05 234.46 196.21 237.63 C 199.66 239.37 202.93 241.48 206.41 243.13 C 217.12 247.84 228.16 251.98 238.60 257.24 C 243.40 259.46 248.22 261.00 252.36 264.46 C 252.44 266.98 252.62 269.48 253.12 271.95 C 253.26 274.17 253.19 276.47 253.63 278.65 C 254.50 281.46 256.27 284.03 257.10 286.84 C 257.74 290.50 257.35 294.43 257.28 298.13 C 260.26 298.93 263.23 299.78 266.18 300.69 C 266.97 301.73 267.76 302.76 268.55 303.79 C 268.53 306.51 268.47 309.22 268.35 311.94 C 269.37 313.33 270.38 314.72 271.44 316.08 C 269.65 319.37 268.02 322.66 265.63 325.58 C 263.99 327.52 263.39 329.62 262.87 332.07 C 263.71 332.80 264.54 333.55 265.36 334.31 C 264.81 337.26 262.71 339.99 261.04 342.43 C 261.38 342.98 261.72 343.53 262.07 344.07 C 265.00 347.47 268.96 348.55 271.52 352.18 C 273.24 354.60 275.22 356.76 277.13 359.02 C 278.26 360.71 279.85 362.87 279.78 364.97 C 279.82 369.02 276.45 372.40 275.33 376.14 C 274.96 378.63 275.22 381.30 275.69 383.77 C 278.18 386.86 281.92 388.76 284.25 392.10 L 284.95 393.99 C 284.21 394.63 283.46 395.25 282.71 395.88 C 282.84 398.12 281.78 402.06 283.07 403.84 C 286.85 404.92 289.88 403.77 292.43 407.59 C 294.21 409.77 295.65 412.43 298.24 413.78 C 302.59 416.07 307.39 418.04 311.39 420.92 C 313.48 424.45 314.48 428.25 315.66 432.14 C 313.20 437.60 313.71 443.45 312.07 449.02 C 309.97 454.08 305.51 453.81 301.80 456.78 C 299.37 459.61 299.10 464.54 299.96 468.02 C 300.28 468.83 300.59 469.64 300.90 470.45 C 301.91 473.92 302.43 477.39 302.11 481.01 C 301.62 487.33 301.31 493.66 301.50 500.00 C 301.59 504.08 301.25 508.38 298.82 511.81 C 296.13 515.88 292.29 517.68 292.69 523.24 C 293.83 522.16 294.96 521.07 296.07 519.95 C 295.34 520.86 294.63 521.78 293.92 522.69 C 295.47 526.93 296.43 530.56 300.75 532.80 C 299.95 532.67 299.16 532.55 298.36 532.44 C 301.11 535.76 304.24 538.71 307.09 541.94 C 314.41 550.80 320.87 559.46 324.50 570.54 C 325.27 573.40 325.58 576.99 323.16 579.18 C 320.71 580.89 317.85 582.15 315.02 583.10 C 311.10 584.39 306.77 583.97 302.88 585.05 C 300.29 585.71 299.68 589.55 298.62 591.66 C 296.88 596.32 293.48 599.84 291.22 604.15 C 290.11 608.55 291.22 613.53 289.95 618.00 C 289.23 620.69 287.71 623.87 285.26 625.37 C 280.84 627.37 274.83 624.90 270.03 625.10 C 265.88 625.28 261.35 625.19 257.36 626.44 C 253.32 628.63 252.55 634.87 250.38 638.55 C 249.13 639.07 247.89 639.08 246.67 638.43 C 244.41 635.18 243.55 631.37 240.62 628.37 C 237.28 625.10 232.28 623.20 229.17 619.69 C 227.71 616.89 227.51 613.26 228.34 610.23 C 230.52 602.29 233.08 592.70 231.26 584.51 C 229.58 578.19 225.49 571.73 220.30 567.72 C 214.83 564.36 207.47 568.42 201.20 566.50 C 193.77 564.54 186.52 562.02 178.96 560.53 C 170.87 559.22 163.30 554.08 157.57 548.40 C 155.51 546.50 155.17 544.12 154.48 541.54 C 153.29 536.34 152.12 531.34 152.04 526.00 C 151.98 521.38 151.34 517.25 152.85 512.78 C 154.46 507.86 156.11 503.45 155.58 498.14 C 155.30 495.93 151.77 494.06 150.35 496.32 C 147.98 500.06 147.37 505.39 144.04 509.01 C 141.01 512.30 137.60 515.26 134.36 518.36 C 131.87 520.57 128.56 523.46 125.01 523.21 C 119.19 522.93 113.24 521.77 108.10 518.91 C 103.73 516.48 99.39 514.60 94.65 513.00 C 94.47 506.12 92.75 499.68 91.47 492.97 C 90.27 486.67 88.22 480.76 86.62 474.53 C 84.66 466.94 82.51 459.40 79.94 452.00 C 77.89 446.12 77.53 440.02 76.08 434.05 C 74.32 427.22 68.15 421.38 64.88 415.15 C 63.11 411.37 62.47 407.10 60.71 403.28 C 58.38 398.24 55.06 393.60 53.81 388.10 C 52.44 382.33 53.50 375.85 53.92 369.96 C 56.00 367.39 58.36 364.78 59.88 361.83 C 61.71 357.73 62.17 353.00 63.90 348.86 C 64.55 347.47 65.40 346.55 66.74 345.82 C 74.42 341.70 84.06 339.56 90.54 333.52 C 92.31 332.10 93.03 329.23 91.90 327.22 C 89.25 321.63 85.95 316.33 83.15 310.81 C 81.68 308.00 81.46 305.07 81.07 301.98 C 80.30 294.60 79.36 287.24 78.53 279.87 C 81.10 278.29 83.57 276.85 85.72 274.70 C 88.31 272.39 89.00 268.02 89.81 264.79 C 90.95 260.65 88.64 257.18 88.44 252.99 C 89.26 250.84 90.69 248.86 91.87 246.89 C 95.19 241.71 96.34 235.71 99.34 230.32 C 101.04 227.25 100.80 224.17 100.88 220.79 C 99.35 220.04 97.82 219.29 96.29 218.54 C 96.32 214.82 96.14 211.08 96.34 207.37 C 96.64 204.47 97.89 201.02 100.75 199.77 C 105.70 197.84 111.50 198.30 116.43 196.42 C 119.49 194.89 120.51 190.25 123.32 188.38 C 125.64 186.83 128.19 185.61 130.59 184.19 Z" fill="#c4632a" stroke="none"  fill-rule="nonzero" data-id="BafoussamIII" data-name="Bafoussam III" data-active="true"/>



</svg>