<?xml version="1.0" encoding="UTF-8" standalone="no"?>
<!DOCTYPE svg PUBLIC "-//W3C//DTD SVG 1.1//EN" "http://www.w3.org/Graphics/SVG/1.1/DTD/svg11.dtd">
<svg xmlns="http://www.w3.org/2000/svg" xmlns:xlink="http://www.w3.org/1999/xlink" >


                <path d="M661.25 28.84C 667.12 30.99 671.37 34.59 677.97 34.41C 679.26 35.45 680.57 36.55 681.97 37.42C 683.1 36.88 684.21 36.28 685.3 35.64C 686.13 35.88 686.96 36.13 687.79 36.37C 688.47 35.8 689.15 35.23 689.84 34.66C 690.69 35.6 691.55 36.54 692.41 37.48C 692.57 36.14 692.73 34.79 692.88 33.44C 693.67 33.49 694.46 33.54 695.25 33.59C 697.09 34.91 698.94 35.99 701.01 36.9C 701.88 36.07 702.75 35.24 703.61 34.4C 706.3 36.17 709.24 37.21 712.24 38.28C 714.24 37.52 715.98 36.82 717.42 35.17C 718.66 35.78 719.81 36.43 721.11 36.82C 722.45 36.78 723.76 35.83 724.97 35.3C 726.01 35.81 727.04 36.33 728.08 36.84C 728.33 36.16 728.58 35.48 728.84 34.8C 728.05 34.11 727.27 33.42 726.5 32.73C 728.02 31.85 729.58 31.01 731.1 30.13C 731.57 31.85 731.88 33.75 732.7 35.34C 733.5 36.79 735.1 36.73 736.54 37.36C 736.62 36.21 736.7 35.07 736.78 33.92C 737.11 34.39 737.44 34.87 737.77 35.34C 742.67 35.31 744.88 40.22 749.56 39.43C 749.62 38.31 749.67 37.19 749.72 36.07C 750.19 36.66 750.66 37.25 751.13 37.85C 751.73 37.03 752.33 36.21 752.93 35.4C 754.77 39.14 756.48 40.78 760.07 42.84C 760.83 42.69 761.59 42.54 762.36 42.39C 763.89 43.25 765.44 44.08 767 44.9C 768.01 43.8 769.03 42.7 770.05 41.6C 770.78 41.72 771.51 41.84 772.24 41.96C 772.86 40.64 773.49 39.32 774.12 38C 777.48 39.99 780.56 42.21 784.29 43.48C 784.69 45.34 785.08 47.2 785.48 49.06C 784.26 49.38 783.03 49.71 781.81 50.03C 782.31 50.85 782.81 51.66 783.31 52.48C 782.11 53.83 781.12 55.28 780.24 56.86C 780.81 57.92 781.38 58.99 781.95 60.06C 782.96 60.35 783.97 60.65 784.98 60.95C 783.46 62.09 781.94 63.23 780.41 64.35C 781.17 65.25 781.94 66.15 782.7 67.05C 781.75 67.54 780.8 68.04 779.85 68.53C 780.27 70.19 780.74 71.83 781.21 73.47C 779.85 73.63 778.49 73.79 777.13 73.94C 777.32 74.89 777.51 75.83 777.7 76.78C 775.53 75.71 773.56 74.52 771.62 73.08C 771.26 73.92 770.9 74.76 770.54 75.59C 767.94 76.42 765.39 77.34 762.87 78.4C 761.31 78.12 759.76 77.85 758.21 77.57C 758.36 79.27 758.58 80.93 758.95 82.6C 758.7 83.27 758.44 83.95 758.18 84.63C 758.64 85.46 759.09 86.3 759.55 87.13C 758.51 87.34 757.47 87.55 756.43 87.76C 757.08 89.21 757.74 90.6 758.25 92.1C 757.62 94.16 755.88 95.94 755.57 98.05C 756.08 98.92 756.62 99.78 757.19 100.61C 755.67 100.42 754.44 100.73 753.51 101.56C 753.98 102.44 754.47 103.31 754.97 104.17C 753.36 104.77 751.74 105.36 750.13 105.94C 750.32 106.89 750.51 107.84 750.71 108.79C 752.96 109.08 755.28 109.18 757.5 109.68C 760.41 111.8 762.57 115.38 764.55 118.35C 764.36 119.18 764.18 120 763.99 120.83C 764.45 121.31 764.91 121.78 765.37 122.25C 763.95 123.65 761.89 125.13 761.49 127.2C 761.27 128.88 761.42 130.61 761.46 132.3C 760.53 132.48 759.61 132.67 758.69 132.86C 758.53 133.74 758.37 134.62 758.21 135.51C 756.47 135.1 754.7 134.79 752.94 134.43C 751.74 136.89 750.56 139.37 749.48 141.89C 751.05 145.06 752.7 148.25 753.93 151.58C 754.49 151.93 755.05 152.27 755.61 152.61C 755.64 153.53 755.68 154.45 755.71 155.37C 757.62 156.07 759.49 156.59 761.5 156.94L761.5 156.94L760.39 159.53C 761.58 159.55 762.77 159.57 763.96 159.6C 763.58 161.78 763.03 163.71 762 165.68C 761.86 167.58 761.58 169.4 761.09 171.23C 766.33 172.32 765.26 177.81 765.42 181.85C 767.31 183.27 768.14 184.19 769.02 186.41C 770.53 187.92 772.11 189.36 773.67 190.81C 772.26 193.17 770.85 195.54 769.42 197.89C 770.42 200.14 771.42 202.4 772.47 204.63C 773.8 204.35 775.14 204.06 776.47 203.77C 777.38 200.96 778.47 198.2 779.37 195.38C 778.97 200.29 781.75 203.04 784.08 206.88C 784.34 210.5 783 214.32 782.72 217.97C 784.99 220.81 786.86 223.75 789.97 225.79C 787.65 227.52 785.51 229.56 783.09 231.13C 780.74 232.11 777.91 232.16 775.41 232.6C 775.67 235.46 775.97 238.31 776.41 241.14C 775.47 242.7 774.69 244.88 773.25 246.03C 771.34 246.65 769.28 246.85 767.36 247.44C 765.89 248.89 765.12 251.03 763.66 252.44C 762.24 252.83 760.75 253 759.3 253.24C 758.69 254.5 758.08 255.77 757.47 257.04C 758.52 258.46 759.58 259.88 760.62 261.31C 757.62 261.98 753.86 261.75 751.16 263.16C 750.27 264.98 750.02 267.16 749.56 269.12C 750.09 270.02 750.62 270.93 751.15 271.83C 749.07 274.67 746.73 277.27 746.81 281.02C 747.24 282.7 748.05 284.1 748.8 285.64C 747.92 287 746.95 288.29 746.11 289.68C 750.09 292.77 753.48 296.49 757.48 299.53C 759.58 301.22 761.52 302.74 762.29 305.45C 763.91 310.75 761.24 316.96 758.4 321.4C 757.18 323.53 755.41 326.02 756.5 328.56C 758.12 331.6 760.41 334.2 761.86 337.37C 758.57 337.71 755.3 337.34 752.01 337.42C 748.7 337.51 745.95 338.69 742.91 339.81C 742.08 341.76 740.87 343.85 740.67 345.97C 741 348.3 743.35 350.37 744.86 352.08C 747.2 355.13 751.95 354.97 755.39 356.7C 753.74 359.39 749 362.06 750.23 365.59L750.23 365.59L750.37 366.81C 749.38 366.2 748.38 365.6 747.38 365C 746.34 365.87 745.29 366.73 744.24 367.59C 742.13 366.17 739.99 364.91 737.7 363.79C 737.25 364.93 736.81 366.07 736.36 367.21C 734.68 368.13 732.98 369 731.27 369.85C 731.29 368.85 731.33 367.84 731.37 366.84C 729.86 365.99 728.36 365.13 726.87 364.24C 726.12 364.95 725.37 365.65 724.61 366.35C 724.87 365.03 725.12 363.7 725.38 362.37C 724.48 362.47 723.59 362.57 722.69 362.67C 720.66 361.46 718.6 360.3 716.58 359.08C 714.95 360.33 713.38 361.61 711.83 362.96C 711.09 362.01 710.35 361.06 709.58 360.14C 708.69 359.55 707.78 358.99 706.86 358.45C 706.35 360.45 705.93 362.5 705.5 364.52C 703.84 364.82 702.1 365.02 700.51 365.58C 699.17 366.47 698.07 367.8 696.96 368.96C 694.08 369.71 691.25 370.56 688.31 371.05C 686.65 372.54 685.01 374.05 683.38 375.57C 681.95 373.83 680.5 372.11 679.04 370.4C 677.63 372.27 676.27 374.17 674.96 376.12C 673.98 375.03 673.08 373.89 672.12 372.79C 670.71 372.27 669.3 371.78 667.89 371.27C 664.96 373.89 662.23 375.24 658.42 376.17C 657.94 375.13 657.44 374.09 656.95 373.06C 655.84 371.76 654.85 370.4 653.91 368.98C 652.95 369.27 651.96 369.55 651.03 369.91C 648.17 370.67 647.19 372.35 645.72 374.7C 640.26 375.28 635.08 378.28 630.28 380.82C 629.22 379.82 628.18 378.81 627.12 377.82C 626.27 378.38 625.41 378.94 624.55 379.5C 623.6 376.6 624.4 374.27 625.24 371.49C 623.65 371.69 622.06 371.9 620.47 372.11C 621.25 370.47 622.04 368.82 622.81 367.17C 620.86 366.22 619 365.19 617.19 363.99C 618.2 363.69 619.2 363.39 620.21 363.09C 620.62 359.86 620.18 357.19 619.24 354.09C 612.33 354.95 605.5 354.36 598.59 354.48C 599.16 351.97 599.79 349.49 600.46 347.01C 598.85 346.47 597.23 345.93 595.62 345.39C 594.63 342.77 593.83 339.96 592.44 337.51C 591.14 336.74 589.17 337.61 587.77 337.81C 586.54 335.88 585.33 333.94 584.11 332.01C 584.9 327.97 586.52 324.25 584.62 320.33C 585.08 319.86 585.55 319.38 586.01 318.91C 586.14 318.19 586.28 317.47 586.44 316.76C 588.84 314.61 592.57 312.75 594.2 309.98L594.2 309.98L594.24 308.14C 594.66 307.6 595.08 307.06 595.49 306.52C 593.85 306.96 592.21 307.43 590.58 307.91C 589.35 304.98 588.23 303.62 585.67 301.75C 586.04 301.21 586.42 300.67 586.79 300.14C 583.98 298.84 581.95 297.46 579.93 295.1C 577.45 292.09 573.88 290.65 571.55 287.55C 569.31 284.67 567.44 281.79 564.56 279.47C 561.26 276.87 557.95 274.3 554.92 271.38C 554.35 266.75 553.23 262.25 552.34 257.68C 550.75 259.22 549.29 260.83 547.93 262.58C 546.69 263.88 546.64 265.72 547.4 267.3C 544.75 271.62 543.02 276.97 539.73 280.8C 536.71 283.84 532.2 285.64 528.61 288.01C 526.62 287.64 524.34 287.41 522.55 286.43C 520.44 285.14 518.57 283.34 516.72 281.71C 514.82 282.2 512.93 282.69 511.04 283.19C 507.43 282.74 503.87 282.22 500.38 281.15C 499.76 282.43 499.14 283.7 498.51 284.97C 498.1 282.67 497.7 280.36 497.27 278.06C 494.54 275.88 492.41 271.96 488.96 271.26C 483.68 269.51 478.26 266.81 473.74 263.58C 472.89 264.36 472.04 265.13 471.19 265.91C 469.54 265.58 467.89 265.28 466.24 264.99C 464.43 266.02 463.12 266.59 461.01 266.56C 461.11 265.45 461.22 264.35 461.32 263.25C 460.87 262.04 460.42 260.84 459.98 259.63C 455.14 260.67 449.27 261.14 444.57 259.4C 442.11 257.65 440.75 254 439.77 251.24L439.77 251.24L440.44 249.7C 444.27 249.41 448.12 249.38 451.95 249.29C 453.82 247.12 455.54 244.74 457.64 242.79C 461.24 239.98 466.43 239.01 470.07 237C 471.72 235.71 472.99 233.87 474.32 232.28C 476.59 232.43 478.86 232.59 481.12 232.74C 483.92 230.31 486.84 228.05 489.73 225.74C 493.9 223.21 491.79 216.87 495.23 213.2C 498.6 209.83 504.19 208.73 507.82 205.79C 509.39 201.57 510.09 197.07 511.72 192.84C 513.34 192.52 514.96 192.21 516.57 191.85C 516.68 189.3 516.78 186.76 516.86 184.21C 514.41 181.07 511.45 178.15 509.43 174.72C 508.71 172.27 509 167.96 510.01 165.61C 512.31 161.46 515.12 157.57 517.3 153.34C 518.42 150.82 518.22 147.8 519.23 145.21C 521.37 139.91 524.51 135 526.55 129.67C 527.79 122.02 525.73 113.03 524.28 105.49C 523.01 99.36 522.02 93.19 520.92 87.03C 518.57 75.7 518.77 64.66 514.37 53.72C 516.3 53.44 518.22 53.14 520.14 52.8C 523.73 54.11 527.27 56.09 531.02 56.84C 534.41 55.48 537.95 53.71 541.38 52.26C 545.06 54.62 549.07 56.19 553.1 57.83C 555.55 62.27 559.55 61.94 563.9 63.17C 563.6 63.82 563.3 64.47 563 65.11C 563.55 65.78 564.09 66.44 564.64 67.1C 563.93 68.72 563.22 70.34 562.49 71.95C 563.21 72.79 563.92 73.63 564.64 74.48C 568.42 77.45 572.75 77.45 576.98 79.28C 578.09 78.96 579.2 78.63 580.31 78.31C 581.29 76.6 582.06 73.37 584.04 72.7C 586.17 72.79 588.31 73.29 590.41 73.65C 591.04 72.68 591.67 71.72 592.29 70.75C 593.52 71.31 594.75 71.87 595.97 72.44C 597.2 71.75 598.43 71.07 599.67 70.39C 603.91 70.93 608.16 70.94 612.43 70.75C 613 69.63 613.57 68.51 614.14 67.4C 614.97 67.63 615.8 67.86 616.63 68.09L616.63 68.09L616.58 66.41C 619.82 65.96 623.03 65.62 626.3 65.6C 627.25 64.43 628.21 63.27 629.16 62.11C 632.93 62.83 637.22 64.85 641.03 64.11C 642.01 62.4 642.72 60.53 643.51 58.73C 643 58.2 642.49 57.66 641.97 57.13C 643.46 54.48 644.94 52.02 647.36 50.1C 647.39 47.74 647.43 45.38 647.35 43.02C 650.13 42.04 652.74 40.89 655.36 39.53C 655.33 38.31 655.31 37.08 655.29 35.86C 657.4 35.21 659.48 34.52 661.58 33.88C 661.45 32.2 661.33 30.52 661.25 28.84z" stroke="none" fill="#A900E6" fill-rule="nonzero" data-id="Magba" data-name="Magba"/>

                <path d="M270.91 221.75C 272.11 225.1 272.62 228.22 275.01 231C 277.69 234.1 280.5 237.5 284.7 238.42C 288.96 239.53 292.79 238.36 296.91 237.39C 298.92 238.85 300.91 240.32 302.92 241.77C 304.59 241.27 306.32 240.61 308.06 240.44C 311.12 240.95 314.06 242.38 316.98 243.4C 318.04 242.12 319.1 240.85 320.15 239.57C 323.99 240 327.73 240.62 331.5 241.46C 332.63 243.57 333.78 245.68 334.95 247.77C 337.61 247.64 341.28 246.32 343.24 248.72C 345.33 251.07 346.69 254.19 348.17 256.95C 351.37 257.44 354.57 257.91 357.78 258.34C 360.25 263.37 361.9 268.17 360.08 273.76C 357.22 277.76 352.56 279.86 349.68 283.72C 347.86 287.3 348.47 292.01 346.48 295.62C 344.32 299.41 340.51 302.52 338.04 306.02C 336.71 307.89 336.86 310.82 336.59 313.02C 336.4 318.34 334.64 323.4 331.99 327.98C 329.21 332.22 324.95 334.44 320.25 335.97C 316.12 337.29 314.1 340.35 311.26 343.34C 309.2 345.6 306.69 346.93 304.07 348.41C 304.26 354.03 307.35 357.86 310.66 362.06C 310.09 364.01 309.41 365.99 309.1 368C 308.89 370.15 309.6 372.38 309.36 374.53C 308.76 376.44 307.65 378.22 306.72 379.99C 300.61 378.52 295.63 376.35 289.23 378.29C 287.07 379.88 286.37 383.33 284.47 385.2C 282.23 386.74 279.63 387.76 277.39 389.37C 274.97 391.1 272.91 393.57 270.94 395.78C 271.86 396.17 272.77 396.56 273.69 396.95C 273.5 398.08 273.3 399.21 273.11 400.35C 275.56 399.9 278.01 399.42 280.44 398.88C 280.57 401.11 280.57 403.36 280.63 405.59C 281.86 407.02 283.23 408.46 284.19 410.09C 284.55 412.01 283.86 414.16 281.8 414.71C 279.11 415.41 276.16 415.38 273.39 415.52C 273.02 417.33 272.44 419.22 272.46 421.07C 272.75 423.34 273.68 425.59 273.85 427.87C 273.02 431.04 271.37 434.02 270.1 437.04C 270.58 438.02 271.06 439.01 271.54 439.99C 272.13 441.21 272.73 442.44 273.32 443.66C 274.54 443.5 275.77 443.35 276.99 443.21C 278.38 443.67 279.84 444.18 281.05 445.01C 282.35 446.64 282.81 449.04 283.49 450.96C 278.3 451.11 275.13 446.95 270 447.44C 267.66 447.52 265.3 447.86 262.96 447.83C 260.07 447.51 257.01 444.44 254.03 445.18C 248.28 446.22 245.37 450.78 241.14 454.15C 238.74 456.17 235.99 456.17 233 456.23C 228.32 456.27 223.61 455.18 218.96 455.47C 216.61 455.61 214.49 457.34 212.6 458.62C 207.92 462.09 202.19 464.51 196.79 466.68C 191.55 464.96 186.96 466.44 181.81 467.49C 177.85 461.27 172.5 456.03 169.2 449.46C 166.74 449.93 164.32 450.4 161.99 451.34C 162.1 450.08 162.22 448.83 162.34 447.58C 164.78 446.54 166.91 445.44 168.66 443.37C 166.7 442.69 164.53 442.24 162.73 441.21C 160.54 438.9 158.58 435.19 157.92 432.07C 160.1 430.74 163.48 431.81 165.9 431.93C 166.92 428.63 167.62 425.11 169.07 421.97C 170.37 419.76 172.41 417.88 174.48 416.39C 177.88 414.39 182.22 414.16 185.06 410.91C 185.85 409.11 185.74 406.87 185.94 404.93C 181.69 402.98 180.12 399.3 177.25 395.93C 177.65 394.95 178.05 393.97 178.45 393C 177.09 390.87 173.68 387.94 174.22 385.28C 175.86 383.78 178.47 383.16 180.52 382.31C 178.53 381.15 176.24 380.08 174.58 378.46C 172.37 371.73 175.25 364.65 180.06 359.83C 181.86 360.3 182.08 363.05 182.83 364.52C 183.84 365.03 184.85 365.53 185.87 366.02C 187.81 361.81 190.02 357.88 192.85 354.19C 191.82 352.56 190.54 350.84 189.97 348.99C 190.41 344.98 193.72 341.47 194.51 337.47C 194.98 333.98 193.79 329.93 194.88 326.59C 195.39 324.6 196.24 322.93 196.07 320.92C 196.1 318.3 195.21 314.83 196.47 312.46C 198.13 310.68 201.58 310.77 203.83 310.3C 206.83 306.37 209.21 302.36 213.15 299.25C 214.52 297.93 216.53 296.81 216.59 294.7C 217.12 290.14 214.2 286.26 213.28 281.97C 212.84 279.39 212.99 276.68 213.43 274.11C 213.49 273.12 213.99 272.42 214.94 272.02C 220.52 268.95 226.39 266.61 232.21 264.07C 236.49 262.16 233.01 255.59 236.46 253.53C 240.42 250.77 243.36 246.96 247.48 244.44C 248.8 243.44 250.55 242.73 250.99 240.99C 252.47 236.39 252.38 231.25 253.64 226.6C 254.06 225.04 255.6 223.74 256.64 222.54C 259.07 225.16 261.46 227.45 264.83 228.82C 266.73 226.35 268.71 223.95 270.91 221.75z" stroke="none" fill="#FACAFC" fill-rule="nonzero" data-id="Bangourain" data-name="Bangourain"/>

                <path d="M397.3 241.38C 403.45 240.73 409.86 241.91 416.02 242.31C 420.57 242.57 423.45 245.2 427.05 247.59C 430.92 246.47 434.57 245.19 438.67 245.49C 439.01 247.43 439.3 249.33 439.77 251.24C 440.75 254 442.11 257.65 444.57 259.4C 449.27 261.14 455.14 260.67 459.98 259.63C 460.42 260.84 460.87 262.04 461.32 263.25C 461.22 264.35 461.11 265.45 461.01 266.56C 463.12 266.59 464.43 266.02 466.24 264.99C 467.89 265.28 469.54 265.58 471.19 265.91C 472.04 265.13 472.89 264.36 473.74 263.58C 478.26 266.81 483.68 269.51 488.96 271.26C 492.41 271.96 494.54 275.88 497.27 278.06C 497.7 280.36 498.1 282.67 498.51 284.97C 499.14 283.7 499.76 282.43 500.38 281.15C 503.87 282.22 507.43 282.74 511.04 283.19C 512.93 282.69 514.82 282.2 516.72 281.71C 518.57 283.34 520.44 285.14 522.55 286.43C 524.34 287.41 526.62 287.64 528.61 288.01C 532.2 285.64 536.71 283.84 539.73 280.8C 543.02 276.97 544.75 271.62 547.4 267.3C 549.02 265.84 550.15 264.18 547.93 262.58C 549.29 260.83 550.75 259.22 552.34 257.68C 553.23 262.25 554.35 266.75 554.92 271.38C 557.95 274.3 561.26 276.87 564.56 279.47C 567.44 281.79 569.31 284.67 571.55 287.55C 573.88 290.65 577.45 292.09 579.93 295.1C 581.95 297.46 583.98 298.84 586.79 300.14C 586.42 300.67 586.04 301.21 585.67 301.75C 588.23 303.62 589.35 304.98 590.58 307.91C 592.21 307.43 593.85 306.96 595.49 306.52C 595.08 307.06 594.66 307.6 594.24 308.14C 591.02 310.82 587.22 312.18 586.44 316.76C 586.28 317.47 586.14 318.19 586.01 318.91C 585.55 319.38 585.08 319.86 584.62 320.33C 586.52 324.25 584.9 327.97 584.11 332.01C 585.33 333.94 586.54 335.88 587.77 337.81C 589.17 337.61 591.14 336.74 592.44 337.51C 593.83 339.96 594.63 342.77 595.62 345.39C 597.23 345.93 598.85 346.47 600.46 347.01C 599.79 349.49 599.16 351.97 598.59 354.48C 605.5 354.36 612.33 354.95 619.24 354.09C 620.18 357.19 620.62 359.86 620.21 363.09C 619.2 363.39 618.2 363.69 617.19 363.99C 619 365.19 620.86 366.22 622.81 367.17C 622.04 368.82 621.25 370.47 620.47 372.11C 622.06 371.9 623.65 371.69 625.24 371.49C 624.4 374.27 623.6 376.6 624.55 379.5C 625.41 378.94 626.27 378.38 627.12 377.82C 628.18 378.81 629.22 379.82 630.28 380.82C 635.08 378.28 640.26 375.28 645.72 374.7C 646.63 374.61 647.53 374.52 648.44 374.44C 649.28 372.91 650.11 371.39 651.03 369.91C 651.96 369.55 652.95 369.27 653.91 368.98C 654.85 370.4 655.84 371.76 656.95 373.06C 657.44 374.09 657.94 375.13 658.42 376.17C 654.02 377.43 648.54 378.08 644.75 380.76C 639.86 384.73 637.2 391.14 633.85 395.93C 632.11 398.68 627.91 398.93 625.01 399.36C 619.56 400.22 615.22 397.97 610 397.36C 606.52 397.05 604.64 399.23 602.18 401.2C 597.39 405.39 591.38 407.7 585.08 408.34C 582.28 408.82 578.28 409.05 576.23 411.22C 572.96 414.86 571.58 421.4 567.34 424.32C 563.37 426.66 557.64 425.54 553.52 427.54C 550.18 429.79 547.75 433.6 546.13 437.22C 544.3 441.35 545.19 446.35 543.4 450.35C 542.35 452.4 540.58 454.89 538.03 454.93C 531.36 455.55 525.73 453.81 519.62 457.56C 513.55 461.41 506.98 462.83 500.13 464.58C 496.05 464.26 493.14 462.16 489.58 460.4C 486.55 458.8 483.37 457.63 480.05 456.83C 468 453.98 456 450.95 443.96 448.11C 439.12 447.03 434.85 444.81 430.53 442.49C 424.16 439.07 418.04 436.76 412.42 432.61C 406.32 428.15 400 423.07 393.09 419.93C 385.28 417.06 376.66 416.69 368.88 413.13C 362.75 410.25 356.38 407.85 350.96 404.06C 346.75 401.15 342.49 398.6 338.95 395.05C 334.91 391.1 330.66 386.08 325.55 383.55C 319.58 381.47 312.9 381.42 306.72 379.99C 307.65 378.22 308.76 376.44 309.36 374.53C 309.6 372.38 308.89 370.15 309.1 368C 309.41 365.99 310.09 364.01 310.66 362.06C 307.35 357.86 304.26 354.03 304.07 348.41C 306.69 346.93 309.2 345.6 311.26 343.34C 314.1 340.35 316.12 337.29 320.25 335.97C 324.95 334.44 329.21 332.22 331.99 327.98C 334.64 323.4 336.4 318.34 336.59 313.02C 336.86 310.82 336.71 307.89 338.04 306.02C 340.51 302.52 344.32 299.41 346.48 295.62C 348.47 292.01 347.86 287.3 349.68 283.72C 352.56 279.86 357.22 277.76 360.08 273.76C 364.68 274.79 367.59 277.97 372.53 277.58C 373.7 278.83 374.86 280.09 376.01 281.36C 378.1 278 381.09 275.58 383.55 272.56C 385.85 268.7 385.54 263.29 385.35 258.96C 384.97 255.02 387.2 251.24 388.93 247.82C 390.74 244.48 393.36 241.84 397.3 241.38z" stroke="none" fill="#BCCEF5" fill-rule="nonzero" data-id="Njimom" data-name="Njimom"/>

                <path d="M547.93 262.58C 550.15 264.18 549.02 265.84 547.4 267.3C 546.64 265.72 546.69 263.88 547.93 262.58z" stroke="none" fill="#F3E0F6" fill-rule="nonzero" />

                <path d="M594.24 308.14L594.2 309.98C 592.57 312.75 588.84 314.61 586.44 316.76C 587.22 312.18 591.02 310.82 594.24 308.14z" stroke="none" fill="#F4E5F6" fill-rule="nonzero" />

                <path d="M706.86 358.45C 707.78 358.99 708.69 359.55 709.58 360.14C 710.35 361.06 711.09 362.01 711.83 362.96C 713.38 361.61 714.95 360.33 716.58 359.08C 718.6 360.3 720.66 361.46 722.69 362.67C 723.59 362.57 724.48 362.47 725.38 362.37C 725.12 363.7 724.87 365.03 724.61 366.35C 725.37 365.65 726.12 364.95 726.87 364.24C 728.36 365.13 729.86 365.99 731.37 366.84C 731.33 367.84 731.29 368.85 731.27 369.85C 732.98 369 734.68 368.13 736.36 367.21C 736.81 366.07 737.25 364.93 737.7 363.79C 739.99 364.91 742.13 366.17 744.24 367.59C 745.29 366.73 746.34 365.87 747.38 365C 748.38 365.6 749.38 366.2 750.37 366.81L750.37 366.81L750.23 365.59C 752.7 366.53 755.43 367.03 757.76 368.24C 759.04 369.41 759.92 371.27 759.98 373C 758.89 376.93 753.5 380.6 753.5 385.01C 754.28 388.95 757.77 392.28 758.57 396.22C 758.68 403.3 755.22 408.15 752.57 414.25C 753.4 416.29 754.88 418.11 756.1 419.94C 755.76 423.55 754.15 428 757.04 430.98C 760 434.09 763.8 437.24 767.52 439.39C 771.58 441.55 776.81 434.92 780.89 436.98C 784.39 438.49 787.41 441.29 790.46 443.55C 791.99 444.97 794.27 446.06 793.45 448.52C 792.35 452.46 790.58 457.68 786.92 459.93C 782.33 463.11 776.98 461.05 771.9 463.73C 772.58 468.26 773.6 473.38 772.69 477.9C 771.37 481.59 767.69 484.34 765.8 487.81C 764.13 490.44 763.37 493.99 761.26 496.26C 759.42 497.2 756.61 496.41 754.53 496.74C 753.07 498.24 752.08 500.26 750.97 502.03C 747.78 507.43 743.58 511.76 739.03 516.02C 736.08 513 733.92 510.78 729.43 510.41C 724.96 516.31 720.25 521.39 717.29 528.33C 715.82 531.43 715.33 534.91 713.92 538.02C 711.93 539.72 709.52 540.98 707.29 542.36C 704.26 544.18 700.99 544.49 697.85 545.86C 694.66 547.3 692.14 551.36 693.2 554.84C 695.56 560.67 701.11 564.79 704.04 569.75C 701.87 571.77 699.54 573.45 697.86 575.95C 694.36 581 689.71 585.37 686.69 590.64C 685.1 593.37 685.8 597.16 685.08 600.19C 683.88 602.86 680.53 605.05 679.93 607.85C 681.7 610.41 684.16 612.44 686.01 614.96C 687.87 617.45 688.88 620.13 690.34 622.82C 691.51 625.35 694.36 626.63 696.34 628.59C 696.13 632.18 694.13 636.29 695.26 639.79C 696.42 643.95 699.44 646.8 702.29 649.85C 700.33 652.76 696.33 656.21 697.11 660C 697.53 666.35 702.44 669.5 704.15 675.01C 703.43 681.04 697.23 686.03 696.14 691.99C 694.95 697.58 696.39 703.25 695.64 708.76C 694.36 713.19 691.18 717.06 689.34 721.32C 687.42 725.01 686.06 730.15 682.88 732.91C 678.93 734.65 673.56 733.6 669.73 735.73C 667.28 737.28 664.64 740.59 666.55 743.52C 668.73 747.14 671.8 750.25 674.39 753.59C 678.47 758.91 683.69 762.52 686.72 768.64C 682.39 767.05 678.5 764.81 674.6 762.38C 650.15 748.16 625.64 734 601.15 719.85C 598.04 718.05 595.31 715.77 592.8 713.21C 573.85 694.13 554.23 675.81 535.3 656.7C 531.04 652.09 527.94 646.93 522.35 643.62C 520.11 642.25 517.84 642.58 515.34 642.59C 511.54 642.48 507.74 642.07 503.94 641.79C 504.02 639.9 504.06 637.98 504.31 636.11C 504.75 633.02 506.63 630.22 507.27 627.24C 507.2 625.39 506.54 623.52 506.08 621.73C 505.97 616.55 505.2 614.13 502.17 609.96C 504.06 603.3 505.58 596.51 509.88 590.86C 512.06 588.06 514.34 585.31 516.61 582.58C 519.31 579.3 522.73 577.61 525.9 574.89C 528.78 572.44 531.34 569.53 533.96 566.8C 533.09 562.07 531.58 557.9 529.49 553.58C 525.4 545.16 526.75 535.73 523.11 526.75C 522.4 525.41 520.93 524.41 519.84 523.38C 517.05 521.48 518.7 516.44 517.68 513.36C 517.37 512.13 517.06 510.91 516.73 509.69C 515.65 509.33 514.57 508.96 513.49 508.59C 513.31 506.42 513.11 504.26 512.9 502.1C 512.43 501.99 511.97 501.87 511.5 501.75L511.5 501.75L511.1 500.92C 510.56 499.73 510.05 498.54 509.42 497.39C 505.18 497.15 501.65 498.59 497.53 496.63C 492.69 495.09 492.34 490.55 488.14 487.31C 488.67 485 489.05 482.66 489.49 480.33C 491.29 479.33 493.44 478.44 494.89 476.95C 497.82 473.36 499.38 469.11 500.13 464.58C 506.98 462.83 513.55 461.41 519.62 457.56C 525.73 453.81 531.36 455.55 538.03 454.93C 540.58 454.89 542.35 452.4 543.4 450.35C 545.19 446.35 544.3 441.35 546.13 437.22C 547.75 433.6 550.18 429.79 553.52 427.54C 557.64 425.54 563.37 426.66 567.34 424.32C 571.58 421.4 572.96 414.86 576.23 411.22C 578.28 409.05 582.28 408.82 585.08 408.34C 591.38 407.7 597.39 405.39 602.18 401.2C 604.64 399.23 606.52 397.05 610 397.36C 615.22 397.97 619.56 400.22 625.01 399.36C 627.91 398.93 632.11 398.68 633.85 395.93C 637.2 391.14 639.86 384.73 644.75 380.76C 648.54 378.08 654.02 377.43 658.42 376.17C 662.23 375.24 664.96 373.89 667.89 371.27C 669.3 371.78 670.71 372.27 672.12 372.79C 673.08 373.89 673.98 375.03 674.96 376.12C 676.27 374.17 677.63 372.27 679.04 370.4C 680.5 372.11 681.95 373.83 683.38 375.57C 685.01 374.05 686.65 372.54 688.31 371.05C 691.25 370.56 694.08 369.71 696.96 368.96C 698.07 367.8 699.17 366.47 700.51 365.58C 702.1 365.02 703.84 364.82 705.5 364.52C 705.93 362.5 706.35 360.45 706.86 358.45z" stroke="none" fill="#EEFAD4" fill-rule="nonzero" data-id="Malentouen" data-name="Malentouen"/>

                <path d="M651.03 369.91C 650.11 371.39 649.28 372.91 648.44 374.44C 647.53 374.52 646.63 374.61 645.72 374.7C 647.19 372.35 648.17 370.67 651.03 369.91z" stroke="none" fill="#E6C4EE" fill-rule="nonzero" />

                <path d="M306.72 379.99C 312.9 381.42 319.58 381.47 325.55 383.55C 330.66 386.08 334.91 391.1 338.95 395.05C 342.49 398.6 346.75 401.15 350.96 404.06C 356.38 407.85 362.75 410.25 368.88 413.13C 376.66 416.69 385.28 417.06 393.09 419.93C 400 423.07 406.32 428.15 412.42 432.61C 418.04 436.76 424.16 439.07 430.53 442.49C 434.85 444.81 439.12 447.03 443.96 448.11C 456 450.95 468 453.98 480.05 456.83C 483.37 457.63 486.55 458.8 489.58 460.4C 493.14 462.16 496.05 464.26 500.13 464.58C 499.38 469.11 497.82 473.36 494.89 476.95C 493.44 478.44 491.29 479.33 489.49 480.33C 489.05 482.66 488.67 485 488.14 487.31C 487.81 488.39 487.49 489.47 487.16 490.55C 491.29 492.96 492.55 494.32 494.35 498.79C 496.89 499.84 499.51 501.04 502.21 501.6C 505.06 502.07 508.27 501.33 511.1 500.92L511.1 500.92L511.5 501.75C 511.97 501.87 512.43 501.99 512.9 502.1C 513.11 504.26 513.31 506.42 513.49 508.59C 514.57 508.96 515.65 509.33 516.73 509.69C 514.74 509.75 512.76 509.82 510.77 509.96C 511.22 511.43 510.83 512.84 512.47 513.54C 513.93 514.29 516.11 513.49 517.68 513.36C 518.7 516.44 517.05 521.48 519.84 523.38C 517.62 524.39 518.11 525.9 517.64 527.94C 519.44 528.34 521.23 528.73 523.03 529.12L523.03 529.12L523.11 526.75C 526.75 535.73 525.4 545.16 529.49 553.58C 531.58 557.9 533.09 562.07 533.96 566.8C 531.34 569.53 528.78 572.44 525.9 574.89C 522.73 577.61 519.31 579.3 516.61 582.58C 514.34 585.31 512.06 588.06 509.88 590.86C 505.58 596.51 504.06 603.3 502.17 609.96C 501.7 611.8 500.68 613.74 501.4 615.63C 502.17 617.97 504.45 619.94 506.08 621.73C 506.54 623.52 507.2 625.39 507.27 627.24C 506.63 630.22 504.75 633.02 504.31 636.11C 504.06 637.98 504.02 639.9 503.94 641.79C 507.74 642.07 511.54 642.48 515.34 642.59C 510.73 643.09 504.58 644.02 500.3 641.82C 496.18 639.91 498.51 632.69 494.99 630.18C 492.88 628.71 490.48 627.43 487.97 626.81C 484.49 626.1 481.08 628.77 477.92 629.9C 475.25 628.83 472.9 626.48 470.07 625.84C 467.16 625.19 463.83 625.2 460.92 625.9C 457.98 626.62 455.85 628.94 453.18 630.22C 451.42 630.68 449.55 630.62 447.79 631.04C 444.12 632.72 441.44 636.66 436.99 636.31C 432.98 635.93 429.54 631.84 425.75 630.69C 424.22 630.86 422.71 631.39 421.23 631.79C 418.01 627.49 413.04 626.94 408.03 627.32C 403.51 627.82 398.69 630.16 394.17 629.83C 389.96 627.72 386.68 621.99 381.49 622.7C 374.56 623.28 368.1 624.13 361.29 622.01C 360.34 621.72 359.4 621.43 358.45 621.13C 357.66 616.84 356.32 612.5 355.95 608.17C 357.24 604.65 360.48 602.04 360.73 597.95C 360.94 592.87 361.92 588.09 362.8 583.12C 360.65 580.94 357.16 579.94 354.41 578.69C 353.75 574.81 353.34 570.7 352.06 566.97C 351.5 565.08 349.9 564.26 348.49 562.99C 349.5 560.24 350.69 557.57 351.94 554.92C 354.91 549.8 352.44 542.82 352.95 536.96C 352.84 534.69 353.95 533.3 355.37 531.71C 358.63 532.3 361.62 532.85 364.78 531.53C 367.23 530.48 370.32 529.09 371.81 526.78C 373.47 521.23 367.29 517.36 365.57 512.69C 365.04 510.24 364.94 507.25 365.9 504.89C 367.13 503.06 369.75 502.08 371.6 500.98C 369.48 498.68 367.59 496.28 365.81 493.71C 364.29 495.08 362.77 496.89 360.9 497.74C 356.18 497.54 352.27 496 347.52 497.71C 344.04 498.76 341.7 500.84 339.4 503.54C 336.7 501.35 334.63 498.96 331.28 497.65C 327.89 496.27 324.66 496.59 321.1 496.74C 320.72 496.23 320.34 495.71 319.95 495.19C 323.51 491.61 325.88 487.41 328.02 482.89C 329.36 483.02 330.71 483.16 332.05 483.29C 333.34 481.18 334.6 479.06 335.84 476.93C 337.4 476.32 338.96 475.71 340.52 475.1C 339.84 470.95 339.56 467.07 339.78 462.87C 334.12 461.65 328.68 463.51 323.11 461.85C 319.64 460.86 316.25 461.64 312.78 461.23C 309.27 460.22 306.29 457.62 302.84 456.32C 296.59 453.97 290 452.44 283.49 450.96C 282.81 449.04 282.35 446.64 281.05 445.01C 279.84 444.18 278.38 443.67 276.99 443.21C 276.28 441.97 275.58 440.72 274.81 439.51C 273.72 439.66 272.63 439.81 271.54 439.99C 271.06 439.01 270.58 438.02 270.1 437.04C 271.37 434.02 273.02 431.04 273.85 427.87C 273.68 425.59 272.75 423.34 272.46 421.07C 272.44 419.22 273.02 417.33 273.39 415.52C 276.16 415.38 279.11 415.41 281.8 414.71C 283.86 414.16 284.55 412.01 284.19 410.09C 283.23 408.46 281.86 407.02 280.63 405.59C 280.57 403.36 280.57 401.11 280.44 398.88C 279.42 397.78 278.33 396.76 277.17 395.8C 276.01 396.17 274.84 396.55 273.69 396.95C 272.77 396.56 271.86 396.17 270.94 395.78C 272.91 393.57 274.97 391.1 277.39 389.37C 279.63 387.76 282.23 386.74 284.47 385.2C 286.37 383.33 287.07 379.88 289.23 378.29C 295.63 376.35 300.61 378.52 306.72 379.99z" stroke="none" fill="#F5DCD0" fill-rule="nonzero" data-id="Foumban" data-name="Foumban"/>

                <path d="M277.17 395.8C 278.33 396.76 279.42 397.78 280.44 398.88C 278.01 399.42 275.56 399.9 273.11 400.35C 273.3 399.21 273.5 398.08 273.69 396.95C 274.84 396.55 276.01 396.17 277.17 395.8z" stroke="none" fill="#FEFCFE" fill-rule="nonzero" />

                <path d="M274.81 439.51C 275.58 440.72 276.28 441.97 276.99 443.21C 275.77 443.35 274.54 443.5 273.32 443.66C 272.73 442.44 272.13 441.21 271.54 439.99C 272.63 439.81 273.72 439.66 274.81 439.51z" stroke="none" fill="#FCF6FB" fill-rule="nonzero" />

                <path d="M133.68 439.6C 135.26 441.64 136.7 443.79 138.22 445.88C 139.78 448.07 142.02 449.25 143.77 451.17C 144.94 452.93 145.58 455.07 146.36 457.02C 149.11 456.82 152.24 456.83 154.84 455.87C 157.38 454.86 159.71 452.85 161.99 451.34C 164.32 450.4 166.74 449.93 169.2 449.46C 172.5 456.03 177.85 461.27 181.81 467.49C 186.96 466.44 191.55 464.96 196.79 466.68C 199.49 472.04 203.47 476.13 207.71 480.31C 211.64 484.15 216.32 485.02 221 487.99C 223.71 489.73 226.77 491.69 228.66 494.35C 229.83 496.48 229.39 499.63 228.89 501.93C 228.43 506.3 222.27 506.21 219.1 508.11C 216.22 509.12 216.3 511.83 215.28 514.31C 214.43 517.23 213.21 519.87 210.73 521.75C 206.82 524.79 201.34 526.11 196.64 527.4C 192.6 526.41 189.28 526.35 185.34 527.82C 183.08 528.54 181.12 529.85 179.19 531.18C 175.29 533.93 171.38 536.61 167.79 539.77C 167.7 541.87 167.94 544.25 167.26 546.25C 166.23 548.45 164.53 550.39 163.05 552.3C 165.38 553.03 168.04 553.58 170.13 554.89C 172.77 558.24 172.94 562.53 176.61 565.39C 179.69 568.2 183.63 568.87 186.96 571.07C 189.45 573.95 190.27 578.15 193.54 580.4C 194.85 581.57 197.04 582.53 197.86 584.08C 198.4 587.18 198.48 589.81 200.44 592.42C 200.48 596.17 201.01 599.07 202.47 602.52C 205.2 603.37 208.09 604.01 210.71 605.2C 210.92 607.08 210.88 609.01 210.9 610.9L210.9 610.9L209.99 611.02C 207.24 611.33 206.23 613.28 204.57 615.17C 202.44 615.42 200.29 615.57 198.15 615.74C 199.18 619.83 200.59 623.72 200.95 627.96C 199.61 628.43 197.91 629.66 196.49 629.49C 194.95 628.47 193.65 626.92 191.99 626.12C 188.48 626.45 184.11 628.74 180.76 627.24C 178.31 625.6 176.55 622.82 174.44 620.76C 172.88 622.71 171.32 624.67 169.77 626.63C 168.1 625.26 166.46 623.86 164.83 622.42C 160.63 623.53 156.48 624.57 152.6 626.59C 149.24 628.37 145.69 629.29 141.99 630.05C 138.27 630.83 135.39 632.73 132.03 634.42C 131.06 637.97 132.16 640.87 133.37 644.19C 131.32 645.67 129.7 647.2 126.99 647.17C 123.82 647.53 121.21 644.4 122.4 641.37C 123.35 640 124.63 638.82 125.8 637.62C 124.8 635.49 123.83 633.27 122.53 631.31C 121.38 631.38 120.82 633.41 120.12 634.22C 118.5 634.47 116.88 634.71 115.26 634.94C 115.16 637.11 115.07 639.28 114.96 641.45C 114.17 639.77 113.39 638.08 112.62 636.39C 109.68 635.23 106.68 634.27 103.68 633.3C 102.42 632.81 100.63 632.37 99.85 631.18C 97.71 628.11 96.19 624.52 94.83 621.04C 94.06 621.89 93.29 622.74 92.53 623.59C 91.05 622.8 89.58 622.02 88.1 621.23C 87.27 621.95 86.44 622.68 85.62 623.4C 82.29 619.65 79.29 615.66 75.83 612.02C 70.33 613.09 65.39 611.22 59.95 611.43C 59.62 610.25 59.29 609.07 58.96 607.9C 60.42 607.73 61.89 607.57 63.36 607.41C 61 605.73 58.62 604.08 56.23 602.45C 57.18 601.09 58.07 599.7 58.95 598.29C 56.96 597.64 54.97 596.97 52.99 596.26C 53.65 600.2 53.7 601.81 51.18 605.13C 49.35 604.62 47.52 604.11 45.68 603.61C 45.69 601.88 45.76 600.11 45.52 598.4C 44.43 596.17 41.48 595.31 39.4 594.29C 39.94 592.59 40.49 590.89 41.04 589.19C 39.82 588.38 38.61 587.55 37.39 586.74C 38.06 585.43 38.71 584.11 39.37 582.79C 39.01 580.79 37.9 577.97 39.02 576.09C 40.72 573.64 43.4 571.78 45.61 569.81C 45.48 567.22 45.47 564.65 45.59 562.06C 48.01 560.65 50.45 559.03 53.05 557.99C 55.45 556.99 58.25 557.36 60.8 557.47C 63.11 555.31 66.88 552.59 66.33 549.01C 65.53 547.15 64.21 545.41 63.05 543.74C 65.25 540.57 66.85 537.05 68.98 533.86C 70.83 532.34 73.76 532.08 75.84 530.82C 77.53 528.04 78.12 524.49 79.04 521.39C 85.15 521.06 90.95 519.19 97 519.58C 102.23 519.65 107.79 520.74 112.96 519.91C 117.67 518.76 122.03 515.79 125.41 512.37C 127.6 510.4 127.18 507.71 127.47 505.01C 127.7 494.71 129.16 485.18 128.35 475C 128.1 470.33 127.51 465.65 127.43 460.97C 127.33 457.28 128.72 454.32 129.94 450.94C 131.35 447.21 132.47 443.4 133.68 439.6z" stroke="none" fill="#CCCAFC" fill-rule="nonzero" data-id="Kouoptamo" data-name="Kouoptamo"/>

                <path d="M254.03 445.18C 257.01 444.44 260.07 447.51 262.96 447.83C 265.3 447.86 267.66 447.52 270 447.44C 275.13 446.95 278.3 451.11 283.49 450.96C 290 452.44 296.59 453.97 302.84 456.32C 306.29 457.62 309.27 460.22 312.78 461.23C 316.25 461.64 319.64 460.86 323.11 461.85C 328.68 463.51 334.12 461.65 339.78 462.87C 339.56 467.07 339.84 470.95 340.52 475.1C 338.96 475.71 337.4 476.32 335.84 476.93C 334.6 479.06 333.34 481.18 332.05 483.29C 330.71 483.16 329.36 483.02 328.02 482.89C 325.88 487.41 323.51 491.61 319.95 495.19C 320.34 495.71 320.72 496.23 321.1 496.74C 324.66 496.59 327.89 496.27 331.28 497.65C 334.63 498.96 336.7 501.35 339.4 503.54L339.4 503.54L340.57 504.23C 343.03 502.2 345.21 499.91 347.52 497.71C 352.27 496 356.18 497.54 360.9 497.74C 362.77 496.89 364.29 495.08 365.81 493.71C 367.59 496.28 369.48 498.68 371.6 500.98C 369.75 502.08 367.13 503.06 365.9 504.89C 364.94 507.25 365.04 510.24 365.57 512.69C 367.29 517.36 373.47 521.23 371.81 526.78C 370.32 529.09 367.23 530.48 364.78 531.53C 361 530.24 359.03 529.94 355.37 531.71C 353.95 533.3 352.84 534.69 352.95 536.96C 352.44 542.82 354.91 549.8 351.94 554.92C 350.69 557.57 349.5 560.24 348.49 562.99C 349.9 564.26 351.5 565.08 352.06 566.97C 353.34 570.7 353.75 574.81 354.41 578.69C 357.16 579.94 360.65 580.94 362.8 583.12C 361.92 588.09 360.94 592.87 360.73 597.95C 360.48 602.04 357.24 604.65 355.95 608.17C 356.32 612.5 357.66 616.84 358.45 621.13C 359.46 624.57 360.78 627.91 361.82 631.34C 359.84 632.41 357.58 633.37 355.89 634.88C 353.21 637.61 351.53 642.05 348.46 644.42C 347.44 645.34 345.41 644.83 344.16 644.72C 339.4 643.78 334.74 642.38 329.95 641.57C 328.03 646 326 650.38 323.98 654.77C 325.5 657.01 326.72 659.27 327.79 661.75C 326.67 662.97 325.42 664.18 324.52 665.58C 323.46 667.56 323.15 669.95 322.02 671.87C 320.99 672.92 319.78 673.81 318.63 674.72C 318.46 676.67 318.33 678.66 318 680.6C 312.43 679.27 306.95 680 301.56 681.7C 298.1 682.89 295.37 686.48 292.18 688.12C 290.68 688.64 289.02 688.77 287.45 689.03C 282.75 681.55 277.28 676.01 277.93 666.43C 279.01 664.7 280.34 662.85 280.89 660.87C 281 659.38 280.7 657.81 280.5 656.33C 281.9 652.91 284.55 648.76 283.9 645C 283.27 640.45 282.13 635.38 279.41 631.6C 275.55 625.81 270.39 621.22 266.44 615.52C 263.92 612.11 261.7 608.3 258.76 605.24C 256.32 602.38 251.04 603.21 248.41 605.38C 244.6 608.77 241.08 613.75 235.83 615.74C 232.73 616.18 227.78 616 224.7 615.33C 221.61 614.63 220.57 612.13 218.86 609.81C 216.22 610.27 213.57 610.63 210.9 610.9C 210.88 609.01 210.92 607.08 210.71 605.2C 208.09 604.01 205.2 603.37 202.47 602.52C 201.01 599.07 200.48 596.17 200.44 592.42C 198.48 589.81 198.4 587.18 197.86 584.08C 197.04 582.53 194.85 581.57 193.54 580.4C 190.27 578.15 189.45 573.95 186.96 571.07C 183.63 568.87 179.69 568.2 176.61 565.39C 172.94 562.53 172.77 558.24 170.13 554.89C 168.04 553.58 165.38 553.03 163.05 552.3C 164.53 550.39 166.23 548.45 167.26 546.25C 167.94 544.25 167.7 541.87 167.79 539.77C 171.38 536.61 175.29 533.93 179.19 531.18C 181.12 529.85 183.08 528.54 185.34 527.82C 189.18 528.17 192.86 528.49 196.64 527.4C 201.34 526.11 206.82 524.79 210.73 521.75C 213.21 519.87 214.43 517.23 215.28 514.31C 216.3 511.83 216.22 509.12 219.1 508.11C 222.27 506.21 228.43 506.3 228.89 501.93C 229.39 499.63 229.83 496.48 228.66 494.35C 226.77 491.69 223.71 489.73 221 487.99C 216.32 485.02 211.64 484.15 207.71 480.31C 203.47 476.13 199.49 472.04 196.79 466.68C 202.19 464.51 207.92 462.09 212.6 458.62C 214.49 457.34 216.61 455.61 218.96 455.47C 223.61 455.18 228.32 456.27 233 456.23C 235.99 456.17 238.74 456.17 241.14 454.15C 245.37 450.78 248.28 446.22 254.03 445.18z" stroke="none" fill="#FFBEBE" fill-rule="nonzero" data-id="Koutaba" data-name="Koutaba"/>


                <path d="M347.52 497.71C 345.21 499.91 343.03 502.2 340.57 504.23L340.57 504.23L339.4 503.54C 341.7 500.84 344.04 498.76 347.52 497.71z" stroke="none" fill="#F9EAF1" fill-rule="nonzero" />



                <path d="M196.64 527.4C 192.86 528.49 189.18 528.17 185.34 527.82C 189.28 526.35 192.6 526.41 196.64 527.4z" stroke="none" fill="#FDFBFD" fill-rule="nonzero" />

                <path d="M364.78 531.53C 361.62 532.85 358.63 532.3 355.37 531.71C 359.03 529.94 361 530.24 364.78 531.53z" stroke="none" fill="#FAECF3" fill-rule="nonzero" />

                <path d="M258.76 605.24C 261.7 608.3 263.92 612.11 266.44 615.52C 270.39 621.22 275.55 625.81 279.41 631.6C 282.13 635.38 283.27 640.45 283.9 645C 284.55 648.76 281.9 652.91 280.5 656.33C 278.87 659.64 277.99 662.71 277.93 666.43C 277.28 676.01 282.75 681.55 287.45 689.03C 289.02 688.77 290.68 688.64 292.18 688.12C 295.37 686.48 298.1 682.89 301.56 681.7C 306.95 680 312.43 679.27 318 680.6C 317.59 682.35 317.09 684.05 316.91 685.84C 318.47 686.92 320.23 687.66 321.96 688.42C 323.15 693.99 322.75 697.5 320.78 702.78C 322.33 706.26 323.02 709.55 323.37 713.31C 323.7 717.17 327.32 721.05 324.85 724.85C 318.2 733.77 308.68 736.96 301.02 744.06C 297.74 746.72 298.7 752.59 295.63 755.61C 290.95 760.35 284.91 763.77 279.74 767.97C 281.56 770.17 283.36 772.61 285.56 774.45C 288.06 776.42 291.7 776.9 294.3 778.7C 296.9 781.07 298.81 784.2 301.18 786.81C 303.48 789.66 306.18 792.07 306.45 795.93C 306.83 799.66 307.48 803.25 308.29 806.91C 309.19 810.34 307.27 812.82 306.74 816.21C 306.31 818.23 306.49 820.66 305.56 822.53C 303.44 825.58 299.89 827.65 297.74 830.68C 297.07 831.87 297.35 833.6 297.21 834.94C 297.09 839.38 296.33 843.49 297.58 847.89C 303.3 850.66 305.6 857.23 308.17 862.63C 304.51 863.27 300.79 864.39 297.07 864.51C 293.17 863.67 290.33 860.92 286.02 861.08C 279.53 860.66 274.89 863.56 269.01 865.64C 266.54 864.46 263.86 862.56 261.03 863.06C 257.68 863.4 254.37 863.83 250.99 863.72C 244.6 863.57 238.29 864.58 231.88 864.27C 232.92 870.03 236.01 874.86 237.62 880.4C 238.86 884.61 237.65 888.27 236.7 892.35C 235.27 892.72 233.84 893.1 232.41 893.48C 232.09 896.33 232.55 899.24 230.52 901.49C 227.36 905.15 225.35 909.3 223.51 913.73C 225.06 916.35 226.81 918.94 227.29 922C 226.17 924.63 223.21 923.19 221.05 923.31C 211.5 923.05 201.63 929.62 194.08 934.91C 191.36 933.24 188.28 930.19 185.09 929.77C 182.9 930.78 180.88 932.37 178.91 933.76C 178.32 931.51 177.55 929.21 177.35 926.89C 177.25 924.52 178.54 922.07 178.23 919.76C 176.88 916.28 174.97 913.19 174.3 909.43C 169.93 907.76 165.72 906.13 160.95 906.06C 160.17 904.54 159.38 903.02 158.61 901.5C 157.12 901.44 155.64 901.39 154.16 901.33C 152.85 899.02 151.44 896.9 149.75 894.85C 150.04 893.26 150.35 891.67 150.65 890.08C 147.48 890.28 144.34 890.6 141.2 891.01C 139.84 893.02 138.47 895.02 137.09 897.02C 135.04 896.05 133.15 894.97 131.4 893.51C 132.25 892.08 133.1 890.65 133.94 889.22C 131.73 888.61 129.59 888.03 127.52 887C 127.84 885.13 129.55 883.51 130.66 882.03C 130.01 880.98 129.35 879.94 128.7 878.89C 129.88 877.04 131.28 875.16 132.06 873.1C 132.59 870.64 132.03 867.93 132.68 865.51C 133.72 863.15 135.83 861.14 137.55 859.26C 137.44 858.2 137.33 857.14 137.23 856.09C 134.15 853.3 133.05 851.79 132.23 847.6C 130.46 847.15 128.54 846.86 126.89 846.08C 124.84 844.77 123.14 842.81 121.42 841.11C 122.71 834.34 126.27 828.51 128.09 821.98C 127.76 818.11 122.16 820.31 119.77 820.38C 115.91 818.38 112.71 815.29 108.85 813.36C 106.09 814.23 104.28 817.04 101.02 817.29C 97.76 817.95 95.22 816.74 92.1 816.09C 89.25 815.41 86.69 815.57 84.15 813.91C 81.66 812.31 79.17 810.88 77.92 808.07C 76.41 804.77 74.31 801.57 73.26 798.1C 73.68 797.1 74.29 796.16 74.81 795.2C 77.13 795.29 79.4 795.23 81.69 794.95C 81.7 794.06 81.7 793.17 81.7 792.27C 80.13 790.63 78.57 788.99 77 787.35C 79.57 784.5 80.86 782.9 80.61 778.89C 83.57 778.35 86.92 777.9 89.6 776.52C 90.22 774.76 88.6 772.71 87.98 771.09C 88.89 770.01 89.8 768.92 90.72 767.84C 90.64 766.51 90.56 765.17 90.49 763.84C 92.77 763.46 95.05 763.05 97.32 762.6C 95.64 759.78 94.12 759.22 91.05 758.25C 90.73 756.59 90.34 754.86 90.28 753.17C 91.58 751.85 93.17 750.82 94.47 749.51C 94.69 747.18 94.26 744.78 94.5 742.45C 94.9 740.86 95.86 739.38 96.62 737.94C 98.11 739.71 99.65 743.5 102.25 743.72C 104.86 744.44 105.86 741.15 107.63 739.79C 109.18 739.41 110.83 739.33 112.42 739.18C 113.52 737.35 114.61 735.51 115.7 733.67C 119.65 732.15 124.32 730.42 127.43 727.45C 128.33 726.05 129.36 723.6 127.76 722.31C 125.03 719.31 122.99 715.83 120.14 712.94C 122.29 710.81 124.29 708.26 126.79 706.52C 128.55 706.74 130.24 707.45 131.99 707.76C 135.55 706.41 137.76 701.94 141.06 700.04C 142.93 699.22 145.05 698.9 147.03 698.44C 146.71 696.33 147.05 693.23 145.2 691.79C 143.5 690.44 141.2 689.75 139.21 688.92C 140.47 686.98 143.87 685.18 141.29 682.88C 138.7 681.68 135.8 681.1 133.05 680.38C 133.84 678.41 134.62 676.45 135.39 674.48C 136.2 674.2 137.01 673.92 137.82 673.64C 137.39 672.78 136.97 671.92 136.54 671.05C 139.02 668.82 140.6 666.21 141.98 663.2C 140.37 662.84 138.77 662.48 137.16 662.13C 136.19 662.97 135.22 663.81 134.23 664.64C 134.05 662.88 134.07 661.67 134.97 660.09C 136.7 656.93 138.24 653.8 139.18 650.3C 137.62 649.35 136.06 648.4 134.5 647.44C 134.12 646.36 133.74 645.27 133.37 644.19C 132.16 640.87 131.06 637.97 132.03 634.42C 135.39 632.73 138.27 630.83 141.99 630.05C 145.69 629.29 149.24 628.37 152.6 626.59C 156.48 624.57 160.63 623.53 164.83 622.42C 166.46 623.86 168.1 625.26 169.77 626.63C 171.32 624.67 172.88 622.71 174.44 620.76C 176.55 622.82 178.31 625.6 180.76 627.24C 184.11 628.74 188.48 626.45 191.99 626.12C 193.65 626.92 194.95 628.47 196.49 629.49C 197.91 629.66 199.61 628.43 200.95 627.96C 200.59 623.72 199.18 619.83 198.15 615.74C 200.29 615.57 202.44 615.42 204.57 615.17C 207.01 614.51 208.34 612.76 209.99 611.02L209.99 611.02L210.9 610.9C 213.57 610.63 216.22 610.27 218.86 609.81C 220.57 612.13 221.61 614.63 224.7 615.33C 227.78 616 232.73 616.18 235.83 615.74C 241.08 613.75 244.6 608.77 248.41 605.38C 251.04 603.21 256.32 602.38 258.76 605.24z" stroke="none" fill="#D3FFBE" fill-rule="nonzero" data-id="Foumbot" data-name="Foumbot"/>

                <path d="M209.99 611.02C 208.34 612.76 207.01 614.51 204.57 615.17C 206.23 613.28 207.24 611.33 209.99 611.02z" stroke="none" fill="#D7BBC5" fill-rule="nonzero" />


                <path d="M358.45 621.13C 359.4 621.43 360.34 621.72 361.29 622.01C 368.1 624.13 374.56 623.28 381.49 622.7C 386.68 621.99 389.96 627.72 394.17 629.83C 398.69 630.16 403.51 627.82 408.03 627.32C 413.04 626.94 418.01 627.49 421.23 631.79C 422.71 631.39 424.22 630.86 425.75 630.69C 429.54 631.84 432.98 635.93 436.99 636.31C 441.44 636.66 444.12 632.72 447.79 631.04C 449.55 630.62 451.42 630.68 453.18 630.22C 455.85 628.94 457.98 626.62 460.92 625.9C 463.83 625.2 467.16 625.19 470.07 625.84C 472.9 626.48 475.25 628.83 477.92 629.9C 481.08 628.77 484.49 626.1 487.97 626.81C 490.48 627.43 492.88 628.71 494.99 630.18C 498.51 632.69 496.18 639.91 500.3 641.82C 504.58 644.02 510.73 643.09 515.34 642.59C 517.84 642.58 520.11 642.25 522.35 643.62C 527.94 646.93 531.04 652.09 535.3 656.7C 554.23 675.81 573.85 694.13 592.8 713.21C 595.31 715.77 598.04 718.05 601.15 719.85C 625.64 734 650.15 748.16 674.6 762.38C 678.5 764.81 682.39 767.05 686.72 768.64C 688.26 770.09 689.8 771.52 691.34 772.96C 687.75 775.96 683.05 778.46 680.28 782.24C 678.68 784.85 682.4 787.66 682.49 790.34C 682.49 793.47 681.61 796.69 680.87 799.72C 674.38 801.54 668.91 805.15 662.77 807.77C 658.56 809.47 656 813.15 651.75 814.74C 646.66 816.64 641.71 820.07 638.57 824.54C 637.28 827.33 639.76 831.29 639.34 834.28C 638.09 836.55 635.98 838.57 635.02 840.96C 633.96 843.74 633.61 846.9 632.44 849.64C 627.61 852.75 622.46 852.68 616.95 852.2C 613.91 851.78 612.62 853.82 610.53 855.53C 606.94 859.03 602.37 860.38 598.53 863.54C 594.49 866.83 590.78 870.46 586.46 873.41C 583.79 875.38 580.52 877.52 580.61 881.26C 581.62 888.3 584.53 894.05 587.29 900.33C 588.07 903.9 589.86 906.71 591.25 909.98C 590.6 916.05 587.54 922.1 584 927.02C 580.81 930.66 583.57 936.29 582.67 940.74C 581.22 944.06 577.97 946.77 575.48 949.33C 577.75 952.32 579.78 955.33 581.28 958.79C 583.71 958.97 586.25 958.97 588.62 959.54C 590.71 960.32 589.99 963.07 589.57 964.71C 588.39 968.39 587.34 971.78 587.69 975.71C 584.84 976.05 581.87 976.28 579.09 977.01C 574.87 978.07 572.2 981.56 568.05 983.11C 564.02 983.91 565.07 990.75 561.59 991.54C 557.96 991.5 554.38 988.98 550.74 988.41C 547.84 987.81 545.45 988.76 542.68 989.41C 539.15 990.32 535.78 990.14 532.16 990.18C 531.58 992.22 531.1 994.37 530.2 996.29C 528.74 998.54 526.21 1000.22 524.13 1001.87C 521.79 1001.35 519.9 999.69 517.9 1001.87C 515.34 1004.73 516.22 1010.33 515.64 1013.94C 515.28 1020.19 511.43 1024 509.58 1029.58C 508.65 1034.18 510.62 1039.25 509.71 1043.92C 509.06 1047.02 507.7 1049.58 507.65 1052.81C 507.57 1058.41 506.99 1064.01 506.41 1069.57C 505.67 1074.15 499.77 1075.67 497.82 1079.82C 495.61 1084.14 493.28 1088.72 492.33 1093.51C 491.55 1097.81 493.11 1101.64 493.21 1105.74C 493 1108.65 491.36 1111.6 490.14 1114.22C 488.15 1114.3 486.16 1114.38 484.16 1114.45C 481.65 1117.91 481.15 1119.48 481.42 1123.78C 479.03 1125.97 476.45 1127.92 474.01 1130.04C 471.5 1132.02 470.69 1135.6 469.54 1138.48C 466.64 1139.02 463.35 1139.41 460.67 1140.68C 459.26 1141.58 457.59 1141.77 458.17 1143.86C 458.98 1147.04 460.75 1150.64 464.01 1151.85C 468.16 1153.75 472.2 1155.68 476.14 1157.99C 477.94 1158.95 478.59 1160.75 479.57 1162.44C 481.13 1165.55 483.08 1168.4 485.19 1171.16C 483.43 1174.41 481.94 1177.56 478.91 1179.86C 476.44 1181.87 472.9 1183.44 471.27 1186.2C 469.36 1189.37 467.66 1192.77 466.16 1196.16C 464.07 1201 465.31 1206.87 466.53 1211.8C 461.69 1210.79 457.1 1209.12 452.43 1207.55C 448.69 1206.24 444.89 1206.17 440.98 1205.96C 434.59 1205.62 428.59 1203.63 422.92 1200.72C 421.01 1201.06 419.09 1201.4 417.17 1201.72C 412.05 1198.4 406.13 1199.57 400.68 1196.83C 401.12 1195.56 401.54 1194.29 402.12 1193.08C 403.73 1190.32 406.96 1188.55 408.53 1185.78C 409.64 1183.32 410.19 1180.59 411.15 1178.06C 412.1 1175.39 413.65 1172.78 414.24 1170.03C 414.47 1167.33 413.09 1164.37 412.17 1161.86C 413.29 1159.32 414.47 1156.81 415.69 1154.31C 411.25 1151.05 407.32 1148.87 401.72 1148.27C 402.53 1146.55 403.47 1144.75 403.96 1142.92C 403.85 1140.3 402.05 1137.65 400.91 1135.34C 399.83 1135.32 398.74 1135.3 397.65 1135.28C 396.31 1132.77 394.65 1130.33 393.63 1127.67C 393.02 1125.24 393.13 1122.65 392.57 1120.21C 390.54 1117.44 388.22 1115 386.63 1111.92C 382.82 1112.82 379.13 1113.79 375.18 1113.62C 371.26 1113.42 367.58 1114.22 363.85 1115.3C 364.25 1112.77 365.12 1109.84 364.59 1107.31C 363.4 1103.32 360.12 1099.94 358.89 1096C 358.4 1092.78 360.14 1089.19 360.54 1085.95C 361.46 1080.62 360.17 1075.4 364.02 1070.99C 367.12 1067.11 371.3 1066.72 375.2 1064.28C 376.67 1061.84 377.27 1058.8 378.11 1056.1C 380.73 1056.19 383.35 1056.21 385.97 1056.06C 385.3 1053.8 384.39 1051.43 384.22 1049.07C 384.57 1047.27 385.43 1045.51 386.13 1043.81C 384.37 1042.02 382.58 1040.25 380.8 1038.48C 376.96 1040.78 375.54 1044.59 372.63 1047.68C 369.94 1049.35 365.84 1048.48 362.98 1050.01C 361.37 1050.88 359.88 1052.02 358.38 1053.07C 359.3 1054.66 360.23 1056.25 361.15 1057.84C 357.4 1059.24 353.69 1059.26 349.75 1059.03C 349.79 1057.03 349.83 1055.03 349.87 1053.03C 348.11 1052.16 346.34 1051.28 344.58 1050.39C 344.05 1047.54 344.45 1044.92 342.12 1042.86C 340.33 1041.1 339.16 1039.06 338.09 1036.82C 332.61 1036.66 330.01 1032.75 325.85 1029.74C 322.96 1030.74 320.2 1031.92 317.53 1033.43C 314.2 1031.46 313.58 1029.07 312.18 1025.71C 309.65 1024.92 306.56 1025.08 304.24 1023.81C 301.74 1022.31 301.61 1019.55 300.59 1017.06C 299.82 1014.4 296.74 1012.67 295.96 1010.08C 297.24 1007.65 299 1005.66 300.11 1003.13C 302.01 998.38 302.57 993.29 301.99 988.21C 296.13 987.53 290.67 985.73 285 986.09C 279.1 986.47 273.19 987.09 267.41 988.29C 265.1 986.34 262.85 984.33 260.68 982.23C 257.81 981.98 254.67 981.32 251.81 981.81C 248.23 985.51 248.23 990.5 243.4 993.29C 240.83 990.32 237.58 987.49 235.73 984.01C 234.78 979.76 240.07 976.07 240.4 972.01C 239.69 969.6 238.37 967.2 236.52 965.48C 234.04 964.06 230.61 964.36 228.17 962.85C 226.13 961.45 226.82 957.73 226.58 955.59C 224.97 955.18 223.35 954.76 221.74 954.34C 219.42 951.48 216.41 949.46 213.81 946.9C 213.4 945.36 214.73 944.63 215.58 943.58C 218.14 941.15 219.49 938.16 221.52 935.33C 221.01 933.86 220.48 932.38 220.06 930.87C 219.21 928.51 220.51 925.65 221.05 923.31C 223.21 923.19 226.17 924.63 227.29 922C 226.81 918.94 225.06 916.35 223.51 913.73C 225.35 909.3 227.36 905.15 230.52 901.49C 232.55 899.24 232.09 896.33 232.41 893.48C 233.84 893.1 235.27 892.72 236.7 892.35C 237.65 888.27 238.86 884.61 237.62 880.4C 236.01 874.86 232.92 870.03 231.88 864.27C 238.29 864.58 244.6 863.57 250.99 863.72C 254.37 863.83 257.68 863.4 261.03 863.06C 263.86 862.56 266.54 864.46 269.01 865.64C 274.89 863.56 279.53 860.66 286.02 861.08C 290.33 860.92 293.17 863.67 297.07 864.51C 300.79 864.39 304.51 863.27 308.17 862.63C 305.6 857.23 303.3 850.66 297.58 847.89C 296.33 843.49 297.09 839.38 297.21 834.94C 297.35 833.6 297.07 831.87 297.74 830.68C 299.89 827.65 303.44 825.58 305.56 822.53C 306.49 820.66 306.31 818.23 306.74 816.21C 307.27 812.82 309.19 810.34 308.29 806.91C 307.48 803.25 306.83 799.66 306.45 795.93C 306.18 792.07 303.48 789.66 301.18 786.81C 298.81 784.2 296.9 781.07 294.3 778.7C 291.7 776.9 288.06 776.42 285.56 774.45C 283.36 772.61 281.56 770.17 279.74 767.97C 284.91 763.77 290.95 760.35 295.63 755.61C 298.7 752.59 297.74 746.72 301.02 744.06C 308.68 736.96 318.2 733.77 324.85 724.85C 327.32 721.05 323.7 717.17 323.37 713.31C 323.02 709.55 322.33 706.26 320.78 702.78C 322.75 697.5 323.15 693.99 321.96 688.42C 320.23 687.66 318.47 686.92 316.91 685.84C 317.09 684.05 317.59 682.35 318 680.6C 318.33 678.66 318.46 676.67 318.63 674.72C 319.78 673.81 320.99 672.92 322.02 671.87C 323.15 669.95 323.46 667.56 324.52 665.58C 325.42 664.18 326.67 662.97 327.79 661.75C 326.72 659.27 325.5 657.01 323.98 654.77C 326 650.38 328.03 646 329.95 641.57C 334.74 642.38 339.4 643.78 344.16 644.72C 345.41 644.83 347.44 645.34 348.46 644.42C 351.53 642.05 353.21 637.61 355.89 634.88C 357.58 633.37 359.84 632.41 361.82 631.34C 360.78 627.91 359.46 624.57 358.45 621.13z" stroke="none" fill="#FCEAD4" fill-rule="nonzero" data-id="Massangam" data-name="Massangam"/>

                <path d="M280.5 656.33C 280.7 657.81 281 659.38 280.89 660.87C 280.34 662.85 279.01 664.7 277.93 666.43C 277.99 662.71 278.87 659.64 280.5 656.33z" stroke="none" fill="#F4E6ED" fill-rule="nonzero" />
</svg>