<?xml version="1.0" encoding="UTF-8" standalone="no"?>
<!DOCTYPE svg PUBLIC "-//W3C//DTD SVG 1.1//EN" "http://www.w3.org/Graphics/SVG/1.1/DTD/svg11.dtd">
<svg xmlns="http://www.w3.org/2000/svg" version="1.1" viewBox="0 0 902 1162" width="902.0pt" height="1162.0pt">
<path d="M 0.00 0.00 L 902.00 0.00 L 902.00 1162.00 L 0.00 1162.00 L 0.00 0.00 Z" fill="#ffffff" />
<path d="M 801.37 81.27 C 803.39 81.20 805.43 81.49 807.44 81.64 C 806.11 83.14 804.76 84.61 803.42 86.10 C 803.44 88.11 803.34 90.10 803.18 92.10 C 804.64 94.15 805.77 96.25 806.77 98.56 C 808.06 99.44 809.50 100.27 810.61 101.38 C 811.31 102.73 811.22 104.55 811.21 106.04 C 811.44 108.62 809.09 110.66 807.77 112.72 C 807.59 115.18 807.17 117.28 806.33 119.59 C 807.44 120.63 809.27 121.63 809.82 123.08 C 809.93 126.04 809.73 129.32 809.03 132.21 C 807.45 134.93 805.49 136.64 805.86 140.13 C 807.17 141.79 809.01 143.09 810.25 144.80 C 811.20 146.32 811.77 148.19 812.38 149.87 C 811.51 152.01 809.14 154.52 810.17 156.85 C 810.94 159.84 811.66 162.81 809.34 165.34 C 806.43 167.30 803.19 168.41 800.65 171.29 C 799.67 173.14 798.59 175.02 797.95 177.03 C 797.58 179.65 797.87 182.33 797.47 184.97 C 797.18 187.85 796.26 191.58 797.64 194.25 C 798.22 195.61 800.19 196.16 801.42 196.85 C 802.65 196.36 803.89 195.78 805.18 195.47 C 808.49 195.79 811.79 197.00 815.04 197.69 C 816.36 197.89 817.78 196.91 819.01 196.51 C 819.89 196.69 820.77 196.86 821.65 197.04 C 823.47 195.67 825.53 193.29 827.94 193.25 C 830.86 195.24 833.48 197.27 836.96 198.26 C 838.58 197.70 840.23 197.09 841.92 196.80 C 843.97 197.61 844.86 199.41 846.17 201.06 C 847.29 201.51 848.40 201.97 849.51 202.43 C 851.61 200.35 853.58 197.57 856.97 198.89 C 859.76 200.48 863.18 202.33 864.96 205.06 C 866.38 208.43 864.79 210.27 863.06 212.95 C 863.51 214.18 864.80 215.64 864.21 216.94 C 862.98 220.82 861.95 226.93 858.11 229.07 C 854.78 229.82 851.68 229.31 848.54 231.13 C 847.81 235.80 847.13 240.43 846.58 245.12 C 849.29 248.30 853.11 250.38 852.92 255.02 C 853.25 256.93 851.40 258.06 850.34 259.35 C 850.34 260.95 850.81 262.14 849.52 263.41 C 847.34 266.06 846.20 267.53 842.45 267.58 C 844.33 271.18 847.58 272.90 850.25 275.71 C 852.52 278.56 850.99 280.95 850.78 284.14 C 851.60 286.38 852.54 288.57 853.19 290.88 C 853.95 293.84 856.27 295.65 858.30 297.78 C 859.33 298.28 860.44 298.75 861.38 299.41 C 862.06 302.47 862.24 304.86 864.57 307.19 C 864.40 309.43 864.05 311.63 863.65 313.84 C 865.48 315.79 869.53 317.83 868.74 320.96 C 868.00 325.04 864.85 326.76 861.34 328.23 C 861.25 330.82 860.88 333.12 859.17 335.17 C 858.12 336.73 855.93 337.08 854.26 337.75 C 853.33 338.82 852.40 339.88 851.47 340.95 C 851.26 342.21 850.98 343.46 850.62 344.68 C 849.47 346.65 846.64 347.44 844.65 348.21 C 845.02 349.48 845.33 350.76 845.59 352.06 C 844.50 353.58 843.13 354.97 841.86 356.35 C 844.82 355.49 847.71 355.03 850.35 353.33 C 852.35 351.94 854.47 351.84 856.82 351.64 C 859.26 349.71 860.62 348.26 864.02 348.86 C 864.72 347.42 865.28 345.62 866.43 344.49 C 867.55 343.95 868.69 343.47 869.86 343.05 C 870.88 343.82 871.90 344.59 872.92 345.37 C 874.49 343.17 875.57 342.25 878.09 341.19 C 878.27 343.29 878.42 345.39 878.61 347.48 C 877.47 348.74 876.71 350.62 874.87 350.82 C 872.92 351.34 870.96 349.73 869.28 348.90 C 868.42 351.58 867.58 354.65 865.92 356.95 C 863.47 358.90 861.47 358.18 859.29 356.31 C 857.53 356.52 855.77 356.69 854.00 356.86 C 850.55 359.08 846.64 359.97 843.01 361.79 C 845.96 365.29 851.23 367.47 851.79 372.13 C 853.14 376.70 849.55 381.56 848.02 385.78 C 849.36 388.04 851.61 390.19 850.21 392.99 C 847.61 396.01 841.63 394.66 837.98 395.46 C 838.53 400.66 843.25 399.75 846.24 402.66 C 847.90 405.94 846.53 407.01 844.12 409.06 C 845.84 409.47 847.82 409.64 849.39 410.48 C 850.51 411.83 851.50 413.37 852.06 415.04 C 852.51 418.44 848.42 421.09 848.09 423.97 C 848.89 425.69 850.10 427.23 850.81 428.98 C 851.36 433.69 850.28 438.17 847.77 442.17 C 850.38 445.13 849.50 447.35 849.41 450.97 C 851.16 453.16 853.35 454.87 855.59 456.52 C 857.62 455.69 859.82 454.43 862.03 454.28 C 865.29 454.38 868.42 457.27 871.01 459.06 C 872.99 460.49 874.40 462.35 873.81 464.93 C 872.89 468.30 871.94 471.88 869.06 474.10 C 866.58 476.50 863.68 476.20 860.48 476.63 C 860.57 479.11 860.74 481.67 860.46 484.15 C 858.91 487.19 856.24 489.48 854.89 492.79 C 854.08 494.50 853.49 496.74 852.12 498.09 C 850.85 499.02 848.73 498.64 847.23 498.70 C 844.84 502.63 841.57 508.13 837.00 509.67 C 835.13 509.31 833.33 508.08 831.67 507.15 C 827.76 511.15 824.56 515.16 823.56 520.85 C 823.08 524.90 819.14 526.44 815.90 527.96 C 813.65 529.05 810.50 528.72 809.21 530.94 C 810.52 535.02 813.91 538.01 815.94 541.14 C 816.92 542.37 815.43 543.71 814.69 544.65 C 811.01 548.75 807.41 553.08 804.57 557.80 C 805.03 561.86 803.80 563.71 801.49 566.80 C 804.09 569.46 806.38 572.33 808.10 575.64 C 809.49 576.68 811.05 577.71 812.21 579.00 C 811.98 581.18 811.35 583.16 810.74 585.24 C 811.68 586.95 812.59 588.63 813.92 590.07 C 815.10 591.68 816.73 592.63 816.03 594.89 C 815.13 596.45 813.84 597.83 812.69 599.21 C 812.88 600.40 813.12 601.57 813.42 602.73 C 814.54 605.07 817.53 607.31 817.49 609.99 C 817.21 613.92 814.19 617.07 812.47 620.43 C 810.27 625.54 813.44 630.11 810.72 634.82 C 808.30 640.07 805.80 646.44 801.44 650.36 C 798.61 651.52 795.39 651.66 792.47 652.65 C 795.40 656.05 798.07 659.64 800.82 663.17 C 803.09 666.00 806.17 668.00 806.21 672.01 C 806.25 675.60 802.83 676.46 801.23 679.08 C 800.62 682.83 801.25 687.28 799.91 690.84 C 798.23 692.79 794.89 693.37 792.65 694.58 C 789.67 696.26 786.01 697.24 783.55 699.57 C 780.94 702.00 777.73 703.79 775.31 706.38 C 773.69 709.28 773.49 712.68 771.47 715.46 C 769.26 718.54 770.14 722.06 767.28 724.36 C 763.51 726.10 760.02 725.53 756.07 725.26 C 751.78 728.09 747.89 731.74 743.70 734.75 C 741.34 736.71 738.19 738.42 736.55 741.00 C 737.63 747.55 743.75 755.29 743.06 762.01 C 740.86 767.26 738.96 772.26 738.67 778.05 C 738.62 780.93 736.72 782.13 734.93 784.02 C 736.89 787.80 741.15 787.47 742.37 791.51 C 743.36 793.78 741.86 795.98 741.22 798.14 C 741.65 799.22 742.08 800.30 742.50 801.38 C 739.30 803.95 735.74 802.61 732.23 804.30 C 730.19 805.38 728.32 806.75 726.21 807.72 C 725.37 809.55 724.83 811.89 722.77 812.74 C 719.84 814.30 716.17 810.80 713.07 811.28 C 710.60 811.65 708.15 812.04 705.65 812.18 C 704.07 816.14 699.64 820.01 695.21 819.81 C 695.14 822.16 695.18 824.69 694.64 826.98 C 693.95 829.77 691.99 832.30 691.20 835.00 C 690.83 838.31 691.89 841.82 690.90 844.97 C 689.51 849.82 689.95 855.18 689.13 860.18 C 688.32 863.40 685.93 864.60 683.93 866.92 C 682.69 868.72 681.89 870.83 680.85 872.75 C 680.32 875.76 680.43 878.21 680.98 881.20 C 681.72 884.43 680.09 886.94 678.24 889.42 C 677.34 890.73 675.31 890.28 673.90 890.51 C 673.79 891.88 673.76 893.28 673.51 894.64 C 671.79 896.72 669.53 898.41 667.48 900.15 C 666.67 902.26 665.72 904.10 664.27 905.84 C 662.38 906.02 660.50 906.24 658.62 906.54 C 661.56 909.97 666.88 910.80 670.31 913.69 C 671.61 915.45 672.49 917.47 673.77 919.24 C 674.90 921.15 676.49 922.38 675.58 924.80 C 674.34 927.88 672.20 930.80 669.19 932.34 C 666.61 933.69 665.81 936.08 664.50 938.51 C 662.35 941.99 664.51 946.30 664.40 950.04 L 662.99 951.24 C 658.71 951.51 656.09 948.78 652.02 947.83 C 649.51 947.60 647.18 948.09 644.71 947.31 C 636.42 945.03 627.81 944.23 619.32 941.60 C 617.19 940.01 615.16 938.52 612.75 937.36 C 610.81 936.17 608.19 934.63 608.52 931.99 C 609.54 931.20 610.60 930.46 611.69 929.77 C 611.63 927.48 611.25 925.28 610.75 923.05 C 607.80 923.83 606.56 924.10 603.81 922.50 C 603.31 924.41 603.51 925.89 601.07 926.10 C 598.67 925.90 595.64 925.69 593.59 924.37 C 592.18 922.40 591.72 919.74 590.78 917.51 C 588.92 916.95 586.10 917.38 585.47 915.06 C 584.69 912.99 587.85 911.05 589.26 910.00 C 589.74 909.15 590.21 908.29 590.69 907.44 C 589.08 905.59 587.69 902.42 585.22 901.75 C 581.07 900.27 577.43 902.30 573.72 899.62 C 570.63 901.02 567.45 901.20 564.10 901.21 C 561.37 902.62 558.69 904.08 556.04 905.63 C 555.90 910.65 552.88 913.49 550.77 917.76 C 548.83 921.49 545.79 924.26 544.16 928.19 C 543.02 930.92 541.09 933.09 538.91 935.05 C 536.74 935.41 534.49 935.21 532.32 935.58 C 530.05 936.40 527.89 937.57 525.66 938.51 C 524.17 937.31 522.76 936.03 521.36 934.73 C 521.18 936.78 521.21 938.89 520.83 940.91 C 517.51 945.83 512.31 947.81 506.57 948.43 C 504.73 949.73 502.80 950.81 500.76 951.77 C 496.74 953.63 493.52 956.58 489.62 958.67 C 486.06 960.69 484.41 964.38 481.30 967.29 C 477.71 970.66 473.24 973.63 468.75 975.65 C 466.43 976.89 464.17 975.68 461.77 975.29 C 457.56 974.57 453.20 974.76 448.98 974.19 C 446.95 973.55 445.06 972.56 443.02 971.94 C 436.93 970.01 431.15 970.16 425.66 966.40 C 420.29 970.14 413.94 971.85 408.48 975.50 C 406.03 980.61 405.83 986.21 403.23 991.21 C 401.89 993.61 399.61 994.72 397.01 995.29 C 391.91 996.56 388.49 999.81 384.35 1002.63 C 384.49 1003.71 384.59 1004.80 384.64 1005.88 C 382.09 1009.33 379.02 1012.02 375.75 1014.74 C 373.55 1016.49 372.75 1018.79 371.37 1021.14 C 371.48 1025.44 369.01 1027.33 366.01 1029.82 C 363.83 1029.27 361.76 1028.59 359.70 1027.68 C 357.00 1028.08 355.17 1028.07 352.65 1026.98 C 350.59 1027.88 348.56 1028.84 346.50 1029.73 C 343.75 1033.42 340.30 1036.44 337.57 1040.16 C 337.59 1048.53 332.97 1054.14 330.77 1061.81 C 329.23 1066.11 328.74 1070.55 328.05 1075.03 C 327.77 1077.01 325.89 1078.73 324.75 1080.32 C 327.56 1083.01 330.17 1085.54 331.49 1089.32 C 331.54 1087.12 331.88 1085.80 333.13 1083.99 C 333.44 1079.03 337.10 1077.44 339.29 1073.46 C 340.67 1071.30 342.30 1068.76 345.05 1068.32 C 347.35 1067.54 348.91 1069.90 350.60 1071.05 C 353.81 1070.34 356.82 1069.12 359.89 1067.99 C 361.51 1068.77 363.13 1069.55 364.73 1070.36 C 365.46 1069.05 365.81 1066.92 367.39 1066.43 C 371.22 1064.91 375.37 1064.15 379.34 1063.06 C 381.27 1060.17 384.08 1058.85 387.07 1057.33 C 387.19 1055.50 386.42 1053.38 388.00 1052.03 C 389.81 1050.19 392.32 1048.36 395.03 1048.55 C 397.96 1049.66 401.31 1051.15 403.22 1053.72 C 405.63 1056.86 409.17 1058.28 411.11 1061.86 C 412.45 1065.86 412.95 1070.03 410.82 1073.87 C 410.70 1076.13 410.95 1078.60 409.62 1080.56 C 408.44 1082.55 406.01 1083.64 404.07 1084.75 C 404.26 1088.58 401.60 1089.54 399.22 1091.83 C 399.76 1093.72 400.28 1095.61 400.77 1097.52 C 399.07 1097.56 397.38 1097.61 395.68 1097.64 C 395.27 1095.78 394.72 1093.93 394.41 1092.04 C 394.60 1089.12 396.52 1087.84 398.38 1085.93 C 398.91 1084.20 398.86 1081.66 400.71 1080.81 C 402.55 1079.79 404.43 1078.93 406.10 1077.60 C 405.69 1076.47 405.36 1075.33 405.09 1074.17 C 405.79 1071.42 407.94 1069.75 407.40 1066.99 C 407.35 1062.33 402.82 1061.03 400.30 1057.79 C 398.72 1055.49 396.46 1054.48 394.07 1053.22 C 393.40 1053.77 392.73 1054.33 392.06 1054.89 C 391.74 1056.66 391.90 1059.22 390.67 1060.64 C 389.12 1062.05 386.96 1062.83 385.15 1063.86 C 384.10 1065.43 383.48 1066.89 381.49 1067.41 C 377.85 1068.46 374.21 1069.60 370.50 1070.38 C 369.61 1072.32 369.08 1074.11 367.02 1075.11 C 364.46 1076.90 361.88 1073.67 359.21 1073.41 C 355.77 1074.56 352.85 1076.03 349.10 1075.93 C 347.68 1075.22 346.44 1074.14 345.15 1073.22 C 344.41 1077.48 341.05 1079.18 338.36 1082.38 C 338.82 1086.63 336.63 1089.87 335.96 1093.97 C 335.82 1096.06 334.56 1096.45 333.10 1097.64 C 330.55 1095.72 328.05 1094.23 327.04 1090.99 C 325.61 1086.65 321.38 1084.90 319.51 1081.07 C 319.83 1078.20 321.64 1076.51 323.30 1074.35 C 324.10 1067.46 325.69 1060.76 328.36 1054.36 C 329.74 1051.29 331.39 1048.28 332.13 1044.98 C 332.54 1042.88 332.34 1040.68 332.78 1038.60 C 335.70 1033.85 339.94 1030.65 343.16 1026.11 C 345.02 1024.67 347.74 1023.97 349.87 1022.88 C 352.23 1021.65 354.33 1022.35 356.76 1022.78 C 360.23 1022.23 362.42 1023.33 365.40 1024.84 C 365.76 1022.74 365.80 1020.55 366.34 1018.50 C 368.58 1015.46 370.90 1012.19 373.84 1009.81 C 375.22 1008.56 376.81 1007.46 378.01 1006.04 C 379.20 1003.96 379.11 1000.58 380.91 998.97 C 384.93 996.14 388.89 993.39 393.11 990.86 C 394.68 990.60 396.58 990.71 398.01 989.97 C 399.53 988.76 400.07 986.32 400.63 984.54 C 401.68 980.33 402.51 976.39 404.76 972.58 C 409.95 967.95 417.73 966.25 423.15 962.32 C 416.89 961.07 410.28 961.37 404.01 962.36 C 400.72 963.09 398.26 961.55 394.95 961.36 C 392.15 961.60 388.97 963.40 386.24 962.59 C 382.67 961.74 379.10 960.94 375.54 960.10 C 373.35 959.62 373.20 956.83 374.22 955.26 C 377.29 950.95 382.43 948.91 384.86 943.89 C 386.27 940.73 387.53 937.28 388.33 933.91 C 386.18 933.13 383.92 932.62 381.72 931.99 C 380.76 937.18 379.17 942.30 377.10 947.15 C 375.30 951.11 373.17 954.69 368.99 956.47 C 367.95 955.45 366.33 954.49 365.80 953.08 C 365.49 951.08 366.88 949.43 367.76 947.76 C 368.89 945.99 369.34 943.18 368.58 941.23 C 365.75 937.53 361.31 934.27 360.88 929.13 C 362.06 927.07 364.22 925.52 365.65 923.59 C 365.57 921.12 363.56 918.56 363.85 916.04 C 364.26 911.78 365.48 907.93 364.57 903.60 C 360.77 902.95 356.99 901.99 353.29 900.90 C 349.75 901.11 346.31 900.62 342.80 900.23 C 339.99 899.73 337.57 900.31 335.69 897.76 C 337.80 893.89 337.70 890.68 337.15 886.44 C 336.57 885.33 336.05 884.19 335.60 883.02 C 336.12 880.09 337.87 877.97 337.91 874.97 C 338.13 871.67 338.66 868.37 338.68 865.07 C 337.97 863.35 336.84 861.78 335.91 860.18 C 332.67 859.79 329.44 859.29 326.22 858.80 C 320.12 858.22 315.13 854.86 309.10 853.73 C 307.57 855.99 305.83 858.13 304.43 860.47 C 302.87 863.05 302.94 866.42 300.78 868.70 C 298.74 870.19 296.48 871.33 294.48 872.88 C 294.42 875.92 294.28 877.15 291.10 877.82 C 289.73 876.88 288.70 875.70 287.42 874.64 C 285.56 873.75 282.92 874.09 281.12 872.90 C 278.33 871.27 276.74 867.57 275.22 864.83 C 273.20 860.57 270.18 857.29 267.56 853.42 C 266.41 851.90 265.79 850.31 263.90 849.57 C 257.59 853.87 251.91 859.23 245.89 863.95 C 250.13 868.87 256.16 872.13 260.21 877.11 C 261.50 880.42 262.17 885.68 259.44 888.44 C 256.39 892.08 253.27 895.64 250.29 899.34 C 248.37 901.73 245.79 902.69 243.26 904.22 C 242.54 906.16 242.21 908.35 241.30 910.20 C 238.86 912.53 235.84 913.15 232.62 912.14 C 230.15 914.16 229.08 916.82 227.65 919.57 C 226.32 922.12 223.42 923.23 221.02 924.52 C 220.74 926.68 220.44 928.83 220.15 930.99 C 223.02 932.98 223.23 934.81 223.67 938.10 C 222.86 939.43 221.65 940.55 220.74 941.83 C 220.63 945.47 220.44 948.79 219.09 952.25 C 217.82 954.36 215.44 956.37 212.96 956.76 C 211.26 955.90 209.80 954.67 208.10 953.83 C 206.92 954.18 205.76 954.58 204.62 955.04 C 202.33 953.98 201.24 952.88 199.88 950.77 C 198.25 950.74 196.20 951.11 194.75 950.28 C 193.24 949.64 193.09 947.83 192.44 946.47 C 190.62 944.77 189.43 943.69 189.23 941.05 C 188.57 939.39 187.94 937.72 187.33 936.03 C 188.18 935.07 189.02 934.12 189.87 933.17 C 186.82 932.36 184.21 931.31 181.50 929.70 C 180.21 927.00 178.76 924.41 177.78 921.57 C 175.95 920.89 173.40 920.84 172.56 918.78 C 170.25 914.13 170.27 908.72 167.98 903.98 C 167.18 901.77 165.51 898.88 166.67 896.58 C 168.27 892.73 169.35 889.02 169.94 884.88 C 168.39 884.05 166.83 882.99 165.14 882.48 C 162.85 882.52 160.47 883.02 158.19 882.78 C 155.62 881.72 154.51 879.35 152.68 877.50 C 148.75 875.76 144.58 875.53 140.57 874.15 C 139.36 874.26 138.16 874.32 136.95 874.35 C 135.04 873.35 133.82 870.92 132.59 869.20 C 133.21 867.40 133.82 865.61 134.42 863.80 C 131.82 858.60 130.24 852.79 129.82 847.00 C 129.93 844.33 125.80 843.42 125.38 840.87 C 124.97 838.56 124.18 835.87 124.52 833.53 C 126.30 830.20 128.78 827.30 131.79 825.01 C 131.02 821.07 129.71 816.96 129.62 812.93 C 130.13 811.81 131.45 811.12 132.37 810.34 C 132.45 808.28 132.55 806.23 132.67 804.18 C 131.31 802.45 130.59 800.66 130.01 798.56 C 131.41 795.22 130.12 793.83 128.43 791.06 C 124.90 789.23 124.47 786.45 124.00 782.83 C 123.27 782.69 122.54 782.54 121.81 782.40 C 120.27 780.20 119.48 778.46 118.97 775.79 C 115.25 772.59 111.51 773.59 107.03 773.09 C 104.17 771.59 101.44 769.82 98.47 768.50 C 94.68 767.80 90.13 769.48 86.47 768.59 C 84.55 765.49 87.80 760.44 89.17 757.55 C 87.74 757.04 86.31 756.51 84.90 755.93 C 83.67 755.67 82.45 755.42 81.23 755.15 C 78.38 756.62 75.60 756.83 74.13 760.07 C 72.09 764.26 69.23 767.91 64.84 769.74 C 60.04 769.49 55.93 767.26 50.92 768.39 C 45.15 767.06 40.76 763.53 36.71 759.40 C 35.83 757.34 35.27 755.13 34.51 753.02 C 35.01 752.02 35.50 751.02 35.99 750.02 C 35.85 749.08 35.71 748.13 35.57 747.19 L 33.26 747.20 C 34.31 745.53 35.36 743.86 36.38 742.16 C 36.90 742.35 37.42 742.54 37.94 742.73 C 38.30 741.16 38.48 739.48 39.06 737.97 C 40.16 736.06 42.56 734.76 44.38 733.60 C 44.84 731.14 45.42 728.80 46.52 726.53 C 44.97 723.84 44.52 722.81 41.23 722.31 C 41.08 720.68 40.92 719.05 40.77 717.42 C 42.17 717.54 43.58 717.67 44.98 717.80 C 47.77 715.55 51.03 714.64 54.21 713.18 C 56.91 711.98 59.17 709.58 61.98 708.79 C 64.50 708.51 67.10 709.01 69.62 708.70 C 71.81 707.26 73.54 705.02 75.41 703.17 C 78.27 700.46 78.36 696.95 82.89 696.49 C 87.39 692.70 86.84 687.33 85.50 682.15 C 84.58 678.86 86.31 676.59 87.65 673.75 C 88.56 673.55 89.46 673.34 90.36 673.14 C 92.20 667.27 95.32 661.71 98.41 656.42 C 99.91 653.93 98.75 650.77 98.85 647.99 C 99.38 645.38 100.77 643.25 101.53 640.79 C 102.04 638.26 101.35 635.52 101.90 632.99 C 102.43 631.70 104.09 630.94 105.12 630.06 C 104.97 628.74 104.82 627.42 104.68 626.09 C 103.64 624.79 102.57 623.59 102.05 621.96 C 101.08 619.18 99.61 617.03 100.45 613.95 C 100.81 610.30 103.27 608.69 105.35 606.01 C 105.47 604.70 105.69 603.42 106.01 602.16 C 107.08 601.09 108.71 600.54 109.98 599.75 C 109.12 598.37 108.73 597.49 107.15 596.87 C 103.63 595.38 101.55 592.19 99.68 589.00 C 101.19 585.23 104.45 581.90 106.23 578.08 C 109.48 577.78 112.71 577.42 115.91 576.77 C 116.65 577.43 117.39 578.09 118.13 578.75 C 121.53 578.47 124.80 579.04 128.16 579.48 C 128.61 578.58 129.07 577.69 129.53 576.80 C 134.67 574.23 135.06 569.38 137.67 564.76 C 138.57 562.79 140.36 561.43 141.30 559.53 C 142.03 557.37 142.20 555.03 142.95 552.88 C 147.07 551.15 151.74 550.48 156.05 549.24 C 159.05 548.28 161.13 550.87 163.99 550.54 C 167.34 550.20 170.65 549.62 174.02 549.41 C 176.07 547.34 178.49 545.64 180.52 543.55 C 182.37 541.28 183.76 538.61 185.37 536.16 C 184.99 532.47 184.32 528.94 183.46 525.33 C 181.38 524.05 178.52 522.90 177.52 520.53 C 176.08 517.59 174.92 514.52 173.53 511.55 C 171.02 510.44 168.60 509.27 166.42 507.60 C 163.56 504.84 158.61 506.53 155.03 506.67 C 148.01 506.82 141.84 504.24 134.54 505.73 C 132.69 506.06 130.54 507.18 128.77 506.28 C 123.46 503.58 119.05 499.37 117.33 493.51 C 113.81 491.39 110.24 488.49 106.06 487.98 C 101.73 488.28 97.74 492.24 95.09 495.40 C 93.25 495.55 91.40 495.69 89.56 495.83 C 89.27 494.82 88.99 493.80 88.70 492.79 C 89.86 492.28 91.01 491.79 92.17 491.29 C 95.93 487.30 101.16 482.86 106.99 483.15 C 111.80 484.13 115.79 486.64 119.75 489.40 C 122.33 491.07 122.54 495.04 124.71 497.29 C 126.32 498.93 128.22 500.33 130.10 501.64 C 133.10 501.26 135.92 500.34 139.00 500.48 C 145.58 500.33 150.91 502.56 157.23 501.54 C 160.66 501.21 165.20 500.52 168.08 502.87 C 170.56 504.80 173.03 506.14 175.92 507.35 C 177.04 506.96 178.15 506.57 179.27 506.18 C 179.88 503.88 180.30 501.43 181.29 499.27 C 182.99 496.57 185.89 495.26 188.77 494.22 C 191.52 491.41 191.55 488.32 192.76 484.84 C 195.86 481.60 200.36 479.59 204.08 477.10 C 209.21 474.25 212.91 470.25 219.08 470.37 C 222.49 470.22 222.97 473.89 224.40 476.19 C 227.21 474.93 229.96 473.55 232.88 472.53 C 235.41 474.08 238.32 475.47 240.16 477.84 C 242.75 481.10 245.06 484.45 248.37 487.06 C 249.55 486.04 250.74 484.84 252.08 484.03 C 254.94 484.29 255.30 488.60 256.31 490.72 C 260.83 490.90 265.08 491.71 269.00 494.04 C 270.55 495.64 271.65 497.71 272.96 499.51 C 273.95 499.24 274.93 498.96 275.92 498.69 C 277.00 499.12 278.08 499.54 279.17 499.97 C 281.94 498.93 285.46 497.04 287.37 500.51 C 287.98 503.60 287.26 506.99 287.72 510.16 C 290.20 508.24 292.07 504.91 295.09 504.11 C 297.32 503.37 299.58 502.77 301.78 501.97 C 300.52 497.43 295.57 495.45 291.98 492.91 C 289.50 491.53 289.01 488.63 287.60 486.33 C 286.01 483.57 284.30 481.34 284.71 477.93 C 284.73 475.20 286.47 473.96 288.26 472.25 C 294.95 466.26 301.50 460.14 307.88 453.82 C 309.04 452.82 310.39 451.16 311.98 450.97 C 314.67 450.88 317.32 451.32 320.02 451.01 C 323.26 450.87 326.48 449.54 329.52 450.74 C 331.46 451.64 332.88 453.25 334.96 454.00 C 338.41 455.27 342.28 455.83 345.94 455.96 C 347.22 454.70 348.20 452.23 349.97 451.70 C 354.72 451.64 359.27 451.31 363.98 452.02 C 368.48 451.71 371.89 452.78 375.98 454.43 C 375.74 453.57 375.51 452.72 375.28 451.87 C 376.77 449.74 378.21 447.88 380.58 446.67 C 383.38 445.23 385.47 442.94 388.06 441.24 C 390.29 441.21 392.82 441.19 394.91 442.06 C 396.91 442.93 397.61 445.13 398.57 446.91 C 402.81 444.77 406.88 442.58 411.52 441.39 C 416.50 440.11 420.98 437.41 425.92 436.10 C 428.25 437.76 430.19 439.95 432.40 441.77 C 434.27 441.30 436.17 440.74 438.08 440.50 C 440.19 441.36 442.03 442.74 444.15 443.33 C 446.10 444.00 447.85 444.05 449.02 445.97 C 450.80 448.85 452.73 452.53 452.29 456.00 C 452.37 458.12 451.63 460.98 453.39 462.56 C 455.27 464.24 457.08 465.59 458.16 467.98 C 462.07 467.73 464.11 465.06 467.44 463.19 C 467.94 461.92 468.44 460.64 468.94 459.36 C 467.72 456.65 463.94 453.26 466.40 450.37 C 467.22 448.52 469.44 449.46 471.06 449.22 C 471.85 446.38 472.49 443.79 474.87 441.81 C 477.14 439.27 479.97 438.93 482.94 437.43 C 480.42 434.52 477.59 432.27 477.02 428.25 C 475.26 425.49 475.26 424.05 475.85 420.90 C 473.97 415.13 475.45 409.94 479.63 405.71 C 481.34 404.49 483.28 405.79 484.95 406.40 C 485.20 405.59 485.44 404.79 485.69 403.98 C 485.47 402.67 485.20 401.31 485.15 399.99 C 485.63 397.23 488.25 394.87 487.75 392.07 C 487.50 389.36 487.62 387.16 488.44 384.55 C 488.44 382.31 488.56 380.07 488.67 377.83 C 490.60 376.22 492.44 375.10 494.83 374.25 C 496.82 371.73 498.87 369.35 501.44 367.39 C 500.84 363.44 498.51 360.93 498.89 356.95 C 498.98 354.93 499.09 353.14 500.87 351.86 C 504.10 349.91 507.72 348.55 511.06 346.76 C 511.57 345.18 511.79 343.18 512.78 341.83 C 515.53 338.82 518.72 336.33 521.72 333.62 C 523.43 330.31 522.48 324.24 525.88 321.94 C 528.75 320.27 529.99 322.47 532.15 323.98 C 533.65 322.30 534.27 320.26 536.99 320.94 C 539.95 321.38 539.50 323.40 540.56 325.63 C 541.90 328.68 544.61 330.13 547.59 331.24 C 549.30 330.80 551.10 330.31 552.87 330.23 C 554.34 330.71 555.71 331.73 557.02 332.55 C 557.97 332.21 558.91 331.86 559.86 331.52 C 561.10 332.14 562.34 332.76 563.58 333.36 C 564.62 332.71 565.72 331.27 567.01 331.27 C 569.57 331.34 572.14 332.05 574.62 332.62 C 576.03 332.94 576.82 334.95 577.63 336.01 C 578.72 336.06 579.81 336.14 580.90 336.27 C 583.33 336.96 584.66 340.31 585.83 342.31 C 587.77 342.60 589.82 342.80 591.67 343.42 C 593.32 345.74 593.91 348.85 595.09 351.45 C 596.05 351.51 597.01 351.57 597.97 351.62 C 598.59 352.16 599.20 352.70 599.82 353.24 C 602.37 353.22 604.59 354.77 606.31 352.29 C 608.47 349.10 606.44 343.90 608.34 340.45 C 610.00 337.14 612.14 332.19 616.12 331.27 C 620.37 330.79 624.79 331.51 629.03 331.87 C 632.10 332.06 634.29 333.67 636.83 335.17 C 639.18 334.42 641.48 333.76 643.98 333.92 C 646.91 333.75 649.85 334.57 651.87 331.94 C 654.65 328.50 658.39 327.62 662.35 326.17 C 662.86 325.35 663.37 324.54 663.87 323.72 C 665.80 323.36 667.77 323.14 669.66 322.63 C 671.40 321.66 672.90 320.14 674.38 318.82 C 675.03 316.23 675.33 313.33 677.28 311.32 C 679.34 309.24 682.28 307.96 684.88 306.68 C 685.45 304.09 686.09 301.53 686.81 298.97 C 688.02 298.29 689.23 297.60 690.45 296.92 C 688.89 294.39 686.72 292.19 685.39 289.55 C 684.66 286.47 685.24 282.70 687.04 280.05 C 690.63 274.55 692.13 268.15 695.54 262.53 C 697.72 259.29 696.61 256.34 696.16 252.78 C 694.14 241.46 692.17 230.13 690.14 218.81 C 689.83 216.83 689.46 215.00 689.78 212.99 C 691.69 211.46 694.10 210.23 696.41 209.46 C 697.88 209.22 699.60 210.24 701.01 210.62 C 703.18 209.75 705.54 208.54 707.87 208.35 C 710.43 209.42 712.96 210.57 715.52 211.63 C 718.11 213.94 720.48 215.80 723.51 217.53 C 725.78 218.86 725.12 220.70 725.44 222.94 C 726.80 223.18 728.16 223.41 729.53 223.65 C 731.07 222.43 732.33 220.87 734.36 220.58 C 739.74 219.71 745.23 218.90 750.67 218.72 C 754.34 216.32 758.59 216.63 762.33 214.48 C 764.34 213.19 766.06 214.42 768.13 214.89 C 768.37 213.01 768.74 211.40 769.70 209.74 C 771.12 207.24 771.48 204.73 773.81 202.83 C 777.26 199.85 778.92 196.08 783.44 194.51 C 786.56 193.69 789.98 195.29 792.91 196.25 C 791.17 190.27 793.12 184.94 792.89 178.96 C 792.92 175.07 794.99 171.18 796.82 167.86 C 799.70 165.46 802.78 163.16 806.20 161.58 C 805.71 159.43 804.96 157.18 804.86 154.97 C 805.32 152.93 806.47 151.04 807.08 149.01 C 805.86 145.46 800.57 144.17 801.08 140.06 C 801.09 135.70 801.86 133.64 804.58 130.34 C 804.73 128.52 804.85 126.70 804.94 124.87 C 803.51 123.68 802.04 122.90 801.44 121.01 C 801.46 118.38 802.45 115.76 802.81 113.15 C 803.25 109.92 805.83 107.69 806.66 104.47 C 804.84 103.03 802.85 102.30 802.04 99.97 C 801.03 97.43 799.46 95.31 797.83 93.15 C 798.28 90.77 798.36 88.41 798.45 86.01 C 798.42 84.13 800.09 82.47 801.37 81.27 Z" fill="#000000" />
<path d="M 785.11 199.17 C 791.85 199.85 798.46 204.42 805.27 201.39 C 811.79 201.81 821.37 204.42 826.62 199.40 C 829.87 202.43 834.26 202.05 838.13 204.29 C 838.88 203.74 839.64 203.20 840.40 202.65 C 843.06 204.82 845.64 206.76 849.05 207.60 C 851.64 207.74 853.53 205.18 855.24 203.57 C 856.89 204.93 858.58 206.06 860.43 207.11 C 859.16 209.50 858.01 211.95 857.11 214.51 C 859.21 218.24 858.22 220.87 856.51 224.44 C 852.16 224.42 847.76 225.66 843.57 226.73 C 843.14 231.11 843.41 235.18 841.24 239.22 C 841.47 240.30 841.70 241.39 841.93 242.47 C 840.77 243.10 839.53 243.69 838.46 244.46 C 837.46 245.91 838.01 247.64 839.52 248.43 C 840.75 248.64 841.99 248.76 843.26 248.80 C 844.80 250.41 846.31 252.05 847.81 253.70 C 846.33 256.04 845.31 258.24 844.52 260.90 C 842.91 261.48 841.22 261.96 839.70 262.75 C 837.53 265.39 837.63 269.60 839.67 272.28 C 841.53 274.77 844.33 276.78 846.71 278.76 C 846.29 281.07 845.86 283.38 845.51 285.71 C 847.48 288.18 847.61 290.77 848.21 293.74 C 849.20 295.62 850.89 297.17 852.30 298.75 C 851.25 301.69 849.57 304.09 852.18 306.82 C 854.26 309.00 855.91 307.98 858.29 307.13 C 858.75 307.68 859.20 308.22 859.66 308.77 C 859.27 311.08 858.53 313.58 858.77 315.92 C 860.48 317.80 862.56 319.37 864.45 321.07 C 862.00 322.46 859.30 323.39 856.89 324.84 C 856.30 327.08 856.30 329.48 855.77 331.74 C 852.99 333.05 850.56 333.14 848.91 336.08 C 846.36 338.15 845.31 339.10 844.99 342.51 C 843.59 343.14 841.75 343.53 840.64 344.63 C 839.67 346.41 839.87 348.90 839.65 350.88 C 838.00 353.72 837.55 355.52 837.70 358.84 C 837.70 360.15 837.03 362.09 837.72 363.24 C 840.25 366.60 844.31 368.77 846.80 372.14 C 848.86 376.44 843.00 381.74 843.40 385.99 C 843.70 387.42 844.08 388.83 844.53 390.22 C 841.68 390.25 838.01 389.67 835.65 391.64 C 833.91 393.35 832.93 396.16 833.48 398.57 C 834.45 401.53 837.65 403.37 840.00 405.18 C 839.72 407.29 838.92 409.95 839.85 411.95 C 842.12 413.49 844.93 414.38 847.44 415.48 C 845.69 418.03 843.11 420.71 843.26 424.00 C 843.08 426.54 844.97 428.37 846.28 430.33 C 846.26 434.41 844.74 437.46 843.12 441.04 C 841.92 443.39 843.63 444.92 844.53 447.01 C 844.61 449.67 843.99 451.97 845.82 454.20 C 847.89 456.69 850.45 459.12 853.35 460.60 C 856.46 462.25 859.00 459.86 862.09 459.22 C 864.73 459.90 867.07 462.37 869.33 463.89 C 868.40 465.97 867.73 468.50 866.22 470.23 C 863.69 473.13 857.30 469.75 855.61 473.61 C 854.63 476.50 856.98 481.24 854.85 483.87 C 852.75 486.89 850.69 489.77 849.39 493.24 C 847.62 493.27 846.06 492.17 844.81 493.83 C 842.17 497.43 840.15 501.36 837.00 504.60 C 835.13 503.49 833.12 502.02 830.99 501.55 C 828.28 502.94 826.32 506.06 824.26 508.28 C 820.84 512.11 819.96 516.60 818.10 521.18 C 814.68 524.70 808.80 523.33 806.14 527.14 C 804.47 529.11 804.72 531.37 804.45 533.80 C 806.50 536.27 808.27 538.93 810.04 541.60 C 807.18 545.86 803.97 549.89 801.16 554.17 C 799.76 556.24 799.73 558.45 799.59 560.85 C 798.39 562.76 796.86 564.82 796.28 567.01 C 796.70 568.99 798.48 570.68 799.72 572.24 C 802.27 575.12 803.66 578.58 806.76 581.01 C 806.51 582.86 805.81 584.99 806.22 586.82 C 807.07 589.32 808.90 591.65 810.48 593.74 C 808.97 596.11 807.61 598.04 808.14 601.02 C 808.23 604.97 810.62 607.24 812.88 610.16 C 811.37 613.15 809.40 615.87 807.91 618.86 C 805.49 624.30 808.40 629.41 805.63 634.55 C 803.79 638.39 802.02 642.91 799.00 645.97 C 795.58 647.24 791.58 646.91 788.96 649.94 C 787.33 651.93 787.35 654.01 788.99 655.98 C 793.31 661.21 797.34 666.64 801.75 671.80 C 799.76 673.63 796.93 675.25 796.52 678.18 C 796.03 681.50 796.09 684.89 795.73 688.23 C 791.05 689.70 786.62 692.00 782.34 694.37 C 779.21 696.88 776.07 699.42 772.95 701.95 C 769.61 704.55 769.53 709.51 767.15 713.13 C 765.60 715.40 765.04 717.73 764.60 720.42 C 761.19 720.96 757.83 720.26 754.44 720.52 C 748.88 724.05 743.97 728.76 738.59 732.60 C 735.19 735.19 731.87 737.30 731.71 742.06 C 733.09 748.28 737.46 754.61 738.21 760.96 C 736.12 766.01 734.78 770.60 733.94 776.01 C 733.69 779.56 730.26 780.84 729.48 783.99 C 730.60 786.52 731.95 789.12 733.64 791.31 C 735.02 791.89 736.52 792.21 737.96 792.62 C 737.39 794.49 736.80 796.35 736.22 798.22 C 731.33 798.93 726.71 800.84 722.72 803.75 C 721.65 804.97 721.13 806.74 720.45 808.19 C 716.24 806.21 712.70 805.03 708.14 806.95 C 706.10 807.21 703.77 807.06 701.84 807.81 C 700.00 809.26 699.15 812.03 697.99 814.04 C 695.63 814.29 693.35 813.60 691.72 815.73 C 690.11 817.87 690.47 821.48 690.09 824.03 C 689.89 828.01 687.31 830.51 686.31 834.18 C 685.92 837.20 686.88 840.80 686.05 843.92 C 684.54 849.21 685.38 854.63 684.00 859.84 C 679.98 863.40 677.07 867.71 675.75 872.95 C 675.21 876.97 675.89 881.00 675.40 885.04 C 674.11 885.41 672.42 885.43 671.31 886.25 C 669.33 887.98 668.99 890.42 668.35 892.83 C 665.64 895.19 663.08 897.04 661.86 900.60 C 659.20 901.59 655.12 902.31 653.63 904.98 C 654.27 907.66 655.32 911.59 658.13 912.76 C 661.01 914.21 663.92 915.59 666.82 917.02 C 668.05 919.33 669.57 921.52 670.68 923.90 C 669.30 927.40 664.84 928.50 662.80 931.75 C 660.24 935.96 657.83 939.73 658.69 944.91 C 655.50 943.79 652.38 942.75 648.95 942.73 C 643.08 942.53 637.85 940.29 632.13 939.47 C 628.98 938.90 625.84 938.31 622.74 937.53 C 626.67 933.73 628.56 928.93 629.87 923.73 C 630.29 919.92 629.73 916.39 631.43 912.78 C 629.00 910.83 626.78 908.98 623.61 908.40 C 623.53 906.85 623.52 905.38 623.20 903.86 C 622.88 900.43 618.75 899.11 616.51 896.61 C 616.56 894.32 616.56 892.03 616.53 889.73 C 615.77 889.42 615.02 889.11 614.26 888.80 C 613.18 887.68 612.96 885.96 611.10 886.36 C 607.15 886.76 603.21 887.36 599.27 887.81 C 599.48 886.42 599.68 885.03 599.88 883.64 C 598.09 881.64 596.83 879.70 595.77 877.22 C 596.11 876.42 596.43 875.62 596.74 874.81 C 598.42 870.84 596.16 866.88 597.61 862.69 C 598.51 862.54 599.41 862.38 600.30 862.23 C 600.45 861.24 600.59 860.25 600.73 859.27 C 602.43 859.36 604.13 859.46 605.83 859.56 C 606.13 857.18 606.37 854.80 606.60 852.41 C 607.93 852.56 609.27 852.71 610.60 852.86 C 610.75 849.53 611.08 846.47 612.57 843.44 C 610.99 842.28 608.90 839.60 606.72 840.65 C 604.86 841.57 604.12 844.53 602.89 846.15 C 601.12 846.47 599.26 846.48 597.45 846.54 C 596.21 847.63 594.88 848.70 593.81 849.96 C 593.59 850.92 594.01 852.09 594.09 853.07 C 592.72 853.13 591.36 853.18 589.99 853.24 C 589.87 851.98 589.75 850.72 589.64 849.46 C 588.71 849.02 587.78 848.58 586.85 848.13 C 585.73 843.92 583.02 840.16 579.88 837.21 C 576.05 834.27 572.61 835.69 568.30 835.72 C 567.31 834.79 566.46 833.69 565.59 832.64 C 561.30 830.80 558.48 827.76 556.28 823.72 C 558.29 818.66 560.16 814.24 559.15 808.63 C 554.62 807.99 550.62 806.82 546.00 807.09 C 543.14 807.15 540.22 807.87 537.38 807.67 C 534.91 805.88 532.62 803.89 530.06 802.22 C 525.91 804.46 524.05 807.61 521.98 811.68 C 520.72 809.46 519.43 807.28 518.02 805.16 C 519.49 802.59 521.74 800.38 520.74 797.19 C 518.49 793.06 513.31 793.90 511.63 788.99 L 511.54 788.86 C 508.64 787.38 506.20 785.30 503.77 783.17 C 504.64 782.64 505.51 782.11 506.39 781.59 C 507.09 779.78 508.17 777.98 508.54 776.07 C 508.55 773.44 508.48 770.68 507.76 768.14 C 507.20 766.70 506.55 766.33 505.01 766.45 C 499.43 766.49 493.89 770.75 488.96 773.13 C 487.30 772.20 485.65 771.26 484.00 770.30 C 482.43 770.55 480.87 770.77 479.29 770.98 C 479.62 765.82 478.54 762.30 476.37 757.69 C 473.70 756.85 471.02 755.99 468.32 755.23 C 467.57 754.31 466.80 753.40 466.05 752.48 C 465.35 752.65 464.66 752.82 463.96 752.98 C 463.18 751.68 462.38 750.38 461.57 749.10 C 461.51 747.85 461.44 746.61 461.36 745.36 C 459.13 745.59 456.90 745.90 454.68 746.24 C 453.56 747.38 452.85 748.62 451.17 748.92 C 450.97 747.65 450.80 746.37 450.66 745.08 C 449.69 744.92 448.73 744.76 447.76 744.60 C 448.29 742.78 448.65 741.01 448.88 739.14 C 449.88 736.69 450.15 734.20 450.64 731.64 C 451.70 729.69 453.01 727.89 453.99 725.89 C 452.20 723.97 450.73 722.02 449.51 719.69 C 447.29 718.68 445.23 717.52 443.18 716.19 C 444.18 712.71 445.47 709.37 446.87 706.03 C 447.12 705.07 448.04 703.53 447.32 702.66 C 445.42 701.54 442.63 702.07 440.52 701.44 C 438.37 700.51 436.28 698.67 433.97 698.26 C 432.28 698.80 430.74 699.70 429.04 700.23 C 426.28 700.16 423.56 699.47 420.80 699.28 C 416.54 696.82 414.89 692.90 412.65 688.78 C 414.64 688.53 416.62 688.30 418.61 688.04 C 417.85 686.12 416.98 684.41 415.86 682.68 C 416.70 681.28 417.50 679.80 418.53 678.52 C 420.18 677.70 421.95 677.17 423.61 676.36 C 423.46 675.21 423.16 674.05 422.89 672.92 C 423.38 671.68 423.88 670.44 424.39 669.20 C 426.75 668.08 427.34 668.05 427.65 665.32 C 426.21 664.41 424.78 663.49 423.37 662.52 C 424.34 661.72 425.27 660.87 426.17 659.99 C 426.78 658.13 426.53 655.87 426.74 653.92 C 427.95 654.80 429.15 655.81 430.48 656.48 C 432.04 657.11 433.19 654.97 434.32 654.16 C 435.42 653.91 436.51 653.66 437.61 653.41 C 438.11 652.27 438.61 651.13 439.10 649.99 C 441.72 648.88 444.83 647.87 447.01 646.01 C 447.44 644.98 447.62 643.83 447.88 642.74 C 446.12 640.83 444.52 638.79 442.93 636.73 C 443.83 635.62 444.72 634.50 445.62 633.38 C 447.01 633.57 448.40 633.69 449.80 633.74 C 451.58 632.72 453.01 630.91 454.68 629.70 C 456.18 628.76 458.00 628.16 459.34 627.01 C 459.98 623.34 457.52 622.77 455.09 621.02 C 455.38 619.81 455.66 618.60 455.94 617.39 C 454.65 616.76 451.54 616.59 451.24 615.10 C 452.76 611.54 454.80 608.30 455.87 604.54 C 454.40 604.43 452.94 604.33 451.47 604.25 C 452.20 602.40 454.62 599.66 453.26 597.69 C 451.80 595.19 450.51 592.57 448.89 590.18 C 447.06 589.82 445.18 589.77 443.34 589.45 C 442.23 587.61 444.24 586.35 445.04 584.80 C 444.30 583.28 443.57 581.68 442.65 580.27 C 440.42 580.64 438.27 582.27 436.16 583.14 C 433.69 582.11 431.20 581.18 428.66 580.33 C 427.54 578.06 426.38 575.81 425.29 573.52 C 423.02 573.66 420.76 573.63 418.49 573.64 C 416.95 571.80 415.37 570.00 413.78 568.20 C 410.83 567.92 407.87 567.75 404.93 567.37 C 404.61 565.00 403.79 564.31 402.05 562.87 C 401.92 561.60 401.81 560.32 401.69 559.05 C 400.31 558.70 398.93 558.34 397.55 557.97 C 396.91 559.82 397.21 562.16 395.15 563.04 C 393.99 560.49 393.00 558.36 390.75 556.55 C 390.52 553.34 389.64 549.60 390.46 546.45 C 391.81 545.15 393.55 544.23 394.96 542.98 C 395.21 541.39 395.10 539.74 395.29 538.14 C 396.75 535.51 401.19 535.94 403.76 535.60 C 405.15 533.81 406.91 531.98 407.74 529.85 C 407.44 528.23 406.60 526.68 405.96 525.17 C 406.99 523.55 408.02 521.92 409.07 520.31 C 410.57 519.53 412.54 518.93 413.68 517.64 C 414.62 516.25 414.94 514.39 415.47 512.81 C 418.76 511.83 421.91 510.57 425.03 509.16 C 425.96 510.01 426.89 510.85 427.82 511.69 C 429.32 511.16 430.82 510.62 432.33 510.08 C 433.04 512.12 433.74 514.16 434.48 516.19 C 438.07 515.50 440.55 512.84 444.20 512.23 C 444.21 511.33 444.22 510.41 444.14 509.51 C 443.08 508.42 441.57 507.74 440.31 506.92 C 442.71 506.26 444.87 505.43 447.08 504.30 C 446.34 502.77 445.56 501.27 444.75 499.77 C 445.71 496.90 446.41 493.51 445.44 490.56 C 444.48 489.60 443.34 488.79 442.27 487.94 C 443.60 487.45 444.94 486.95 446.27 486.46 C 445.65 485.38 445.03 484.30 444.40 483.23 C 446.41 481.46 448.46 480.10 448.64 477.17 C 448.10 474.92 446.24 472.87 444.89 471.03 C 445.75 468.35 446.67 465.69 447.64 463.05 C 449.13 465.03 450.70 466.88 452.55 468.54 C 453.61 470.08 454.68 471.60 455.79 473.10 C 457.98 472.83 460.27 472.78 462.40 472.21 C 464.54 471.24 466.43 469.64 468.34 468.28 C 469.40 468.49 470.47 468.71 471.54 468.92 C 472.26 467.14 472.90 465.34 473.51 463.52 C 474.70 462.22 476.41 460.78 476.80 459.01 C 475.93 456.22 473.88 456.00 471.52 454.97 C 472.70 454.08 474.21 453.31 475.10 452.11 C 475.93 450.43 476.29 448.49 476.76 446.69 C 479.56 444.03 483.31 443.46 486.27 441.15 C 487.13 439.59 487.45 437.70 487.96 436.01 C 484.56 432.57 483.04 429.38 481.55 424.83 C 482.53 423.57 483.51 422.35 484.29 420.95 C 483.92 418.51 481.64 418.60 479.81 417.57 C 480.00 415.87 480.20 414.17 480.41 412.47 C 482.38 412.63 485.11 414.66 486.48 412.49 C 488.33 410.01 490.07 407.36 491.78 404.77 C 491.68 403.21 490.61 401.66 490.01 400.22 C 491.16 397.98 492.86 395.70 492.68 393.07 C 492.31 388.59 493.96 384.51 493.52 380.01 C 494.89 379.95 496.24 379.82 497.59 379.62 C 499.12 377.41 500.10 375.04 502.13 373.18 C 503.32 371.88 505.21 370.60 505.77 368.90 C 507.30 363.88 503.16 360.69 503.88 355.45 C 507.58 353.66 511.59 352.27 515.11 350.16 C 515.82 348.44 516.11 346.55 516.83 344.84 C 519.28 341.63 522.85 339.09 526.16 336.82 C 526.84 333.84 527.43 330.84 527.99 327.84 C 529.64 328.54 531.31 329.23 532.98 329.90 C 533.89 329.18 534.80 328.45 535.71 327.72 C 538.28 330.74 540.81 334.15 544.79 335.33 C 547.29 336.21 549.51 335.60 552.03 335.23 C 553.56 336.14 555.04 337.79 556.90 337.53 C 560.08 337.29 563.04 337.88 566.11 338.63 C 566.86 337.82 567.62 337.02 568.37 336.21 C 569.70 336.61 571.04 337.00 572.38 337.40 C 573.42 338.82 574.49 340.22 575.60 341.59 C 576.95 341.40 578.30 341.21 579.65 341.02 C 580.55 342.78 581.35 344.76 582.62 346.30 C 584.48 347.01 586.51 347.32 588.45 347.75 C 589.16 351.08 590.64 353.37 592.81 355.91 C 595.55 356.69 598.20 357.72 600.89 358.64 C 602.05 359.49 603.30 361.12 604.85 360.90 C 607.00 359.05 608.80 356.73 610.54 354.49 C 613.29 350.74 611.16 344.63 613.55 340.61 C 614.67 338.67 616.22 335.39 618.93 335.82 C 624.32 336.11 629.31 335.91 633.97 339.02 C 636.41 340.60 638.49 339.49 641.08 339.14 C 644.55 338.47 648.43 339.04 651.89 337.95 C 654.72 336.72 656.26 333.54 659.37 332.42 C 662.22 331.30 664.94 330.22 667.36 328.30 C 672.00 327.76 675.47 324.85 678.32 321.36 C 679.31 319.25 679.66 316.80 680.71 314.71 C 682.72 312.69 686.01 311.93 688.37 310.31 C 689.82 308.25 689.82 305.21 690.96 302.98 C 692.19 301.46 694.95 300.18 694.79 298.00 C 695.09 293.43 692.27 291.03 689.61 287.83 C 690.06 285.37 690.67 283.14 692.01 281.01 C 694.90 276.24 696.32 270.89 699.06 266.06 C 700.67 263.04 702.36 260.58 701.59 256.98 C 699.48 243.17 696.80 229.42 694.44 215.65 C 695.26 215.25 696.09 214.85 696.92 214.45 C 698.55 214.94 700.25 215.65 701.95 215.77 C 703.90 215.23 705.74 214.26 707.61 213.50 C 712.35 215.17 715.86 218.26 719.88 221.11 C 720.66 223.33 721.02 226.23 723.47 227.26 C 725.79 228.07 728.56 228.56 731.01 228.51 C 732.63 228.29 733.87 226.45 735.07 225.43 C 740.73 225.00 745.45 223.07 751.17 224.24 C 755.24 221.06 759.96 221.27 764.41 219.06 C 766.47 219.40 769.40 220.55 771.28 219.31 C 773.53 217.56 773.15 215.42 773.37 212.86 C 774.27 211.87 775.17 210.89 776.08 209.90 C 776.12 209.00 776.16 208.10 776.20 207.21 C 779.30 205.02 781.55 200.23 785.11 199.17 Z" fill="#d68589" />
<path d="M 424.59 441.56 C 426.92 443.87 429.40 445.88 432.47 447.13 C 433.99 446.55 435.44 445.96 437.04 445.64 C 439.35 446.51 441.57 447.59 443.90 448.41 C 445.87 448.82 446.57 451.37 447.19 453.01 C 448.63 460.03 445.93 465.06 444.01 471.48 C 445.39 473.13 447.31 475.03 447.83 477.17 C 447.61 480.00 445.26 481.30 443.36 483.03 C 443.89 483.90 444.42 484.76 444.95 485.63 C 443.67 486.52 442.39 487.41 441.14 488.34 C 442.39 489.25 443.76 490.08 444.87 491.16 C 445.45 493.51 444.88 496.26 444.60 498.64 C 443.33 498.67 442.05 498.71 440.78 498.74 C 442.68 500.07 444.70 500.95 445.81 503.07 C 444.56 505.27 441.16 505.65 439.00 506.74 C 440.55 507.91 442.15 509.02 443.66 510.23 C 441.97 512.40 438.13 513.74 435.75 515.37 C 434.05 514.07 433.77 511.41 433.06 509.47 C 431.32 509.84 429.60 510.24 427.87 510.66 C 426.89 509.80 425.90 508.94 424.91 508.09 C 421.61 509.86 418.50 511.47 414.67 511.69 C 414.25 513.45 414.10 515.58 413.11 517.12 C 411.74 518.15 410.09 518.87 408.68 519.85 C 407.20 521.36 406.16 523.34 404.97 525.08 C 405.66 526.63 406.51 528.21 406.93 529.86 C 406.14 531.62 404.84 533.24 403.41 534.54 C 400.16 535.50 396.99 534.78 394.49 537.46 C 394.24 539.22 394.33 541.04 394.30 542.81 C 392.54 543.97 389.76 544.81 389.37 547.16 C 389.04 549.58 389.36 552.14 389.89 554.51 C 389.80 555.38 389.69 556.24 389.61 557.10 C 392.62 558.98 393.20 559.86 393.89 563.36 C 394.92 563.49 395.94 563.62 396.97 563.74 C 397.35 562.18 397.69 560.60 398.02 559.02 C 399.02 559.24 400.02 559.45 401.02 559.67 C 401.10 560.98 401.19 562.30 401.27 563.61 C 402.25 564.32 403.24 565.03 404.22 565.74 C 403.15 566.17 402.08 566.61 401.01 567.05 C 404.93 568.54 408.86 568.42 412.91 569.01 C 415.11 570.38 416.73 572.86 418.36 574.84 C 419.08 574.69 419.81 574.54 420.53 574.39 C 421.96 574.51 423.39 574.58 424.82 574.64 C 426.00 576.82 427.31 578.96 428.14 581.29 C 427.60 582.39 426.85 583.47 425.91 584.53 C 425.43 583.54 424.96 582.56 424.48 581.57 C 423.18 581.84 421.87 582.10 420.57 582.35 C 419.49 580.18 418.47 578.71 415.86 578.63 C 410.83 578.81 406.32 577.55 401.59 578.92 C 399.45 578.11 397.72 577.19 395.98 575.72 C 392.25 574.59 388.06 573.83 384.17 574.30 C 381.25 575.25 378.66 577.90 376.33 579.84 C 375.44 578.89 374.71 577.40 373.50 576.84 C 369.91 575.01 366.16 573.61 362.34 572.36 C 360.93 572.91 359.40 573.88 357.88 573.79 C 355.84 571.79 356.88 569.42 355.82 567.17 C 354.81 566.11 352.28 566.85 350.96 566.95 C 346.43 567.48 342.57 569.86 338.04 570.26 C 334.95 570.81 332.22 570.43 330.03 573.05 C 328.40 575.11 329.27 576.80 330.04 578.95 C 330.24 581.99 330.70 585.03 330.71 588.06 C 330.53 590.79 326.90 592.67 324.96 594.19 C 323.36 595.17 320.59 595.35 321.35 597.85 C 322.14 602.03 319.86 606.70 318.26 610.48 C 317.37 610.13 316.49 609.79 315.60 609.44 C 312.60 610.57 308.85 610.59 306.13 612.18 C 305.20 614.28 305.22 616.83 304.81 619.08 C 302.89 618.01 301.26 617.30 299.08 617.02 C 298.43 618.20 297.75 619.36 297.02 620.48 C 295.41 619.85 293.84 619.02 292.27 618.27 C 291.58 619.37 290.85 620.43 290.06 621.45 C 285.95 620.98 282.10 621.41 278.00 621.69 C 270.63 621.64 263.59 621.49 256.71 618.66 C 253.32 618.43 249.97 618.45 246.57 618.02 C 244.06 619.63 242.31 622.86 240.61 625.27 C 237.66 622.67 234.83 620.47 231.31 618.67 C 228.97 617.61 229.07 614.39 227.50 612.63 C 225.90 611.42 224.02 610.51 222.26 609.57 C 221.98 608.81 221.71 608.05 221.44 607.29 C 219.61 606.30 217.83 605.04 215.86 604.36 C 212.94 604.09 209.85 604.83 206.96 605.20 C 206.84 601.72 207.59 597.28 205.64 594.24 C 203.65 590.77 202.56 587.76 202.20 583.74 C 200.48 582.98 198.63 583.02 197.80 581.16 C 195.26 576.64 193.18 571.23 190.03 567.01 C 186.08 561.94 181.99 556.89 178.58 551.43 C 184.03 548.00 187.41 542.70 190.21 537.05 C 190.26 532.38 188.94 527.61 187.99 523.04 C 186.31 521.08 183.46 520.21 181.82 518.24 C 180.61 516.23 179.81 513.93 178.93 511.75 C 180.38 510.88 183.08 510.46 183.45 508.56 C 185.02 505.07 184.18 501.00 188.43 499.61 C 193.75 497.71 196.25 492.90 196.75 487.52 C 201.21 484.26 205.99 481.63 210.62 478.61 C 213.05 477.00 215.45 475.80 218.23 474.93 C 219.51 477.08 220.77 480.02 222.94 481.40 C 226.11 482.29 229.65 479.02 232.30 477.57 C 236.42 480.03 238.63 483.84 241.68 487.37 C 244.47 490.16 246.83 493.07 251.18 491.44 C 252.24 492.99 252.90 495.46 255.14 495.52 C 258.96 495.80 262.50 496.12 266.03 497.73 C 267.60 500.50 268.76 503.03 272.12 503.90 C 275.58 504.43 279.35 504.95 282.80 504.24 C 282.75 506.77 282.29 509.96 283.85 512.13 C 285.03 513.84 286.97 514.44 288.97 514.55 C 291.97 513.73 293.28 511.33 295.52 509.44 C 299.02 508.35 302.26 507.67 305.15 505.14 C 306.84 502.59 306.18 498.85 304.63 496.38 C 301.76 492.97 297.22 491.08 294.06 488.11 C 292.30 484.72 290.26 481.59 289.12 477.97 C 297.23 470.70 305.11 463.22 312.93 455.65 C 317.77 456.51 322.22 455.93 326.98 455.10 C 329.46 456.29 331.46 458.07 334.18 458.83 C 338.26 460.03 342.74 460.85 346.99 460.72 C 349.80 460.70 350.25 458.43 351.73 456.55 C 353.93 456.63 356.13 456.67 358.34 456.52 C 362.83 457.15 367.11 456.28 371.22 457.83 C 374.05 458.56 376.74 460.41 379.47 458.46 C 381.23 457.01 380.78 454.06 381.05 452.00 C 384.06 450.29 386.93 448.46 389.50 446.11 C 390.56 446.14 391.62 446.16 392.69 446.19 C 392.54 449.36 392.40 451.32 394.59 453.85 C 400.80 451.37 406.58 447.70 412.95 445.95 C 416.96 444.78 420.73 443.13 424.59 441.56 Z" fill="#f6c567" />
<path d="M 178.29 552.45 C 181.59 557.48 185.26 562.28 189.06 566.94 C 192.66 571.54 194.61 577.56 197.72 582.44 C 198.42 583.67 200.26 583.82 201.47 584.38 C 201.82 588.25 203.27 591.55 205.11 594.91 C 207.00 598.09 206.22 602.53 206.11 606.08 C 209.29 605.72 212.62 604.89 215.83 605.13 C 218.26 605.84 220.07 607.89 221.76 609.65 C 223.33 611.22 225.57 612.14 227.25 613.61 C 228.53 616.00 228.51 618.32 231.25 619.56 C 234.98 621.13 237.40 624.13 240.79 626.09 C 242.78 623.84 244.38 620.51 246.94 618.89 C 249.48 619.11 251.96 619.44 254.53 619.28 C 257.14 619.08 259.51 620.92 262.17 621.27 C 269.44 622.43 276.78 622.84 284.11 622.03 C 286.09 621.77 288.22 622.54 290.14 622.12 C 291.37 621.40 292.49 620.46 293.63 619.60 C 294.32 619.95 296.50 622.08 297.35 621.09 C 298.38 620.08 299.20 618.86 300.18 617.80 C 302.34 618.06 302.95 619.69 304.30 621.12 C 306.19 618.37 306.10 615.65 306.73 612.53 C 309.70 611.56 312.84 611.17 315.85 610.29 C 317.94 613.02 319.56 615.97 321.00 619.09 C 317.37 621.04 314.08 622.58 313.13 627.01 C 312.99 631.34 316.71 634.16 317.92 638.06 C 318.91 641.17 319.83 644.33 320.72 647.48 C 322.04 651.22 319.73 655.18 319.63 659.24 C 317.93 661.21 315.68 663.34 314.79 665.82 C 314.39 667.36 314.80 669.15 314.87 670.71 C 313.89 670.48 312.90 670.25 311.92 670.02 C 309.68 672.47 307.53 674.96 304.97 677.08 C 303.37 678.24 303.13 680.67 302.20 682.39 C 299.96 683.16 297.21 682.74 294.89 682.58 C 291.39 683.71 288.89 686.03 285.84 687.87 C 282.37 689.71 278.82 683.92 275.55 684.74 C 272.02 687.01 271.04 692.53 270.94 696.41 C 269.05 696.58 267.16 696.71 265.26 696.82 C 262.48 700.23 259.89 703.68 256.39 706.41 C 254.06 708.12 253.34 710.34 252.60 713.02 C 248.32 715.81 244.05 718.04 238.89 718.63 C 237.31 720.73 235.57 722.67 233.72 724.54 C 231.84 728.96 228.44 732.36 223.75 733.65 C 220.36 734.46 217.40 736.28 215.40 739.16 C 215.24 740.86 215.40 742.60 215.47 744.30 C 213.11 743.93 211.27 742.53 209.08 744.07 C 203.07 746.77 200.17 752.26 194.74 755.78 C 196.23 758.12 197.84 760.38 199.31 762.73 C 198.16 762.96 197.01 763.19 195.87 763.42 C 193.38 768.89 189.02 771.82 185.03 776.04 C 181.76 779.25 182.20 783.50 178.05 786.04 C 173.80 788.31 169.21 790.06 164.75 791.88 C 159.63 794.92 155.51 799.04 150.03 801.56 C 148.49 801.66 146.95 801.73 145.42 801.77 C 142.33 803.74 139.77 806.21 137.20 808.79 C 137.89 806.14 138.64 803.75 138.18 800.96 C 137.38 800.13 136.52 799.35 135.60 798.63 C 136.21 793.72 133.96 790.13 131.80 785.99 C 130.93 785.38 130.01 784.84 129.05 784.35 C 129.37 782.34 131.00 779.37 129.00 777.87 C 127.39 777.62 125.72 777.60 124.10 777.53 C 124.25 776.64 124.40 775.75 124.55 774.86 C 122.57 772.87 120.88 770.90 118.28 769.69 C 114.53 767.80 110.07 768.72 106.12 766.89 C 103.68 765.97 101.55 764.26 99.09 763.47 C 96.50 763.42 93.91 763.66 91.32 763.73 C 92.76 760.78 94.53 758.04 96.19 755.21 C 97.21 753.26 97.65 751.57 96.01 749.79 C 93.52 748.70 91.40 750.82 89.19 751.77 C 86.68 750.72 83.71 749.42 80.97 749.58 C 78.06 750.25 75.18 752.01 72.83 753.82 C 69.81 756.92 68.17 761.08 65.20 764.28 C 60.30 763.78 55.37 763.27 50.47 762.70 C 46.39 762.18 44.16 759.20 40.92 756.91 C 40.66 755.90 40.41 754.90 40.17 753.89 C 40.84 751.83 41.12 749.83 41.21 747.67 C 42.42 745.17 42.88 742.43 43.89 739.87 C 45.71 738.27 49.10 737.56 49.41 734.91 C 50.07 731.60 51.03 728.31 51.44 724.95 C 50.69 723.49 49.65 722.13 48.71 720.78 C 52.86 718.93 57.06 717.47 60.81 714.81 C 64.27 711.87 69.10 715.16 72.50 712.55 C 76.59 709.79 79.51 706.15 82.41 702.22 C 86.67 700.10 90.29 697.08 90.81 692.04 C 92.00 687.45 90.56 683.52 90.05 679.01 C 92.25 677.61 94.39 676.75 95.21 674.04 C 97.01 668.55 99.68 663.56 102.67 658.64 C 105.32 654.13 102.39 649.65 105.00 645.06 C 106.68 641.81 106.80 638.89 106.54 635.30 C 107.81 634.14 110.15 632.89 110.39 631.04 C 110.52 627.28 109.22 623.91 107.12 620.85 C 107.20 619.87 107.28 618.88 107.36 617.90 C 106.57 617.28 105.77 616.67 104.97 616.05 C 105.14 615.29 105.31 614.52 105.49 613.75 C 108.41 610.73 109.97 606.84 112.96 603.88 C 115.28 601.64 114.22 597.90 113.60 595.14 C 113.11 592.55 108.50 592.99 107.14 591.03 C 106.55 590.24 105.97 589.44 105.42 588.63 C 107.31 585.73 108.89 582.56 111.01 579.83 C 114.04 580.72 117.03 585.43 120.20 584.14 C 123.73 583.31 127.32 584.48 130.86 584.07 C 132.26 582.34 133.27 580.43 135.01 578.98 C 138.22 576.35 139.36 571.82 141.34 568.20 C 142.37 566.03 144.20 564.51 145.38 562.47 C 146.21 560.58 146.59 558.44 147.07 556.44 C 150.45 555.65 153.80 554.75 157.15 553.88 C 163.09 556.80 169.05 554.33 175.87 554.02 C 176.68 553.51 177.49 552.98 178.29 552.45 Z" fill="#f0b0cf" />
<path d="M 355.39 567.26 C 355.73 569.71 354.97 572.20 357.05 573.95 C 358.65 575.54 360.57 573.84 362.28 573.38 C 366.31 574.33 369.98 576.06 373.70 577.81 C 374.58 578.91 375.48 580.01 376.38 581.11 C 378.69 579.04 381.21 576.17 384.19 575.15 C 387.32 574.49 390.83 575.11 393.87 575.92 C 396.94 576.88 399.24 580.12 402.69 579.38 C 406.60 578.76 410.34 579.17 414.20 579.88 C 414.72 579.61 415.23 579.33 415.75 579.05 C 416.74 579.49 417.73 579.93 418.72 580.37 C 418.97 581.31 419.21 582.24 419.45 583.17 C 420.79 583.05 422.14 582.93 423.48 582.82 C 424.17 583.49 424.87 584.14 425.60 584.76 C 427.24 584.21 428.57 582.62 429.87 581.52 C 432.06 582.27 434.41 583.65 436.74 583.78 C 438.71 583.26 440.60 581.95 442.33 580.90 C 442.87 582.18 443.42 583.47 443.96 584.77 C 442.87 586.42 441.80 587.53 442.36 589.67 C 443.98 591.15 446.34 590.44 448.36 590.57 C 449.78 593.44 451.53 596.13 452.97 598.97 C 452.13 601.44 450.74 603.73 449.64 606.09 C 451.37 605.62 453.09 605.16 454.82 604.73 C 454.33 606.38 453.82 608.01 453.30 609.65 C 452.17 609.55 451.04 609.46 449.91 609.36 L 449.78 610.63 L 452.72 610.94 C 452.05 611.53 451.38 612.12 450.71 612.71 C 450.48 613.87 450.25 615.02 450.01 616.18 C 451.70 616.77 453.38 617.36 455.07 617.94 C 454.72 619.14 454.37 620.34 454.03 621.54 C 456.71 623.12 458.55 623.33 458.75 626.95 C 454.52 627.90 452.32 630.66 449.22 633.34 C 448.11 632.98 446.98 632.66 445.84 632.39 C 444.25 633.60 442.94 635.23 441.56 636.67 C 443.31 638.97 447.39 641.99 446.78 645.09 C 444.23 647.09 441.44 648.15 438.50 649.39 C 438.01 650.53 437.52 651.68 437.04 652.83 C 435.89 653.01 434.75 653.19 433.60 653.37 C 432.76 654.37 431.92 655.37 431.07 656.37 C 429.67 655.02 428.30 653.65 426.94 652.26 C 425.78 654.76 425.55 656.28 425.81 659.05 C 424.77 658.16 423.72 657.20 422.55 656.49 C 419.25 655.99 414.87 656.62 411.78 655.10 C 410.72 654.16 409.98 652.92 408.98 651.88 C 405.08 652.38 401.73 655.04 397.90 656.10 C 395.52 660.83 390.51 664.18 386.09 666.83 C 379.76 667.28 375.93 661.54 371.29 658.28 C 369.38 657.96 368.01 657.48 366.36 656.48 C 363.59 656.08 361.09 655.49 358.45 654.57 C 356.73 653.86 354.59 655.15 353.04 655.88 L 352.17 656.76 L 351.30 657.93 C 351.30 659.12 351.31 660.31 351.34 661.50 C 348.48 661.52 345.78 662.19 342.97 662.55 C 339.88 661.30 336.45 660.21 333.67 658.36 C 331.81 655.57 332.72 651.88 333.34 648.84 C 333.00 648.77 332.65 648.70 332.31 648.63 C 330.93 650.38 329.52 652.08 328.05 653.75 C 326.12 653.20 324.20 652.63 322.27 652.07 C 321.49 646.85 319.98 641.48 318.15 636.55 C 316.89 633.58 312.85 629.51 314.14 626.17 C 315.58 622.10 319.13 621.86 321.67 619.09 C 320.75 616.47 319.28 614.00 318.03 611.52 C 320.93 608.24 321.25 604.41 322.71 600.45 C 322.38 599.27 322.09 598.09 321.85 596.90 C 324.70 594.88 328.30 593.50 330.58 590.55 C 331.85 588.89 331.50 587.22 331.38 585.29 C 330.90 581.76 331.58 578.67 329.48 575.56 C 330.57 574.08 331.22 572.49 333.15 571.98 C 336.96 571.04 340.80 570.98 344.50 569.48 C 348.01 568.11 351.66 567.62 355.39 567.26 Z" fill="#ff00c5" />
<path d="M 321.79 652.89 C 323.82 653.28 325.79 654.00 327.83 654.31 C 329.26 653.52 330.43 652.21 331.67 651.17 C 331.92 653.46 331.46 657.74 333.58 659.33 C 336.39 660.87 339.51 661.72 342.29 663.38 C 340.13 666.14 337.72 668.71 335.59 671.48 C 335.37 674.75 335.42 678.00 334.86 681.24 C 337.50 684.45 338.36 686.63 338.96 690.76 C 338.01 691.87 336.99 692.99 336.18 694.21 C 336.79 696.30 339.21 697.81 340.70 699.30 C 343.53 701.67 345.33 704.69 347.18 707.82 C 347.37 709.45 347.31 711.42 348.07 712.91 C 348.84 714.24 350.56 714.69 351.98 714.89 C 358.47 715.64 365.49 714.59 371.86 716.02 C 375.51 717.44 377.67 722.32 380.27 725.14 C 378.28 726.51 376.02 727.52 374.13 729.02 C 371.13 732.34 371.68 736.52 370.25 740.31 C 368.40 743.89 366.05 747.23 363.95 750.68 C 363.16 754.60 362.10 756.78 359.46 759.80 C 363.23 765.19 372.32 764.40 377.03 768.97 C 378.76 771.22 379.58 774.28 380.27 777.00 C 381.35 781.05 379.83 784.42 379.13 788.37 C 380.30 790.18 382.48 791.67 381.74 794.06 C 377.71 797.91 370.24 798.59 365.20 800.49 C 361.55 802.76 358.48 806.71 354.54 808.54 C 350.73 809.13 346.95 809.46 343.19 810.43 C 340.99 811.08 337.99 810.57 336.85 812.87 C 333.78 816.86 338.60 821.13 335.30 825.18 C 334.00 827.13 331.29 826.35 329.24 826.58 C 325.23 822.36 320.18 822.03 315.23 819.71 C 312.35 817.34 312.70 812.31 313.20 808.98 C 313.34 805.08 317.85 803.72 319.30 800.46 C 319.18 798.01 317.90 796.20 318.79 793.84 C 319.13 792.18 320.12 790.04 319.58 788.40 C 318.59 786.40 316.82 784.73 315.43 783.00 C 311.51 783.42 307.05 785.62 303.45 783.61 C 295.44 780.28 290.58 774.35 284.64 768.34 C 283.64 765.47 283.66 762.95 281.06 760.93 C 278.82 758.72 276.80 759.67 274.14 760.25 C 272.17 756.76 270.08 753.34 268.14 749.84 C 270.14 745.10 272.36 742.84 276.65 740.13 C 277.10 735.86 276.75 731.55 275.41 727.47 C 274.12 723.78 271.30 720.67 270.14 716.97 C 270.50 712.48 274.21 708.49 274.84 703.98 C 274.96 701.35 272.79 699.57 271.29 697.68 C 272.08 692.99 272.16 688.67 275.90 685.21 C 278.55 686.01 280.52 687.83 283.01 688.85 C 286.69 689.67 288.89 686.35 291.81 684.80 C 295.14 682.52 299.71 684.45 302.85 682.87 C 303.82 681.75 303.97 679.81 304.49 678.42 C 307.38 676.36 309.66 673.90 311.85 671.13 C 313.17 671.19 314.48 671.24 315.79 671.28 C 315.68 669.55 315.25 667.69 315.57 665.97 C 316.48 663.51 318.96 661.59 320.16 659.50 C 320.75 657.32 320.69 654.83 321.79 652.89 Z" fill="#c500ff" />
<path d="M 409.21 652.29 C 409.38 653.32 409.54 654.34 409.71 655.36 C 413.41 656.69 417.16 656.87 421.05 657.11 C 422.48 657.13 423.82 658.40 425.03 659.11 C 424.30 660.11 423.60 661.14 422.95 662.19 C 423.27 664.10 425.72 665.27 426.89 666.75 C 425.76 667.25 424.59 667.64 423.43 668.08 C 422.98 669.74 422.54 671.41 422.09 673.07 C 422.36 674.07 422.62 675.08 422.88 676.08 C 421.00 676.61 419.10 677.15 417.22 677.67 C 416.44 679.42 415.62 681.15 414.78 682.88 C 415.81 684.31 416.83 685.75 417.83 687.20 C 415.41 687.54 413.43 687.49 411.60 689.29 C 413.99 692.46 415.95 697.45 419.56 699.32 C 423.07 700.66 427.21 700.85 430.92 701.12 C 431.69 700.29 432.45 699.45 433.21 698.61 C 435.90 699.71 438.30 701.42 440.99 702.46 C 442.97 702.71 444.99 702.68 446.97 702.77 C 445.91 707.11 443.36 711.22 442.65 715.58 C 442.96 717.94 446.89 719.29 448.75 720.27 C 450.00 722.16 451.39 724.01 452.43 726.03 C 452.50 728.17 449.95 729.93 449.67 732.11 C 449.33 734.74 448.85 736.92 447.50 739.23 C 447.70 740.12 447.91 741.01 448.11 741.90 C 447.37 742.66 446.62 743.42 445.88 744.17 C 447.34 744.82 448.80 745.47 450.27 746.10 C 449.95 747.17 449.63 748.25 449.31 749.32 C 450.42 749.42 451.55 749.55 452.65 749.52 C 453.61 748.74 454.45 747.79 455.30 746.91 C 457.11 746.64 458.92 746.37 460.72 746.12 C 460.60 747.28 460.47 748.44 460.34 749.60 C 461.20 750.32 462.07 751.05 462.93 751.76 C 462.64 753.31 463.14 755.65 461.55 756.50 C 459.88 757.44 457.74 757.65 455.89 758.10 C 454.97 757.51 454.04 756.93 453.11 756.35 C 451.48 756.99 449.78 757.78 448.04 758.05 C 446.36 757.36 444.80 755.92 443.01 755.61 C 438.41 755.54 434.33 757.83 430.01 758.18 C 426.65 758.18 423.41 756.18 420.52 755.53 C 417.89 757.19 415.28 759.00 412.75 760.80 C 411.34 761.87 410.90 763.09 411.18 764.83 C 412.71 767.42 416.40 768.61 418.20 770.83 C 418.97 772.50 419.34 774.38 419.82 776.16 C 424.66 778.65 427.91 783.00 432.87 785.31 C 431.85 786.62 430.82 787.93 429.81 789.24 C 429.14 788.66 428.48 788.07 427.82 787.49 C 424.31 787.56 421.07 787.57 417.79 789.01 C 416.63 789.93 415.80 791.25 414.75 792.29 C 410.93 789.32 407.42 786.04 403.37 783.32 C 403.82 781.73 404.39 780.09 404.59 778.45 C 402.80 776.56 400.50 775.00 398.13 773.91 C 394.99 772.83 391.78 774.10 388.73 772.26 C 385.65 770.50 382.30 770.00 378.86 769.42 C 373.28 764.37 366.57 764.30 360.27 760.33 C 361.88 758.10 363.29 755.87 364.09 753.21 C 365.46 749.04 367.99 745.88 370.22 742.20 C 372.13 739.22 371.77 735.65 373.11 732.17 C 374.43 728.26 378.92 728.28 380.99 724.55 C 378.26 721.78 376.16 717.09 372.58 715.48 C 365.75 713.69 358.13 714.91 351.15 713.90 C 350.34 713.75 349.66 713.42 349.11 712.91 C 347.92 710.25 347.78 707.39 346.27 704.78 C 344.08 700.72 339.96 697.72 336.71 694.36 C 337.73 693.29 338.75 692.22 339.78 691.15 C 339.57 689.28 339.39 687.41 339.26 685.53 C 338.04 684.11 336.84 682.68 335.66 681.24 C 336.20 678.08 336.40 675.08 336.19 671.89 C 338.44 669.54 340.26 666.80 342.55 664.49 C 344.83 662.25 348.67 662.70 351.61 662.22 C 351.93 660.43 351.99 658.58 352.17 656.76 L 353.04 655.88 C 357.88 654.37 361.28 656.75 366.04 657.16 C 366.70 657.60 367.36 658.04 368.01 658.47 C 373.69 659.42 375.58 664.13 380.48 666.43 C 382.63 667.46 385.72 668.36 387.84 666.83 C 392.00 663.95 395.91 661.10 398.66 656.75 C 402.20 655.33 405.65 653.67 409.21 652.29 Z" fill="#4ce600" />
<path d="M 265.80 697.39 C 269.70 696.80 272.90 699.49 273.97 703.06 C 273.98 708.10 268.99 712.85 269.36 717.85 C 270.98 721.89 274.25 725.36 275.28 729.95 C 275.87 732.90 276.22 735.97 275.99 738.97 C 274.15 741.58 270.47 743.01 268.87 745.80 C 268.12 747.42 267.12 749.34 268.01 751.11 C 269.69 754.70 272.09 757.97 274.05 761.42 C 276.51 760.78 278.31 759.22 280.46 761.53 C 283.08 763.47 283.14 765.75 283.49 768.76 C 288.51 772.73 291.99 777.87 297.53 781.33 C 300.14 782.87 302.96 784.63 305.94 785.29 C 308.92 785.34 311.96 784.34 314.89 783.78 C 316.10 785.14 317.41 786.49 318.42 787.99 C 319.08 790.40 317.52 793.27 317.63 795.76 C 317.84 797.25 318.23 798.70 318.45 800.18 C 317.41 802.90 313.07 804.39 312.61 807.44 C 311.92 810.79 311.64 814.83 312.99 818.04 C 314.34 821.77 319.51 821.84 322.70 823.30 C 327.11 824.75 329.13 828.21 331.04 832.14 C 331.98 834.30 333.81 835.00 335.42 836.56 C 335.63 837.91 335.74 839.28 335.76 840.66 C 338.28 842.48 340.94 844.14 343.54 845.84 C 342.86 850.24 341.85 854.58 341.19 858.99 C 339.94 857.86 338.66 855.74 336.87 855.54 C 332.68 854.74 328.37 854.47 324.20 853.57 C 320.33 852.74 317.06 850.51 313.17 849.69 C 310.68 849.25 308.01 847.68 306.03 850.03 C 302.86 853.70 300.07 857.61 298.41 862.22 C 297.44 865.72 292.97 867.36 290.54 869.98 C 288.03 869.46 285.52 868.94 282.99 868.54 C 281.43 866.17 280.04 863.72 278.72 861.21 C 276.65 857.31 273.90 854.31 271.42 850.57 C 270.32 849.02 269.34 847.26 267.99 845.92 C 266.09 845.23 263.99 844.98 262.01 844.61 C 256.20 849.26 250.52 854.06 244.69 858.68 C 243.14 859.97 241.48 861.18 240.48 862.96 C 242.00 869.89 251.40 874.07 255.72 879.30 C 257.01 881.79 256.64 884.63 254.70 886.68 C 252.08 889.76 249.46 892.83 246.89 895.95 C 244.69 898.57 241.56 899.00 239.05 901.06 C 237.99 903.00 237.79 905.46 237.21 907.58 C 234.74 907.31 232.54 906.90 230.24 908.20 C 226.50 909.95 225.35 914.16 223.27 917.38 C 221.45 921.13 214.94 915.73 212.93 920.07 C 211.42 922.74 214.17 924.48 215.91 926.01 C 215.74 927.96 215.21 930.09 215.58 932.03 C 216.20 933.67 217.08 935.09 217.95 936.61 C 216.93 938.35 215.82 939.83 215.84 941.95 C 215.76 945.32 215.00 948.47 214.08 951.69 C 212.99 950.86 211.91 950.03 210.83 949.19 C 209.50 949.06 208.17 948.93 206.84 948.79 C 204.39 945.89 201.17 945.31 197.57 945.03 C 197.35 944.41 197.13 943.79 196.90 943.17 C 196.32 942.75 195.74 942.33 195.16 941.91 C 194.65 940.47 194.11 939.03 193.57 937.60 C 194.46 934.80 194.76 932.34 193.33 929.63 C 191.03 928.15 187.96 927.89 185.66 926.43 C 183.51 923.96 183.08 920.39 181.12 917.90 C 179.83 917.06 178.31 916.54 176.90 915.96 C 175.24 912.11 174.31 908.25 173.89 904.09 C 172.99 902.45 172.13 900.80 171.32 899.12 C 172.36 897.76 173.40 896.90 173.32 895.05 C 173.38 890.57 175.37 885.82 174.62 881.43 C 171.88 879.91 168.91 878.64 166.02 877.40 C 163.83 877.32 161.62 877.75 159.44 877.95 C 157.37 875.21 155.67 872.67 152.04 871.99 C 147.57 870.96 142.93 868.63 138.30 868.89 C 138.69 866.54 140.39 863.27 138.79 861.19 C 135.80 855.75 135.22 848.74 134.25 842.71 C 133.01 841.50 131.44 840.57 130.00 839.61 C 129.92 838.60 129.85 837.58 129.78 836.57 C 131.74 834.22 132.00 831.13 134.41 829.35 C 138.43 826.72 137.37 821.22 135.30 817.65 C 136.48 814.85 137.48 812.00 138.14 809.04 C 140.37 806.61 142.72 804.43 145.53 802.68 C 151.76 802.91 156.68 798.53 161.33 795.00 C 164.80 792.26 168.81 791.20 172.75 789.36 C 175.97 787.89 178.97 787.11 181.21 784.13 C 182.82 781.61 183.43 778.81 185.58 776.56 C 189.50 772.41 193.89 769.37 196.50 764.08 C 197.74 763.85 198.98 763.62 200.22 763.39 C 199.08 760.53 197.65 758.35 195.63 756.03 C 201.59 752.15 203.87 746.57 210.90 744.23 C 212.67 744.32 214.43 744.68 216.18 744.96 C 216.15 743.08 216.02 741.14 216.26 739.28 C 219.83 734.12 225.19 735.27 229.50 731.51 C 231.23 730.18 232.42 728.45 233.56 726.61 C 235.22 723.91 237.29 721.79 239.32 719.35 C 244.17 718.49 248.90 716.80 252.73 713.64 C 254.25 711.29 254.52 708.73 256.91 706.94 C 260.38 704.18 263.01 700.78 265.80 697.39 Z" fill="#b2b2b2" />
<path d="M 465.09 753.37 C 466.27 753.99 467.20 755.16 468.14 756.11 C 470.69 756.79 473.23 757.51 475.77 758.25 C 478.09 762.81 478.47 766.66 478.37 771.72 C 480.22 771.60 482.07 771.45 483.91 771.27 C 485.59 772.20 487.27 773.12 488.95 774.03 C 494.78 771.00 499.70 767.44 506.48 766.84 C 507.18 770.12 507.61 773.44 507.95 776.78 C 507.42 777.26 506.90 777.74 506.38 778.22 C 506.20 779.04 506.03 779.87 505.84 780.69 C 505.01 781.53 503.28 782.24 503.25 783.55 C 504.84 785.30 506.69 786.82 508.41 788.45 C 509.23 788.70 510.06 788.95 510.88 789.21 C 511.42 790.29 511.91 791.44 512.58 792.45 C 515.70 794.63 519.26 794.70 520.40 798.94 C 519.55 801.13 518.19 803.04 517.28 805.19 C 518.44 807.79 520.15 810.18 521.59 812.64 C 524.72 809.40 525.84 805.37 530.06 803.10 C 532.52 804.82 534.70 806.94 537.21 808.57 C 540.80 808.61 544.38 807.65 548.00 807.78 C 551.53 807.92 555.06 808.76 558.54 809.31 C 558.90 814.89 557.83 818.69 555.05 823.45 C 557.66 827.58 560.26 831.05 564.74 833.28 C 565.82 834.37 566.84 835.75 568.18 836.51 C 571.91 836.61 575.12 835.10 578.58 837.28 C 582.01 839.61 584.26 843.80 585.92 847.50 C 586.40 848.75 587.80 849.46 588.81 850.32 C 589.01 851.59 589.21 852.86 589.40 854.12 C 591.46 853.95 593.57 853.80 595.60 853.45 C 595.21 852.44 594.78 851.45 594.32 850.47 C 595.48 849.42 596.68 848.39 597.86 847.35 C 599.59 847.26 601.40 847.29 603.10 846.93 C 604.69 845.36 605.47 842.92 606.90 841.16 C 608.68 841.24 610.10 842.48 611.57 843.37 C 610.38 846.18 610.14 849.02 610.03 852.03 C 608.70 851.83 607.36 851.63 606.03 851.43 C 605.69 853.86 605.40 856.31 605.09 858.75 C 603.53 858.56 601.97 858.38 600.41 858.19 C 600.08 859.26 599.75 860.32 599.42 861.39 C 598.60 861.67 597.78 861.96 596.96 862.24 C 596.19 865.24 595.35 867.52 596.76 870.49 C 596.26 872.87 595.30 875.35 595.30 877.79 C 595.82 880.13 597.71 882.30 599.11 884.20 C 598.72 885.73 598.32 887.26 597.94 888.80 C 602.67 888.08 607.44 887.71 612.16 886.93 C 612.54 887.81 612.92 888.70 613.30 889.59 C 614.07 889.82 614.84 890.04 615.61 890.27 C 615.70 892.48 615.65 894.73 616.00 896.91 C 617.07 898.95 619.55 900.30 621.43 901.53 C 621.94 903.04 622.45 904.56 622.96 906.07 C 622.60 907.19 622.24 908.31 621.89 909.43 C 623.25 909.46 624.61 909.50 625.98 909.54 C 627.37 910.67 628.76 911.80 630.15 912.93 C 629.33 916.26 629.40 919.62 629.03 923.00 C 627.94 928.45 625.71 933.28 621.91 937.37 C 620.03 936.03 618.11 934.74 616.16 933.50 C 616.63 928.66 616.53 923.01 614.48 918.51 C 612.91 916.30 609.73 918.21 607.58 918.57 C 606.30 917.81 604.72 916.22 603.16 916.31 C 600.87 916.57 599.41 919.43 597.93 920.96 C 596.46 918.30 595.08 915.58 593.54 912.95 C 594.34 911.08 595.41 909.16 595.78 907.15 C 594.63 904.34 592.94 901.36 590.67 899.30 C 586.93 896.57 582.41 895.88 577.88 896.03 C 577.23 895.10 576.58 894.18 575.94 893.25 C 573.32 893.69 571.59 894.29 569.52 895.96 C 567.17 896.02 564.57 895.59 562.29 896.13 C 558.95 898.25 555.49 900.14 552.10 902.17 C 549.87 903.65 550.49 906.39 550.45 908.68 C 548.16 912.64 546.28 916.60 542.86 919.75 C 540.98 923.57 539.52 927.33 536.58 930.50 C 532.57 930.28 530.46 930.69 526.95 932.57 C 525.26 931.49 523.57 930.41 521.88 929.33 C 520.00 930.39 518.20 931.14 517.10 933.13 C 515.70 935.29 515.89 937.50 515.69 939.97 C 512.38 942.67 508.80 943.00 504.84 944.04 C 498.18 947.51 491.76 951.35 485.58 955.63 C 482.67 957.74 480.93 960.81 478.41 963.40 C 474.92 966.97 470.77 969.39 466.28 971.48 C 459.85 968.98 452.99 970.93 446.81 968.22 C 441.32 966.00 435.42 965.73 429.91 963.54 C 429.13 961.78 428.80 958.97 426.73 958.33 C 422.60 956.56 417.44 956.68 413.02 956.67 C 407.79 956.52 403.20 958.31 398.01 956.93 C 394.43 956.02 391.49 957.41 388.00 957.78 C 385.34 957.78 382.59 956.73 380.04 956.03 C 383.72 952.73 387.35 950.15 389.40 945.45 C 390.79 942.10 392.35 938.59 392.88 934.99 C 393.03 932.98 392.24 929.65 389.89 929.22 C 387.29 928.38 384.62 927.63 381.91 927.22 C 379.91 926.85 377.73 928.09 377.25 930.10 C 376.34 934.14 375.40 938.13 374.06 942.06 C 372.59 937.08 368.73 934.70 365.97 930.50 C 367.89 928.34 370.56 926.18 370.53 923.02 C 370.02 919.87 368.28 917.10 368.95 913.98 C 369.36 910.59 370.30 907.64 369.53 904.19 C 368.94 901.84 368.45 899.16 365.59 898.76 C 361.69 898.08 358.14 897.39 354.90 894.97 C 350.58 896.69 346.66 895.70 342.23 895.24 C 342.32 890.67 342.96 886.49 340.96 882.19 C 343.34 877.12 342.94 871.85 343.50 865.99 C 343.75 863.68 342.66 862.00 341.79 859.98 C 342.57 855.09 343.68 850.26 344.48 845.37 C 341.85 843.75 339.22 842.14 336.67 840.41 C 336.50 838.93 336.48 837.35 336.05 835.92 C 334.98 834.94 333.69 834.15 332.48 833.34 C 331.54 831.43 330.62 829.50 329.68 827.58 C 332.16 827.09 334.75 827.76 336.21 825.25 C 338.23 822.33 336.67 819.15 336.58 815.91 C 336.82 814.45 337.89 813.13 338.61 811.86 C 344.00 811.33 349.15 809.83 354.56 809.35 C 359.51 807.51 363.08 801.20 368.42 800.22 C 373.93 798.95 379.11 797.89 383.31 793.78 C 382.27 791.79 381.02 789.86 380.17 787.77 C 380.27 785.06 381.67 782.15 381.39 779.20 C 381.02 776.11 379.84 773.05 378.99 770.07 C 382.45 770.74 385.51 771.65 388.67 773.20 C 391.52 774.61 394.24 773.89 397.28 774.47 C 399.64 775.34 401.82 776.88 403.68 778.57 C 403.60 780.26 402.92 781.98 402.44 783.59 C 406.27 786.44 409.87 789.48 413.47 792.60 C 415.65 793.96 416.98 791.15 418.08 789.76 C 421.23 788.71 423.98 788.21 427.31 788.28 C 428.19 788.97 429.07 789.66 429.96 790.34 C 431.32 788.59 432.70 786.86 434.07 785.12 C 428.83 782.85 425.64 778.30 420.61 775.76 C 420.05 773.90 419.63 771.88 418.71 770.16 C 416.71 767.93 413.10 766.85 411.70 764.01 C 412.13 762.60 412.63 761.71 413.91 760.93 C 416.27 759.42 418.60 757.91 420.81 756.17 C 424.51 758.28 429.38 760.07 433.59 758.53 C 436.93 757.38 440.13 756.66 443.67 756.37 C 444.98 757.21 446.41 758.70 448.01 758.90 C 449.61 758.62 451.20 758.01 452.75 757.51 C 455.02 758.52 457.07 759.09 459.55 758.39 C 462.18 757.92 463.35 755.14 465.09 753.37 Z" fill="#bda52d" />
<path d="M 196.97 959.95 C 198.52 960.38 199.96 961.14 201.39 961.86 C 198.46 962.00 195.58 961.91 192.66 961.63 C 194.02 961.00 195.47 960.09 196.97 959.95 Z" fill="#c3c3c3" />
<path d="M 207.05 961.26 C 208.48 960.63 209.67 960.62 210.62 961.22 C 210.80 962.96 207.65 962.33 207.05 961.26 Z" fill="#8b8b8b" />
<path d="M 275.33 1116.09 C 276.34 1114.78 278.61 1116.24 276.81 1117.27 C 275.67 1117.38 275.18 1116.99 275.33 1116.09 Z" fill="#c1c1c1" />
</svg>