<svg xmlns="http://www.w3.org/2000/svg" xmlns:xlink="http://www.w3.org/1999/xlink" id="body_1" width="720" height="646">

        <g transform="matrix(0.49965304 0 0 0.49961334 0 0)">


                <path transform="matrix(1.333025 0 0 1.3329897 0 0)"  d="M491.68 23.81C 495.58 24.58 495.89 30.31 497.88 33.27C 499.16 36.7 503.33 34.82 506.06 35.1C 512.66 34.54 517.77 38.11 522.51 42.2C 523.93 41.57 525.35 40.94 526.76 40.3C 527.27 40.65 527.77 41.01 528.28 41.36C 528.05 43.78 527.44 46.49 527.95 48.88C 529.39 51.39 531.37 53.45 532.63 56.1C 534.08 59.14 535.18 62.36 536.45 65.49C 534.57 69.37 531.56 73.48 532.97 78.01C 534.3 82.96 535.73 87.77 536.51 92.87C 537.07 93.67 537.86 94.25 538.88 94.6C 542.03 92.17 544.98 89.48 548.2 87.15C 549.83 86.08 551.25 84.9 553.32 85.54C 559.46 87.26 564.45 94.64 571.04 95.9C 575.45 94.4 579.17 90.59 583.09 88.09C 591.16 82.75 600.03 78.55 608.99 74.95C 614.27 73.41 619.73 72.8 624.98 71.04C 629.62 69.58 631.98 72.65 635.3 75.12C 634.15 78.88 632.71 82.52 631.43 86.23C 630.73 88.2 631.56 89.97 632.2 91.82C 633.57 95.21 635.19 98.5 636.64 101.85C 633.89 103.75 631.17 105.69 628.49 107.69C 628.87 109.8 629.24 111.92 629.61 114.04C 626.5 115.93 622.94 117.78 620.36 120.38C 617.51 123.03 618.65 128.09 621.56 130.25C 625.38 133.24 629.57 135.7 633.33 138.77C 633.25 140.51 633.27 142.23 633.38 143.96C 638.05 145.55 643.19 145.68 648.03 146.68C 647.53 150.72 647.1 154.77 646.75 158.83C 648.33 160.08 649.87 161.34 651.52 162.52C 656.37 166.43 662.83 164.83 668.95 167.2C 670.96 171.07 673.7 174.49 675.73 178.33C 676.97 180.42 676.13 183.25 675.4 185.4C 673.84 189.81 670.8 192.52 668.11 196.13C 665.62 199.17 666.01 204.19 665.65 207.93C 671.77 214.73 678.54 221.38 683.49 228.99C 686.67 226.87 689.9 224.84 693.16 222.83C 694.85 215.02 698.91 208.47 703.52 202.07C 709.72 204.22 715.96 204.15 722.42 203.88C 722.94 205.88 723.44 207.88 723.97 209.87C 726.26 210.55 728.86 211.02 730.95 212.17C 732.65 213.79 733.56 216.4 734.67 218.43C 738.46 217.31 742.24 215.95 746.12 215.16C 749.46 214.45 752.52 214.9 756.01 214.71C 761.63 214.58 766.3 212.12 771.98 212.46C 776.43 212.71 780.78 212.8 785.23 212.59C 788.23 212.36 790.72 213.47 793.43 214.54C 798.37 216.68 804.7 216.04 810.04 216.24C 809.69 218.07 809.24 219.87 808.91 221.7C 809.95 224.68 810.75 227.36 809.92 230.51C 808.45 236.84 807.49 243.45 805.26 249.57C 803.45 254.33 797.92 257.21 796.52 261.93C 796.17 267.98 802.17 272.3 806.43 275.58C 807.4 280.21 807.88 286.26 810.85 290.08C 813.65 293.33 817.72 296.23 821.97 297.1C 826.04 297.23 829.49 295.98 833.48 297.69C 833.7 300.77 833.42 304.57 834.77 307.39C 838.06 311.42 842.36 313.89 847.26 315.5C 849.01 313.53 850.91 310.71 853.46 309.74C 856.5 308.55 859.88 307.99 863.07 307.31C 865.85 310.3 868.64 312.64 872.09 314.81C 875.07 316.59 876.96 319.31 879.49 321.57C 882.07 322.4 885.69 321.51 888.4 321.26C 889.69 324.91 890.77 328.94 892.78 332.26C 893.89 334.59 897.29 335 899.44 335.95C 899.88 339.63 900.27 343.3 900.5 347C 900.73 348.78 900.65 350.56 902.35 351.63C 905.92 353.97 910.23 355.27 914.13 356.98C 913.29 360.49 912.02 363.94 911.17 367.45C 914.42 369.01 917.39 370.56 921.08 370.7C 926.45 370.96 932.2 370.29 937.14 368.08C 939.12 367.33 940.21 364.93 941.42 363.29C 939.32 362.09 936.33 361.19 934.76 359.27C 934.84 358.05 934.76 356.91 934.55 355.69C 937.39 354.61 940.12 353.57 942.35 351.43C 944.15 350.03 945.43 348.12 947.93 348.28C 954.02 348.16 959.73 348.86 965.04 345.04C 969.13 341.7 971.17 335.5 974.49 331.42C 976.17 329.38 978.72 327.85 980.91 326.38C 984.59 329.78 988.22 333.24 991.69 336.87C 989.22 340.39 986.76 343.43 986.8 347.99C 986.74 352.04 989.42 355.32 990.33 358.93C 990.51 360.56 988.26 361.77 986.87 361.86C 983.55 361.83 980.13 360.32 977.03 359.2C 975.57 360.88 973.74 362.66 972.84 364.71C 971.07 369.06 970.9 374.52 968.63 378.62C 967.8 380.19 965.97 380.7 964.44 381.32C 960.24 382.73 956.13 383.89 952.42 386.41C 946.53 390.31 940.71 395.73 938.74 402.73C 936.53 409.83 936.97 416.71 937.06 424.01C 937.36 430.23 932.87 433.92 932.35 440.08C 932 444.8 931.35 450.66 934.26 454.71C 938.27 460.78 943.42 467.77 944.94 475.01C 945.67 480.34 942.87 486.31 941.65 491.48C 946.72 492.48 950.53 490.83 955.14 489.07C 963 486.1 969.77 489.79 978.05 488.23C 982.87 487.5 987.15 485.03 991.87 484.1C 995.97 485.94 996.52 492.66 998.99 496.08C 1000.67 497.66 1003.09 498.55 1005.13 499.59C 1005.83 503.36 1006.47 506.97 1006.24 510.83C 1006.18 513.08 1005.74 515.53 1006.19 517.72C 1007.56 521.15 1011.62 523.35 1013.12 526.72C 1013.9 529.49 1013.93 532.52 1014.17 535.39C 1017.4 535.47 1020.34 535.19 1023.46 534.33C 1025.61 539.5 1029.12 544.5 1030.22 550C 1028.93 554.34 1025.68 558.21 1023.42 562.12C 1027.78 564.08 1031.13 564.77 1035.93 564.73C 1039.52 564.57 1041.4 566.95 1044.12 568.87C 1047.39 571.45 1051.09 573.17 1054.83 574.95C 1052.02 580.28 1049.48 585.81 1046.42 591.01C 1049.03 596.19 1053.19 602 1052.31 608.03C 1051.59 614.71 1046.9 618.5 1044.93 624.8C 1043.15 630.67 1042.2 637.7 1039.16 643.41C 1037.62 646.14 1034.4 648.13 1032.04 650.14C 1026.94 654.46 1023.08 659.88 1023.31 666.85C 1022.4 667.87 1021.46 668.88 1020.54 669.9C 1018.84 666.51 1017.33 662.86 1015.15 659.76C 1012.9 657.74 1009.63 656.6 1006.88 655.35C 1005.89 655.67 1004.89 655.96 1003.89 656.28C 999.68 653.23 994.15 651.06 990.99 647.01C 988.5 643.95 986.03 640.87 983.42 637.9C 987.76 638.69 991.96 639.69 996.17 640.99C 996.79 636.63 997.5 632.3 998.59 628.03C 999.04 625.81 999.72 623.38 999.49 621.11C 998.2 617.24 994.95 614.12 994.72 609.9C 994.6 606.83 994.92 603.66 995.08 600.59C 992.03 600.46 988.89 600.22 985.84 600.55C 981.73 601.05 978.07 605.12 974.01 605.18C 969.68 603.85 966.96 598.56 962.99 596.24C 961.24 597.49 959.42 598.76 959.13 601.06C 958.76 604.44 959.57 608.12 960.09 611.46C 957 612.33 953.22 613.99 950.05 613.09C 945.69 612.03 941.41 610.75 937.01 609.86C 935.76 609.48 933.71 609.26 932.95 608.08C 931.63 604.99 931.64 601.35 930.39 598.23C 929.46 596.38 928.21 594.76 927.26 592.92C 925.89 590.31 925.95 587.02 924.62 584.41C 921.87 582.15 917.62 581.52 914.26 580.49C 912.9 581.37 911.49 582.19 910.13 583.08C 908.5 582.56 906.88 582.03 905.24 581.53C 905.32 580.51 905.36 579.48 905.35 578.45C 907.19 576.13 908.9 573.72 910.18 571.04C 913.45 569.06 916.86 568.79 920.59 568.58C 920.14 566.22 919.95 563.95 919.94 561.56C 922.18 559.1 925.66 556.83 924.86 553.01C 923.7 549.82 920.29 547.39 918.27 544.68C 915.57 541.51 915.05 537.44 912.87 534.19C 910.73 531.93 907.69 530.4 904.91 529.08C 900.61 527.1 896.53 527.55 891.97 526.83C 888.6 526.38 885.36 525.14 882.01 524.9C 879.16 525.1 876.76 526.07 874.09 526.88C 871.4 524.88 868.73 522.87 866.04 520.87C 865.54 517.91 864.56 515.1 863.48 512.3C 859.38 515.31 856.45 520.67 851.89 522.82C 842.95 525.25 832.83 526.26 823.86 523.44C 822.21 525.49 820.54 527.83 818.5 529.5C 816.32 531.14 813.52 532.12 811.1 533.42C 807.5 535.26 805.13 538.04 801.08 539.03C 797.84 540.14 793.69 540.58 791.97 543.98C 790.26 546.67 791.81 549.42 792.44 552.21C 790.41 555.34 788.59 558.6 786.7 561.81C 784.62 565.36 781.9 568.23 779.38 571.44C 776.89 574.62 775.02 578.04 773.06 581.55C 772.29 582 771.52 582.45 770.76 582.9C 766.34 572.35 761.22 562.14 756.56 551.7C 739.27 514.66 722.22 477.5 705.05 440.4C 699.91 442.45 694.95 444.92 689.83 447.01C 686.53 448.38 683.51 447.48 680.17 446.82C 670.74 444.52 661.33 443.26 652.23 439.68C 639.4 434.89 626.32 430.96 613.23 426.98C 605.42 424.88 597.39 423.63 589.53 421.72C 581.57 419.99 573.75 416.57 565.97 414.12C 560.35 412.3 553.7 413.92 547.92 412.86C 539.84 411.08 532.4 404.04 524 404.66C 506.18 404.78 488.37 404.72 470.55 404.65C 469.91 406.22 469.4 407.82 468.83 409.41L468.83 409.41L468.75 409.65C 468.32 411.23 468.21 412.89 467.83 414.49C 467.44 414.88 467.06 415.27 466.68 415.66C 467.26 419.9 466.91 423.31 465.38 427.3C 459.51 424.25 453.52 421.27 447.33 418.94C 444.65 417.77 442.62 419.27 440.21 420.35C 433.04 424.25 425.89 428.17 418.6 431.84C 414.69 433.81 410.93 435.61 407.66 438.59C 404.02 441.92 400.76 445.66 397.26 449.15C 398.89 455.33 400.23 461.54 401.1 467.88L401.1 467.88L397.78 467.62C 389.74 466.43 381.32 465.88 373.22 466.7C 368.21 467.8 362.6 469.76 358.03 472.08C 352.73 475.23 347.8 479.03 342.81 482.63C 343.25 478.93 344.56 475.58 346.21 472.27C 349 466.54 350.57 460.39 349.98 453.99C 348.63 441.52 342.92 429.65 344.26 416.96C 344.57 412.23 346.84 407.73 346.87 403.04C 345.88 397.86 341.1 393.12 338 388.99C 335.25 385.69 333.66 381.88 331.8 378.07C 329.87 374 326.23 371.79 322.64 369.35C 318.73 366.87 315.01 364.23 311.37 361.36C 312.32 359.12 313.26 356.89 314.2 354.65C 311.79 354.1 309.07 353.27 306.59 353.56C 302.34 353.97 298.53 355.26 294.22 354.57C 289.96 353.8 285.83 352.36 281.63 351.34C 281.91 348.29 282.28 345.17 282.24 342.11C 282.12 337.65 280.6 333.53 280.22 329.04C 279.84 326.44 279.97 323.43 278.94 321.01C 276.82 317.79 272.5 315.57 271.54 311.73C 270.06 305.85 268.65 299.08 269.96 293.09C 270.63 289.74 271.55 286.44 272.38 283.13C 269.27 283.11 266.07 283.23 263 282.8C 261.79 282.57 260.52 282.35 260.13 281C 259.28 278.67 259.09 276.03 258.68 273.6C 253.61 275.77 248.21 278.64 242.78 279.6C 236.06 280.72 229.09 280.66 222.35 281.55C 217.48 282.22 213.14 284.07 208.36 285.04C 204.69 285.83 201.29 286.13 197.91 287.96C 193.04 290.6 189.4 294.5 183.78 295.8C 178.31 296.99 172.02 296.7 167.02 294C 160.42 290.63 152.4 287.06 144.86 287.27C 137.24 287.55 132.43 292.42 126.91 296.95C 127.21 299.96 127.78 303.32 127.31 306.32C 124.88 307.87 121.69 308.59 119.48 310.43C 117.63 312.29 116.34 314.76 114.79 316.87C 111.95 320.96 107.8 323.79 104.09 327.11C 101.61 329.21 99.15 331.74 96.27 333.26C 93.21 334.64 89.32 334.43 86.03 335.09C 82.69 335.55 79.43 336.85 76.08 337.06C 74.87 336.55 73.7 335.95 72.56 335.26C 69.09 333.09 65.32 331.8 61.48 330.46C 57.54 329.07 54.59 326.12 52.2 322.79C 49.41 319.62 53.28 314 51.7 310.28C 50.77 308.11 49.21 306.07 47.39 304.56C 44.5 302.37 40.53 301.57 37.61 299.47C 34.53 296.85 33.1 292.01 31.69 288.34C 30.31 284.31 28.24 280.66 25.94 277.09C 31.7 277.02 37.68 277.38 43.38 276.45C 47.09 276.05 49.33 271.9 51.09 269.04C 55.35 261.75 54.82 253.47 52.17 245.73C 51.37 242.71 49.61 239.32 51.22 236.29C 53.28 231.91 56.05 227.9 58.17 223.55C 63.76 222.33 69.34 222.29 75.02 222.15C 83.58 221.83 90.44 217.87 98.6 216.49C 103.48 215.9 108.78 217.52 113.61 218.24C 118.17 212.7 124.02 209.03 129.33 204.33C 133.48 200.71 137.94 197.73 141.83 193.8C 144.45 191.28 146.65 188.6 150.15 187.29C 157.67 184.66 164.98 181.99 173.05 181.76C 178.66 181.45 181.45 177.37 186.6 175.89C 190.85 174.68 195.38 174.41 199.37 172.38C 203.15 170.42 206.42 167.18 208.52 163.48C 210.24 160.43 210.34 156.5 208.45 153.5C 206.91 150.7 203.99 148.12 203.21 145.02C 202.06 136.07 206.59 128.57 205.89 119.98C 205.51 115.31 204.78 110.69 204.56 106.01C 204.39 96.4 198.92 89.54 196.9 79.93C 199.9 80.14 203.07 80.32 206.02 80.98C 210.86 81.98 214.94 83.93 219.97 83.95C 224.55 84.05 228.81 82.71 233.3 82.46C 235.58 82.26 237.34 83.63 239.16 84.79C 243.44 87.74 248.06 91.18 252.93 93.07C 256.72 94.5 260.9 94.31 264.65 95.44C 267.59 96.79 269.96 99.54 272.56 101.45C 276.28 104.47 280.99 106.41 284.39 109.72C 285.56 110.86 285.81 111.95 285.52 113.54C 284.65 117.71 282.41 121.73 280.67 125.61C 283.38 127.47 286.01 129.17 287.99 131.87C 289.56 133.77 291.05 136.51 293.4 137.45C 297.44 139.29 301.41 140.14 304.96 143.04C 310 146.86 312.6 154.05 318.25 156.7C 321.5 158.55 325.71 155.24 328.61 153.8C 329.08 151.84 329.5 149.88 329.99 147.93C 335.73 146.64 341.21 144.82 346.71 142.73C 352.84 140.1 360.18 143.08 366.95 143.14C 369.52 145.62 372.17 147.35 375.37 148.92C 375.74 146.32 375.62 143.19 376.67 140.77C 379.74 138.25 383.02 136.14 385.6 133.04C 381.14 130.17 376.14 128.72 371.42 126.44C 365.65 122.77 362.69 115.05 357.07 111.06C 352.26 107.84 345.84 107.07 341.1 103.88C 339.29 102.72 339.24 100.99 338.92 99.06C 338.24 93.75 338.38 88.07 335.68 83.27C 334.01 80.13 330.2 78.48 327.27 76.7C 321.89 73.74 318.31 69.39 313.88 65.13C 312.05 63.12 309.68 61.12 310.21 58.11C 310.79 54.54 313.19 51.18 315.67 48.63C 318.57 45.31 325.05 46.92 328.45 44.45C 332.5 41.1 335.08 35.5 339.36 32.3C 340.69 31.3 342.23 30.92 343.87 31.28C 346.73 32.72 348.74 36.08 351.99 37.02C 355.91 38.3 360.02 38.98 364 40.06C 369.34 41.34 374.13 43.05 379.69 41.72C 386.28 40.09 392.69 39.02 398.77 35.82C 402.78 33.74 406.7 34.16 411.05 33.75C 413.85 33.54 416.52 32.87 419.23 32.17C 423.86 35.37 428.55 40.78 434.11 42.02C 439.63 43.11 445.49 37.32 450.79 36.57C 454 37.61 456.73 40.25 459.97 40.98C 463.6 41.46 467.4 41.06 471.03 40.71C 476.52 40.37 481.71 37.25 486 34.01C 489.22 31.65 489.84 27.27 491.68 23.81z" stroke="none" fill="#C7D3F2" fill-rule="nonzero" data-id="Bangante" data-name="Banganté"/>

                <path transform="matrix(1.333025 0 0 1.3329897 0 0)"  d="M258.68 273.6C 259.09 276.03 259.28 278.67 260.13 281C 260.52 282.35 261.79 282.57 263 282.8C 266.07 283.23 269.27 283.11 272.38 283.13C 271.55 286.44 270.63 289.74 269.96 293.09C 268.65 299.08 270.06 305.85 271.54 311.73C 272.5 315.57 276.82 317.79 278.94 321.01C 279.97 323.43 279.84 326.44 280.22 329.04C 280.6 333.53 282.12 337.65 282.24 342.11C 282.28 345.17 281.91 348.29 281.63 351.34C 285.83 352.36 289.96 353.8 294.22 354.57C 298.53 355.26 302.34 353.97 306.59 353.56C 309.07 353.27 311.79 354.1 314.2 354.65C 313.26 356.89 312.32 359.12 311.37 361.36C 315.01 364.23 318.73 366.87 322.64 369.35C 326.23 371.79 329.87 374 331.8 378.07C 333.66 381.88 335.25 385.69 338 388.99C 341.1 393.12 345.88 397.86 346.87 403.04C 346.84 407.73 344.57 412.23 344.26 416.96C 342.92 429.65 348.63 441.52 349.98 453.99C 350.57 460.39 349 466.54 346.21 472.27C 344.56 475.58 343.25 478.93 342.81 482.63C 341.58 490.75 339.94 498.43 341.25 506.69C 336.69 510.36 332.36 514.23 327.49 517.52C 321.1 521.97 314.26 525.04 307.15 528.13C 302.89 529.95 298.87 532.1 294.53 533.72C 288.46 536.16 282.72 537.29 277.42 541.41C 268.43 547.98 263.61 557.46 254.61 563.73C 251.29 566.06 249.83 569.31 247.39 572.38C 243.39 577.38 238.39 580.62 233.38 584.42C 230.27 586.73 229.07 590.16 229.18 593.94C 229.01 601.48 232.8 608.84 231.25 616.06C 230.17 619.74 227.25 622.94 225.31 626.22C 221.98 631.85 217.71 636.71 214.81 642.58C 210.56 641.35 206.3 640.27 201.96 639.44C 200.15 643.43 197.98 647.22 196.01 651.13C 194.26 654.68 194.04 658.21 193.22 662.01C 192.39 666.13 190.57 669.91 189.16 673.91C 186.57 680.82 185.74 687.87 182.69 694.65C 177.78 705.64 172.3 716.15 163.8 724.83C 162.88 725.61 161.75 726.74 160.44 726.59C 158.8 725.73 157.32 724.48 155.83 723.38C 158.39 716.44 164.08 712.14 166.07 704.96C 168.26 697.49 168.37 688.86 166.77 681.27C 165.55 675.64 161.4 672.36 157.7 668.33C 153.52 663.84 149.02 659.53 145.3 654.65C 142.46 650.94 140.92 646.65 140.67 641.99C 140.66 640.66 140.46 638.68 141.57 637.71C 144.56 634.63 148.32 632.42 151.22 629.2C 154.77 625.34 157.85 620.47 157.05 614.99C 156.21 609.17 151.37 603.89 149.77 598.3C 148.86 594.88 149.73 590.78 150.27 587.35C 151.3 581.61 151.54 575.67 153.37 570.28C 154.33 567.13 155.65 564.39 155.27 561.03C 154.72 555.86 153.92 550.6 152.41 545.63C 151.49 542.89 149.81 539.16 147.03 537.9C 142.66 537.11 137.56 538.94 133.15 537.66C 130.29 536.7 127.69 534.52 124.94 533.28C 121.07 531.5 117.41 532.12 113.28 532.03C 111.01 529.62 109.69 526.17 108.16 523.25C 104.5 525.42 100.07 529.72 95.65 529.61C 89.19 528.76 82.79 527.57 76.32 526.8C 73.46 526.37 70.58 526.24 67.69 526.17C 61.72 526.05 56.01 525.1 50.09 524.4C 52.08 520.19 54.54 515.66 55.22 511.03C 56.01 505.88 54.84 501.08 54.69 495.98C 54.6 492.01 55.78 488.1 56.02 484.05C 54.64 480.11 49.73 477.1 49.09 473C 49.22 465.16 56.05 457.76 56.69 449.86C 57.07 444.93 56.97 439.98 57.39 435.05C 58.11 421.6 60.03 408.39 61.5 395C 62.03 389.95 63.25 385.05 64.13 380.07C 64.84 376.09 63.77 372.31 63.91 368.45C 64.76 364.77 67.72 361.48 68.33 357.61C 68.92 353.46 68.33 349.18 69.03 344.99C 69.54 341.51 71.1 338.43 72.56 335.26C 73.7 335.95 74.87 336.55 76.08 337.06C 79.43 336.85 82.69 335.55 86.03 335.09C 89.32 334.43 93.21 334.64 96.27 333.26C 99.15 331.74 101.61 329.21 104.09 327.11C 107.8 323.79 111.95 320.96 114.79 316.87C 116.34 314.76 117.63 312.29 119.48 310.43C 121.69 308.59 124.88 307.87 127.31 306.32C 127.78 303.32 127.21 299.96 126.91 296.95C 132.43 292.42 137.24 287.55 144.86 287.27C 152.4 287.06 160.42 290.63 167.02 294C 172.02 296.7 178.31 296.99 183.78 295.8C 189.4 294.5 193.04 290.6 197.91 287.96C 201.29 286.13 204.69 285.83 208.36 285.04C 213.14 284.07 217.48 282.22 222.35 281.55C 229.09 280.66 236.06 280.72 242.78 279.6C 248.21 278.64 253.61 275.77 258.68 273.6z" stroke="none" fill="#CCFCF8" fill-rule="nonzero" data-id="Bazou" data-name="Bazou"/>

                <path transform="matrix(1.333025 0 0 1.3329897 0 0)"  d="M470.55 404.65C 488.37 404.72 506.18 404.78 524 404.66C 532.4 404.04 539.84 411.08 547.92 412.86C 553.7 413.92 560.35 412.3 565.97 414.12C 573.75 416.57 581.57 419.99 589.53 421.72C 597.39 423.63 605.42 424.88 613.23 426.98C 626.32 430.96 639.4 434.89 652.23 439.68C 661.33 443.26 670.74 444.52 680.17 446.82C 683.51 447.48 686.53 448.38 689.83 447.01C 694.95 444.92 699.91 442.45 705.05 440.4C 722.22 477.5 739.27 514.66 756.56 551.7C 761.22 562.14 766.34 572.35 770.76 582.9C 772.4 585.71 774.66 587.84 776.98 590.09C 775.78 592.12 774.05 594.2 773.46 596.5C 773.2 598.92 773.49 601.42 773.46 603.86C 770.1 602.8 766.83 601.58 763.54 600.32C 763.53 603.72 763.54 607.12 763.59 610.52C 760.02 615.04 756.99 620.05 754.04 624.98C 751.34 629.38 750.42 634.28 747.56 638.56C 745.14 642.13 742.72 645.69 740.37 649.31C 736.22 648.96 734.28 650.11 730.98 652.38C 730.16 652.04 729.34 651.69 728.52 651.34C 726.76 649.05 725.16 646.83 722.8 645.1C 719.78 645.66 717.02 647.82 714.27 649.16C 711.75 649.65 709.9 650.33 707.76 651.71C 704.57 653.75 701.05 654.65 697.45 655.66C 696.64 652.84 695.79 650.03 694.94 647.22C 691.87 647.39 688.82 647.55 685.74 647.38C 684.87 648 684.01 648.65 683.13 649.27C 678.46 649.48 675.36 652.92 670.69 652.71C 668.62 655.97 666.48 658.95 663.9 661.82C 662.84 661.01 661.79 660.22 660.62 659.58C 653.16 660.95 650.62 667.87 648.13 674.1C 646.81 674.53 645.49 674.99 644.17 675.42C 641.15 674.68 639.28 674.78 636.38 675.88C 636.43 677.85 636.43 679.82 636.47 681.78C 631.61 684.05 625.87 685.21 622.27 689.28C 620.23 691.36 618.89 694.08 619.65 697.04C 620.82 699.06 622.53 700.51 624.19 702.11C 624.26 703.11 624.33 704.1 624.41 705.1C 620.58 707.31 617.12 709.52 613.02 711.01C 607.36 713.12 601.96 715.85 596.37 718.14C 592.37 719.76 589.39 722.53 586.22 725.34C 586.33 727.61 586.46 729.89 586.58 732.16C 581.48 735.72 576.28 739.51 571.73 743.77C 568.64 746.63 567.33 750.41 564.48 753.46C 562.48 755.58 560.62 757.69 558.99 760.13C 555.76 765.48 548.65 767.68 544.36 772.21C 541.29 776.09 540.14 781.02 536.81 784.81C 531.86 790.6 526.88 796.3 522.72 802.72C 519.15 805.83 515.8 809.23 512.83 812.93C 511.25 814.83 510.76 817.68 510.04 820.03C 508.54 821.22 506.99 822.39 505.58 823.68C 503.16 825.91 501.62 829.16 499.35 831.44C 496.35 832.55 495.21 829.51 495 827.1C 495.11 822.2 496.59 816.31 495.43 811.53C 492.83 807.17 488.27 803.04 482.96 802.79C 481.17 803.34 479.32 803.64 477.56 804.3C 477.36 803.3 477.13 802.3 476.89 801.31C 475.2 801.3 473.51 801.3 471.82 801.31C 470.98 800.34 470.12 799.38 469.26 798.43C 464.69 797.96 460.56 799.01 456.25 800.4C 451.84 802 447.73 800.62 443.4 799.51C 437.83 797.77 432.16 796.47 426.54 794.88C 419.89 792.98 414.07 789.76 407.26 788.27C 398.29 786.19 389.03 785.48 380.06 783.39C 375.07 781.86 370.55 779.17 365.52 777.69C 357.01 775.08 350.03 770.46 342.23 766.4C 341.25 766.52 340.27 766.64 339.28 766.75C 333.89 770.76 328.66 776.45 322.29 778.5C 315.01 781.36 306.72 782.96 300.49 787.46C 294.69 791.45 288.43 794.64 282.66 798.64C 280.68 800.07 278.81 801.34 277.59 803.52C 274.56 809.02 272.66 815.42 270.53 821.32C 268.93 825.49 268.04 829.76 267.51 834.19C 266.83 840.31 264.15 845.31 262.36 851.1C 260.96 855 259.62 859.1 257.45 862.64C 254.69 866.16 250.63 868.8 246.61 870.67C 243.11 872.35 239.24 873.15 235.8 874.92C 231.17 877.52 228.25 883.18 223.81 886C 220.41 887.12 215.22 885.73 212.49 888.55C 209.03 892.47 207.05 897.12 202.26 900.11C 198.95 901.9 195.42 903.22 192.21 905.22C 192.56 910.03 192.59 914.8 192.64 919.62C 190.65 920.8 188.22 921.89 186.65 923.62C 184.14 926.54 183.1 931.01 181.04 934.08C 178.42 937.22 174.15 938.18 171.58 941.57C 168.21 945.7 164 948.83 159.53 951.66C 157 953.12 153.46 952.83 150.62 953.36C 149.3 946.46 146.37 940.37 143.9 933.84C 132.86 905.56 122 877.14 110.98 848.86C 110.5 847.18 109.6 845.48 110.75 843.88C 113.01 840.05 115.78 836.6 117.69 832.55C 121.57 824.83 122.62 816.85 125.82 808.96C 127.98 803.49 129.95 798.31 129.68 792.3C 129.57 788.6 127.8 785.84 126.19 782.65C 123.25 782.13 120.32 781.57 117.37 781.09C 117.41 780.58 117.44 780.07 117.48 779.56C 129.08 763.39 140.16 746.85 151.68 730.62C 153.3 728.33 154.71 725.96 155.83 723.38C 157.32 724.48 158.8 725.73 160.44 726.59C 161.75 726.74 162.88 725.61 163.8 724.83C 172.3 716.15 177.78 705.64 182.69 694.65C 185.74 687.87 186.57 680.82 189.16 673.91C 190.57 669.91 192.39 666.13 193.22 662.01C 194.04 658.21 194.26 654.68 196.01 651.13C 197.98 647.22 200.15 643.43 201.96 639.44C 206.3 640.27 210.56 641.35 214.81 642.58C 217.71 636.71 221.98 631.85 225.31 626.22C 227.25 622.94 230.17 619.74 231.25 616.06C 232.8 608.84 229.01 601.48 229.18 593.94C 229.07 590.16 230.27 586.73 233.38 584.42C 238.39 580.62 243.39 577.38 247.39 572.38C 249.83 569.31 251.29 566.06 254.61 563.73C 263.61 557.46 268.43 547.98 277.42 541.41C 282.72 537.29 288.46 536.16 294.53 533.72C 298.87 532.1 302.89 529.95 307.15 528.13C 314.26 525.04 321.1 521.97 327.49 517.52C 332.36 514.23 336.69 510.36 341.25 506.69C 339.94 498.43 341.58 490.75 342.81 482.63C 347.8 479.03 352.73 475.23 358.03 472.08C 362.6 469.76 368.21 467.8 373.22 466.7C 381.32 465.88 389.74 466.43 397.78 467.62C 399.07 467.84 400.35 468.08 401.63 468.33C 403.75 475.16 406.24 481.86 409.19 488.37C 423.5 488.24 437.69 489.87 452 489.78C 463.07 480.12 474.13 470.39 485.41 460.96C 481.64 454.18 478.33 447.17 474.64 440.35C 472.29 435.77 470.13 431.24 466.88 427.2C 467.28 421.22 468.21 415.37 468.83 409.41C 469.4 407.82 469.91 406.22 470.55 404.65z" stroke="none" fill="#95A827" fill-rule="nonzero" data-id="Tonga" data-name="Tonga"/>

                <path transform="matrix(1.333025 0 0 1.3329897 0 0)"  d="M468.75 409.65L468.83 409.41C 468.21 415.37 467.28 421.22 466.88 427.2C 470.13 431.24 472.29 435.77 474.64 440.35C 478.33 447.17 481.64 454.18 485.41 460.96C 474.13 470.39 463.07 480.12 452 489.78C 437.69 489.87 423.5 488.24 409.19 488.37C 406.24 481.86 403.75 475.16 401.63 468.33C 400.35 468.08 399.07 467.84 397.78 467.62L397.78 467.62L401.1 467.88C 400.23 461.54 398.89 455.33 397.26 449.15C 400.76 445.66 404.02 441.92 407.66 438.59C 410.93 435.61 414.69 433.81 418.6 431.84C 425.89 428.17 433.04 424.25 440.21 420.35C 442.62 419.27 444.65 417.77 447.33 418.94C 453.52 421.27 459.51 424.25 465.38 427.3C 466.91 423.31 467.26 419.9 466.68 415.66C 467.06 415.27 467.44 414.88 467.83 414.49C 468.21 412.89 468.32 411.23 468.75 409.65z" stroke="none" fill="#FFBEBE" fill-rule="nonzero" data-id="Bassamba" data-name="Bassamba"/>

                <path transform="matrix(1.333025 0 0 1.3329897 0 0)"  d="M76.32 526.8C 82.79 527.57 89.19 528.76 95.65 529.61C 89.05 529.49 82.61 528.91 76.32 526.8z" stroke="none" fill="#C7D3F2" fill-rule="nonzero" />

                <path transform="matrix(1.333025 0 0 1.3329897 0 0)"  d="M113.28 532.03C 117.41 532.12 121.07 531.5 124.94 533.28C 120.98 532.89 117.2 532.98 113.28 532.03z" stroke="none" fill="#C7D3F2" fill-rule="nonzero" />
        </g>
</svg>