<?xml version="1.0" encoding="UTF-8" standalone="no"?>
<!DOCTYPE svg PUBLIC "-//W3C//DTD SVG 1.1//EN" "http://www.w3.org/Graphics/SVG/1.1/DTD/svg11.dtd">
<svg xmlns="http://www.w3.org/2000/svg" version="1.1" viewBox="0 0 1217 861" width="1217.0pt" height="861.0pt">
<path d="M 479.50 40.38 C 482.37 43.20 480.43 46.31 479.71 49.58 C 475.10 52.52 473.83 57.52 473.53 62.67 C 473.57 64.97 474.65 66.32 476.43 67.62 C 480.77 71.39 487.20 70.64 492.75 71.69 C 496.14 68.01 498.05 62.68 503.34 61.58 C 505.24 61.64 507.17 62.44 508.99 62.94 C 510.38 62.36 511.77 61.77 513.15 61.18 C 511.35 64.39 509.72 67.64 508.26 71.03 C 510.47 71.01 512.79 70.81 514.99 71.17 C 517.73 71.94 520.13 73.38 523.00 73.86 C 525.06 74.33 527.61 74.46 529.43 75.59 C 530.92 76.70 531.70 78.84 532.60 80.42 C 533.20 80.53 533.80 80.64 534.40 80.75 C 535.81 85.49 539.72 88.36 539.45 93.11 C 539.98 93.75 540.50 94.40 541.03 95.04 C 540.80 97.98 540.35 100.86 539.81 103.75 C 539.32 106.14 540.08 108.40 540.21 110.94 C 538.65 112.94 535.79 114.63 534.93 117.04 C 533.94 120.54 537.80 122.26 538.42 125.69 C 539.20 129.73 540.03 133.50 541.96 137.18 C 541.66 137.64 541.35 138.10 541.04 138.56 C 533.35 139.79 526.49 136.69 518.96 138.78 C 515.54 139.43 512.82 141.24 509.94 143.08 C 509.78 146.76 509.84 150.33 510.17 154.00 C 510.63 158.80 509.91 163.34 509.45 168.09 C 506.78 167.79 504.37 167.27 501.94 166.10 C 498.32 164.41 494.50 163.64 490.54 163.31 C 489.17 161.39 487.71 159.56 486.51 157.52 C 484.83 154.56 483.39 151.20 481.25 148.55 C 479.02 146.78 475.34 146.80 473.10 145.01 C 471.29 142.76 469.73 140.32 467.88 138.09 C 465.62 135.58 466.00 131.71 464.34 128.63 C 461.66 123.96 462.43 119.33 461.07 113.95 C 457.77 112.42 455.05 112.18 451.45 112.45 C 449.55 107.43 451.45 102.39 449.51 97.51 C 448.17 93.05 448.99 88.96 446.14 84.89 C 443.24 80.84 440.80 76.65 436.84 73.87 C 437.72 69.90 438.01 65.93 438.03 61.86 C 441.81 63.88 445.33 66.10 449.55 67.12 C 450.73 64.60 451.70 61.67 453.49 59.51 C 458.81 56.45 466.12 56.35 472.13 56.52 C 471.75 51.41 470.99 46.36 470.07 41.31 C 472.69 40.82 477.13 38.37 479.50 40.38 Z" fill="#c6d194" />
<path d="M 626.54 125.91 C 627.87 126.42 629.13 126.74 630.02 127.95 C 633.10 131.67 635.43 136.10 638.02 140.01 C 639.42 142.39 643.11 143.10 645.51 144.19 C 648.14 141.52 650.99 139.86 652.51 136.38 C 653.91 133.43 655.67 130.91 657.79 128.44 C 663.12 130.82 668.18 132.52 674.03 133.06 C 677.14 133.18 679.05 135.09 679.57 138.08 C 679.86 141.99 678.85 146.22 678.11 150.05 C 678.87 153.56 678.85 156.82 678.34 160.36 C 681.76 160.85 685.08 161.06 688.53 160.94 C 691.39 161.98 694.24 162.81 697.21 163.47 C 697.52 166.36 697.24 169.17 696.98 172.04 C 696.81 174.27 697.76 176.53 697.71 178.74 C 696.84 180.09 695.67 181.31 694.61 182.52 C 696.17 185.19 698.27 187.47 699.87 190.09 C 700.84 192.63 698.96 195.68 697.98 198.01 L 700.36 198.47 C 698.12 201.75 695.80 204.97 693.45 208.17 C 694.16 209.09 694.83 210.03 695.46 211.00 C 695.10 214.48 693.27 218.01 691.82 221.16 C 694.46 228.43 697.61 235.48 700.15 242.78 C 699.64 243.27 699.12 243.76 698.61 244.25 C 698.71 245.07 698.80 245.88 698.90 246.70 C 698.24 247.32 697.59 247.93 696.93 248.54 C 692.48 247.46 688.39 246.47 683.84 247.78 C 680.99 248.44 679.23 251.61 677.70 253.86 C 673.96 248.58 674.21 242.24 671.05 236.92 C 665.11 230.70 656.31 229.38 650.40 222.59 C 646.71 219.25 647.03 214.64 647.32 210.06 C 648.28 203.89 650.51 197.29 650.75 190.93 C 650.79 189.03 649.66 187.05 648.95 185.33 C 645.39 184.48 641.89 183.35 638.31 182.66 C 634.57 181.96 630.68 182.44 626.99 181.93 C 625.19 181.53 623.60 179.95 622.18 178.83 C 618.28 175.37 614.17 171.97 610.74 168.04 C 610.67 167.03 610.63 166.02 610.61 165.01 C 616.13 161.52 619.96 156.71 624.12 151.81 C 623.38 149.22 623.32 146.82 620.95 145.12 C 617.82 142.70 614.86 140.31 612.43 137.16 C 617.00 133.24 621.91 129.75 626.54 125.91 Z" fill="#99acc9" />
<path d="M 541.04 138.56 C 540.41 139.49 539.78 140.41 539.15 141.34 C 543.03 142.41 547.01 143.17 550.83 144.41 C 552.41 144.87 553.49 146.73 554.57 147.88 C 556.00 147.67 557.43 147.47 558.86 147.25 C 560.76 148.16 562.67 149.06 564.58 149.94 C 564.31 154.05 563.57 157.46 561.85 161.21 C 563.06 164.25 563.97 167.22 564.70 170.40 C 565.21 173.98 569.09 175.85 571.14 178.89 C 572.82 181.52 575.24 182.27 577.98 183.36 C 577.70 184.88 577.41 186.40 577.12 187.92 L 578.06 189.03 C 577.89 190.74 577.65 192.43 577.56 194.15 C 572.99 192.72 569.07 191.30 564.18 191.82 C 561.17 190.08 558.55 187.86 555.27 186.56 C 551.72 191.35 549.09 196.71 545.37 201.37 C 543.31 204.04 542.04 207.14 540.08 209.87 C 538.65 208.73 537.36 207.30 535.80 206.36 C 532.86 204.86 529.43 204.31 526.81 202.19 C 523.75 200.54 525.79 195.14 526.78 192.72 C 528.16 189.24 532.56 191.78 535.01 189.90 C 535.39 187.27 533.91 184.74 531.83 183.24 C 529.83 181.88 527.61 180.86 525.58 179.53 C 523.38 177.10 521.18 174.81 518.42 173.00 C 515.42 170.81 513.42 168.23 509.45 168.09 C 509.91 163.34 510.63 158.80 510.17 154.00 C 509.84 150.33 509.78 146.76 509.94 143.08 C 512.82 141.24 515.54 139.43 518.96 138.78 C 526.49 136.69 533.35 139.79 541.04 138.56 Z" fill="#a793cc" />
<path d="M 464.99 156.49 C 467.67 158.27 469.73 160.19 473.07 160.73 C 473.24 161.06 473.40 161.39 473.57 161.72 C 474.61 163.84 475.66 165.96 476.65 168.11 C 474.32 171.15 471.88 174.09 469.50 177.09 L 468.96 177.77 L 468.27 179.03 C 468.91 184.37 469.15 190.30 471.22 195.27 C 471.61 196.43 472.11 197.60 472.33 198.80 C 471.64 201.85 470.23 204.39 470.66 207.64 C 472.99 207.84 475.31 208.05 477.64 208.27 C 478.52 213.02 479.05 217.52 481.02 221.97 C 483.30 227.11 485.68 232.24 488.33 237.20 C 484.10 239.33 479.67 241.21 475.64 243.61 C 475.66 246.90 477.53 249.17 479.06 251.91 C 482.34 257.14 483.54 263.19 486.68 268.53 C 484.88 270.57 483.01 272.40 480.04 271.94 C 477.66 271.18 475.40 269.70 473.00 269.03 C 468.23 269.52 464.12 274.94 459.03 275.16 C 453.67 275.41 448.15 272.26 443.08 271.81 C 441.36 272.47 439.91 274.08 438.14 274.56 C 436.91 274.24 435.72 273.72 434.53 273.26 C 435.12 269.55 435.47 266.09 433.17 262.81 C 430.36 259.26 426.68 256.47 423.89 252.87 C 423.99 249.74 424.38 246.63 424.36 243.49 C 424.45 241.60 424.08 240.03 425.58 238.57 C 428.67 234.74 433.29 235.89 436.60 232.61 C 438.71 230.68 440.80 228.46 442.12 225.90 C 441.40 224.13 440.18 222.48 439.10 220.90 C 439.76 220.30 440.43 219.70 441.11 219.12 C 444.29 216.01 449.04 217.23 452.45 214.04 C 450.76 213.80 449.07 213.61 447.37 213.43 C 447.28 212.07 447.19 210.71 447.10 209.36 C 449.07 208.43 451.48 207.68 453.08 206.17 C 455.11 203.67 455.62 199.96 456.17 196.87 C 453.26 197.08 450.44 197.49 447.65 198.37 C 446.52 197.66 444.92 197.10 444.14 195.99 C 444.27 194.63 444.55 193.32 444.80 191.97 C 444.29 191.09 443.78 190.21 443.26 189.34 C 444.66 187.56 446.37 185.69 447.24 183.59 C 449.41 177.44 451.18 171.42 450.42 164.81 C 454.51 161.08 459.45 157.51 464.99 156.49 Z" fill="#b3d6ae" />
<path d="M 486.51 157.52 C 487.71 159.56 489.17 161.39 490.54 163.31 C 491.36 165.04 492.06 166.81 492.87 168.53 C 496.17 172.53 501.87 174.76 506.19 177.56 C 506.70 177.99 507.22 178.42 507.75 178.84 C 509.85 180.61 512.27 181.81 514.74 182.97 C 513.93 185.66 513.33 188.58 512.03 191.08 C 510.58 193.25 508.39 194.99 506.53 196.80 C 505.99 196.75 505.46 196.70 504.93 196.64 C 501.60 191.63 500.56 185.62 497.34 180.63 C 495.20 177.37 491.41 177.06 487.93 176.23 C 483.64 175.52 479.68 173.99 475.63 172.48 C 477.02 170.83 476.93 170.10 476.65 168.11 C 475.66 165.96 474.61 163.84 473.57 161.72 C 476.61 160.64 479.53 160.89 482.67 160.66 C 484.05 159.78 485.27 158.59 486.51 157.52 Z" fill="#c495ba" />
<path d="M 490.54 163.31 C 494.50 163.64 498.32 164.41 501.94 166.10 C 504.37 167.27 506.78 167.79 509.45 168.09 C 513.42 168.23 515.42 170.81 518.42 173.00 C 519.91 174.77 521.38 176.56 522.86 178.33 C 520.68 179.33 518.36 180.60 515.99 181.02 C 513.22 181.17 510.26 179.87 507.75 178.84 C 507.22 178.42 506.70 177.99 506.19 177.56 C 502.53 173.37 497.83 170.86 492.87 168.53 C 492.06 166.81 491.36 165.04 490.54 163.31 Z" fill="#a3a3d6" />
<path d="M 610.61 165.01 C 610.63 166.02 610.67 167.03 610.74 168.04 C 614.17 171.97 618.28 175.37 622.18 178.83 C 623.60 179.95 625.19 181.53 626.99 181.93 C 630.68 182.44 634.57 181.96 638.31 182.66 C 641.89 183.35 645.39 184.48 648.95 185.33 C 649.66 187.05 650.79 189.03 650.75 190.93 C 650.51 197.29 648.28 203.89 647.32 210.06 C 647.03 214.64 646.71 219.25 650.40 222.59 C 656.31 229.38 665.11 230.70 671.05 236.92 C 674.21 242.24 673.96 248.58 677.70 253.86 C 676.50 256.23 675.61 258.91 674.09 261.08 C 672.85 261.69 671.49 262.09 670.18 262.54 C 667.71 267.77 663.14 269.33 658.92 272.84 C 654.44 275.89 652.51 280.96 648.10 284.15 C 641.60 289.10 637.18 295.60 633.76 302.94 C 632.32 302.27 630.91 301.41 629.53 300.61 C 627.02 300.47 624.58 300.19 622.11 299.76 C 620.53 301.37 618.88 303.54 616.78 304.48 C 613.46 305.91 610.06 307.15 606.75 308.60 C 606.01 304.99 605.70 301.43 605.65 297.75 C 605.49 294.13 604.21 289.99 601.81 287.22 C 597.62 284.02 592.02 282.36 587.08 280.60 C 581.69 287.24 578.27 295.00 572.30 301.23 C 565.35 309.26 560.73 318.78 553.95 326.98 C 552.48 328.62 550.59 329.72 548.76 330.91 C 547.21 328.10 545.51 325.51 543.54 322.98 C 551.28 316.75 557.25 309.34 563.52 301.62 C 560.22 300.06 556.26 298.90 553.58 296.45 C 551.89 295.11 550.21 293.24 547.93 293.11 C 545.63 293.25 543.36 294.18 541.08 294.56 C 539.75 292.98 540.61 289.68 540.47 287.66 C 538.79 285.21 537.20 282.98 536.70 279.97 C 536.27 277.78 537.03 275.42 537.51 273.26 L 539.18 273.28 C 541.09 271.84 542.79 270.14 544.69 268.68 C 547.30 266.72 550.15 265.90 552.42 263.44 C 555.58 259.96 558.63 256.41 562.00 253.13 C 560.17 250.98 558.37 248.82 556.53 246.68 C 556.83 245.06 557.13 243.45 557.44 241.84 C 556.50 240.80 555.57 239.75 554.63 238.71 C 555.32 236.27 556.05 233.85 556.92 231.47 C 561.86 228.63 561.80 224.20 563.68 219.44 C 565.76 215.73 571.30 213.25 572.88 208.98 C 574.14 205.92 575.48 203.05 577.07 200.14 C 578.13 198.46 577.54 196.08 577.56 194.15 C 577.65 192.43 577.89 190.74 578.06 189.03 C 578.84 189.87 579.65 190.68 580.46 191.50 C 582.15 191.78 583.84 192.08 585.53 192.37 C 585.84 193.02 586.15 193.66 586.46 194.30 C 588.86 194.80 591.20 195.49 593.52 196.25 C 594.76 192.52 595.82 188.75 596.73 184.93 C 595.58 181.15 595.66 177.52 593.39 174.15 C 595.17 174.12 597.02 174.19 598.78 173.86 C 600.27 172.34 601.38 170.43 602.93 168.96 C 605.27 167.33 608.12 166.44 610.61 165.01 Z" fill="#c5fcf8" />
<path d="M 476.65 168.11 C 476.93 170.10 477.02 170.83 475.63 172.48 C 473.54 173.95 471.47 175.46 469.50 177.09 C 471.88 174.09 474.32 171.15 476.65 168.11 Z" fill="#daddd2" />
<path d="M 492.87 168.53 C 497.83 170.86 502.53 173.37 506.19 177.56 C 501.87 174.76 496.17 172.53 492.87 168.53 Z" fill="#d4c6df" />
<path d="M 475.63 172.48 C 479.68 173.99 483.64 175.52 487.93 176.23 C 491.41 177.06 495.20 177.37 497.34 180.63 C 500.56 185.62 501.60 191.63 504.93 196.64 C 505.46 196.70 505.99 196.75 506.53 196.80 L 508.27 196.94 C 507.49 197.62 506.72 198.31 505.95 199.00 C 508.17 204.45 508.77 211.12 512.09 215.96 C 514.97 218.87 520.12 219.69 523.84 221.26 C 530.93 224.00 537.93 223.20 545.14 224.82 C 549.74 225.90 553.37 228.48 556.92 231.47 C 556.05 233.85 555.32 236.27 554.63 238.71 C 555.57 239.75 556.50 240.80 557.44 241.84 C 557.13 243.45 556.83 245.06 556.53 246.68 C 558.37 248.82 560.17 250.98 562.00 253.13 C 558.63 256.41 555.58 259.96 552.42 263.44 C 550.15 265.90 547.30 266.72 544.69 268.68 C 542.79 270.14 541.09 271.84 539.18 273.28 C 537.52 271.29 535.91 269.28 534.34 267.22 C 532.87 265.21 531.48 263.77 529.09 262.87 C 524.68 261.16 521.13 258.23 517.07 255.93 C 514.25 253.97 511.40 256.63 508.89 257.86 C 502.25 262.13 494.29 263.26 487.67 267.36 C 486.14 264.45 484.61 261.58 483.52 258.47 C 481.64 253.12 478.80 248.30 475.64 243.61 C 479.67 241.21 484.10 239.33 488.33 237.20 C 485.68 232.24 483.30 227.11 481.02 221.97 C 479.05 217.52 478.52 213.02 477.64 208.27 C 475.31 208.05 472.99 207.84 470.66 207.64 C 470.23 204.39 471.64 201.85 472.33 198.80 C 472.11 197.60 471.61 196.43 471.22 195.27 C 470.67 189.40 470.08 183.57 468.96 177.77 L 469.50 177.09 C 471.47 175.46 473.54 173.95 475.63 172.48 Z" fill="#d1c1b2" />
<path d="M 518.42 173.00 C 521.18 174.81 523.38 177.10 525.58 179.53 C 522.46 180.86 518.45 181.64 515.84 183.85 C 514.37 186.26 514.15 189.45 513.00 192.03 C 511.91 193.96 509.92 195.49 508.27 196.94 L 506.53 196.80 C 508.39 194.99 510.58 193.25 512.03 191.08 C 513.33 188.58 513.93 185.66 514.74 182.97 C 512.27 181.81 509.85 180.61 507.75 178.84 C 510.26 179.87 513.22 181.17 515.99 181.02 C 518.36 180.60 520.68 179.33 522.86 178.33 C 521.38 176.56 519.91 174.77 518.42 173.00 Z" fill="#e3dce5" />
<path d="M 468.96 177.77 C 470.08 183.57 470.67 189.40 471.22 195.27 C 469.15 190.30 468.91 184.37 468.27 179.03 L 468.96 177.77 Z" fill="#d9ddcd" />
<path d="M 525.58 179.53 C 527.61 180.86 529.83 181.88 531.83 183.24 C 533.91 184.74 535.39 187.27 535.01 189.90 C 532.56 191.78 528.16 189.24 526.78 192.72 C 525.79 195.14 523.75 200.54 526.81 202.19 C 529.43 204.31 532.86 204.86 535.80 206.36 C 537.36 207.30 538.65 208.73 540.08 209.87 C 542.04 207.14 543.31 204.04 545.37 201.37 C 549.09 196.71 551.72 191.35 555.27 186.56 C 558.55 187.86 561.17 190.08 564.18 191.82 C 569.07 191.30 572.99 192.72 577.56 194.15 C 577.54 196.08 578.13 198.46 577.07 200.14 C 575.48 203.05 574.14 205.92 572.88 208.98 C 571.30 213.25 565.76 215.73 563.68 219.44 C 561.80 224.20 561.86 228.63 556.92 231.47 C 553.37 228.48 549.74 225.90 545.14 224.82 C 537.93 223.20 530.93 224.00 523.84 221.26 C 520.12 219.69 514.97 218.87 512.09 215.96 C 508.77 211.12 508.17 204.45 505.95 199.00 C 506.72 198.31 507.49 197.62 508.27 196.94 C 509.92 195.49 511.91 193.96 513.00 192.03 C 514.15 189.45 514.37 186.26 515.84 183.85 C 518.45 181.64 522.46 180.86 525.58 179.53 Z" fill="#cfc6a9" />
<path d="M 706.06 181.98 C 707.16 182.17 708.26 182.41 709.34 182.69 C 706.72 187.78 704.17 193.10 700.75 197.71 C 702.83 192.55 704.28 187.23 706.06 181.98 Z" fill="#b1bfd3" />
<path d="M 475.64 243.61 C 478.80 248.30 481.64 253.12 483.52 258.47 C 484.61 261.58 486.14 264.45 487.67 267.36 L 486.68 268.53 C 483.54 263.19 482.34 257.14 479.06 251.91 C 477.53 249.17 475.66 246.90 475.64 243.61 Z" fill="#e2e3d8" />
<path d="M 696.93 248.54 C 699.75 251.01 702.72 253.26 705.75 255.46 C 709.04 257.78 710.83 261.69 713.90 264.08 C 715.19 264.55 716.59 264.72 717.92 264.99 C 720.17 267.07 722.53 269.15 724.44 271.54 C 725.96 273.41 726.24 276.33 726.84 278.62 C 726.30 279.15 725.76 279.67 725.21 280.19 C 725.44 281.64 725.67 283.09 725.89 284.54 C 724.32 285.39 722.74 286.23 721.17 287.07 C 721.22 287.76 721.27 288.46 721.31 289.15 C 720.21 290.01 719.12 290.88 718.03 291.76 C 719.06 296.23 717.61 299.85 715.38 303.67 C 714.33 302.76 713.29 301.84 712.25 300.93 C 709.98 305.63 706.55 309.37 702.94 313.07 C 701.44 314.48 699.43 315.51 697.64 316.54 C 696.59 321.56 694.99 324.91 691.02 328.23 C 689.40 333.77 685.62 338.06 684.61 343.73 C 683.71 347.97 682.67 351.92 682.44 356.23 C 683.34 356.75 684.21 357.32 685.06 357.91 C 685.84 360.73 686.19 363.55 687.56 366.19 C 691.76 366.07 695.85 367.08 700.02 367.10 C 703.03 366.88 703.72 363.46 705.03 361.32 C 709.91 361.78 714.33 363.01 718.54 365.59 C 717.42 367.37 716.30 369.14 715.18 370.92 C 717.24 373.01 718.82 375.25 720.26 377.80 C 721.28 375.87 722.07 373.27 723.70 371.79 C 725.97 370.85 728.52 370.47 730.92 369.92 C 731.89 371.46 732.87 373.00 733.85 374.53 C 737.44 374.44 740.83 374.29 744.16 372.75 C 748.04 374.29 751.58 375.60 755.82 374.52 C 758.02 373.70 760.01 372.22 762.00 370.99 C 763.15 369.37 764.33 367.78 765.56 366.23 C 765.92 367.85 766.29 369.47 766.65 371.10 C 768.40 369.56 770.14 368.02 771.90 366.50 C 772.02 367.58 772.14 368.65 772.26 369.73 C 775.88 369.67 778.34 370.34 781.54 371.89 C 782.84 372.45 784.15 373.00 785.44 373.60 L 786.38 375.36 C 784.24 375.30 782.12 375.26 779.98 375.36 L 778.79 376.14 L 778.26 376.57 C 775.42 378.67 773.55 381.61 770.99 383.97 C 768.52 385.79 765.03 386.47 762.11 387.29 C 757.55 385.74 752.90 384.73 748.18 383.85 L 746.51 384.11 C 746.04 384.95 745.59 385.79 745.14 386.63 C 744.30 386.82 743.46 387.00 742.61 387.18 L 742.12 387.24 L 740.57 387.48 C 739.15 390.22 737.64 392.77 738.13 395.98 C 738.59 400.07 739.07 404.14 739.14 408.26 C 733.20 409.92 728.16 408.13 722.37 407.22 C 718.93 407.15 715.72 407.67 713.24 410.24 C 711.59 412.73 710.85 415.94 710.01 418.78 C 709.14 417.13 708.33 415.46 707.51 413.78 C 708.10 413.01 708.70 412.24 709.30 411.46 C 707.70 412.63 705.54 413.72 704.46 415.42 C 700.47 423.46 699.86 431.95 696.81 440.23 C 696.44 440.45 696.07 440.68 695.69 440.90 L 694.47 441.63 C 692.10 445.73 690.90 450.16 687.91 453.94 C 685.74 456.70 684.04 459.64 682.42 462.75 C 680.74 465.96 675.74 467.26 675.34 471.15 C 674.78 474.71 674.51 478.43 674.90 482.02 C 675.42 484.56 677.47 486.90 678.91 489.02 C 673.10 493.79 665.39 498.75 661.62 505.40 C 660.81 505.84 659.99 506.28 659.18 506.72 C 658.61 505.79 658.07 504.85 657.55 503.90 C 657.23 503.25 656.81 502.65 656.28 502.10 C 655.49 503.10 655.02 504.16 654.89 505.27 C 653.63 504.45 652.35 503.65 651.03 502.94 L 649.36 502.86 C 648.95 504.44 648.59 506.03 648.22 507.63 L 647.48 507.12 C 646.93 506.74 646.38 506.37 645.83 505.99 C 645.33 508.21 644.83 510.42 644.29 512.63 C 642.55 510.95 640.84 509.23 639.19 507.45 C 635.12 506.07 631.14 504.45 627.07 503.05 C 626.61 503.70 626.15 504.36 625.70 505.02 L 625.24 505.66 C 620.44 505.51 615.74 505.90 610.98 505.02 C 607.08 504.35 603.20 505.19 599.33 504.76 C 597.27 501.95 595.41 499.39 592.39 497.51 C 594.04 491.28 598.59 488.20 603.05 484.05 C 606.30 481.12 609.03 477.75 611.54 474.18 C 611.22 471.71 610.91 469.25 610.59 466.79 C 612.95 465.01 615.39 463.38 617.89 461.80 C 617.39 458.50 617.08 455.39 617.97 452.11 C 618.94 448.60 618.10 445.44 617.73 441.95 C 618.33 441.01 619.02 440.15 619.71 439.28 L 620.98 439.05 C 622.36 438.71 623.59 438.80 624.50 437.56 C 626.71 434.99 628.48 432.04 630.41 429.26 C 631.48 429.17 632.56 429.11 633.63 429.03 L 635.83 428.83 C 636.20 425.24 635.92 421.97 637.79 418.72 C 639.57 415.48 640.59 412.25 641.23 408.62 C 640.16 407.33 638.39 407.27 639.32 405.33 C 640.07 404.22 640.99 403.20 641.78 402.12 C 639.46 400.29 636.96 398.68 634.56 396.95 C 638.11 393.89 641.45 391.00 643.54 386.69 C 645.26 385.35 647.70 384.45 648.00 382.02 C 649.03 377.75 647.57 373.99 645.22 370.48 L 643.40 370.59 C 642.84 370.63 642.29 370.66 641.74 370.69 C 639.49 367.10 638.48 365.04 639.22 360.65 C 638.35 360.51 637.49 360.36 636.62 360.22 L 636.22 360.14 C 635.65 359.34 635.08 358.54 634.52 357.73 C 634.75 356.18 635.01 354.59 635.03 353.02 C 634.08 350.23 632.36 347.66 630.79 345.20 L 628.50 344.84 L 628.28 344.81 C 626.12 343.29 623.89 341.71 621.57 340.45 L 619.54 339.99 L 619.41 339.96 C 616.81 338.29 614.74 336.43 611.45 336.39 L 610.46 336.40 C 610.37 335.00 610.26 333.60 610.13 332.21 L 607.95 332.14 C 606.22 332.11 604.48 332.08 602.75 332.00 C 602.25 331.37 601.75 330.73 601.25 330.10 C 603.41 327.62 605.67 325.24 608.00 322.92 C 607.22 318.17 607.42 313.35 606.75 308.60 C 610.06 307.15 613.46 305.91 616.78 304.48 C 618.88 303.54 620.53 301.37 622.11 299.76 C 624.58 300.19 627.02 300.47 629.53 300.61 C 630.91 301.41 632.32 302.27 633.76 302.94 C 637.18 295.60 641.60 289.10 648.10 284.15 C 652.51 280.96 654.44 275.89 658.92 272.84 C 663.14 269.33 667.71 267.77 670.18 262.54 C 671.49 262.09 672.85 261.69 674.09 261.08 C 675.61 258.91 676.50 256.23 677.70 253.86 C 679.23 251.61 680.99 248.44 683.84 247.78 C 688.39 246.47 692.48 247.46 696.93 248.54 Z" fill="#bfa991" />
<path d="M 423.89 252.87 C 426.68 256.47 430.36 259.26 433.17 262.81 C 435.47 266.09 435.12 269.55 434.53 273.26 C 435.72 273.72 436.91 274.24 438.14 274.56 C 439.91 274.08 441.36 272.47 443.08 271.81 C 448.15 272.26 453.67 275.41 459.03 275.16 C 464.12 274.94 468.23 269.52 473.00 269.03 C 475.40 269.70 477.66 271.18 480.04 271.94 C 483.01 272.40 484.88 270.57 486.68 268.53 L 487.67 267.36 C 494.29 263.26 502.25 262.13 508.89 257.86 C 511.40 256.63 514.25 253.97 517.07 255.93 C 521.13 258.23 524.68 261.16 529.09 262.87 C 531.48 263.77 532.87 265.21 534.34 267.22 L 533.32 268.44 C 532.13 269.85 530.80 271.26 529.83 272.83 C 528.42 275.30 528.19 278.39 526.85 280.88 C 525.40 283.10 523.57 285.03 522.19 287.30 C 520.77 289.47 519.69 292.05 517.93 293.95 C 514.73 295.75 510.27 295.73 506.67 296.14 C 506.81 294.49 506.89 292.80 507.22 291.18 C 508.17 289.43 509.86 288.01 511.32 286.69 L 512.35 285.90 C 507.98 283.95 504.03 280.22 499.36 279.19 C 491.27 281.63 485.71 286.56 478.42 290.53 C 475.93 291.99 473.12 293.10 470.84 294.88 C 469.14 296.79 468.38 299.50 466.70 301.43 C 464.48 302.06 462.06 302.14 459.91 302.93 C 457.81 304.35 456.21 306.65 454.50 308.50 C 452.48 310.87 450.00 312.69 447.86 314.92 C 446.50 316.12 446.76 318.38 446.56 320.06 C 446.25 318.37 445.74 316.76 445.20 315.13 L 444.66 318.14 C 444.51 317.16 444.36 316.18 444.19 315.20 C 439.61 313.19 435.26 312.08 431.99 308.01 C 429.00 304.26 425.10 301.63 421.72 298.30 C 417.46 293.54 414.43 287.70 410.48 282.67 C 413.36 278.78 417.69 276.39 420.58 272.63 C 423.36 266.72 423.64 259.32 423.89 252.87 Z" fill="#b6d6cc" />
<path d="M 534.34 267.22 C 535.91 269.28 537.52 271.29 539.18 273.28 L 537.51 273.26 C 536.02 271.74 534.64 270.11 533.32 268.44 L 534.34 267.22 Z" fill="#edf0ed" />
<path d="M 533.32 268.44 C 534.64 270.11 536.02 271.74 537.51 273.26 C 537.03 275.42 536.27 277.78 536.70 279.97 C 537.20 282.98 538.79 285.21 540.47 287.66 C 540.61 289.68 539.75 292.98 541.08 294.56 C 543.36 294.18 545.63 293.25 547.93 293.11 C 550.21 293.24 551.89 295.11 553.58 296.45 C 556.26 298.90 560.22 300.06 563.52 301.62 C 557.25 309.34 551.28 316.75 543.54 322.98 C 545.51 325.51 547.21 328.10 548.76 330.91 C 550.59 329.72 552.48 328.62 553.95 326.98 C 560.73 318.78 565.35 309.26 572.30 301.23 C 578.27 295.00 581.69 287.24 587.08 280.60 C 592.02 282.36 597.62 284.02 601.81 287.22 C 604.21 289.99 605.49 294.13 605.65 297.75 C 605.00 306.22 604.37 314.52 605.67 322.97 C 602.93 325.59 600.44 328.31 598.57 331.63 C 599.96 331.78 601.35 331.90 602.75 332.00 C 604.48 332.08 606.22 332.11 607.95 332.14 C 608.06 333.59 608.16 335.04 608.27 336.48 C 609.00 336.45 609.73 336.42 610.46 336.40 L 611.45 336.39 C 614.04 338.51 616.02 339.58 619.41 339.96 L 619.54 339.99 C 622.04 342.88 624.36 344.51 628.28 344.81 L 628.50 344.84 C 629.87 347.60 631.70 350.21 632.76 353.10 C 632.78 354.79 632.40 356.54 632.12 358.21 C 632.81 358.70 633.50 359.19 634.20 359.66 L 636.22 360.14 L 636.62 360.22 C 636.74 364.40 636.34 369.95 641.74 370.69 C 642.29 370.66 642.84 370.63 643.40 370.59 C 644.86 374.38 646.71 377.66 645.74 381.88 C 645.48 383.58 643.77 384.61 642.63 385.80 C 640.45 387.72 639.24 390.14 637.31 392.26 C 635.76 393.93 633.98 395.41 632.29 396.94 C 634.68 398.79 637.10 400.57 639.62 402.23 C 638.74 403.36 637.10 404.55 636.89 405.97 C 637.44 407.13 638.17 408.25 638.85 409.35 C 638.05 415.50 633.60 419.83 633.75 425.99 C 633.70 427.00 633.66 428.02 633.63 429.03 C 632.56 429.11 631.48 429.17 630.41 429.26 C 629.31 429.51 628.30 429.54 627.50 430.45 C 625.09 433.10 623.22 436.24 620.98 439.05 L 619.71 439.28 C 618.02 439.67 616.54 439.99 615.53 441.56 C 615.69 444.82 616.80 447.66 616.05 451.00 C 615.21 454.80 615.22 458.01 615.82 461.84 C 613.36 463.43 610.92 465.06 608.54 466.78 C 608.82 469.25 609.10 471.71 609.40 474.17 C 606.32 478.89 602.73 482.78 598.42 486.39 C 594.53 489.57 591.84 492.81 590.03 497.55 C 587.57 497.45 585.86 498.33 583.68 499.26 C 581.51 499.18 579.34 498.20 577.14 498.09 C 574.96 498.44 572.79 499.56 570.81 500.49 C 568.61 502.48 566.01 503.77 563.34 505.01 C 563.53 505.51 563.72 506.01 563.90 506.51 C 564.22 507.39 564.54 508.27 564.84 509.16 C 562.70 509.56 561.07 510.73 562.60 512.94 C 563.12 513.80 563.65 514.65 564.19 515.49 C 563.21 515.38 562.22 515.28 561.23 515.18 C 559.21 514.11 557.18 513.03 555.14 511.98 C 552.77 513.21 550.96 514.65 548.11 513.77 C 544.61 512.89 542.59 512.86 539.14 514.00 C 537.48 512.96 535.77 511.75 533.95 511.00 C 530.08 511.95 526.88 515.56 523.00 516.27 C 520.72 515.65 518.74 513.62 516.88 512.20 C 514.49 513.26 511.71 515.14 509.06 515.12 C 507.25 514.19 505.69 512.93 503.89 511.99 C 499.83 513.59 496.61 515.42 492.03 515.20 C 490.45 516.51 488.89 518.01 487.11 519.02 C 485.06 519.83 482.61 519.78 480.44 520.04 C 478.69 517.85 476.87 515.72 475.06 513.59 C 475.29 511.94 475.64 510.31 475.91 508.66 C 476.59 505.23 474.06 504.95 471.80 503.39 C 473.10 501.82 474.38 500.33 476.20 499.33 C 479.61 497.41 482.46 494.83 485.31 492.18 C 485.76 490.37 486.79 487.57 484.62 486.50 C 482.23 484.85 479.86 483.26 477.88 481.12 C 473.00 476.00 467.93 471.07 463.06 465.94 C 461.78 464.68 460.47 463.15 458.86 462.33 C 455.26 462.16 452.16 462.92 448.83 460.96 C 451.06 454.69 456.18 451.01 457.24 444.03 C 458.60 434.61 458.93 424.99 459.74 415.51 C 461.02 403.11 461.86 390.67 463.02 378.26 C 459.93 377.83 457.51 376.01 454.86 378.55 L 453.68 379.31 L 453.18 379.63 L 452.70 379.93 C 451.33 379.01 450.04 378.78 448.85 379.22 C 448.58 378.23 448.30 377.25 448.00 376.28 C 449.43 372.53 451.48 369.13 453.80 365.88 C 452.97 364.71 452.14 363.55 451.23 362.44 L 450.73 361.98 C 451.51 359.51 452.45 357.17 453.59 354.85 C 452.78 353.83 451.96 352.80 451.10 351.82 L 450.88 351.03 C 449.63 346.48 447.83 342.11 446.48 337.60 C 445.85 335.74 446.45 333.71 446.64 331.77 C 447.22 327.98 446.62 323.97 446.56 320.06 C 446.76 318.38 446.50 316.12 447.86 314.92 C 450.00 312.69 452.48 310.87 454.50 308.50 C 456.21 306.65 457.81 304.35 459.91 302.93 C 462.06 302.14 464.48 302.06 466.70 301.43 C 468.38 299.50 469.14 296.79 470.84 294.88 C 473.12 293.10 475.93 291.99 478.42 290.53 C 485.71 286.56 491.27 281.63 499.36 279.19 C 502.87 282.42 506.99 284.75 511.32 286.69 C 509.86 288.01 508.17 289.43 507.22 291.18 C 506.89 292.80 506.81 294.49 506.67 296.14 C 510.27 295.73 514.73 295.75 517.93 293.95 C 519.69 292.05 520.77 289.47 522.19 287.30 C 523.57 285.03 525.40 283.10 526.85 280.88 C 528.19 278.39 528.42 275.30 529.83 272.83 C 530.80 271.26 532.13 269.85 533.32 268.44 Z" fill="#9bd4c4" />
<path d="M 512.35 285.90 L 511.32 286.69 C 506.99 284.75 502.87 282.42 499.36 279.19 C 504.03 280.22 507.98 283.95 512.35 285.90 Z" fill="#dcede8" />
<path d="M 410.48 282.67 C 414.43 287.70 417.46 293.54 421.72 298.30 C 425.10 301.63 429.00 304.26 431.99 308.01 C 435.26 312.08 439.61 313.19 444.19 315.20 C 444.36 316.18 444.51 317.16 444.66 318.14 C 444.88 323.26 445.56 328.16 444.33 333.22 C 443.70 335.54 444.84 337.24 445.50 339.39 C 447.09 343.70 447.33 347.71 450.88 351.03 L 451.10 351.82 C 451.17 352.69 451.22 353.57 451.25 354.45 C 450.21 356.49 449.52 358.42 449.17 360.68 C 449.69 361.11 450.21 361.54 450.73 361.98 L 451.23 362.44 C 451.40 363.33 451.58 364.21 451.75 365.10 C 449.93 367.92 448.33 370.87 446.50 373.69 L 445.03 373.92 C 441.28 372.53 437.27 371.26 435.65 367.23 C 434.92 365.30 434.05 364.94 432.08 364.69 C 430.88 364.05 429.68 363.40 428.49 362.74 C 427.49 362.11 426.29 361.86 424.90 362.00 L 424.10 361.98 C 423.52 361.06 422.74 360.82 421.75 361.27 C 420.54 359.63 419.26 358.21 418.95 356.11 C 420.07 354.76 421.45 353.56 422.74 352.36 C 418.22 348.82 413.04 346.78 408.20 343.81 C 407.93 345.32 407.68 346.84 407.37 348.35 C 403.20 348.07 399.03 348.07 394.84 348.01 C 394.60 347.12 394.36 346.23 394.12 345.34 C 395.86 343.77 397.58 342.19 399.27 340.58 C 398.52 337.11 398.34 333.83 398.52 330.29 C 396.71 328.17 395.27 326.12 394.53 323.39 C 393.17 318.86 390.52 315.04 388.83 310.65 C 391.91 309.83 395.00 309.02 398.09 308.22 C 398.52 307.32 398.94 306.42 399.37 305.53 C 400.18 305.29 400.99 305.04 401.81 304.80 C 402.44 303.23 403.08 301.65 403.71 300.08 C 402.61 299.64 401.50 299.21 400.39 298.77 C 399.79 297.36 399.17 295.96 398.56 294.55 C 402.35 290.40 406.60 286.73 410.48 282.67 Z" fill="#a797bf" />
<path d="M 605.65 297.75 C 605.70 301.43 606.01 304.99 606.75 308.60 C 607.42 313.35 607.22 318.17 608.00 322.92 C 605.67 325.24 603.41 327.62 601.25 330.10 C 601.75 330.73 602.25 331.37 602.75 332.00 C 601.35 331.90 599.96 331.78 598.57 331.63 C 600.44 328.31 602.93 325.59 605.67 322.97 C 604.37 314.52 605.00 306.22 605.65 297.75 Z" fill="#eaf2ee" />
<path d="M 387.65 311.41 C 390.60 316.70 392.52 322.45 395.33 327.75 C 398.02 331.23 397.03 336.44 397.76 340.77 C 396.19 342.21 394.60 343.64 393.01 345.06 C 393.22 345.98 393.42 346.91 393.62 347.83 C 391.04 349.26 388.04 351.47 385.02 351.56 C 381.03 351.78 377.00 351.67 373.00 351.67 C 366.39 351.68 359.47 349.98 352.94 348.79 C 352.79 345.86 352.67 342.93 352.57 340.00 C 353.86 339.60 355.16 339.19 356.45 338.78 C 357.92 336.52 359.48 334.33 361.05 332.15 C 361.68 329.01 362.78 326.04 363.87 323.04 C 364.60 323.23 365.32 323.41 366.04 323.59 C 369.01 319.59 373.11 317.00 376.42 313.32 C 380.23 312.95 383.92 312.24 387.65 311.41 Z" fill="#91ccca" />
<path d="M 445.20 315.13 C 445.74 316.76 446.25 318.37 446.56 320.06 C 446.62 323.97 447.22 327.98 446.64 331.77 C 446.45 333.71 445.85 335.74 446.48 337.60 C 447.83 342.11 449.63 346.48 450.88 351.03 C 447.33 347.71 447.09 343.70 445.50 339.39 C 444.84 337.24 443.70 335.54 444.33 333.22 C 445.56 328.16 444.88 323.26 444.66 318.14 L 445.20 315.13 Z" fill="#e2e7eb" />
<path d="M 840.99 316.33 C 845.15 316.04 850.45 315.01 854.36 316.71 C 859.96 320.17 864.88 324.61 870.66 327.85 C 872.09 324.66 873.32 321.10 875.40 318.27 C 879.26 317.59 883.40 318.08 887.30 318.17 C 887.49 320.90 887.84 323.39 887.02 326.07 C 885.75 330.54 883.52 334.50 883.62 339.30 C 883.69 344.00 884.74 349.06 882.41 353.41 C 881.23 356.07 877.72 357.09 875.45 358.74 C 875.41 362.10 876.18 365.50 876.32 368.88 C 879.11 372.03 880.70 375.68 882.65 379.34 C 884.15 382.39 887.02 382.55 889.60 384.40 C 891.39 385.85 892.78 387.89 894.23 389.69 C 893.72 390.56 893.21 391.43 892.70 392.30 C 893.38 395.08 893.78 398.30 895.27 400.76 C 897.28 403.82 901.61 403.93 904.85 404.64 C 905.77 406.96 906.98 409.48 907.18 411.98 C 907.12 414.73 906.28 417.57 905.84 420.30 C 897.72 422.75 891.33 429.26 883.58 433.29 C 881.00 433.44 878.58 434.16 876.15 435.02 C 871.46 436.64 866.57 437.03 861.93 438.88 C 853.54 442.16 845.18 445.52 836.72 448.62 C 834.35 449.40 833.07 450.82 831.67 452.78 L 830.61 454.04 C 829.35 451.72 829.00 449.22 828.32 446.71 L 827.58 445.05 C 826.92 443.41 826.43 441.73 825.95 440.04 C 826.49 439.14 827.04 438.23 827.58 437.33 C 826.08 433.74 825.03 430.21 824.27 426.39 C 823.64 425.78 823.01 425.16 822.38 424.55 C 822.41 422.31 822.44 420.07 822.47 417.83 C 821.39 416.78 820.31 415.74 819.23 414.69 C 819.29 413.45 819.35 412.22 819.42 410.98 C 818.41 409.93 817.41 408.88 816.42 407.83 C 816.27 405.53 815.90 403.31 815.39 401.06 C 816.36 400.42 817.34 399.78 818.32 399.13 C 818.23 396.42 818.16 393.71 818.09 390.99 C 820.00 389.35 821.92 387.72 823.84 386.10 C 822.78 381.53 821.31 377.21 819.50 372.89 C 820.13 369.28 820.60 365.66 821.05 362.03 C 821.16 361.12 821.28 360.22 821.39 359.31 C 824.59 359.22 827.85 359.25 831.03 358.84 C 833.48 358.76 835.43 356.20 836.20 354.08 C 835.13 350.33 832.91 347.88 834.26 343.81 C 834.00 342.87 833.74 341.93 833.48 340.99 C 835.05 334.03 834.24 326.50 834.48 319.40 C 835.09 316.93 838.92 316.71 840.99 316.33 Z" fill="#ccfcf8" />
<path d="M 607.95 332.14 L 610.13 332.21 C 610.26 333.60 610.37 335.00 610.46 336.40 C 609.73 336.42 609.00 336.45 608.27 336.48 C 608.16 335.04 608.06 333.59 607.95 332.14 Z" fill="#eff5f2" />
<path d="M 611.45 336.39 C 614.74 336.43 616.81 338.29 619.41 339.96 C 616.02 339.58 614.04 338.51 611.45 336.39 Z" fill="#e0e6df" />
<path d="M 619.54 339.99 L 621.57 340.45 C 623.89 341.71 626.12 343.29 628.28 344.81 C 624.36 344.51 622.04 342.88 619.54 339.99 Z" fill="#e8ebe6" />
<path d="M 408.20 343.81 C 413.04 346.78 418.22 348.82 422.74 352.36 C 421.45 353.56 420.07 354.76 418.95 356.11 C 419.26 358.21 420.54 359.63 421.75 361.27 C 422.26 362.17 423.04 362.41 424.10 361.98 L 424.90 362.00 C 425.53 364.03 427.36 365.04 428.49 362.74 C 429.68 363.40 430.88 364.05 432.08 364.69 C 432.77 366.49 433.53 367.60 435.65 367.23 C 437.27 371.26 441.28 372.53 445.03 373.92 C 443.90 374.10 442.78 374.28 441.66 374.47 C 443.72 375.26 445.83 375.83 448.00 376.28 C 448.30 377.25 448.58 378.23 448.85 379.22 L 448.73 380.07 C 446.75 380.68 444.76 381.29 442.77 381.84 C 440.86 379.91 439.67 379.80 437.13 380.51 C 434.07 381.14 431.21 381.88 428.57 383.60 C 422.50 387.85 414.32 382.75 408.02 385.98 C 403.04 388.35 398.17 390.96 393.19 393.33 C 393.51 395.91 393.84 398.48 394.19 401.05 C 386.79 406.06 378.61 409.15 370.52 412.70 C 367.01 415.78 364.01 419.42 360.39 422.45 L 359.11 423.90 C 358.78 426.68 358.46 429.49 358.39 432.29 C 358.34 435.76 359.61 439.15 360.60 442.45 C 360.16 443.38 359.67 444.29 359.22 445.22 C 357.45 447.87 358.17 450.00 358.75 452.87 L 358.61 453.27 L 358.15 454.47 C 357.56 454.89 356.97 455.31 356.38 455.74 C 354.37 453.56 352.69 451.39 349.92 450.15 C 346.08 448.44 341.85 447.46 337.82 446.27 C 331.86 444.69 326.60 442.43 320.38 442.02 C 320.51 440.53 320.63 439.04 320.75 437.54 C 321.50 437.57 322.26 437.59 323.02 437.61 C 322.84 436.85 322.67 436.09 322.49 435.33 C 325.18 433.60 329.35 431.74 330.61 428.66 C 331.27 424.86 330.33 420.67 330.05 416.84 C 331.03 416.76 332.00 416.69 332.98 416.61 C 334.61 413.61 336.08 412.15 338.99 410.40 C 338.93 408.55 338.85 406.70 338.77 404.85 C 341.13 403.45 343.51 402.10 345.93 400.81 C 346.47 398.05 347.00 395.28 347.53 392.52 C 348.99 392.61 350.45 392.67 351.90 392.73 C 350.22 390.70 348.38 390.20 345.91 389.54 C 345.02 382.13 346.00 375.42 341.79 368.98 C 342.36 368.48 342.93 367.99 343.51 367.50 C 343.55 366.66 343.59 365.83 343.63 364.99 C 345.28 363.76 347.03 362.75 348.17 361.02 C 346.64 359.11 344.69 358.09 342.70 356.74 C 344.49 355.40 346.30 354.08 348.10 352.76 C 347.04 351.15 345.96 349.55 344.89 347.95 C 346.37 347.06 347.85 346.18 349.33 345.29 C 349.95 346.24 350.57 347.19 351.19 348.13 C 350.15 348.86 349.11 349.58 348.07 350.31 C 352.85 350.41 357.34 350.95 362.02 351.94 C 369.81 353.61 378.01 353.36 386.02 353.10 C 390.11 353.02 392.46 350.40 396.10 349.11 C 399.81 348.48 403.64 349.06 407.37 348.35 C 407.68 346.84 407.93 345.32 408.20 343.81 Z" fill="#bca7d6" />
<path d="M 628.50 344.84 L 630.79 345.20 C 632.36 347.66 634.08 350.23 635.03 353.02 C 635.01 354.59 634.75 356.18 634.52 357.73 C 635.08 358.54 635.65 359.34 636.22 360.14 L 634.20 359.66 C 633.50 359.19 632.81 358.70 632.12 358.21 C 632.40 356.54 632.78 354.79 632.76 353.10 C 631.70 350.21 629.87 347.60 628.50 344.84 Z" fill="#f4f7f4" />
<path d="M 408.32 349.05 L 409.03 348.63 L 409.76 349.03 L 409.76 349.85 L 409.05 350.27 L 408.33 349.87 L 408.32 349.05 Z" fill="#ebe5f1" />
<path d="M 812.53 349.45 C 813.01 350.98 813.48 352.50 813.96 354.02 C 813.33 355.31 812.69 356.60 812.05 357.89 C 815.03 360.25 817.30 361.28 821.05 362.03 C 820.60 365.66 820.13 369.28 819.50 372.89 C 821.31 377.21 822.78 381.53 823.84 386.10 C 821.92 387.72 820.00 389.35 818.09 390.99 C 818.16 393.71 818.23 396.42 818.32 399.13 C 817.34 399.78 816.36 400.42 815.39 401.06 C 815.90 403.31 816.27 405.53 816.42 407.83 C 817.41 408.88 818.41 409.93 819.42 410.98 C 819.35 412.22 819.29 413.45 819.23 414.69 C 820.31 415.74 821.39 416.78 822.47 417.83 C 822.44 420.07 822.41 422.31 822.38 424.55 C 823.01 425.16 823.64 425.78 824.27 426.39 C 825.03 430.21 826.08 433.74 827.58 437.33 C 827.04 438.23 826.49 439.14 825.95 440.04 C 826.43 441.73 826.92 443.41 827.58 445.05 C 828.00 448.21 828.75 452.09 826.94 454.94 C 823.20 461.27 818.25 466.92 812.47 471.45 C 805.44 476.78 795.47 477.31 787.00 476.67 C 778.34 475.83 769.65 476.29 761.00 475.29 C 756.65 474.81 752.32 475.03 747.96 474.86 C 745.20 474.79 743.10 473.45 740.61 472.40 C 736.18 470.34 731.34 469.96 726.55 469.35 C 721.47 464.86 713.57 463.19 707.06 461.95 C 706.05 461.63 705.43 461.92 705.20 462.82 C 700.49 458.96 695.28 456.38 689.67 454.11 C 692.01 449.86 693.96 445.43 695.69 440.90 C 696.07 440.68 696.44 440.45 696.81 440.23 C 698.93 439.07 699.55 437.32 700.14 435.12 C 701.83 428.23 703.02 419.49 707.51 413.78 C 708.33 415.46 709.14 417.13 710.01 418.78 C 713.68 415.91 713.05 410.86 717.06 409.08 C 718.72 408.24 720.57 407.69 722.37 407.22 C 728.16 408.13 733.20 409.92 739.14 408.26 L 740.08 407.97 C 740.21 404.25 739.69 400.60 739.29 396.92 C 738.69 393.36 740.79 390.39 742.12 387.24 L 742.61 387.18 C 743.72 387.45 744.82 387.73 745.92 388.01 C 746.67 386.63 747.42 385.24 748.18 383.85 C 752.90 384.73 757.55 385.74 762.11 387.29 C 765.26 388.42 767.92 387.10 770.70 385.69 C 774.08 383.88 776.17 379.66 778.26 376.57 L 778.79 376.14 C 781.65 376.36 784.13 377.86 786.38 375.36 L 785.44 373.60 C 784.15 373.00 782.84 372.45 781.54 371.89 C 785.24 370.18 789.52 369.20 792.88 366.88 C 795.28 365.27 795.31 362.63 796.16 360.08 C 797.13 361.89 798.13 363.67 799.18 365.43 C 802.07 361.44 801.98 355.26 802.38 350.50 C 805.78 350.28 809.15 349.93 812.53 349.45 Z" fill="#a7c293" />
<path d="M 451.10 351.82 C 451.96 352.80 452.78 353.83 453.59 354.85 C 452.45 357.17 451.51 359.51 450.73 361.98 C 450.21 361.54 449.69 361.11 449.17 360.68 C 449.52 358.42 450.21 356.49 451.25 354.45 C 451.22 353.57 451.17 352.69 451.10 351.82 Z" fill="#e2ebec" />
<path d="M 636.62 360.22 C 637.49 360.36 638.35 360.51 639.22 360.65 C 638.48 365.04 639.49 367.10 641.74 370.69 C 636.34 369.95 636.74 364.40 636.62 360.22 Z" fill="#f2f4f2" />
<path d="M 421.75 361.27 C 422.74 360.82 423.52 361.06 424.10 361.98 C 423.04 362.41 422.26 362.17 421.75 361.27 Z" fill="#f0eef4" />
<path d="M 424.90 362.00 C 426.29 361.86 427.49 362.11 428.49 362.74 C 427.36 365.04 425.53 364.03 424.90 362.00 Z" fill="#e7e2ee" />
<path d="M 451.23 362.44 C 452.14 363.55 452.97 364.71 453.80 365.88 C 451.48 369.13 449.43 372.53 448.00 376.28 C 445.83 375.83 443.72 375.26 441.66 374.47 C 442.78 374.28 443.90 374.10 445.03 373.92 L 446.50 373.69 C 448.33 370.87 449.93 367.92 451.75 365.10 C 451.58 364.21 451.40 363.33 451.23 362.44 Z" fill="#f2f4f6" />
<path d="M 432.08 364.69 C 434.05 364.94 434.92 365.30 435.65 367.23 C 433.53 367.60 432.77 366.49 432.08 364.69 Z" fill="#dcd3e6" />
<path d="M 645.22 370.48 C 647.57 373.99 649.03 377.75 648.00 382.02 C 647.70 384.45 645.26 385.35 643.54 386.69 C 641.45 391.00 638.11 393.89 634.56 396.95 C 636.96 398.68 639.46 400.29 641.78 402.12 C 640.99 403.20 640.07 404.22 639.32 405.33 C 638.39 407.27 640.16 407.33 641.23 408.62 C 640.59 412.25 639.57 415.48 637.79 418.72 C 635.92 421.97 636.20 425.24 635.83 428.83 L 633.63 429.03 C 633.66 428.02 633.70 427.00 633.75 425.99 C 633.60 419.83 638.05 415.50 638.85 409.35 C 638.17 408.25 637.44 407.13 636.89 405.97 C 637.10 404.55 638.74 403.36 639.62 402.23 C 637.10 400.57 634.68 398.79 632.29 396.94 C 633.98 395.41 635.76 393.93 637.31 392.26 C 639.24 390.14 640.45 387.72 642.63 385.80 C 643.77 384.61 645.48 383.58 645.74 381.88 C 646.71 377.66 644.86 374.38 643.40 370.59 L 645.22 370.48 Z" fill="#eef2ef" />
<path d="M 779.98 375.36 C 782.12 375.26 784.24 375.30 786.38 375.36 C 784.13 377.86 781.65 376.36 778.79 376.14 L 779.98 375.36 Z" fill="#cdd1b9" />
<path d="M 463.02 378.26 C 461.86 390.67 461.02 403.11 459.74 415.51 C 458.93 424.99 458.60 434.61 457.24 444.03 C 456.18 451.01 451.06 454.69 448.83 460.96 C 452.16 462.92 455.26 462.16 458.86 462.33 C 460.47 463.15 461.78 464.68 463.06 465.94 C 467.93 471.07 473.00 476.00 477.88 481.12 C 479.86 483.26 482.23 484.85 484.62 486.50 C 486.79 487.57 485.76 490.37 485.31 492.18 C 485.14 490.94 484.97 489.71 484.80 488.47 C 482.35 487.22 480.04 485.89 478.16 483.84 C 472.95 478.38 467.58 473.09 462.38 467.62 C 461.25 466.51 460.08 465.20 458.68 464.44 C 454.73 464.05 450.75 463.99 446.80 463.46 C 447.80 465.96 450.29 469.34 449.26 472.05 C 447.98 475.48 444.39 478.57 443.62 482.50 C 442.83 487.12 446.82 491.80 445.52 496.21 C 445.08 494.57 444.60 492.95 444.11 491.32 C 442.93 491.42 441.73 491.52 440.54 491.55 L 439.71 491.16 C 440.71 490.70 441.72 490.23 442.72 489.77 C 442.24 487.25 441.55 484.54 441.74 481.97 C 442.28 478.00 446.17 474.76 447.36 471.05 C 447.91 468.22 445.82 464.93 444.76 462.35 C 428.86 459.60 412.92 459.84 396.91 458.32 C 383.93 456.19 371.10 457.57 358.15 454.47 L 358.61 453.27 C 369.00 455.77 379.33 455.84 389.91 456.35 C 408.83 459.02 427.94 458.32 446.83 461.44 C 448.81 457.92 451.08 454.58 453.17 451.12 C 456.71 445.55 456.15 437.43 456.99 430.98 C 458.18 414.08 460.04 397.25 461.12 380.34 C 459.04 379.71 456.96 379.09 454.86 378.55 C 457.51 376.01 459.93 377.83 463.02 378.26 Z" fill="#e2ede9" />
<path d="M 778.26 376.57 C 776.17 379.66 774.08 383.88 770.70 385.69 C 767.92 387.10 765.26 388.42 762.11 387.29 C 765.03 386.47 768.52 385.79 770.99 383.97 C 773.55 381.61 775.42 378.67 778.26 376.57 Z" fill="#ced0ba" />
<path d="M 448.85 379.22 C 450.04 378.78 451.33 379.01 452.70 379.93 C 451.41 381.09 449.86 381.94 448.73 380.07 L 448.85 379.22 Z" fill="#eaf2f0" />
<path d="M 453.68 379.31 L 453.44 379.47 L 453.18 379.63 L 453.68 379.31 Z" fill="#ecf4ee" />
<path d="M 453.68 379.31 L 454.86 378.55 C 456.96 379.09 459.04 379.71 461.12 380.34 C 460.04 397.25 458.18 414.08 456.99 430.98 C 456.15 437.43 456.71 445.55 453.17 451.12 C 451.08 454.58 448.81 457.92 446.83 461.44 C 427.94 458.32 408.83 459.02 389.91 456.35 C 379.33 455.84 369.00 455.77 358.61 453.27 L 358.75 452.87 C 360.07 450.10 359.87 448.11 359.22 445.22 C 359.67 444.29 360.16 443.38 360.60 442.45 C 362.04 438.69 360.50 435.74 360.23 432.00 C 360.05 428.83 360.47 425.64 360.39 422.45 C 364.01 419.42 367.01 415.78 370.52 412.70 C 378.61 409.15 386.79 406.06 394.19 401.05 C 393.84 398.48 393.51 395.91 393.19 393.33 C 398.17 390.96 403.04 388.35 408.02 385.98 C 414.32 382.75 422.50 387.85 428.57 383.60 C 431.21 381.88 434.07 381.14 437.13 380.51 C 438.83 381.95 440.58 382.61 442.77 381.84 C 444.76 381.29 446.75 380.68 448.73 380.07 C 449.86 381.94 451.41 381.09 452.70 379.93 L 453.18 379.63 L 453.44 379.47 L 453.68 379.31 Z" fill="#a0d49b" />
<path d="M 442.77 381.84 C 440.58 382.61 438.83 381.95 437.13 380.51 C 439.67 379.80 440.86 379.91 442.77 381.84 Z" fill="#d9d7e1" />
<path d="M 746.51 384.11 L 748.18 383.85 C 747.42 385.24 746.67 386.63 745.92 388.01 C 744.82 387.73 743.72 387.45 742.61 387.18 C 743.46 387.00 744.30 386.82 745.14 386.63 C 745.59 385.79 746.04 384.95 746.51 384.11 Z" fill="#d2d5c1" />
<path d="M 740.57 387.48 L 742.12 387.24 C 740.79 390.39 738.69 393.36 739.29 396.92 C 739.69 400.60 740.21 404.25 740.08 407.97 L 739.14 408.26 C 739.07 404.14 738.59 400.07 738.13 395.98 C 737.64 392.77 739.15 390.22 740.57 387.48 Z" fill="#d7d9c7" />
<path d="M 722.37 407.22 C 720.57 407.69 718.72 408.24 717.06 409.08 C 713.05 410.86 713.68 415.91 710.01 418.78 C 710.85 415.94 711.59 412.73 713.24 410.24 C 715.72 407.67 718.93 407.15 722.37 407.22 Z" fill="#d7d8c6" />
<path d="M 709.30 411.46 C 708.70 412.24 708.10 413.01 707.51 413.78 C 703.02 419.49 701.83 428.23 700.14 435.12 C 699.55 437.32 698.93 439.07 696.81 440.23 C 699.86 431.95 700.47 423.46 704.46 415.42 C 705.54 413.72 707.70 412.63 709.30 411.46 Z" fill="#e2e2d5" />
<path d="M 905.84 420.30 C 907.47 421.63 909.14 422.94 910.81 424.23 C 911.15 425.22 911.48 426.21 911.81 427.20 C 913.10 427.87 914.39 428.54 915.67 429.21 C 915.95 430.05 916.24 430.90 916.52 431.74 C 918.28 432.03 920.04 432.32 921.80 432.60 C 922.44 434.85 922.95 437.18 923.85 439.34 C 925.56 442.47 929.10 444.83 932.07 446.67 C 931.75 448.18 931.43 449.69 931.10 451.19 C 936.05 454.88 944.63 455.04 946.28 461.73 C 945.51 462.45 944.75 463.18 943.98 463.91 C 944.41 464.97 944.84 466.03 945.27 467.09 C 941.84 470.92 938.53 475.31 934.41 478.39 C 930.23 481.51 925.68 482.69 921.19 485.22 C 918.81 486.55 916.34 487.72 913.94 489.02 C 911.67 490.14 910.39 492.72 908.39 494.35 C 906.05 495.21 903.42 495.34 900.99 495.89 C 895.71 496.91 890.78 500.28 885.62 501.41 C 880.15 502.37 874.82 501.01 869.30 502.37 C 865.31 503.31 861.40 503.91 857.32 504.30 C 856.05 507.16 854.78 511.28 851.40 512.23 C 846.81 512.32 842.26 512.48 837.68 512.84 C 838.00 511.99 838.32 511.14 838.63 510.28 C 840.28 505.75 842.11 500.72 839.95 496.03 C 838.02 491.44 837.42 486.64 836.64 481.76 C 838.88 481.30 841.13 480.85 843.37 480.41 C 843.96 480.29 844.55 480.18 845.14 480.06 C 844.80 475.77 844.65 471.30 843.69 467.10 C 843.59 466.18 843.07 465.58 842.14 465.32 C 841.13 464.73 839.39 464.45 838.68 463.50 C 837.61 461.09 837.36 458.22 836.96 455.63 C 836.85 453.81 836.83 451.98 836.77 450.16 C 846.04 446.76 855.13 442.84 864.43 439.55 C 871.13 437.89 877.61 437.10 883.58 433.29 C 891.33 429.26 897.72 422.75 905.84 420.30 Z" fill="#a1c8c9" />
<path d="M 360.39 422.45 C 360.47 425.64 360.05 428.83 360.23 432.00 C 360.50 435.74 362.04 438.69 360.60 442.45 C 359.61 439.15 358.34 435.76 358.39 432.29 C 358.46 429.49 358.78 426.68 359.11 423.90 L 360.39 422.45 Z" fill="#eceeef" />
<path d="M 630.41 429.26 C 628.48 432.04 626.71 434.99 624.50 437.56 C 623.59 438.80 622.36 438.71 620.98 439.05 C 623.22 436.24 625.09 433.10 627.50 430.45 C 628.30 429.54 629.31 429.51 630.41 429.26 Z" fill="#eaf0eb" />
<path d="M 883.58 433.29 C 877.61 437.10 871.13 437.89 864.43 439.55 C 855.13 442.84 846.04 446.76 836.77 450.16 C 836.83 451.98 836.85 453.81 836.96 455.63 C 836.55 454.04 836.07 452.47 835.55 450.91 C 834.22 451.48 832.94 452.10 831.67 452.78 C 833.07 450.82 834.35 449.40 836.72 448.62 C 845.18 445.52 853.54 442.16 861.93 438.88 C 866.57 437.03 871.46 436.64 876.15 435.02 C 878.58 434.16 881.00 433.44 883.58 433.29 Z" fill="#e9f1f1" />
<path d="M 694.47 441.63 L 695.69 440.90 C 693.96 445.43 692.01 449.86 689.67 454.11 C 687.71 457.15 686.08 460.38 684.24 463.50 C 682.39 466.27 677.81 467.70 677.41 471.23 C 676.81 474.76 676.54 478.47 676.85 482.04 C 677.10 484.77 679.43 487.35 680.97 489.53 C 675.71 494.93 666.13 499.84 663.32 507.27 C 661.93 507.13 660.55 507.00 659.18 506.72 C 659.99 506.28 660.81 505.84 661.62 505.40 C 665.39 498.75 673.10 493.79 678.91 489.02 C 677.47 486.90 675.42 484.56 674.90 482.02 C 674.51 478.43 674.78 474.71 675.34 471.15 C 675.74 467.26 680.74 465.96 682.42 462.75 C 684.04 459.64 685.74 456.70 687.91 453.94 C 690.90 450.16 692.10 445.73 694.47 441.63 Z" fill="#ecece7" />
<path d="M 320.38 442.02 C 326.60 442.43 331.86 444.69 337.82 446.27 C 341.85 447.46 346.08 448.44 349.92 450.15 C 352.69 451.39 354.37 453.56 356.38 455.74 C 356.97 455.31 357.56 454.89 358.15 454.47 C 371.10 457.57 383.93 456.19 396.91 458.32 C 412.92 459.84 428.86 459.60 444.76 462.35 C 445.82 464.93 447.91 468.22 447.36 471.05 C 446.17 474.76 442.28 478.00 441.74 481.97 C 441.55 484.54 442.24 487.25 442.72 489.77 C 441.72 490.23 440.71 490.70 439.71 491.16 C 438.97 490.79 438.22 490.43 437.46 490.09 C 435.28 489.05 433.09 489.99 431.20 491.19 C 429.17 493.07 428.03 496.04 426.69 498.43 C 422.43 499.52 417.85 500.99 413.45 501.24 C 410.26 501.36 407.07 501.23 403.88 501.17 L 403.25 500.09 C 401.57 497.75 401.01 494.09 397.30 495.09 C 396.93 495.57 396.58 496.07 396.26 496.58 C 395.83 497.37 395.40 498.16 394.95 498.94 C 392.76 501.43 390.14 501.68 387.08 502.36 L 386.80 503.04 C 386.44 504.02 386.11 505.00 385.79 505.99 C 384.19 505.50 383.34 505.88 383.24 507.12 C 382.91 509.27 383.47 511.12 384.06 513.16 L 384.27 514.13 C 381.80 514.10 380.66 514.62 380.61 517.23 C 380.45 518.56 380.26 519.88 380.03 521.20 C 378.53 521.25 377.01 521.32 375.51 521.27 C 374.92 520.98 374.33 520.70 373.74 520.41 L 373.95 517.97 L 374.03 516.75 C 372.53 515.96 370.99 514.52 369.21 515.26 C 365.31 516.51 361.56 518.23 357.70 519.60 C 356.44 518.77 355.17 517.94 353.91 517.11 C 353.09 517.58 352.27 518.05 351.45 518.54 L 350.17 519.31 C 350.97 513.43 355.84 512.35 359.33 507.68 C 361.83 507.61 364.28 507.42 366.76 507.12 C 367.18 505.35 367.62 503.58 368.06 501.81 C 366.96 500.20 365.75 498.54 364.95 496.77 C 364.77 495.11 365.18 493.38 365.34 491.73 C 364.24 491.14 363.13 490.55 362.02 489.97 C 362.36 488.94 362.70 487.91 363.05 486.88 C 361.42 486.43 359.80 485.99 358.17 485.56 C 357.53 482.29 357.00 479.17 357.94 475.88 C 358.76 473.06 358.40 470.32 358.08 467.45 C 354.10 467.31 353.65 471.19 351.83 473.91 C 350.48 472.96 349.14 472.01 347.79 471.07 C 346.80 472.12 345.81 473.16 344.83 474.21 C 343.88 473.54 342.92 472.87 341.97 472.20 C 339.69 473.50 337.40 474.77 335.09 476.02 C 333.69 475.73 332.30 475.43 330.90 475.14 C 330.58 473.55 330.30 471.82 329.64 470.33 C 327.67 468.72 323.69 467.84 321.20 468.31 C 319.87 469.14 318.69 470.26 317.49 471.27 C 316.56 468.64 315.73 466.00 315.01 463.31 C 315.77 461.69 316.51 460.07 317.23 458.43 C 318.24 458.52 319.24 458.60 320.25 458.68 C 318.55 453.46 317.53 447.03 320.38 442.02 Z" fill="#9dbcc9" />
<path d="M 827.58 445.05 L 828.32 446.71 C 829.00 449.22 829.35 451.72 830.61 454.04 C 828.56 456.00 826.20 457.27 824.59 459.72 C 819.31 467.82 811.07 476.76 801.00 478.15 C 795.71 479.22 790.35 479.21 784.99 478.70 C 777.33 477.98 769.66 478.35 762.01 477.50 C 757.33 476.95 752.67 477.09 747.98 477.00 C 745.12 477.02 742.96 475.74 740.43 474.65 C 736.48 472.83 731.82 472.25 727.57 471.23 L 726.55 469.35 C 731.34 469.96 736.18 470.34 740.61 472.40 C 743.10 473.45 745.20 474.79 747.96 474.86 C 752.32 475.03 756.65 474.81 761.00 475.29 C 769.65 476.29 778.34 475.83 787.00 476.67 C 795.47 477.31 805.44 476.78 812.47 471.45 C 818.25 466.92 823.20 461.27 826.94 454.94 C 828.75 452.09 828.00 448.21 827.58 445.05 Z" fill="#f1f0ec" />
<path d="M 359.22 445.22 C 359.87 448.11 360.07 450.10 358.75 452.87 C 358.17 450.00 357.45 447.87 359.22 445.22 Z" fill="#eaecec" />
<path d="M 835.55 450.91 C 836.07 452.47 836.55 454.04 836.96 455.63 C 837.36 458.22 837.61 461.09 838.68 463.50 C 839.39 464.45 841.13 464.73 842.14 465.32 C 843.09 470.37 843.55 475.26 843.37 480.41 C 841.13 480.85 838.88 481.30 836.64 481.76 C 837.42 486.64 838.02 491.44 839.95 496.03 C 839.81 500.79 839.10 505.54 838.63 510.28 C 838.32 511.14 838.00 511.99 837.68 512.84 C 835.72 513.02 833.39 512.90 831.62 513.74 C 828.77 516.16 827.35 519.19 823.63 520.58 C 818.95 522.25 814.14 524.74 809.23 525.49 C 806.37 524.17 803.97 521.67 801.35 519.89 C 795.88 521.39 790.87 522.69 785.66 519.55 C 782.62 519.32 779.35 518.88 776.34 519.40 C 774.72 521.03 773.54 523.15 771.76 524.72 C 769.79 526.43 767.73 528.04 765.81 529.80 C 761.10 529.11 755.80 528.80 751.21 530.19 C 750.01 531.32 749.04 532.73 748.02 534.02 C 742.96 535.35 740.50 539.19 736.20 541.86 C 735.18 540.96 734.16 540.06 733.13 539.16 L 732.72 537.30 L 732.49 536.36 C 728.95 534.28 725.53 532.25 721.39 531.60 C 718.18 526.89 716.25 521.70 714.73 516.24 L 714.17 514.66 C 712.64 513.90 711.04 513.24 709.47 512.58 C 708.82 510.80 707.37 508.59 708.94 506.90 C 711.28 503.69 712.51 499.95 714.63 496.61 C 716.47 493.85 717.07 490.61 718.71 487.77 C 721.94 482.73 722.61 476.74 725.46 471.43 L 727.57 471.23 C 731.82 472.25 736.48 472.83 740.43 474.65 C 742.96 475.74 745.12 477.02 747.98 477.00 C 752.67 477.09 757.33 476.95 762.01 477.50 C 769.66 478.35 777.33 477.98 784.99 478.70 C 790.35 479.21 795.71 479.22 801.00 478.15 C 811.07 476.76 819.31 467.82 824.59 459.72 C 826.20 457.27 828.56 456.00 830.61 454.04 L 831.67 452.78 C 832.94 452.10 834.22 451.48 835.55 450.91 Z" fill="#d1a7a8" />
<path d="M 689.67 454.11 C 695.28 456.38 700.49 458.96 705.20 462.82 C 706.07 463.54 706.69 463.25 707.06 461.95 C 713.57 463.19 721.47 464.86 726.55 469.35 L 727.57 471.23 L 725.46 471.43 C 722.61 476.74 721.94 482.73 718.71 487.77 C 717.07 490.61 716.47 493.85 714.63 496.61 C 712.51 499.95 711.28 503.69 708.94 506.90 C 707.37 508.59 708.82 510.80 709.47 512.58 L 710.10 513.58 C 709.49 513.52 708.88 513.48 708.26 513.45 C 706.31 515.72 704.73 518.23 703.46 520.93 C 703.14 521.60 702.82 522.26 702.51 522.93 C 701.04 526.19 699.02 529.02 696.77 531.77 C 693.80 535.44 692.85 539.50 690.57 543.58 C 686.79 550.36 682.29 556.89 678.90 563.87 C 677.92 565.87 676.90 567.84 675.71 569.71 C 671.01 576.70 666.31 585.02 660.60 591.62 C 657.83 593.65 653.92 593.92 651.18 596.23 C 647.87 599.02 644.11 601.10 640.74 603.81 C 638.93 605.56 635.52 604.94 633.16 605.17 C 633.04 607.31 633.06 609.54 632.58 611.64 C 631.97 612.96 630.15 613.44 628.93 614.03 C 629.37 612.43 629.23 608.62 626.65 609.73 L 625.92 610.13 L 625.69 608.39 C 623.87 608.27 622.04 608.22 620.21 608.17 C 618.68 609.56 617.16 611.40 615.28 612.30 C 612.83 612.89 609.93 612.07 607.47 611.73 C 606.24 607.67 605.16 603.95 601.74 601.14 C 600.11 599.73 597.31 600.41 596.08 602.04 C 591.80 607.31 590.34 613.12 588.11 619.29 C 587.28 621.68 585.07 622.05 583.08 623.21 C 579.92 624.64 578.28 627.35 575.42 629.40 C 573.06 631.04 570.28 632.16 567.70 633.42 C 568.57 629.92 570.15 626.64 568.98 623.04 C 567.52 618.02 565.42 613.20 563.76 608.25 C 562.28 603.84 559.92 600.63 559.55 596.00 C 559.21 592.20 557.45 588.75 557.04 585.00 C 557.14 583.84 558.48 582.95 559.15 582.04 C 560.94 580.31 561.18 578.17 561.94 575.90 C 562.90 575.90 563.86 575.88 564.82 575.85 C 573.88 575.89 582.94 575.81 592.00 575.85 C 597.53 575.85 602.56 576.39 607.97 574.93 C 611.57 573.97 615.71 573.11 618.59 570.64 C 621.71 568.09 624.61 565.29 627.71 562.72 C 631.06 559.76 634.50 557.56 636.34 553.31 C 638.16 549.14 640.69 544.58 641.03 540.02 C 641.56 534.27 641.66 528.63 642.80 522.93 C 643.82 517.42 645.98 512.53 647.48 507.12 L 648.22 507.63 C 648.97 508.14 649.71 508.64 650.46 509.15 C 650.64 507.08 650.83 505.01 651.03 502.94 C 652.35 503.65 653.63 504.45 654.89 505.27 L 656.04 505.96 C 656.74 505.41 657.25 504.73 657.55 503.90 C 658.07 504.85 658.61 505.79 659.18 506.72 C 660.55 507.00 661.93 507.13 663.32 507.27 C 666.13 499.84 675.71 494.93 680.97 489.53 C 679.43 487.35 677.10 484.77 676.85 482.04 C 676.54 478.47 676.81 474.76 677.41 471.23 C 677.81 467.70 682.39 466.27 684.24 463.50 C 686.08 460.38 687.71 457.15 689.67 454.11 Z" fill="#a3bfb1" />
<path d="M 707.06 461.95 C 706.69 463.25 706.07 463.54 705.20 462.82 C 705.43 461.92 706.05 461.63 707.06 461.95 Z" fill="#e3ebdf" />
<path d="M 458.68 464.44 C 460.08 465.20 461.25 466.51 462.38 467.62 C 467.58 473.09 472.95 478.38 478.16 483.84 C 480.04 485.89 482.35 487.22 484.80 488.47 C 484.97 489.71 485.14 490.94 485.31 492.18 C 482.46 494.83 479.61 497.41 476.20 499.33 C 474.38 500.33 473.10 501.82 471.80 503.39 C 469.14 504.18 466.63 505.10 464.52 506.97 C 464.24 508.27 464.02 509.58 463.77 510.89 C 462.88 510.53 462.24 510.89 461.85 511.97 C 461.02 512.33 460.18 512.69 459.35 513.06 C 458.95 515.43 458.94 518.46 457.55 520.49 C 455.86 523.02 453.92 525.40 452.06 527.82 C 447.13 528.55 441.70 530.41 436.81 529.38 C 435.24 529.11 433.67 528.79 432.10 528.48 C 432.68 525.46 432.96 522.63 432.25 519.60 C 432.69 518.84 433.15 518.08 433.58 517.31 L 434.09 516.32 C 433.64 515.22 433.19 514.12 432.71 513.02 C 433.29 512.17 433.87 511.31 434.45 510.46 C 434.82 509.95 435.18 509.43 435.54 508.91 C 436.30 507.89 436.44 506.64 435.97 505.17 C 438.11 504.20 440.24 503.23 442.36 502.22 L 443.03 501.92 C 443.37 500.90 443.29 500.00 442.78 499.21 C 443.74 498.25 444.68 497.28 445.52 496.21 C 446.82 491.80 442.83 487.12 443.62 482.50 C 444.39 478.57 447.98 475.48 449.26 472.05 C 450.29 469.34 447.80 465.96 446.80 463.46 C 450.75 463.99 454.73 464.05 458.68 464.44 Z" fill="#8a96bf" />
<path d="M 842.14 465.32 C 843.07 465.58 843.59 466.18 843.69 467.10 C 844.65 471.30 844.80 475.77 845.14 480.06 C 844.55 480.18 843.96 480.29 843.37 480.41 C 843.55 475.26 843.09 470.37 842.14 465.32 Z" fill="#d9d7d8" />
<path d="M 437.46 490.09 C 435.37 490.92 432.99 491.76 431.27 493.25 C 429.70 495.08 428.67 497.45 427.55 499.58 C 423.20 500.96 418.59 502.56 414.01 502.75 C 410.96 502.87 407.92 502.80 404.87 502.88 C 404.54 502.31 404.21 501.74 403.88 501.17 C 407.07 501.23 410.26 501.36 413.45 501.24 C 417.85 500.99 422.43 499.52 426.69 498.43 C 428.03 496.04 429.17 493.07 431.20 491.19 C 433.09 489.99 435.28 489.05 437.46 490.09 Z" fill="#dfd9e6" />
<path d="M 437.46 490.09 C 438.22 490.43 438.97 490.79 439.71 491.16 L 440.54 491.55 C 441.73 491.52 442.93 491.42 444.11 491.32 C 444.60 492.95 445.08 494.57 445.52 496.21 C 444.68 497.28 443.74 498.25 442.78 499.21 C 441.72 500.19 441.58 501.19 442.36 502.22 C 440.24 503.23 438.11 504.20 435.97 505.17 C 434.27 505.83 434.46 507.75 435.54 508.91 C 435.18 509.43 434.82 509.95 434.45 510.46 C 432.85 511.58 431.23 512.65 429.71 513.88 C 426.53 516.54 424.44 519.75 422.01 523.04 C 419.81 526.06 416.96 527.85 414.14 530.19 C 411.00 532.72 408.33 535.62 405.35 538.32 L 404.05 538.02 C 403.25 537.16 402.49 536.27 401.71 535.38 C 399.57 536.53 397.40 537.54 395.15 538.46 C 394.95 539.57 394.75 540.68 394.56 541.79 C 389.62 543.45 384.65 545.48 379.53 546.43 C 375.35 547.10 372.92 544.34 369.40 542.85 C 366.19 542.07 363.56 542.24 361.23 539.52 C 359.92 538.48 358.59 537.47 357.26 536.45 C 356.83 536.52 356.41 536.59 355.98 536.66 C 356.10 535.90 356.23 535.14 356.37 534.38 C 354.21 531.72 351.90 529.36 349.08 527.41 C 349.43 524.75 349.50 521.90 350.17 519.31 L 351.45 518.54 C 353.29 519.35 355.19 520.33 357.15 520.82 C 361.25 520.57 365.42 517.71 369.34 516.66 C 370.90 516.80 372.46 517.51 373.95 517.97 L 373.74 520.41 C 373.66 521.36 373.62 522.32 373.57 523.28 C 375.59 523.18 377.63 523.09 379.65 522.90 L 380.03 521.20 C 380.26 519.88 380.45 518.56 380.61 517.23 C 381.90 516.91 384.75 515.87 384.27 514.13 L 384.06 513.16 C 383.47 511.12 382.91 509.27 383.24 507.12 C 384.59 507.61 385.44 507.23 385.79 505.99 C 386.11 505.00 386.44 504.02 386.80 503.04 C 388.61 503.07 390.43 503.11 392.24 503.15 C 393.18 501.77 394.11 500.38 394.95 498.94 C 395.40 498.16 395.83 497.37 396.26 496.58 C 399.62 496.45 401.07 497.68 403.25 500.09 L 403.88 501.17 C 404.21 501.74 404.54 502.31 404.87 502.88 C 407.92 502.80 410.96 502.87 414.01 502.75 C 418.59 502.56 423.20 500.96 427.55 499.58 C 428.67 497.45 429.70 495.08 431.27 493.25 C 432.99 491.76 435.37 490.92 437.46 490.09 Z" fill="#cf99cd" />
<path d="M 397.30 495.09 C 401.01 494.09 401.57 497.75 403.25 500.09 C 401.07 497.68 399.62 496.45 396.26 496.58 C 396.58 496.07 396.93 495.57 397.30 495.09 Z" fill="#d2cede" />
<path d="M 839.95 496.03 C 842.11 500.72 840.28 505.75 838.63 510.28 C 839.10 505.54 839.81 500.79 839.95 496.03 Z" fill="#c9dadc" />
<path d="M 394.95 498.94 C 394.11 500.38 393.18 501.77 392.24 503.15 C 390.43 503.11 388.61 503.07 386.80 503.04 L 387.08 502.36 C 390.14 501.68 392.76 501.43 394.95 498.94 Z" fill="#e5dce9" />
<path d="M 442.78 499.21 C 443.29 500.00 443.37 500.90 443.03 501.92 L 442.36 502.22 C 441.58 501.19 441.72 500.19 442.78 499.21 Z" fill="#dddfea" />
<path d="M 578.10 499.47 C 580.45 500.00 582.77 500.74 585.07 501.43 C 585.73 500.49 586.39 499.55 587.05 498.61 C 589.29 499.28 591.93 499.79 593.87 501.13 C 595.80 502.50 596.75 504.74 597.86 506.74 C 602.15 506.54 606.16 506.06 610.45 506.79 C 612.95 507.24 615.43 507.49 617.97 507.40 C 620.68 507.19 623.17 507.77 625.24 505.66 L 625.70 505.02 C 630.60 507.22 637.36 507.99 640.71 512.29 C 641.78 513.48 642.45 514.26 642.10 515.97 C 641.51 520.36 640.01 524.54 639.64 528.99 C 638.81 534.96 639.64 540.87 637.21 546.20 C 635.72 549.56 634.47 553.29 632.26 556.25 C 629.31 559.59 625.53 562.23 622.25 565.25 C 618.92 568.06 616.08 571.45 611.78 572.70 C 607.36 574.06 602.64 575.41 598.01 575.55 C 586.96 575.72 575.85 575.11 564.82 575.85 C 563.86 575.88 562.90 575.90 561.94 575.90 C 552.38 574.89 542.98 572.83 533.37 572.19 C 533.68 572.67 534.00 573.16 534.33 573.65 C 531.99 577.39 529.37 579.92 525.62 582.24 C 522.78 581.20 520.43 579.85 517.32 580.64 C 516.14 581.11 514.97 581.62 513.80 582.13 C 511.87 581.85 509.99 581.58 508.04 581.87 C 504.87 582.08 502.23 582.65 499.44 584.21 C 498.49 581.13 497.74 578.00 497.09 574.85 C 497.29 574.14 497.49 573.43 497.69 572.72 C 497.05 567.82 491.83 567.89 488.64 564.36 C 484.32 560.97 486.46 555.76 485.41 550.72 C 483.36 549.58 481.24 548.62 479.11 547.63 C 478.68 543.91 478.85 539.85 477.71 536.28 C 475.24 534.08 471.47 533.03 468.67 531.15 C 471.59 527.69 475.12 525.13 479.10 523.01 C 481.89 522.04 484.87 521.66 487.65 520.68 C 489.24 519.76 490.61 518.39 492.01 517.20 C 493.67 517.13 495.37 517.12 497.01 516.87 C 499.42 516.18 501.54 514.63 503.97 513.91 C 505.99 514.82 507.82 516.90 509.98 517.25 C 512.43 516.55 514.62 515.15 517.02 514.37 C 519.03 515.52 520.87 517.38 522.99 518.32 C 526.91 517.93 530.17 514.04 534.02 513.02 C 536.09 513.52 537.97 515.10 539.77 516.23 C 541.17 515.75 542.67 514.92 544.15 514.79 C 547.09 515.34 549.93 516.13 552.93 516.32 C 553.63 515.42 554.33 514.53 555.03 513.63 C 557.48 514.88 559.87 516.20 562.19 517.68 C 563.10 517.30 564.02 516.92 564.94 516.54 L 564.19 515.49 C 563.65 514.65 563.12 513.80 562.60 512.94 C 563.87 512.17 565.53 510.84 564.84 509.16 C 564.54 508.27 564.22 507.39 563.90 506.51 C 565.73 505.72 567.57 504.96 569.42 504.21 C 569.97 503.46 570.53 502.71 571.09 501.96 C 573.42 501.12 575.73 500.20 578.10 499.47 Z" fill="#d1a794" />
<path d="M 656.28 502.10 C 656.81 502.65 657.23 503.25 657.55 503.90 C 657.25 504.73 656.74 505.41 656.04 505.96 L 654.89 505.27 C 655.02 504.16 655.49 503.10 656.28 502.10 Z" fill="#ebece7" />
<path d="M 627.07 503.05 C 631.14 504.45 635.12 506.07 639.19 507.45 C 640.84 509.23 642.55 510.95 644.29 512.63 C 644.83 510.42 645.33 508.21 645.83 505.99 C 646.38 506.37 646.93 506.74 647.48 507.12 C 645.98 512.53 643.82 517.42 642.80 522.93 C 641.66 528.63 641.56 534.27 641.03 540.02 C 640.69 544.58 638.16 549.14 636.34 553.31 C 634.50 557.56 631.06 559.76 627.71 562.72 C 624.61 565.29 621.71 568.09 618.59 570.64 C 615.71 573.11 611.57 573.97 607.97 574.93 C 602.56 576.39 597.53 575.85 592.00 575.85 C 582.94 575.81 573.88 575.89 564.82 575.85 C 575.85 575.11 586.96 575.72 598.01 575.55 C 602.64 575.41 607.36 574.06 611.78 572.70 C 616.08 571.45 618.92 568.06 622.25 565.25 C 625.53 562.23 629.31 559.59 632.26 556.25 C 634.47 553.29 635.72 549.56 637.21 546.20 C 639.64 540.87 638.81 534.96 639.64 528.99 C 640.01 524.54 641.51 520.36 642.10 515.97 C 642.45 514.26 641.78 513.48 640.71 512.29 C 637.36 507.99 630.60 507.22 625.70 505.02 C 626.15 504.36 626.61 503.70 627.07 503.05 Z" fill="#ebe6e1" />
<path d="M 649.36 502.86 L 651.03 502.94 C 650.83 505.01 650.64 507.08 650.46 509.15 C 649.71 508.64 648.97 508.14 648.22 507.63 C 648.59 506.03 648.95 504.44 649.36 502.86 Z" fill="#dddfd7" />
<path d="M 471.80 503.39 C 474.06 504.95 476.59 505.23 475.91 508.66 C 474.21 507.48 472.51 506.25 470.76 505.17 C 468.67 505.69 466.60 506.36 464.52 506.97 C 466.63 505.10 469.14 504.18 471.80 503.39 Z" fill="#e7eaef" />
<path d="M 435.97 505.17 C 436.44 506.64 436.30 507.89 435.54 508.91 C 434.46 507.75 434.27 505.83 435.97 505.17 Z" fill="#e1e0eb" />
<path d="M 470.76 505.17 C 472.51 506.25 474.21 507.48 475.91 508.66 C 475.64 510.31 475.29 511.94 475.06 513.59 C 475.28 515.34 475.59 517.07 475.91 518.80 C 476.88 519.26 477.84 519.73 478.80 520.19 C 478.90 521.13 479.00 522.07 479.10 523.01 C 475.12 525.13 471.59 527.69 468.67 531.15 C 471.47 533.03 475.24 534.08 477.71 536.28 C 478.85 539.85 478.68 543.91 479.11 547.63 C 481.24 548.62 483.36 549.58 485.41 550.72 C 484.94 555.22 486.57 562.52 482.68 565.67 C 480.83 567.44 478.50 569.26 475.97 569.86 C 471.97 568.77 468.13 567.44 463.98 566.86 C 460.51 566.35 458.32 564.29 455.38 562.66 C 453.60 561.28 450.80 562.54 448.75 562.78 C 447.90 561.10 447.06 559.41 446.22 557.72 C 446.82 557.37 447.43 557.02 448.04 556.68 C 450.24 555.62 449.03 553.54 446.88 554.24 C 444.58 554.62 442.30 555.07 439.99 555.40 C 438.85 554.30 437.70 553.22 436.54 552.15 C 436.84 549.12 437.29 546.11 437.81 543.11 C 435.18 541.67 432.47 540.49 429.67 539.45 L 429.97 539.14 C 432.10 537.52 433.83 536.43 433.09 533.44 C 432.33 532.43 431.52 531.46 430.73 530.48 C 437.59 530.09 443.56 532.03 450.41 529.34 C 450.99 528.87 451.54 528.37 452.06 527.82 C 453.92 525.40 455.86 523.02 457.55 520.49 C 458.94 518.46 458.95 515.43 459.35 513.06 C 460.18 512.69 461.02 512.33 461.85 511.97 C 463.11 512.26 463.75 511.89 463.77 510.89 C 464.02 509.58 464.24 508.27 464.52 506.97 C 466.60 506.36 468.67 505.69 470.76 505.17 Z" fill="#b7b0cf" />
<path d="M 385.79 505.99 C 385.44 507.23 384.59 507.61 383.24 507.12 C 383.34 505.88 384.19 505.50 385.79 505.99 Z" fill="#e2e6eb" />
<path d="M 564.84 509.16 C 565.53 510.84 563.87 512.17 562.60 512.94 C 561.07 510.73 562.70 509.56 564.84 509.16 Z" fill="#eef0ed" />
<path d="M 434.45 510.46 C 433.87 511.31 433.29 512.17 432.71 513.02 C 433.19 514.12 433.64 515.22 434.09 516.32 L 433.58 517.31 C 432.30 516.15 431.03 514.99 429.71 513.88 C 431.23 512.65 432.85 511.58 434.45 510.46 Z" fill="#dcd8d7" />
<path d="M 463.77 510.89 C 463.75 511.89 463.11 512.26 461.85 511.97 C 462.24 510.89 462.88 510.53 463.77 510.89 Z" fill="#e2e4ed" />
<path d="M 533.95 511.00 C 535.77 511.75 537.48 512.96 539.14 514.00 C 542.59 512.86 544.61 512.89 548.11 513.77 C 550.96 514.65 552.77 513.21 555.14 511.98 C 557.18 513.03 559.21 514.11 561.23 515.18 C 562.22 515.28 563.21 515.38 564.19 515.49 L 564.94 516.54 C 564.02 516.92 563.10 517.30 562.19 517.68 C 559.87 516.20 557.48 514.88 555.03 513.63 C 554.33 514.53 553.63 515.42 552.93 516.32 C 549.93 516.13 547.09 515.34 544.15 514.79 C 542.67 514.92 541.17 515.75 539.77 516.23 C 537.97 515.10 536.09 513.52 534.02 513.02 C 530.17 514.04 526.91 517.93 522.99 518.32 C 520.87 517.38 519.03 515.52 517.02 514.37 C 514.62 515.15 512.43 516.55 509.98 517.25 C 507.82 516.90 505.99 514.82 503.97 513.91 C 501.54 514.63 499.42 516.18 497.01 516.87 C 495.37 517.12 493.67 517.13 492.01 517.20 C 490.61 518.39 489.24 519.76 487.65 520.68 C 484.87 521.66 481.89 522.04 479.10 523.01 C 479.00 522.07 478.90 521.13 478.80 520.19 C 477.84 519.73 476.88 519.26 475.91 518.80 C 475.59 517.07 475.28 515.34 475.06 513.59 C 476.87 515.72 478.69 517.85 480.44 520.04 C 482.61 519.78 485.06 519.83 487.11 519.02 C 488.89 518.01 490.45 516.51 492.03 515.20 C 496.61 515.42 499.83 513.59 503.89 511.99 C 505.69 512.93 507.25 514.19 509.06 515.12 C 511.71 515.14 514.49 513.26 516.88 512.20 C 518.74 513.62 520.72 515.65 523.00 516.27 C 526.88 515.56 530.08 511.95 533.95 511.00 Z" fill="#ecf1ee" />
<path d="M 708.26 513.45 C 708.88 513.48 709.49 513.52 710.10 513.58 C 710.78 514.41 711.46 515.24 712.14 516.07 C 713.00 516.13 713.86 516.18 714.73 516.24 C 716.25 521.70 718.18 526.89 721.39 531.60 L 722.60 533.30 C 725.07 534.21 727.25 535.16 729.27 536.86 C 730.42 537.01 731.57 537.16 732.72 537.30 L 733.13 539.16 L 733.48 540.56 C 734.39 541.46 735.33 542.31 736.28 543.17 C 740.60 540.46 743.07 536.56 748.21 535.23 C 749.61 533.63 750.52 531.00 752.97 531.01 C 757.24 530.36 761.46 530.28 765.68 531.29 C 767.49 529.50 769.45 527.92 771.43 526.33 C 773.29 524.83 774.38 522.71 776.06 520.89 C 779.04 520.05 782.58 520.73 785.64 520.89 C 790.64 524.06 795.90 522.83 801.15 521.11 C 803.30 522.64 805.36 524.27 807.38 525.97 C 804.94 529.31 802.47 532.63 799.96 535.91 C 801.16 536.74 802.42 537.55 803.51 538.52 C 804.00 540.18 802.79 542.20 802.29 543.78 C 801.74 546.74 801.44 550.91 799.41 553.26 C 796.81 553.91 794.00 553.86 791.44 554.64 C 788.51 556.27 785.97 558.63 783.15 560.48 C 782.25 565.33 783.79 570.17 782.91 574.90 C 781.44 579.02 784.72 583.62 785.25 587.93 C 785.69 588.33 786.14 588.74 786.58 589.14 C 786.49 589.95 786.40 590.77 786.32 591.58 C 790.16 596.12 789.56 602.74 791.01 608.57 C 789.98 609.03 788.96 609.50 787.94 609.97 C 787.13 609.73 786.32 609.49 785.51 609.25 C 784.54 610.75 783.57 612.25 782.60 613.75 C 782.61 616.50 782.58 619.24 782.64 621.98 C 784.07 623.00 785.49 624.02 786.92 625.04 C 785.97 625.74 785.02 626.44 784.07 627.15 C 783.51 625.82 782.95 624.50 782.38 623.18 C 782.58 624.20 782.79 625.23 783.00 626.25 C 781.18 626.25 779.36 626.27 777.53 626.30 C 776.37 627.61 775.20 628.91 774.02 630.20 C 774.18 632.00 774.35 633.79 774.52 635.58 C 773.04 638.70 772.33 641.67 769.05 643.43 C 769.16 644.54 769.28 645.65 769.40 646.77 C 768.81 647.75 768.22 648.74 767.64 649.72 C 766.77 648.65 765.89 647.59 765.01 646.52 C 764.20 647.45 763.38 648.37 762.57 649.29 C 761.51 647.14 760.33 645.05 759.11 642.99 C 758.12 643.29 757.14 643.59 756.16 643.90 C 755.83 642.70 755.51 641.50 755.18 640.30 C 755.96 639.82 756.74 639.34 757.53 638.86 C 755.29 637.31 753.03 635.81 750.76 634.31 C 749.54 634.26 748.33 634.20 747.11 634.15 C 746.93 633.22 746.75 632.30 746.57 631.37 C 744.18 629.63 741.79 627.91 739.27 626.36 C 738.83 625.55 738.38 624.74 737.94 623.93 C 737.28 624.38 736.62 624.84 735.95 625.30 C 735.38 624.58 734.81 623.86 734.24 623.14 C 733.46 624.87 732.67 626.59 731.84 628.29 C 730.45 625.73 729.84 623.07 729.42 620.21 C 728.01 620.30 726.61 620.40 725.21 620.49 C 725.26 619.26 725.32 618.02 725.37 616.78 C 723.56 617.45 721.72 618.27 719.82 618.65 C 718.52 618.28 717.27 617.59 716.05 617.01 C 716.39 615.87 716.73 614.72 717.07 613.58 L 714.74 614.06 C 715.26 612.85 715.77 611.64 716.29 610.43 C 717.02 609.06 716.86 607.67 716.17 606.32 L 715.81 605.47 L 715.40 604.58 C 715.08 603.92 714.77 603.26 714.45 602.60 C 714.14 601.58 713.81 600.57 713.49 599.55 C 713.25 599.14 713.01 598.73 712.76 598.32 C 713.66 597.61 714.12 596.51 714.12 595.00 C 714.65 594.07 715.19 593.15 715.70 592.20 C 716.67 586.59 715.12 582.61 711.31 578.57 C 711.16 577.53 711.02 576.49 710.89 575.46 L 710.94 575.19 C 711.26 574.48 711.55 573.77 711.80 573.04 C 711.48 572.21 711.01 571.45 710.39 570.75 C 711.83 568.59 713.23 566.41 714.55 564.18 C 716.16 559.19 712.16 554.25 709.33 550.52 C 709.23 549.33 709.13 548.15 709.04 546.96 C 707.93 545.99 706.83 545.02 705.70 544.07 C 707.24 541.76 708.75 539.29 709.55 536.62 C 710.80 532.56 709.22 529.42 707.64 525.79 C 706.16 524.24 704.79 522.60 703.46 520.93 C 704.73 518.23 706.31 515.72 708.26 513.45 Z" fill="#88bf99" />
<path d="M 709.47 512.58 C 711.04 513.24 712.64 513.90 714.17 514.66 L 714.73 516.24 C 713.86 516.18 713.00 516.13 712.14 516.07 C 711.46 515.24 710.78 514.41 710.10 513.58 L 709.47 512.58 Z" fill="#e4dcda" />
<path d="M 384.27 514.13 C 384.75 515.87 381.90 516.91 380.61 517.23 C 380.66 514.62 381.80 514.10 384.27 514.13 Z" fill="#d4d5e1" />
<path d="M 429.71 513.88 C 431.03 514.99 432.30 516.15 433.58 517.31 C 433.15 518.08 432.69 518.84 432.25 519.60 L 431.41 521.05 C 431.29 524.57 431.36 527.72 429.34 530.80 C 427.47 531.26 425.61 531.73 423.74 532.19 C 423.91 534.09 424.11 535.98 424.34 537.87 C 423.34 540.42 422.49 542.99 421.84 545.65 C 420.53 546.13 419.22 546.61 417.89 547.03 C 413.25 544.05 410.88 539.87 405.35 538.32 C 408.33 535.62 411.00 532.72 414.14 530.19 C 416.96 527.85 419.81 526.06 422.01 523.04 C 424.44 519.75 426.53 516.54 429.71 513.88 Z" fill="#d1d1a7" />
<path d="M 369.21 515.26 C 370.99 514.52 372.53 515.96 374.03 516.75 L 373.95 517.97 C 372.46 517.51 370.90 516.80 369.34 516.66 C 365.42 517.71 361.25 520.57 357.15 520.82 C 355.19 520.33 353.29 519.35 351.45 518.54 C 352.27 518.05 353.09 517.58 353.91 517.11 C 355.17 517.94 356.44 518.77 357.70 519.60 C 361.56 518.23 365.31 516.51 369.21 515.26 Z" fill="#e2e1ea" />
<path d="M 373.74 520.41 C 374.33 520.70 374.92 520.98 375.51 521.27 C 377.01 521.32 378.53 521.25 380.03 521.20 L 379.65 522.90 C 377.63 523.09 375.59 523.18 373.57 523.28 C 373.62 522.32 373.66 521.36 373.74 520.41 Z" fill="#e3dde9" />
<path d="M 432.25 519.60 C 432.96 522.63 432.68 525.46 432.10 528.48 C 433.67 528.79 435.24 529.11 436.81 529.38 C 441.70 530.41 447.13 528.55 452.06 527.82 C 451.54 528.37 450.99 528.87 450.41 529.34 C 443.56 532.03 437.59 530.09 430.73 530.48 L 429.34 530.80 C 431.36 527.72 431.29 524.57 431.41 521.05 L 432.25 519.60 Z" fill="#dbdde3" />
<path d="M 703.46 520.93 C 704.79 522.60 706.16 524.24 707.64 525.79 C 709.22 529.42 710.80 532.56 709.55 536.62 C 708.85 533.24 707.74 530.00 706.53 526.79 C 705.19 525.50 703.87 524.20 702.51 522.93 C 702.82 522.26 703.14 521.60 703.46 520.93 Z" fill="#ebece7" />
<path d="M 702.51 522.93 C 703.87 524.20 705.19 525.50 706.53 526.79 C 707.74 530.00 708.85 533.24 709.55 536.62 C 708.75 539.29 707.24 541.76 705.70 544.07 C 705.31 544.64 704.91 545.21 704.51 545.78 C 705.50 546.60 706.49 547.42 707.46 548.25 C 707.97 550.39 708.43 552.42 709.76 554.22 C 711.96 557.30 713.38 560.59 714.55 564.18 C 713.23 566.41 711.83 568.59 710.39 570.75 C 708.74 572.72 709.55 573.42 710.94 575.19 L 710.89 575.46 C 710.51 576.98 710.10 578.50 709.69 580.01 C 713.09 583.58 714.54 587.51 715.70 592.20 C 715.19 593.15 714.65 594.07 714.12 595.00 C 711.60 595.21 711.22 596.42 712.76 598.32 C 713.01 598.73 713.25 599.14 713.49 599.55 L 711.95 599.82 C 712.37 601.93 712.78 604.05 713.20 606.17 C 714.07 605.94 714.94 605.71 715.81 605.47 L 716.17 606.32 C 713.41 607.47 713.78 609.27 716.29 610.43 C 715.77 611.64 715.26 612.85 714.74 614.06 C 714.36 614.87 713.99 615.69 713.63 616.51 C 711.89 616.44 710.09 616.30 708.35 616.50 C 707.05 617.02 705.95 618.10 704.83 618.92 C 703.87 618.82 702.91 618.71 701.95 618.60 C 700.95 619.33 699.94 620.07 698.94 620.80 C 697.64 620.50 696.33 620.20 695.02 619.89 C 693.67 621.37 692.32 622.84 690.97 624.33 C 690.12 624.33 689.27 624.33 688.41 624.34 C 688.46 625.44 688.50 626.54 688.54 627.64 C 685.94 628.15 683.56 628.72 681.43 630.41 C 682.70 630.72 683.98 631.03 685.26 631.33 C 680.64 635.90 681.11 641.22 679.27 647.02 C 678.59 650.07 677.13 652.57 678.20 655.70 C 679.20 659.19 679.37 662.81 680.27 666.33 C 677.32 671.62 674.53 676.97 672.07 682.50 C 670.73 682.36 669.40 682.21 668.06 682.15 C 667.68 685.22 667.42 688.23 666.50 691.20 C 666.50 696.15 664.03 700.00 663.20 704.78 C 662.89 705.26 662.58 705.74 662.28 706.23 C 662.30 708.61 663.20 712.46 661.14 714.14 C 658.39 716.72 654.75 718.56 651.48 720.41 C 649.51 724.60 647.88 729.24 643.68 731.72 C 638.99 735.18 631.87 733.09 626.21 733.47 C 625.00 729.56 623.94 726.46 625.64 722.50 C 621.87 720.08 618.46 718.05 614.16 716.69 C 613.95 712.94 614.62 709.15 614.65 705.39 C 613.20 704.71 611.75 704.04 610.28 703.40 C 610.43 697.46 611.84 691.83 612.79 686.00 C 616.23 665.66 619.73 645.33 623.20 625.00 C 624.00 620.02 624.83 615.06 625.92 610.13 L 626.65 609.73 C 627.03 611.32 627.59 612.84 628.51 614.21 L 628.93 614.03 C 630.15 613.44 631.97 612.96 632.58 611.64 C 633.06 609.54 633.04 607.31 633.16 605.17 C 635.52 604.94 638.93 605.56 640.74 603.81 C 644.11 601.10 647.87 599.02 651.18 596.23 C 653.92 593.92 657.83 593.65 660.60 591.62 C 666.31 585.02 671.01 576.70 675.71 569.71 C 676.90 567.84 677.92 565.87 678.90 563.87 C 682.29 556.89 686.79 550.36 690.57 543.58 C 692.85 539.50 693.80 535.44 696.77 531.77 C 699.02 529.02 701.04 526.19 702.51 522.93 Z" fill="#c4aa9f" />
<path d="M 335.23 526.52 C 336.51 525.89 337.79 525.26 339.07 524.62 C 341.12 526.22 343.40 528.54 345.98 529.16 C 347.05 528.67 348.09 528.09 349.08 527.41 C 351.90 529.36 354.21 531.72 356.37 534.38 C 356.23 535.14 356.10 535.90 355.98 536.66 C 355.55 539.17 355.58 541.18 356.46 543.59 C 358.15 548.53 359.12 553.26 359.37 558.48 C 358.53 560.03 357.71 561.58 356.91 563.15 C 354.37 562.90 351.80 562.75 349.28 562.32 C 346.83 561.97 345.05 559.90 343.17 558.41 C 339.51 559.62 335.85 560.81 332.19 562.00 C 328.97 567.10 326.82 572.49 324.79 578.13 C 327.35 578.34 330.00 578.10 332.53 578.54 C 334.36 579.49 335.82 581.28 337.30 582.71 C 331.57 585.56 325.78 588.37 319.87 590.83 C 314.66 593.12 308.68 590.77 303.47 589.48 C 296.67 587.76 291.24 584.03 285.38 580.41 C 285.57 580.03 285.77 579.65 285.97 579.28 C 287.89 580.69 289.83 582.09 291.80 583.44 C 294.74 581.47 297.97 580.32 301.36 579.38 C 302.25 577.15 303.16 574.94 304.15 572.75 C 304.20 571.33 304.26 569.90 304.32 568.48 C 305.37 568.05 306.43 567.62 307.49 567.19 C 307.30 565.89 307.11 564.60 306.93 563.30 C 308.23 562.18 309.66 561.07 310.75 559.74 C 310.96 556.97 310.39 554.08 310.08 551.33 C 311.09 550.95 312.09 550.57 313.09 550.19 C 316.01 546.24 319.09 542.45 322.80 539.20 C 324.83 539.42 326.85 539.63 328.89 539.82 C 329.50 535.50 329.04 531.05 329.74 526.77 C 330.87 523.85 333.18 526.15 335.23 526.52 Z" fill="#c28a8f" />
<path d="M 429.34 530.80 L 430.73 530.48 C 431.52 531.46 432.33 532.43 433.09 533.44 C 431.94 535.28 430.93 537.19 429.97 539.14 L 429.67 539.45 C 432.47 540.49 435.18 541.67 437.81 543.11 C 437.29 546.11 436.84 549.12 436.54 552.15 C 435.47 552.12 434.40 552.08 433.34 552.03 C 429.03 550.65 425.50 548.22 421.84 545.65 C 422.49 542.99 423.34 540.42 424.34 537.87 C 424.11 535.98 423.91 534.09 423.74 532.19 C 425.61 531.73 427.47 531.26 429.34 530.80 Z" fill="#95c2a9" />
<path d="M 721.39 531.60 C 725.53 532.25 728.95 534.28 732.49 536.36 L 732.72 537.30 C 731.57 537.16 730.42 537.01 729.27 536.86 C 727.25 535.16 725.07 534.21 722.60 533.30 L 721.39 531.60 Z" fill="#e0deda" />
<path d="M 433.09 533.44 C 433.83 536.43 432.10 537.52 429.97 539.14 C 430.93 537.19 431.94 535.28 433.09 533.44 Z" fill="#d6dce0" />
<path d="M 404.76 539.54 C 409.66 539.66 412.63 544.47 416.00 547.42 L 417.89 547.03 C 419.22 546.61 420.53 546.13 421.84 545.65 C 425.50 548.22 429.03 550.65 433.34 552.03 C 435.48 553.39 437.48 554.79 439.99 555.40 C 442.30 555.07 444.58 554.62 446.88 554.24 C 447.10 555.19 447.48 556.00 448.04 556.68 C 447.43 557.02 446.82 557.37 446.22 557.72 L 445.35 558.26 C 445.97 560.49 446.95 562.53 448.12 564.53 C 446.86 566.49 445.51 569.24 443.40 570.37 C 440.67 571.22 437.52 570.80 434.72 571.36 C 433.82 571.45 432.93 571.61 432.05 571.83 C 429.07 573.01 426.30 574.43 423.42 575.84 C 422.91 573.55 422.39 571.26 421.88 568.97 C 416.52 571.77 411.15 571.33 405.33 570.77 C 401.63 570.35 397.96 571.82 395.21 568.76 C 393.02 566.52 393.93 561.68 393.99 558.81 C 395.30 559.84 396.59 560.90 397.87 561.97 C 397.89 559.33 397.54 556.18 398.79 553.79 C 400.12 551.08 402.21 548.57 404.08 546.21 C 404.12 543.96 404.26 541.75 404.76 539.54 Z" fill="#c28a8f" />
<path d="M 705.70 544.07 C 706.83 545.02 707.93 545.99 709.04 546.96 C 709.13 548.15 709.23 549.33 709.33 550.52 C 712.16 554.25 716.16 559.19 714.55 564.18 C 713.38 560.59 711.96 557.30 709.76 554.22 C 708.43 552.42 707.97 550.39 707.46 548.25 C 706.49 547.42 705.50 546.60 704.51 545.78 C 704.91 545.21 705.31 544.64 705.70 544.07 Z" fill="#eaece7" />
<path d="M 485.41 550.72 C 486.46 555.76 484.32 560.97 488.64 564.36 C 491.83 567.89 497.05 567.82 497.69 572.72 C 494.33 569.02 489.58 567.40 486.24 563.60 C 483.40 567.66 480.48 570.00 476.11 572.26 C 472.22 570.03 468.52 569.21 464.10 568.69 C 459.73 568.17 456.95 564.39 452.99 563.56 C 449.34 564.36 448.04 570.11 444.67 571.60 C 441.56 572.45 437.72 572.69 434.72 571.36 C 437.52 570.80 440.67 571.22 443.40 570.37 C 445.51 569.24 446.86 566.49 448.12 564.53 C 446.95 562.53 445.97 560.49 445.35 558.26 L 446.22 557.72 C 447.06 559.41 447.90 561.10 448.75 562.78 C 450.80 562.54 453.60 561.28 455.38 562.66 C 458.32 564.29 460.51 566.35 463.98 566.86 C 468.13 567.44 471.97 568.77 475.97 569.86 C 478.50 569.26 480.83 567.44 482.68 565.67 C 486.57 562.52 484.94 555.22 485.41 550.72 Z" fill="#ece4e8" />
<path d="M 433.34 552.03 C 434.40 552.08 435.47 552.12 436.54 552.15 C 437.70 553.22 438.85 554.30 439.99 555.40 C 437.48 554.79 435.48 553.39 433.34 552.03 Z" fill="#dad6da" />
<path d="M 448.04 556.68 C 447.48 556.00 447.10 555.19 446.88 554.24 C 449.03 553.54 450.24 555.62 448.04 556.68 Z" fill="#e4e0e8" />
<path d="M 452.99 563.56 C 456.95 564.39 459.73 568.17 464.10 568.69 C 468.52 569.21 472.22 570.03 476.11 572.26 C 480.48 570.00 483.40 567.66 486.24 563.60 C 489.58 567.40 494.33 569.02 497.69 572.72 C 497.49 573.43 497.29 574.14 497.09 574.85 C 496.02 578.10 497.34 581.68 498.02 584.94 C 498.49 584.69 498.96 584.45 499.44 584.21 C 502.23 582.65 504.87 582.08 508.04 581.87 C 509.81 584.24 511.65 583.39 513.80 582.13 C 514.97 581.62 516.14 581.11 517.32 580.64 C 520.15 581.77 522.49 583.17 525.62 582.24 C 529.37 579.92 531.99 577.39 534.33 573.65 C 542.72 573.82 551.17 575.61 559.45 576.93 C 558.69 579.96 557.02 581.92 555.09 584.26 C 554.71 587.70 556.80 591.65 557.15 595.18 C 557.73 600.32 560.35 604.25 561.93 609.08 C 563.41 613.52 565.37 617.84 566.54 622.37 C 567.61 626.17 565.29 630.02 563.80 633.41 C 560.72 634.40 557.78 635.05 555.44 637.43 C 552.60 640.28 550.89 644.55 549.11 648.11 C 547.62 651.20 545.69 654.00 544.05 657.00 C 541.67 662.07 537.62 665.39 536.69 671.17 C 532.35 670.60 528.74 668.59 524.88 666.71 C 523.77 663.48 522.14 660.61 520.12 657.87 L 519.53 657.17 C 518.69 656.86 517.84 656.59 516.98 656.34 C 511.66 657.41 506.46 658.92 501.21 660.26 C 497.98 661.30 495.04 658.87 491.86 658.24 C 489.31 658.27 486.72 659.05 484.22 659.55 L 483.88 657.57 L 483.65 656.33 C 480.53 655.61 477.60 655.06 475.01 653.04 L 474.54 652.00 C 473.83 650.09 471.64 650.43 470.14 651.09 L 470.01 650.42 C 469.85 648.93 469.71 647.44 469.59 645.95 C 467.84 646.09 466.11 646.22 464.38 646.50 C 463.83 647.05 463.29 647.62 462.75 648.19 L 462.24 648.74 C 460.80 649.74 459.32 650.68 457.84 651.61 C 456.49 651.33 455.14 651.06 453.80 650.79 L 454.28 652.39 C 454.94 655.34 453.61 657.46 452.29 659.97 C 448.82 658.65 447.06 656.45 444.97 653.55 C 445.76 651.88 446.55 650.21 447.28 648.51 L 447.40 648.26 L 447.36 648.18 L 447.70 646.61 C 449.13 645.97 450.62 645.43 452.08 644.86 C 451.54 641.68 449.42 641.18 446.80 640.01 C 447.97 638.58 449.10 637.13 450.14 635.61 C 451.25 633.70 448.71 631.91 447.24 633.75 L 445.98 634.90 C 444.00 634.42 442.01 633.94 440.01 633.56 L 438.77 634.72 C 437.85 635.63 436.94 636.57 436.01 637.48 C 432.37 637.01 428.75 636.45 425.15 635.68 C 424.66 630.33 424.44 625.33 422.66 620.19 C 420.85 614.64 417.05 610.25 415.36 604.63 C 412.99 597.03 410.70 589.68 409.42 581.92 C 410.97 580.47 412.49 578.60 414.40 577.63 C 418.80 576.69 423.12 577.35 427.51 575.59 C 429.56 574.74 432.45 573.50 433.87 571.85 L 432.05 571.83 C 432.93 571.61 433.82 571.45 434.72 571.36 C 437.72 572.69 441.56 572.45 444.67 571.60 C 448.04 570.11 449.34 564.36 452.99 563.56 Z" fill="#cc9db4" />
<path d="M 710.39 570.75 C 711.01 571.45 711.48 572.21 711.80 573.04 C 711.55 573.77 711.26 574.48 710.94 575.19 C 709.55 573.42 708.74 572.72 710.39 570.75 Z" fill="#ecebe7" />
<path d="M 533.37 572.19 C 542.98 572.83 552.38 574.89 561.94 575.90 C 561.18 578.17 560.94 580.31 559.15 582.04 C 558.48 582.95 557.14 583.84 557.04 585.00 C 557.45 588.75 559.21 592.20 559.55 596.00 C 559.92 600.63 562.28 603.84 563.76 608.25 C 565.42 613.20 567.52 618.02 568.98 623.04 C 570.15 626.64 568.57 629.92 567.70 633.42 C 566.88 633.80 566.05 634.19 565.23 634.58 C 562.06 635.71 559.11 636.14 556.75 638.76 C 552.89 642.90 551.13 649.18 547.99 653.99 C 545.34 657.86 543.83 662.21 540.76 665.79 C 539.04 667.90 538.58 670.43 537.76 672.99 C 533.02 672.21 529.14 670.56 525.32 667.66 L 524.88 666.71 C 528.74 668.59 532.35 670.60 536.69 671.17 C 537.62 665.39 541.67 662.07 544.05 657.00 C 545.69 654.00 547.62 651.20 549.11 648.11 C 550.89 644.55 552.60 640.28 555.44 637.43 C 557.78 635.05 560.72 634.40 563.80 633.41 C 565.29 630.02 567.61 626.17 566.54 622.37 C 565.37 617.84 563.41 613.52 561.93 609.08 C 560.35 604.25 557.73 600.32 557.15 595.18 C 556.80 591.65 554.71 587.70 555.09 584.26 C 557.02 581.92 558.69 579.96 559.45 576.93 C 551.17 575.61 542.72 573.82 534.33 573.65 C 534.00 573.16 533.68 572.67 533.37 572.19 Z" fill="#f0ecec" />
<path d="M 497.09 574.85 C 497.74 578.00 498.49 581.13 499.44 584.21 C 498.96 584.45 498.49 584.69 498.02 584.94 C 497.34 581.68 496.02 578.10 497.09 574.85 Z" fill="#dcc4c9" />
<path d="M 710.89 575.46 C 711.02 576.49 711.16 577.53 711.31 578.57 C 715.12 582.61 716.67 586.59 715.70 592.20 C 714.54 587.51 713.09 583.58 709.69 580.01 C 710.10 578.50 710.51 576.98 710.89 575.46 Z" fill="#e9ece6" />
<path d="M 525.62 582.24 C 522.49 583.17 520.15 581.77 517.32 580.64 C 520.43 579.85 522.78 581.20 525.62 582.24 Z" fill="#e1cccd" />
<path d="M 508.04 581.87 C 509.99 581.58 511.87 581.85 513.80 582.13 C 511.65 583.39 509.81 584.24 508.04 581.87 Z" fill="#e2cfcf" />
<path d="M 714.12 595.00 C 714.12 596.51 713.66 597.61 712.76 598.32 C 711.22 596.42 711.60 595.21 714.12 595.00 Z" fill="#e2e3dc" />
<path d="M 396.39 599.65 C 400.33 601.99 404.05 604.75 407.87 607.28 C 408.30 608.36 408.72 609.45 409.15 610.53 C 411.47 610.44 413.80 610.35 416.12 610.23 C 421.12 617.50 424.19 627.09 423.07 635.91 C 421.67 641.72 417.30 642.69 412.89 645.62 C 405.95 645.11 398.07 645.11 391.55 642.54 C 387.60 637.06 384.80 630.78 380.78 625.29 C 382.45 623.57 384.47 621.84 385.62 619.72 C 387.07 616.60 385.09 612.46 386.45 609.41 C 387.57 606.63 388.92 603.80 390.40 601.19 C 391.38 599.10 394.53 598.17 396.39 599.65 Z" fill="#c28a8f" />
<path d="M 601.74 601.14 C 605.16 603.95 606.24 607.67 607.47 611.73 C 609.93 612.07 612.83 612.89 615.28 612.30 C 617.16 611.40 618.68 609.56 620.21 608.17 C 622.04 608.22 623.87 608.27 625.69 608.39 L 625.92 610.13 C 624.83 615.06 624.00 620.02 623.20 625.00 C 619.73 645.33 616.23 665.66 612.79 686.00 C 611.84 691.83 610.43 697.46 610.28 703.40 C 605.63 706.83 600.96 710.78 597.19 715.17 C 596.24 713.90 595.40 712.58 594.53 711.25 C 592.38 711.62 590.15 712.15 587.97 712.10 C 586.23 711.55 584.64 710.73 582.91 710.08 C 580.93 713.41 580.92 717.70 580.44 721.50 C 579.39 721.40 578.35 721.30 577.30 721.20 C 575.79 728.09 572.72 734.23 569.86 740.61 C 567.94 741.25 564.28 741.32 563.49 743.55 C 563.78 746.29 565.09 749.24 564.87 751.99 C 564.67 756.35 562.94 759.97 564.85 764.20 C 565.36 766.18 567.44 769.02 565.96 770.90 C 564.17 774.46 559.33 775.52 557.71 778.93 C 558.42 781.03 559.48 782.97 560.22 785.07 C 559.16 786.96 557.55 788.52 556.49 790.39 C 554.87 793.91 554.71 799.12 552.05 802.02 C 549.94 803.67 547.19 804.54 544.87 805.89 C 542.03 807.44 540.18 809.74 537.66 811.64 C 535.50 813.24 532.64 814.10 530.43 815.55 C 528.77 817.22 527.93 819.78 526.68 821.76 C 525.45 824.27 522.19 825.45 519.96 826.97 C 517.53 828.36 515.48 830.54 512.93 831.66 C 509.81 832.41 506.24 832.61 503.10 831.90 C 500.43 830.71 499.35 826.71 498.40 824.20 C 499.10 822.30 500.23 820.93 499.22 818.87 C 496.10 811.90 491.67 805.79 486.06 800.62 C 487.73 796.82 490.21 792.23 489.90 787.99 C 489.37 785.45 487.38 783.13 485.99 780.98 C 486.53 779.35 487.07 777.72 487.61 776.08 C 486.74 773.37 485.73 770.99 486.22 768.07 C 486.78 764.72 488.79 761.51 490.77 758.81 C 493.07 755.53 496.86 754.69 499.33 751.53 C 501.79 748.25 505.18 745.82 507.56 742.53 C 510.04 738.03 511.20 733.09 511.32 727.97 C 511.23 725.19 513.50 723.15 515.10 721.12 C 516.44 719.69 517.98 717.57 520.00 717.19 C 523.94 716.20 528.01 715.87 531.99 715.04 C 535.97 714.19 539.96 713.77 544.02 714.20 C 550.51 714.81 557.01 715.24 563.49 715.92 C 562.76 713.28 562.17 710.62 561.48 707.97 C 560.86 703.98 555.34 701.22 555.05 697.05 C 556.15 693.34 559.42 690.06 559.97 686.26 C 558.33 685.19 556.48 684.33 554.71 683.47 C 555.36 680.59 556.54 678.61 559.35 677.44 C 561.54 677.32 563.76 677.76 565.95 677.81 C 567.14 675.48 565.93 672.48 565.79 669.95 C 565.45 668.32 566.79 666.50 567.38 665.02 C 568.84 662.40 568.29 659.85 568.04 656.98 C 567.20 650.48 565.45 644.06 563.54 637.79 C 564.08 636.71 564.64 635.63 565.23 634.58 C 566.05 634.19 566.88 633.80 567.70 633.42 C 570.28 632.16 573.06 631.04 575.42 629.40 C 578.28 627.35 579.92 624.64 583.08 623.21 C 585.07 622.05 587.28 621.68 588.11 619.29 C 590.34 613.12 591.80 607.31 596.08 602.04 C 597.31 600.41 600.11 599.73 601.74 601.14 Z" fill="#d1abd6" />
<path d="M 711.95 599.82 L 713.49 599.55 C 713.81 600.57 714.14 601.58 714.45 602.60 C 714.77 603.26 715.08 603.92 715.40 604.58 L 715.81 605.47 C 714.94 605.71 714.07 605.94 713.20 606.17 C 712.78 604.05 712.37 601.93 711.95 599.82 Z" fill="#ebf0ea" />
<path d="M 716.17 606.32 C 716.86 607.67 717.02 609.06 716.29 610.43 C 713.78 609.27 713.41 607.47 716.17 606.32 Z" fill="#e3e8e0" />
<path d="M 628.93 614.03 L 628.51 614.21 C 627.59 612.84 627.03 611.32 626.65 609.73 C 629.23 608.62 629.37 612.43 628.93 614.03 Z" fill="#d4d8d1" />
<path d="M 361.96 616.86 C 363.50 617.28 365.26 617.49 366.65 618.29 C 369.15 619.96 370.95 622.64 373.47 624.23 C 375.58 625.02 377.92 625.32 380.13 625.73 C 384.40 631.44 387.63 637.71 391.27 643.81 C 397.48 645.36 403.82 646.12 410.21 646.52 C 413.31 646.89 415.95 644.87 418.50 643.41 C 421.33 641.82 422.27 639.06 423.83 636.39 C 427.65 637.13 432.22 638.81 436.01 637.48 C 436.94 636.57 437.85 635.63 438.77 634.72 C 440.76 635.15 442.78 635.62 444.79 635.94 L 445.98 634.90 L 447.24 633.75 C 448.09 634.56 449.03 635.20 450.14 635.61 C 449.10 637.13 447.97 638.58 446.80 640.01 L 446.03 640.95 C 447.98 642.36 450.01 643.64 452.08 644.86 C 450.62 645.43 449.13 645.97 447.70 646.61 L 447.36 648.18 L 447.28 648.51 C 446.55 650.21 445.76 651.88 444.97 653.55 L 444.36 654.89 C 445.68 657.26 447.16 660.32 450.01 661.05 C 450.79 660.73 451.55 660.37 452.29 659.97 C 453.61 657.46 454.94 655.34 454.28 652.39 C 455.49 652.72 456.67 653.02 457.93 653.09 C 459.58 651.93 460.91 650.24 462.24 648.74 L 462.75 648.19 C 464.79 647.98 466.82 647.75 468.84 647.52 C 469.24 648.48 469.63 649.45 470.01 650.42 L 470.14 651.09 L 470.24 651.58 C 471.63 652.16 473.06 652.22 474.54 652.00 L 475.01 653.04 C 475.60 654.13 476.11 656.08 477.38 656.54 C 479.47 657.16 481.73 657.30 483.88 657.57 L 484.22 659.55 C 485.28 662.68 489.32 659.61 491.63 659.67 C 495.34 660.53 497.89 662.88 501.93 661.79 C 507.97 660.25 513.89 658.53 520.12 657.87 C 522.14 660.61 523.77 663.48 524.88 666.71 L 525.32 667.66 C 529.14 670.56 533.02 672.21 537.76 672.99 C 538.58 670.43 539.04 667.90 540.76 665.79 C 543.83 662.21 545.34 657.86 547.99 653.99 C 551.13 649.18 552.89 642.90 556.75 638.76 C 559.11 636.14 562.06 635.71 565.23 634.58 C 564.64 635.63 564.08 636.71 563.54 637.79 C 562.76 641.30 564.26 644.56 565.05 647.97 C 566.62 653.54 567.23 659.25 567.38 665.02 C 566.79 666.50 565.45 668.32 565.79 669.95 C 565.93 672.48 567.14 675.48 565.95 677.81 C 563.76 677.76 561.54 677.32 559.35 677.44 C 556.54 678.61 555.36 680.59 554.71 683.47 C 556.48 684.33 558.33 685.19 559.97 686.26 C 559.42 690.06 556.15 693.34 555.05 697.05 C 555.34 701.22 560.86 703.98 561.48 707.97 C 562.17 710.62 562.76 713.28 563.49 715.92 C 557.01 715.24 550.51 714.81 544.02 714.20 C 539.96 713.77 535.97 714.19 531.99 715.04 C 528.01 715.87 523.94 716.20 520.00 717.19 C 517.98 717.57 516.44 719.69 515.10 721.12 C 513.50 723.15 511.23 725.19 511.32 727.97 C 511.20 733.09 510.04 738.03 507.56 742.53 C 505.18 745.82 501.79 748.25 499.33 751.53 C 496.86 754.69 493.07 755.53 490.77 758.81 C 488.79 761.51 486.78 764.72 486.22 768.07 C 485.73 770.99 486.74 773.37 487.61 776.08 C 487.07 777.72 486.53 779.35 485.99 780.98 C 487.38 783.13 489.37 785.45 489.90 787.99 C 490.21 792.23 487.73 796.82 486.06 800.62 C 482.44 796.33 479.03 791.92 475.05 787.96 C 458.86 770.77 444.90 753.51 425.70 739.29 C 418.82 734.49 412.13 729.42 405.09 724.88 C 401.75 722.72 399.47 718.94 396.67 716.08 C 398.75 711.15 400.83 706.39 401.27 700.98 C 401.61 696.65 404.32 693.15 404.97 689.00 C 403.75 681.66 399.82 676.67 396.81 670.19 C 392.90 661.56 387.54 653.43 382.81 645.19 C 378.74 638.04 373.88 631.46 369.35 624.62 C 367.31 621.57 364.62 619.33 361.96 616.86 Z" fill="#b2bfa3" />
<path d="M 450.14 635.61 C 449.03 635.20 448.09 634.56 447.24 633.75 C 448.71 631.91 451.25 633.70 450.14 635.61 Z" fill="#e3dedd" />
<path d="M 440.01 633.56 C 442.01 633.94 444.00 634.42 445.98 634.90 L 444.79 635.94 C 442.78 635.62 440.76 635.15 438.77 634.72 L 440.01 633.56 Z" fill="#e8e7e4" />
<path d="M 563.54 637.79 C 565.45 644.06 567.20 650.48 568.04 656.98 C 568.29 659.85 568.84 662.40 567.38 665.02 C 567.23 659.25 566.62 653.54 565.05 647.97 C 564.26 644.56 562.76 641.30 563.54 637.79 Z" fill="#ddd6db" />
<path d="M 446.80 640.01 C 449.42 641.18 451.54 641.68 452.08 644.86 C 450.01 643.64 447.98 642.36 446.03 640.95 L 446.80 640.01 Z" fill="#eae9e5" />
<path d="M 464.38 646.50 C 466.11 646.22 467.84 646.09 469.59 645.95 C 469.71 647.44 469.85 648.93 470.01 650.42 C 469.63 649.45 469.24 648.48 468.84 647.52 C 466.82 647.75 464.79 647.98 462.75 648.19 C 463.29 647.62 463.83 647.05 464.38 646.50 Z" fill="#e0d8d8" />
<path d="M 447.36 648.18 L 447.40 648.26 L 447.28 648.51 L 447.36 648.18 Z" fill="#f8f4f6" />
<path d="M 462.24 648.74 C 460.91 650.24 459.58 651.93 457.93 653.09 C 456.67 653.02 455.49 652.72 454.28 652.39 L 453.80 650.79 C 455.14 651.06 456.49 651.33 457.84 651.61 C 459.32 650.68 460.80 649.74 462.24 648.74 Z" fill="#e2dbdb" />
<path d="M 470.14 651.09 C 471.64 650.43 473.83 650.09 474.54 652.00 C 473.06 652.22 471.63 652.16 470.24 651.58 L 470.14 651.09 Z" fill="#f7f8f6" />
<path d="M 475.01 653.04 C 477.60 655.06 480.53 655.61 483.65 656.33 L 483.88 657.57 C 481.73 657.30 479.47 657.16 477.38 656.54 C 476.11 656.08 475.60 654.13 475.01 653.04 Z" fill="#ebe7e6" />
<path d="M 444.97 653.55 C 447.06 656.45 448.82 658.65 452.29 659.97 C 451.55 660.37 450.79 660.73 450.01 661.05 C 447.16 660.32 445.68 657.26 444.36 654.89 L 444.97 653.55 Z" fill="#e9e6e4" />
<path d="M 516.98 656.34 C 517.84 656.59 518.69 656.86 519.53 657.17 L 520.12 657.87 C 513.89 658.53 507.97 660.25 501.93 661.79 C 497.89 662.88 495.34 660.53 491.63 659.67 C 489.32 659.61 485.28 662.68 484.22 659.55 C 486.72 659.05 489.31 658.27 491.86 658.24 C 495.04 658.87 497.98 661.30 501.21 660.26 C 506.46 658.92 511.66 657.41 516.98 656.34 Z" fill="#ede9e9" />
</svg>