<?xml version="1.0" encoding="UTF-8" standalone="no"?>
<!DOCTYPE svg PUBLIC "-//W3C//DTD SVG 1.1//EN" "http://www.w3.org/Graphics/SVG/1.1/DTD/svg11.dtd">
<svg xmlns="http://www.w3.org/2000/svg" xmlns:xlink="http://www.w3.org/1999/xlink"  >

        <path
                stroke="none"
                fill="#F5C7FF"
                fill-rule="nonzero"
                data-active="true"
                data-name="MAGA Subdivision"
                d="M159.02 8.82C 162.59 8.37 164.77 10.65 167.48 12.5C 178.53 20.84 190.12 28.42 201.04 36.92C 209.47 43.2 218.09 49.22 226.57 55.43C 233.37 60.43 240.41 64.83 246.88 70.19C 249.18 72.1 251.7 73.66 254.36 75.03C 253.93 77.08 253.49 79.13 253.07 81.18C 257.27 82.07 258.97 83.02 261.94 86C 264.44 84.01 266.88 82.5 269.96 81.58C 269.61 83.83 269.19 86.06 268.72 88.29C 271.78 91.88 276.01 92.19 280.32 93.61C 287.06 95.78 293.9 93.42 300.8 92.69C 305.69 97.56 312.92 100.84 316.37 106.66C 319.38 110.87 315.91 117.34 318.06 121.92C 319.4 124.97 322.68 126.9 325.31 128.74C 329.06 131.31 333.42 134.21 335.97 138.04C 338.02 141.68 337.88 146.77 338.48 150.84C 339.55 161.65 342.06 172.21 343.04 183.03C 343.91 190.95 348.97 196.96 350 204.99C 350.61 210.14 350.95 215.75 349.73 220.82C 347.04 227.9 338.16 230.05 334.69 236.65C 332.79 240.18 331.14 244.2 330.01 248.04C 328.66 252.62 329.22 257.48 328.14 262.02C 327.5 264.73 325.51 267.19 325.17 269.92C 326.07 273.13 328.62 275.86 329.98 278.93C 332.57 284.68 333.82 291.07 336.09 296.93C 336.89 299.06 338.34 300.58 339.86 302.2C 340.31 303.21 340.75 304.22 341.18 305.23C 335.77 305.48 330.4 305.12 325 304.96C 319.54 304.77 313.96 307.2 308.6 308.54C 295.86 312.26 282.91 314.98 270.04 318.18C 261.09 320.56 251.51 320.96 242.22 322.24C 235.23 323.1 228.26 324.01 221.22 324.25C 196.48 325.33 171.74 326.49 147.01 327.67C 134.42 328.05 122.39 327.21 109.81 328.45C 100.55 329.38 91.25 328.87 81.99 329.87C 74.03 330.83 66.09 330.16 58.11 330.67C 56.66 324.73 57.47 319.03 57.14 313C 56.82 306.33 57.06 299.67 56.85 293.01C 56.7 281.16 55.77 268.6 58.06 256.98C 60.53 242.33 62.64 227.63 65.15 212.99C 65.8 209.34 65.8 205.68 65.27 202.02C 63.82 192.02 62.65 182 61.19 172.01C 60.95 169.4 60.33 167.07 61.69 164.66C 63.75 160.85 66.38 157.34 68.63 153.63C 71.14 149.41 74.08 146.25 73.8 141C 73.47 130.04 74.42 118.86 72.66 108.1C 71.53 100.02 70.73 92 69.07 84C 67.8 77.9 66.38 71.85 65.43 65.69C 68.42 64.78 71.24 63.72 73.72 61.76C 86.81 51.85 100.22 42.32 113.13 32.17C 121.1 26.07 129.38 20.42 137.28 14.24C 139.63 12.52 141.94 10.45 144.96 10.14C 149.63 9.62 154.34 9.21 159.02 8.82z" />

        <path
                stroke="none"
                fill="#AEF1B0"
                fill-rule="nonzero"
                data-name="KAY KAY Subdivision"
                data-active="true"
                d="M339.86 302.2C 344.3 305.74 346.15 310.43 348.71 315.3C 350.54 319.01 352.51 322.29 353.44 326.36C 354.26 329.89 354.78 333.29 356.39 336.58C 358.38 341.06 362.95 344.01 366.17 347.84C 371.49 353.58 374.94 361.35 380.84 366.16C 384 368.84 389.08 370.15 391.47 373.52C 394.45 378.39 390.75 384.26 392.15 389.96C 393.44 395.84 394.62 401.68 395.54 407.63C 397.45 416.52 403.22 421.6 408.93 428.06C 412.45 431.76 411.86 436.24 412.29 440.96C 412.59 448.19 413.52 456.52 411.46 463.53C 409.09 470.49 403.96 477.96 402.57 485.58C 401.87 489.68 401.36 493.81 400.67 497.91C 399.32 506.12 402.56 513.15 401.97 521.56C 394.07 519.74 388.14 515.27 380.86 512.11C 378.44 510.9 376.13 512.01 373.66 512.58C 359.85 516.76 345.84 520.16 331.91 523.9C 328 524.97 324.06 524.97 320.04 524.77C 311.54 524.35 303.06 524.31 294.58 523.55C 283.01 522.51 271.44 521.82 259.92 520.37C 253.71 519.77 247.74 518.32 241.59 519.47C 234.36 520.81 227.37 522.65 220 523.21C 201.68 524.64 183.26 525.36 165 527.29C 155.71 528.49 146.4 529.43 137.08 530.31C 122.38 513.22 107.87 495.96 93.08 478.95C 91.29 476.81 89.11 474.71 87.83 472.22C 87.12 469.95 87.18 467.37 87.01 465C 86.68 456.75 86.06 448.52 85.59 440.27C 77.84 435.31 69.76 430.84 62.05 425.85C 60.21 424.9 60.68 422.77 60.43 421.02C 60.08 397.34 59.27 373.68 58.98 350C 58.63 343.6 59.26 336.97 58.11 330.67C 66.09 330.16 74.03 330.83 81.99 329.87C 91.25 328.87 100.55 329.38 109.81 328.45C 122.39 327.21 134.42 328.05 147.01 327.67C 171.74 326.49 196.48 325.33 221.22 324.25C 228.26 324.01 235.23 323.1 242.22 322.24C 251.51 320.96 261.09 320.56 270.04 318.18C 282.91 314.98 295.86 312.26 308.6 308.54C 313.96 307.2 319.54 304.77 325 304.96C 330.4 305.12 335.77 305.48 341.18 305.23C 340.75 304.22 340.31 303.21 339.86 302.2z"  />

        <path
                stroke="none" fill="#E9FFBE"
                fill-rule="nonzero"
                data-name="VELE Subdivision"
                d="M380.86 512.11C 388.14 515.27 394.07 519.74 401.97 521.56C 401.59 527.19 400.4 533.08 403.91 538.06C 410.53 546.2 419.88 549.07 427.45 555.58C 431.86 559.3 436.34 562.86 441.62 565.36C 446.79 567.76 453.47 567.21 458.79 569.2C 461.62 570.29 464.1 572.65 466.58 574.41C 470.17 577.05 474.09 578.55 477.49 581.49C 481.29 584.76 484.32 588.59 488.47 591.51C 492.74 594.48 497.83 598.18 499.9 603.15C 500.91 607.44 500.66 611.94 501.81 616.24C 502.91 620.3 504.18 624.38 505.72 628.3C 507.35 632.5 510.84 634.98 514.01 638C 517.72 641.3 521.12 644.9 524.6 648.44C 527.53 651.43 531.17 653.12 534.39 655.67C 536.42 657.13 536.86 660.23 537.53 662.49C 538.67 667.68 536.28 671.66 533.95 676.08C 533.17 677.76 531.56 677.38 530.02 677.61C 522.7 677.76 515.28 677.81 508 676.98C 499.6 676.03 491.96 676.09 484.03 674.07C 478.06 672.6 472.06 671.26 466.05 669.94C 457.97 668.23 450.32 665.48 442.37 663.17C 437.85 661.26 434.81 658.16 430.04 656.93C 423.11 655.05 416.09 653.81 409 652.72C 400.72 651.43 392.76 649.21 384.57 647.49C 380.84 646.65 377.31 646.07 374.05 643.94C 370.34 641.53 367.03 638.8 362.84 637.2C 342.41 629.06 322.26 621.4 302.66 611.32C 300.97 610.59 298.82 609.24 296.93 609.71C 292.18 610.58 287.65 612.74 282.92 613.8C 278.37 614.87 274.02 614.84 269.63 616.62C 264.37 618.7 259.03 620.29 254.08 623.09C 248.71 626.09 242.73 626.54 237.3 629.29C 234.2 630.85 231.31 632.99 228.47 635C 212.59 617.68 197.51 599.66 181.99 582.02C 166.58 565.18 152.26 547.36 137.08 530.31C 146.4 529.43 155.71 528.49 165 527.29C 183.26 525.36 201.68 524.64 220 523.21C 227.37 522.65 234.36 520.81 241.59 519.47C 247.74 518.32 253.71 519.77 259.92 520.37C 271.44 521.82 283.01 522.51 294.58 523.55C 303.06 524.31 311.54 524.35 320.04 524.77C 324.06 524.97 328 524.97 331.91 523.9C 345.84 520.16 359.85 516.76 373.66 512.58C 376.13 512.01 378.44 510.9 380.86 512.11z"  />

        <path
                stroke="none"
                fill="#B2B2B2"
                fill-rule="nonzero"
                data-name="KALFOU Subdivision"
                d="M302.66 611.32C 322.26 621.4 342.41 629.06 362.84 637.2C 367.03 638.8 370.34 641.53 374.05 643.94C 377.31 646.07 380.84 646.65 384.57 647.49C 392.76 649.21 400.72 651.43 409 652.72C 416.09 653.81 423.11 655.05 430.04 656.93C 434.81 658.16 437.85 661.26 442.37 663.17C 444.77 666.54 447.23 669.59 448.41 673.64C 449.96 678.74 451.48 683.86 453.07 688.95C 454.62 693.74 455.37 698.46 458.49 702.5C 461.96 707.03 465.45 711.53 468.88 716.09C 471.86 720.12 475.15 723.34 476.79 728.18C 480.22 737.05 479.15 745.38 479.85 755.01C 480.21 759.65 477.66 762.77 475.75 766.75C 468.83 780.51 462 794.31 455.03 808.05C 453.31 811.43 451.77 814.87 450.39 818.4C 446.27 828.92 442.06 839.39 437.91 849.89C 436.73 852.96 435.17 856.01 434.42 859.21C 433.94 862.29 435.09 865.8 435.8 868.79C 430.04 873.83 423.6 877.88 417.48 882.48C 414.53 884.66 412.21 885.62 408.49 885.5C 406.87 882.46 405.44 879.54 402.49 877.57C 399.62 875.7 396.6 874.04 393.6 872.39C 389.17 869.77 382.86 870.37 377.8 869.67C 372.81 868.98 367.15 869.38 362.44 867.55C 356.74 864.42 351.68 860.18 345.93 857.1C 340.05 853.99 334.14 850.95 328.43 847.54C 325.8 846.09 323.17 844.14 320.04 844.2C 313.41 844.28 306.35 844.15 299.91 845.77C 293.92 847.15 287.91 848.43 281.92 849.81C 277.59 850.79 273.48 851.94 269.01 852.16C 264.32 852.38 259.62 852.33 254.92 852.47C 253.82 850.62 252.71 848.77 251.59 846.93C 254.57 839.89 260.44 834.4 263.87 827.81C 264.82 824.09 264.72 818.93 263.94 815.18C 261.23 810.2 257.48 805.51 253.85 801.15C 246.26 793.34 238.05 786.42 231.2 777.82C 227.58 772.78 226.61 765.74 223.48 760.45C 219.69 755.5 212.76 752.87 209.24 747.83C 206.06 738.65 205.62 728.01 203.73 718.47C 200.5 716.79 197.34 714.97 194.09 713.33C 212.68 695.23 231.35 677.22 249.92 659.11C 242.92 650.95 235.81 642.86 228.47 635C 231.31 632.99 234.2 630.85 237.3 629.29C 242.73 626.54 248.71 626.09 254.08 623.09C 259.03 620.29 264.37 618.7 269.63 616.62C 274.02 614.84 278.37 614.87 282.92 613.8C 287.65 612.74 292.18 610.58 296.93 609.71C 298.82 609.24 300.97 610.59 302.66 611.32z" />

        <path
                stroke="none"
                fill="#DF73FF"
                fill-rule="nonzero"
                data-active="true"
                data-name="YAGOUA Subdivision"
                d="M537.53 662.49C 538.3 662.92 539.06 663.36 539.81 663.81C 539.23 666.53 538.18 669.17 537.77 671.91C 537.79 676.32 538.65 680.57 538.06 685C 537.64 687.97 537.49 690.79 537.87 693.77C 542.19 696.27 546.39 698.49 549.17 702.83C 550.62 705.2 552.08 707.97 552.42 710.75C 551.8 713.22 549.99 715.42 549.57 717.93C 549.55 720.5 549.72 723.33 552.07 724.89C 556.51 728.03 562.81 729.13 565.83 734.16C 568.21 739.42 566.39 746.6 567.31 751.77C 571.44 753.71 577.2 751.66 581.57 752.6C 584.64 753.75 587.57 754.66 590.77 755.41C 593.46 755.97 594.7 759.71 597.37 760.54C 601.62 762.03 607.18 762.5 610.9 765.1C 613.04 766.94 612.53 771.16 613.42 773.71C 615.34 775.45 618.05 776.29 620.02 777.97C 621.64 780.27 621.67 783.67 622.82 786.25C 623.85 787.76 625.61 788.83 627.01 789.97C 630.1 792.22 632.61 795 635.43 797.54C 636.98 799.15 638.75 799.86 638.45 802.44C 635.98 806.43 633.54 810.14 632.47 814.79C 631.62 818.54 631.01 822.35 630.28 826.13C 628.86 833.69 629.05 841.58 628.21 849.03C 627.71 853.22 626.07 856.71 624.63 860.62C 622.76 865.49 621.47 870.2 618.71 874.69C 615.91 879.26 613.05 883.8 610.11 888.28C 603.44 887.42 596.79 886.33 590.11 885.52C 585.24 892.12 579.82 898.38 575.18 905.14C 571.24 912.87 568.86 921.4 565.24 929.29C 564.06 931.71 561.34 933.51 559.3 935.21C 556.17 931.67 553.83 927.66 551.27 923.73C 548.93 920.1 545.48 918.35 542.04 915.93C 535.94 911.71 529.83 907.5 523.77 903.22C 521.36 901.51 518.82 900.04 516.08 898.93C 497.82 891.55 479.59 884.08 461.36 876.64C 456.4 874.62 451.32 873.26 446.22 871.67C 442.75 870.61 439.37 869.41 435.8 868.79C 435.09 865.8 433.94 862.29 434.42 859.21C 435.17 856.01 436.73 852.96 437.91 849.89C 442.06 839.39 446.27 828.92 450.39 818.4C 451.77 814.87 453.31 811.43 455.03 808.05C 462 794.31 468.83 780.51 475.75 766.75C 477.66 762.77 480.21 759.65 479.85 755.01C 479.15 745.38 480.22 737.05 476.79 728.18C 475.15 723.34 471.86 720.12 468.88 716.09C 465.45 711.53 461.96 707.03 458.49 702.5C 455.37 698.46 454.62 693.74 453.07 688.95C 451.48 683.86 449.96 678.74 448.41 673.64C 447.23 669.59 444.77 666.54 442.37 663.17C 450.32 665.48 457.97 668.23 466.05 669.94C 472.06 671.26 478.06 672.6 484.03 674.07C 491.96 676.09 499.6 676.03 508 676.98C 515.28 677.81 522.7 677.76 530.02 677.61C 531.56 677.38 533.17 677.76 533.95 676.08C 536.28 671.66 538.67 667.68 537.53 662.49z"  />

        <path
                stroke="none"
                fill="#FFBEE8"
                fill-rule="nonzero"
                data-name="PORNI SUBDIVISION"
                d="M193.93 713.48L194.09 713.33C 197.34 714.97 200.5 716.79 203.73 718.47C 205.62 728.01 206.06 738.65 209.24 747.83C 212.76 752.87 219.69 755.5 223.48 760.45C 226.61 765.74 227.58 772.78 231.2 777.82C 238.05 786.42 246.26 793.34 253.85 801.15C 257.48 805.51 261.23 810.2 263.94 815.18C 264.72 818.93 264.82 824.09 263.87 827.81C 260.44 834.4 254.57 839.89 251.59 846.93C 247.61 855.91 242.32 864.3 238.33 873.27C 235.47 881.63 233.62 890.36 231.1 898.84C 224.74 897.32 219.15 894.32 213.13 891.9C 207.08 889.45 201.38 886.33 195.51 883.52C 192.98 882.33 190.68 880.79 188.39 879.2C 190.44 874.93 191.49 870.55 192.88 866.04C 196.57 865.77 200.26 865.49 203.95 865.16C 204.1 858.75 204.32 852.35 204.41 845.94C 197.45 839.42 190.14 833.31 183.05 826.93C 179.11 823.16 174.44 819.95 170.92 815.79C 170.67 812.31 171.63 808.67 172.08 805.23C 169.6 804.38 166.84 803.71 164.61 802.32C 163.29 800.96 162.45 799.06 161.58 797.39C 155 783.93 147.65 770.84 141.23 757.3C 150.87 750.23 160.56 743.23 170.3 736.3C 175.67 732.5 179.56 727.79 184.23 723.22C 187.49 720.01 190.69 716.72 193.93 713.48z"  />

        <path
                stroke="none"
                fill="#FFBEBE"
                fill-rule="nonzero"
                data-active="true"
                data-name="GUERE Subdvision"
                d="M638.45 802.44C 643.03 804.88 648.3 805.61 652.74 808.23C 657.3 810.81 659.04 816.31 661.22 820.81C 662.89 823.97 662.02 827.05 662.69 830.34C 665.73 835.79 672.91 836.35 677.77 839.23C 679.19 841.25 679.51 844.02 680.95 846.06C 682.42 847.4 684.77 847.88 686.61 848.55C 694.15 850.89 701.01 854.86 705.61 861.43C 711.03 868.3 710.35 875.63 714.21 883.83C 717.45 891.97 723.07 898.05 730.7 902.28C 734.01 904.24 738.24 905.31 740.35 908.67C 743.29 912.39 741.13 917.11 742.61 921.32C 743.5 923.62 745.66 925.37 747.39 927.04C 747.22 928.44 747.05 929.83 746.84 931.22C 746.33 933.95 745.95 936.89 744.18 939.14C 741.72 942.33 738.87 945.2 736.35 948.35C 734.35 950.86 732.13 952.92 729.1 954.12C 719.04 958.34 709.05 962.72 699.02 967C 694.54 968.94 690.29 970.22 686.62 973.62C 680.22 979.53 673.89 985.55 667.4 991.37C 660.16 997.2 652.31 1002.27 644.96 1007.96C 640.24 1011.81 636.42 1016.78 632.08 1021.08C 627.91 1025.18 625.27 1030.43 623.72 1036.01C 622.91 1040.88 623.75 1046.11 624.06 1051.01C 624.49 1057.4 626.67 1062.57 624.83 1068.9C 623.29 1074.39 622.96 1079.46 620.05 1084.45C 616.45 1082.87 612.67 1082.1 608.83 1081.33C 586.64 1076.45 564.51 1071.27 542.27 1066.61C 536.95 1065.49 531.76 1064.08 526.32 1063.59C 526.78 1060.2 527.18 1056.93 528.84 1053.88C 534.83 1042.4 540.25 1030.65 546.11 1019.11C 551.21 1009.86 553.14 998.87 556.75 988.8C 559.83 980.81 558.8 973.35 559.3 965C 559.55 955.11 559.56 945.1 559.3 935.21C 561.34 933.51 564.06 931.71 565.24 929.29C 568.86 921.4 571.24 912.87 575.18 905.14C 579.82 898.38 585.24 892.12 590.11 885.52C 596.79 886.33 603.44 887.42 610.11 888.28C 613.05 883.8 615.91 879.26 618.71 874.69C 621.47 870.2 622.76 865.49 624.63 860.62C 626.07 856.71 627.71 853.22 628.21 849.03C 629.05 841.58 628.86 833.69 630.28 826.13C 631.01 822.35 631.62 818.54 632.47 814.79C 633.54 810.14 635.98 806.43 638.45 802.44z"  />

        <path
                stroke="none"
                fill="#FFFFBE"
                fill-rule="nonzero"
                data-name="KAR HAY Subdivision"
                d="M320.04 844.2C 323.17 844.14 325.8 846.09 328.43 847.54C 334.14 850.95 340.05 853.99 345.93 857.1C 351.68 860.18 356.74 864.42 362.44 867.55C 367.15 869.38 372.81 868.98 377.8 869.67C 382.86 870.37 389.17 869.77 393.6 872.39C 396.6 874.04 399.62 875.7 402.49 877.57C 405.44 879.54 406.87 882.46 408.49 885.5C 407.38 888.51 406.04 891.49 406.46 894.77C 406.95 898.37 407.62 902.05 408.79 905.49C 410.33 908.21 413.39 910.21 415.66 912.33C 420.31 916.16 423.9 920.81 427.79 925.35C 427.49 925.8 427.19 926.24 426.89 926.69C 421.65 928.46 421.5 934.4 417.24 938.23C 411.27 943.58 405.97 950.26 399.05 954.08C 395.92 955.94 392.81 957.81 389.69 959.68C 381.06 964.63 373.35 971.36 365.22 977.22C 357.65 982.48 352.37 990.29 346 997.01C 344.91 998.08 343.69 998.99 342.45 999.86C 328.01 990.37 312.77 982.08 298.21 972.77C 284.15 963.51 270.04 954.31 256.01 944.99C 248.19 939.75 240.1 935.16 232.74 929.24C 230.46 927.62 227.98 925.24 225.05 925.26C 211.7 924.86 198.34 924.34 185 923.71C 178.76 923.7 172.68 923.37 166.5 922.54C 166.52 919.61 166.67 916.89 168.32 914.35C 172.93 906.92 177.32 899.36 181.92 891.93C 183.54 889.34 184.72 886.64 185.63 883.73C 186.43 881.9 186.36 880.07 188.39 879.2C 190.68 880.79 192.98 882.33 195.51 883.52C 201.38 886.33 207.08 889.45 213.13 891.9C 219.15 894.32 224.74 897.32 231.1 898.84C 233.62 890.36 235.47 881.63 238.33 873.27C 242.32 864.3 247.61 855.91 251.59 846.93C 252.71 848.77 253.82 850.62 254.92 852.47C 259.62 852.33 264.32 852.38 269.01 852.16C 273.48 851.94 277.59 850.79 281.92 849.81C 287.91 848.43 293.92 847.15 299.91 845.77C 306.35 844.15 313.41 844.28 320.04 844.2z"  />

        <path
                stroke="none"
                fill="#DE9E66"
                fill-rule="nonzero"
                data-active="true"
                data-name="WINA Subdivision"
                d="M435.8 868.79C 439.37 869.41 442.75 870.61 446.22 871.67C 451.32 873.26 456.4 874.62 461.36 876.64C 479.59 884.08 497.82 891.55 516.08 898.93C 518.82 900.04 521.36 901.51 523.77 903.22C 529.83 907.5 535.94 911.71 542.04 915.93C 545.48 918.35 548.93 920.1 551.27 923.73C 553.83 927.66 556.17 931.67 559.3 935.21C 559.56 945.1 559.55 955.11 559.3 965C 558.8 973.35 559.83 980.81 556.75 988.8C 553.14 998.87 551.21 1009.86 546.11 1019.11C 540.25 1030.65 534.83 1042.4 528.84 1053.88C 527.18 1056.93 526.78 1060.2 526.32 1063.59C 518.73 1062.91 512.25 1059.7 504.44 1060.54C 502.19 1053.49 499.88 1046.44 497.44 1039.45C 492.71 1027.45 487.09 1015.76 482.14 1003.85C 478.76 995.49 474.25 987.78 470.36 979.64C 466.97 973.25 464.79 967 460.26 961.76C 451.92 951.77 444.23 941.1 435.79 931.17C 433.52 928.89 429.76 928.05 426.89 926.69C 427.19 926.24 427.49 925.8 427.79 925.35C 423.9 920.81 420.31 916.16 415.66 912.33C 413.39 910.21 410.33 908.21 408.79 905.49C 407.62 902.05 406.95 898.37 406.46 894.77C 406.04 891.49 407.38 888.51 408.49 885.5C 412.21 885.62 414.53 884.66 417.48 882.48C 423.6 877.88 430.04 873.83 435.8 868.79z"  />

        <path
                stroke="none"
                fill="#FFBEBE"
                fill-rule="nonzero"
                data-name="TCHATIBALI Subdivision"
                d="M166.5 922.54C 172.68 923.37 178.76 923.7 185 923.71C 198.34 924.34 211.7 924.86 225.05 925.26C 227.98 925.24 230.46 927.62 232.74 929.24C 240.1 935.16 248.19 939.75 256.01 944.99C 270.04 954.31 284.15 963.51 298.21 972.77C 312.77 982.08 328.01 990.37 342.45 999.86C 335.55 1003.77 335 1011.64 327.98 1014.97C 321.63 1018.05 316.32 1022.49 311.27 1027.34C 307.13 1033.24 304.74 1040.89 303.7 1047.97C 300.85 1060.39 301.63 1073.49 301.5 1086.31C 294.67 1086.29 287.83 1086.48 281 1086.49C 277.26 1086.52 274 1085.88 270.54 1084.5C 260.89 1080.73 251.13 1077.25 241.49 1073.46C 239.1 1072.62 236.58 1071.51 234.01 1072.11C 230.68 1072.77 227.46 1074.16 224.25 1075.25C 183.28 1089.27 142.17 1102.93 101.22 1117L101.22 1117L86.86 1117C 94.59 1100.6 101.95 1084 109.49 1067.51C 110.73 1064.88 112.45 1062.57 114.37 1060.4C 120.52 1053.52 126.44 1046.44 132.59 1039.56C 135.05 1036.84 137.06 1033.96 138.7 1030.68C 146.06 1016.09 153.56 1001.57 161.1 987.07C 163.02 983.55 163.08 979.9 163.31 975.99C 164.22 958.18 165.85 940.37 166.5 922.54z"  />

        <path
                stroke="none"
                fill="#BEFFE8"
                fill-rule="nonzero"
                data-name="DATCHEKA Subdivision"
                d="M426.89 926.69C 429.76 928.05 433.52 928.89 435.79 931.17C 444.23 941.1 451.92 951.77 460.26 961.76C 464.79 967 466.97 973.25 470.36 979.64C 474.25 987.78 478.76 995.49 482.14 1003.85C 487.09 1015.76 492.71 1027.45 497.44 1039.45C 499.88 1046.44 502.19 1053.49 504.44 1060.54C 498.83 1060.98 493.24 1061.83 487.68 1062.68C 484.96 1063.07 482.05 1063.8 479.3 1063.58C 477.13 1062.2 475.42 1059.96 473.68 1058.08C 465.22 1059.66 456.86 1061.75 448.42 1063.45C 445.83 1063.96 443.54 1063.8 441.02 1063.01C 434.45 1060.96 427.99 1058.51 421.37 1056.59C 417.62 1055.49 414.34 1056.54 410.77 1057.63C 402.42 1060.31 393.93 1062.73 385.66 1065.62C 383.16 1066.61 380.87 1067.17 379.95 1070.03C 378.25 1075.26 379.34 1081.8 375.64 1086.67C 373.4 1088.82 369.91 1089.84 367.13 1091.16C 357.68 1095.4 348.17 1099.51 338.79 1103.88C 337.08 1104.57 335.17 1105.5 333.3 1105.55C 330.14 1104.12 327.47 1101.36 324.74 1099.23C 320.12 1095.54 315.55 1091.75 310.89 1088.11C 308.2 1085.82 304.83 1086.5 301.5 1086.31C 301.63 1073.49 300.85 1060.39 303.7 1047.97C 304.74 1040.89 307.13 1033.24 311.27 1027.34C 316.32 1022.49 321.63 1018.05 327.98 1014.97C 335 1011.64 335.55 1003.77 342.45 999.86C 343.69 998.99 344.91 998.08 346 997.01C 352.37 990.29 357.65 982.48 365.22 977.22C 373.35 971.36 381.06 964.63 389.69 959.68C 392.81 957.81 395.92 955.94 399.05 954.08C 405.97 950.26 411.27 943.58 417.24 938.23C 421.5 934.4 421.65 928.46 426.89 926.69z"  />

        <path
                stroke="none"
                fill="#C29ED7"
                fill-rule="nonzero"
                data-active="true"
                data-name="GOBO Subdivision"
                d="M746.84 931.22C 749.35 934.47 752.77 936.58 755.61 939.44C 758.02 943.34 756.53 949.26 758.69 953.34C 759.75 955.12 761.69 955.26 763.44 954.43C 766.93 952.49 769.39 948.54 772.99 946.9C 776.43 945.61 780.86 947.19 783.56 949.46C 787.72 953.15 791.03 958.77 795.81 962.18C 798.2 963.88 801.11 964.79 803.46 966.53C 805.41 969.64 806.06 974.48 808.61 977.4C 810.18 979.39 813.72 979.36 816.01 979.31C 820.14 979.18 824.19 976.18 828.02 977.91C 831.97 979.45 836.04 982.01 838.8 985.26C 840.74 989.6 840.08 996.28 845.1 998.99C 849.68 999.93 855.18 995.84 859.88 997.11C 866.39 998.82 871.14 1003.84 876.81 1007.18C 884.58 1011.79 892.94 1015.59 900.58 1020.44C 903 1022.02 904.66 1024.3 906.9 1026.05C 909.7 1027.95 913.45 1028.76 916.15 1030.83C 918.89 1033.03 920.14 1036.97 922.63 1039.3C 925.55 1041.62 929.12 1043 932.04 1045.38C 931.61 1047.1 929.29 1047.23 927.86 1047.77C 920.62 1049.56 913.41 1051.45 906.18 1053.26C 900.79 1054.58 896.09 1057.47 890.63 1058.59C 878.62 1061.32 866.9 1065.04 854.94 1067.9C 834.84 1073.03 814.78 1078.33 794.74 1083.66C 789.72 1085.03 784.8 1086.04 779.96 1087.99C 773.4 1090.77 766.18 1091.46 759.02 1093.13C 729.71 1098.81 700.3 1104.14 671 1109.83C 666.96 1110.92 664.35 1108.76 660.96 1107.06C 649.23 1100.74 637.39 1094.62 625.58 1088.45C 623.52 1087.38 621.73 1086.05 620.05 1084.45C 622.96 1079.46 623.29 1074.39 624.83 1068.9C 626.67 1062.57 624.49 1057.4 624.06 1051.01C 623.75 1046.11 622.91 1040.88 623.72 1036.01C 625.27 1030.43 627.91 1025.18 632.08 1021.08C 636.42 1016.78 640.24 1011.81 644.96 1007.96C 652.31 1002.27 660.16 997.2 667.4 991.37C 673.89 985.55 680.22 979.53 686.62 973.62C 690.29 970.22 694.54 968.94 699.02 967C 709.05 962.72 719.04 958.34 729.1 954.12C 732.13 952.92 734.35 950.86 736.35 948.35C 738.87 945.2 741.72 942.33 744.18 939.14C 745.95 936.89 746.33 933.95 746.84 931.22z"  />

</svg>